<svg xmlns="http://www.w3.org/2000/svg" width="32" height="32" viewBox="0 -0.5 16 16" shape-rendering="crispEdges">
<path stroke="#223d4d" d="M6 1h4M4 2h2M10 2h2M3 3h1M12 3h1M2 4h1M13 4h1M2 5h1M13 5h1M1 6h1M14 6h1M1 7h1M14 7h1M1 8h1M14 8h1M1 9h1M14 9h1M2 10h1M13 10h1M2 11h1M13 11h1M3 12h1M12 12h1M4 13h2M10 13h2M6 14h4" />
<path stroke="#cccbd2" d="M6 2h1M9 2h1M4 3h1M11 3h1M3 4h1M12 4h1M2 6h1M13 6h1M2 7h1M13 7h1M2 8h1M13 8h1M2 9h2M12 9h2M3 10h2M11 10h2M3 11h2M11 11h2M4 12h2M10 12h2M6 13h4" />
<path stroke="#e8e8e8" d="M7 2h2M5 3h6M4 4h8M3 5h2M7 5h6M3 6h2M6 6h7M3 7h3M10 7h3M3 8h2M7 8h1M11 8h2M4 9h1M11 9h1" />
<path stroke="#ffffff" d="M5 5h2M5 6h1" />
<path stroke="#9dbad8" d="M6 7h1M9 7h1M5 8h1M10 8h1M6 9h1M5 11h1M10 11h1M6 12h1M9 12h1" />
<path stroke="#4f7799" d="M7 7h2M6 8h1M9 8h1M5 9h1M7 9h1M10 9h1" />
<path stroke="#6083a5" d="M8 8h1M9 9h1M6 10h1M9 10h1M7 11h2" />
<path stroke="#000000" d="M8 9h1M7 10h2" />
<path stroke="#395b77" d="M5 10h1M10 10h1M6 11h1M9 11h1M7 12h2" />
</svg>