<svg xmlns="http://www.w3.org/2000/svg" width="32" height="32" viewBox="0 -0.5 16 16" shape-rendering="crispEdges">
<path stroke="#d64c54" d="M6 0h1M6 1h3M2 2h1M7 2h3M2 3h2M6 3h2M9 3h2M2 4h2M6 4h2M10 4h2M3 5h4M11 5h1M3 6h1M11 6h2M2 7h2M12 7h1M2 8h1M12 8h2M2 9h1M13 9h1M2 10h1M13 10h1M2 11h1M13 11h1M3 12h1M13 12h1M3 13h1M12 13h1M4 14h2M11 14h1M6 15h5" />
<path stroke="#f36f49" d="M8 3h1M8 4h2M7 5h4M4 6h5M10 6h1M4 7h1M6 7h1M10 7h2M3 8h2M11 8h1M3 9h2M11 9h2M3 10h2M12 10h1M3 11h1M12 11h1M12 12h1M11 13h1" />
<path stroke="#f3a461" d="M9 6h1M5 7h1M7 7h3M5 8h4M10 8h1M6 9h1M9 9h2M5 10h1M10 10h2M4 11h2M11 11h1M4 12h1M11 12h1M4 13h1M10 13h1M10 14h1" />
<path stroke="#faf28e" d="M9 8h1M5 9h1M7 9h2M6 10h4M6 11h5M5 12h6M5 13h5M6 14h4" />
</svg>