<svg xmlns="http://www.w3.org/2000/svg" width="32" height="32" viewBox="0 -0.5 16 16" shape-rendering="crispEdges">
<path stroke="#000000" d="M2 1h4M9 1h4M1 2h1M6 2h1M8 2h1M13 2h1M0 3h1M7 3h1M14 3h1M0 4h1M14 4h1M0 5h1M14 5h1M0 6h1M14 6h1M0 7h1M14 7h1M1 8h1M13 8h1M2 9h1M12 9h1M3 10h1M11 10h1M4 11h1M10 11h1M5 12h1M9 12h1M6 13h1M8 13h1M7 14h1" />
<path stroke="#7333e0" d="M2 2h4M9 2h2M1 3h2M5 3h2M8 3h5M1 4h1M3 4h10M1 5h12M1 6h12M1 7h12M2 8h10M3 9h8M4 10h6M5 11h4M6 12h2" />
<path stroke="#50239c" d="M11 2h2M13 3h1M13 4h1M13 5h1M13 6h1M13 7h1M12 8h1M11 9h1M10 10h1M9 11h1M8 12h1M7 13h1" />
<path stroke="#9d70e9" d="M3 3h2M2 4h1" />
</svg>