<svg xmlns="http://www.w3.org/2000/svg" width="32" height="32" shape-rendering="crispEdges" viewBox="0 -0.5 16 16"><path stroke="#264c1e" d="M7 1h2M2 2h2m2 0h1m2 0h1m2 0h2M1 4h3m8 0h3M0 5h1m14 0h1M7 6h2M1 7h1m4 0h1m2 0h1m4 0h1M0 8h1m5 0h1m2 0h1m5 0h1M2 9h2m8 0h2M1 10h1m12 0h1M0 11h1m4 0h1m4 0h1m4 0h1M0 12h1m4 0h1m4 0h1m4 0h1M6 13h1m2 0h1m-4 1h1m2 0h1m-3 1h2"/><path stroke="#193314" d="M4 2h1m6 0h1M1 3h1m3 0h1m4 0h1m3 0h1M4 4h2m4 0h2M6 5h1m2 0h1M0 6h1m14 0h1M2 7h1m10 0h1M3 8h3m1 0h2m1 0h3M0 9h1m5 0h1m2 0h1m5 0h1M5 10h1m4 0h1m-7 2h1m6 0h1M1 13h3m8 0h3M4 14h2m4 0h2"/><path stroke="#49a867" d="M7 2h2M2 3h2m2 0h1m2 0h1m2 0h2M6 4h4M4 5h1m6 0h1M1 6h3m8 0h3M3 10h1m8 0h1M2 11h2m8 0h2M2 12h1m3 0h1m2 0h1m3 0h1m-7 1h2"/><path stroke="#498f7b" d="M4 3h1m6 0h1M5 5h1m1 0h2m1 0h1M4 6h1m1 0h1m2 0h1m1 0h1M3 7h1m8 0h1M1 8h1m12 0h1M1 9h1m2 0h1m6 0h1m2 0h1m-9 1h1m2 0h1m-9 1h1m4 0h1m2 0h1m4 0h1m-8 1h2"/><path stroke="#74c857" d="M7 3h2M1 5h3m8 0h3M2 10h1m10 0h1M1 12h1m12 0h1m-8 2h2"/><path stroke="#417579" d="M5 6h1m4 0h1M4 7h2m1 0h2m1 0h2M2 8h1m10 0h1M5 9h1m1 0h2m1 0h1m-7 1h1m2 0h2m2 0h1m-8 1h1m2 0h2m2 0h1m-9 1h1m8 0h1m-9 1h2m4 0h2"/></svg>