<svg xmlns="http://www.w3.org/2000/svg" width="32" height="32" viewBox="0 -0.5 16 16" shape-rendering="crispEdges">
<path stroke="#264c1e" d="M7 0h2M6 1h1M9 1h1M1 2h2M5 2h1M10 2h1M0 3h1M3 3h1M5 3h1M10 3h1M0 4h1M3 4h1M13 5h2M12 6h1M15 6h1M12 7h1M15 7h1" />
<path stroke="#74c857" d="M7 1h2M6 2h4M1 3h2M6 3h4M1 4h2M7 4h2M13 6h2M13 7h2" />
<path stroke="#193314" d="M5 4h1M10 4h1M0 5h1M3 5h1M5 5h1M10 5h1M0 6h1M4 6h2M10 6h1M0 7h1M10 7h1M1 8h1M10 8h1M12 8h1M15 8h1M2 9h3M10 9h2M15 9h1M5 10h1M15 10h1M5 11h1M14 11h1M5 12h1M11 12h3M5 13h1M10 13h1M5 14h1M10 14h1" />
<path stroke="#498f7b" d="M6 4h1M9 4h1M9 5h1M3 6h1M9 6h1M1 7h1M9 7h1M3 8h2M5 9h1M12 9h1M6 10h1M14 10h1M6 11h1M11 11h2M6 12h1M10 12h1M6 13h1M9 13h1M7 14h2" />
<path stroke="#49a867" d="M1 5h2M7 5h2M1 6h2M7 6h2M2 7h7M5 8h4M13 8h2M6 9h3M13 9h2M7 10h7M7 11h4M7 12h3M7 13h2" />
<path stroke="#417579" d="M6 5h1M6 6h1M2 8h1M9 8h1M9 9h1M13 11h1M6 14h1M9 14h1M6 15h4" />
</svg>