<svg xmlns="http://www.w3.org/2000/svg" width="32" height="32" shape-rendering="crispEdges" viewBox="0 -0.5 16 16"><path stroke="#264c1e" d="M7 0h2M6 1h1m2 0h1M1 2h2m2 0h1m4 0h1M0 3h1m2 0h1m1 0h1m4 0h1M0 4h1m2 0h1m9 1h2m-3 1h1m2 0h1m-4 1h1m2 0h1"/><path stroke="#74c857" d="M7 1h2M6 2h4M1 3h2m3 0h4M1 4h2m4 0h2m4 2h2m-2 1h2"/><path stroke="#193314" d="M5 4h1m4 0h1M0 5h1m2 0h1m1 0h1m4 0h1M0 6h1m3 0h2m4 0h1M0 7h1m9 0h1M1 8h1m8 0h1m1 0h1m2 0h1M2 9h3m5 0h2m3 0h1M5 10h1m9 0h1M5 11h1m8 0h1M5 12h1m5 0h3m-9 1h1m4 0h1m-6 1h1m4 0h1"/><path stroke="#498f7b" d="M6 4h1m2 0h1M9 5h1M3 6h1m5 0h1M1 7h1m7 0h1M3 8h2m0 1h1m6 0h1m-7 1h1m7 0h1m-9 1h1m4 0h2m-7 1h1m3 0h1m-5 1h1m2 0h1m-3 1h2"/><path stroke="#49a867" d="M1 5h2m4 0h2M1 6h2m4 0h2M2 7h7M5 8h4m4 0h2M6 9h3m4 0h2m-8 1h7m-7 1h4m-4 1h3m-3 1h2"/><path stroke="#417579" d="M6 5h1M6 6h1M2 8h1m6 0h1M9 9h1m3 2h1m-8 3h1m2 0h1m-4 1h4"/></svg>