<svg xmlns="http://www.w3.org/2000/svg" width="32" height="32" shape-rendering="crispEdges" viewBox="0 -0.5 16 16"><path stroke="#264c1e" d="M5 3h5m2 2h1M3 6h1m8 0h1"/><path stroke="#ff4cb5" d="M10 3h1M4 4h1m6 0h1M5 5h1m2 1h1m0 1h1"/><path stroke="#74c857" d="M5 4h4M6 5h4m1 0h1M5 6h3m1 0h3M5 7h2m3 0h1"/><path stroke="#ed008c" d="M9 4h1M3 5h1m6 0h1M4 6h1m2 1h1m0 1h1"/><path stroke="#ff7fca" d="M10 4h1M4 5h1m3 2h1"/><path stroke="#193314" d="M3 7h1m8 0h1M3 8h1m8 0h1M3 9h1m8 0h1m-9 1h1m6 0h1m-7 1h1m4 0h1m-6 1h1m4 0h1"/><path stroke="#49a867" d="M4 7h1m6 0h1M5 8h3m1 0h2M6 9h4m-3 1h2m-2 1h2"/><path stroke="#498f7b" d="M4 8h1m6 0h1M4 9h2m4 0h2m-6 1h1m2 0h1m-4 1h1m2 0h1m-3 1h2"/><path stroke="#417579" d="M5 10h1m4 0h1m-5 2h1m2 0h1m-4 1h4"/></svg>