<svg xmlns="http://www.w3.org/2000/svg" width="32" height="32" viewBox="0 -0.5 16 16" shape-rendering="crispEdges">
<path stroke="#264c1e" d="M5 3h5M12 5h1M3 6h1M12 6h1" />
<path stroke="#ff4cb5" d="M10 3h1M4 4h1M11 4h1M5 5h1M8 6h1M9 7h1" />
<path stroke="#74c857" d="M5 4h4M6 5h4M11 5h1M5 6h3M9 6h3M5 7h2M10 7h1" />
<path stroke="#ed008c" d="M9 4h1M3 5h1M10 5h1M4 6h1M7 7h1M8 8h1" />
<path stroke="#ff7fca" d="M10 4h1M4 5h1M8 7h1" />
<path stroke="#193314" d="M3 7h1M12 7h1M3 8h1M12 8h1M3 9h1M12 9h1M4 10h1M11 10h1M5 11h1M10 11h1M5 12h1M10 12h1" />
<path stroke="#49a867" d="M4 7h1M11 7h1M5 8h3M9 8h2M6 9h4M7 10h2M7 11h2" />
<path stroke="#498f7b" d="M4 8h1M11 8h1M4 9h2M10 9h2M6 10h1M9 10h1M6 11h1M9 11h1M7 12h2" />
<path stroke="#417579" d="M5 10h1M10 10h1M6 12h1M9 12h1M6 13h4" />
</svg>