<svg xmlns="http://www.w3.org/2000/svg" width="64" height="64" shape-rendering="crispEdges" viewBox="0 -0.5 48 54"><path stroke="#0b262d" d="M21 0h4m-6 1h2m4 0h2M16 2h3m8 0h3M15 3h1m14 0h1M14 4h1m16 0h1M14 5h1m16 0h1M14 6h1m16 0h1M13 7h1m18 0h1M11 8h2m20 0h2M10 9h1m24 0h1M9 10h1m26 0h1M9 11h1m26 0h1M9 12h1m26 0h1M8 13h1m28 0h1M5 14h3m30 0h3M4 15h1m36 0h1M4 16h1m36 0h1M3 17h1m38 0h1M3 18h1m38 0h1M3 19h1m38 0h1M3 20h1m38 0h1M4 21h1m36 0h1M3 22h1m38 0h1M3 23h1m38 0h1M2 24h1m40 0h1M2 25h1m40 0h1M2 26h1m40 0h1M3 27h1m38 0h1M4 28h1m36 0h1M3 29h1m38 0h1M2 30h1m40 0h1M2 31h1m40 0h1M2 32h1m40 0h1M2 33h1m40 0h1M3 34h1m38 0h1M4 35h1m4 0h1m26 0h1m4 0h1M5 36h4m1 0h1m24 0h1m1 0h4m-30 1h1m22 0h1m-23 1h4m14 0h4"/><path stroke="#164a45" d="M21 1h4m-6 1h2m4 0h2M16 3h4m6 0h4M15 4h2m3 0h1m4 0h1m3 0h2M15 5h2m12 0h2M15 6h1m14 0h1M14 7h2m14 0h2M13 8h3m14 0h3M11 9h2m20 0h2m-25 1h2m22 0h2m-26 1h1m24 0h1m-26 1h1m24 0h1M9 13h1m26 0h1M8 14h2m26 0h2M5 15h2m3 0h1m24 0h1m3 0h2M5 16h1m34 0h1M4 17h1m36 0h1M4 18h3m32 0h3M4 19h2m34 0h2M4 20h2m34 0h2M5 21h1m34 0h1M4 22h1m1 0h1m32 0h1m1 0h1M4 23h1m36 0h1M3 24h3m34 0h3M3 25h5m30 0h5M3 26h1m3 0h1m30 0h1m3 0h1M4 27h1m36 0h1M5 28h1m34 0h1M4 29h1m1 0h1m32 0h1m1 0h1M3 30h1m38 0h1M3 31h2m36 0h2M3 32h3m1 0h2m28 0h2m1 0h3M3 33h3m1 0h2m2 0h1m22 0h1m2 0h2m1 0h3M4 34h4m1 0h1m1 0h1m5 0h1m10 0h1m5 0h1m1 0h1m1 0h4M5 35h4m1 0h3m3 0h1m12 0h1m3 0h3m1 0h4m-30 1h6m11 0h2m2 0h3m-23 1h4m1 0h1m5 0h2m3 0h1m1 0h4m-17 1h4m2 0h2m2 0h2m-11 1h6m1 0h3m-9 1h8m7 2h1m-23 1h1m19 0h2m-3 3h1m-19 1h1m7 0h1m-8 1h1"/><path stroke="#22783f" d="M21 2h4m-5 1h6m-9 1h3m1 0h4m1 0h3M17 5h1m1 0h3m2 0h3m1 0h1M16 6h1m2 0h2m4 0h2m2 0h1M16 7h3m2 0h1m2 0h1m2 0h3M16 8h1m1 0h1m2 0h4m2 0h1m1 0h1M15 9h1m2 0h2m2 0h2m2 0h2m2 0h1m-19 1h2m2 0h1m1 0h2m6 0h2m1 0h1m2 0h2m-23 1h3m1 0h2m12 0h6m-24 1h2m20 0h2m-25 1h3m20 0h3m-26 1h4m18 0h4M7 15h3m1 0h1m1 0h2m16 0h4m1 0h3M6 16h5m3 0h2m14 0h3m1 0h6M5 17h2m1 0h2m25 0h2m2 0h2M9 18h1m25 0h1m2 0h1M6 19h2m1 0h2m2 0h1m18 0h1m2 0h5M6 20h8m19 0h7M6 21h3m1 0h3m21 0h2m1 0h3M5 22h1m1 0h1m2 0h1m24 0h1m2 0h1m1 0h1M5 23h3m2 0h1m4 0h1m14 0h1m4 0h2m1 0h3M6 24h3m1 0h1m3 0h1m15 0h2m3 0h5M8 25h4m2 0h1m3 0h2m6 0h2m3 0h2m1 0h4M4 26h3m1 0h2m1 0h4m3 0h2m7 0h3m1 0h4m1 0h2m1 0h3M5 27h5m1 0h4m2 0h2m8 0h7m3 0h4M6 28h3m2 0h5m1 0h2m9 0h6m3 0h3M5 29h1m1 0h2m2 0h2m2 0h4m1 0h1m4 0h1m1 0h4m2 0h2m2 0h2m1 0h1M4 30h5m1 0h2m3 0h7m2 0h7m3 0h2m1 0h5M5 31h7m2 0h2m2 0h2m6 0h2m2 0h2m2 0h7M6 32h1m2 0h3m1 0h2m3 0h2m2 0h2m2 0h2m3 0h2m1 0h3m2 0h1M6 33h1m2 0h2m1 0h4m1 0h12m1 0h4m1 0h2m2 0h1M8 34h1m1 0h1m1 0h5m1 0h1m1 0h6m1 0h1m1 0h5m1 0h1m1 0h1m-25 1h3m1 0h2m2 0h4m2 0h2m1 0h3m-16 1h3m2 0h2m2 0h2m2 0h2m-14 1h5m2 0h3m-7 1h2m2 0h2m-3 1h1m7 1h2m-21 1h1m20 0h1m-23 1h1m20 0h1"/><path stroke="#679c30" d="M18 5h1m3 0h2m3 0h1M17 6h2m2 0h4m2 0h2M19 7h2m1 0h2m1 0h2M17 8h1m1 0h2m4 0h2m1 0h1M13 9h2m1 0h1m3 0h2m2 0h2m3 0h1m1 0h2m-19 1h2m4 0h1m1 0h2m1 0h1m4 0h2m-18 1h1m2 0h4m4 0h4m-16 1h4m2 0h2m4 0h2m2 0h4m-20 1h2m1 0h1m2 0h2m4 0h2m2 0h1m1 0h2m-19 1h1m2 0h1m1 0h2m4 0h2m1 0h1m2 0h1m-20 1h1m2 0h4m8 0h4m-20 1h1m1 0h1m2 0h1m12 0h1M7 17h1m2 0h1m3 0h3m3 0h2m2 0h2m3 0h3m5 0h2M7 18h2m1 0h2m1 0h2m2 0h1m2 0h1m4 0h1m2 0h1m2 0h2m1 0h1m1 0h2M8 19h1m2 0h2m4 0h1m10 0h1m4 0h2m-21 1h1m1 0h1m2 0h1m6 0h1m2 0h1m1 0h2M9 21h1m3 0h8m4 0h7m1 0h1m2 0h1M8 22h2m1 0h1m2 0h2m3 0h1m2 0h2m2 0h1m2 0h2m3 0h1m1 0h2M8 23h2m1 0h1m2 0h1m4 0h1m2 0h2m2 0h1m2 0h1m1 0h1m2 0h1m2 0h1M9 24h1m1 0h3m4 0h10m4 0h3m-23 1h2m3 0h1m2 0h2m2 0h2m2 0h3m2 0h1m-24 1h1m4 0h3m2 0h1m4 0h2m3 0h1m4 0h1m-26 1h1m4 0h2m2 0h2m4 0h2m7 0h3M9 28h2m5 0h1m2 0h2m4 0h3m6 0h3M9 29h2m2 0h2m4 0h1m1 0h1m2 0h1m1 0h1m4 0h2m2 0h2M9 30h1m2 0h3m7 0h2m7 0h3m2 0h1m-25 1h2m2 0h2m2 0h6m2 0h2m2 0h2m-22 1h1m2 0h3m2 0h2m2 0h2m2 0h3m2 0h1m-18 1h1m12 0h1m-11 1h1m6 0h1m-8 1h2m4 0h2m-7 1h2m2 0h2m6 6h1m-20 1h1m0 4h1m7 0h1m-8 1h1"/><path stroke="#9abf44" d="M17 9h1m10 0h1m-12 1h1m3 0h1m2 0h1m3 0h1m-8 1h4m-7 1h1m2 0h4m2 0h1m-11 1h1m3 0h1m2 0h1m3 0h1m-14 1h1m2 0h1m8 0h1m2 0h1m-12 1h2m1 0h2m1 0h2m-15 1h1m4 0h2m1 0h6m1 0h2m4 0h1m-23 1h3m3 0h1m4 0h2m4 0h1m3 0h3m-23 1h1m5 0h2m1 0h1m2 0h1m1 0h2m5 0h1m-20 1h1m3 0h2m1 0h1m2 0h1m1 0h2m3 0h1m-17 1h1m1 0h2m1 0h2m2 0h2m1 0h2m1 0h1m-10 1h4m7 0h1m-21 1h1m3 0h1m1 0h1m1 0h1m4 0h1m1 0h1m3 0h1m1 0h1m-22 1h2m2 0h1m1 0h1m2 0h1m2 0h1m2 0h1m4 0h2m-19 1h1m1 0h1m10 0h1m-14 1h2m5 0h2m-3 1h4m-4 1h4m-4 1h4m-3 1h2m8 12h2m-21 1h1m1 3h1m6 0h1m7 0h2m-18 1h2m6 0h2m5 0h2m-16 1h2m6 0h2m4 0h1m-14 1h1"/><path stroke="#d8d788" d="M17 12h1m10 0h1m-14 1h1m2 0h1m3 0h2m3 0h1m2 0h1m-15 1h1m4 0h4m4 0h1m-9 1h1m2 0h1m-6 1h1m6 0h1m-9 1h2m6 0h2m-13 1h2m5 0h2m5 0h2m-16 1h2m3 0h1m1 0h2m1 0h1m3 0h2m-9 1h2m-11 2h1m3 0h1m3 0h1m2 0h1m3 0h1m3 0h1m-16 1h1m2 0h1m4 0h1m2 0h1m-13 1h1m12 0h1"/><path stroke="#5f253e" d="M16 37h1m12 0h1m-14 1h1m12 0h1m-13 1h1m10 0h1m-11 1h1m8 0h1m-9 1h8m3 0h1"/><path stroke="#140510" d="M15 39h1m14 0h1m-16 1h1m14 0h1m-17 1h1m16 0h1m-18 1h1m16 0h1m-20 2h2m18 0h2m-23 1h1m22 0h1m-24 1h1m5 0h1m10 0h1m5 0h1m-15 1h1m4 0h1"/><path stroke="#7f3748" d="M16 39h1m12 0h1m-14 1h2m10 0h2m-15 1h1m1 0h2m8 0h1m-10 1h4m2 0h3m-9 1h2m6 0h2m-13 1h1m2 0h1m7 0h2m1 0h1m-14 1h2m5 0h1m3 0h3m-14 1h1m4 0h1m2 0h1"/><path stroke="rgba(19,6,17,0.3607843137254902)" d="M31 39h3m-24 1h3m18 0h1m2 0h1M9 41h4m22 0h3M9 42h3m23 0h5m1 0h2M5 43h7m22 0h9M4 44h8m22 0h9M4 45h7m24 0h6M4 46h7m24 0h6m1 0h1M4 47h1m2 0h6m17 0h13M6 48h8m3 0h26M5 49h38M8 50h4m1 0h25m3 0h2M8 51h3m3 0h24M9 52h2m3 0h4m1 0h7m2 0h5m3 0h2m-11 1h4"/><path stroke="#944c4c" d="M16 41h1m11 0h2m-14 1h2m4 0h2m3 0h1m2 0h1m-17 1h1m1 0h2m2 0h1m3 0h2m5 0h1m-16 1h2m1 0h3m2 0h2m2 0h1m-17 1h1m1 0h1m3 0h1m2 0h1m2 0h1m1 0h1m6 0h1m-22 1h2m6 0h1m6 0h1m4 0h2m-17 1h1m1 0h1m8 0h1"/><path stroke="#b16c59" d="M15 42h1m12 0h2m-15 1h1m5 0h3m4 0h3m-17 1h1m7 0h2m6 0h2m-19 1h1m5 0h2m4 0h1m6 0h1m-15 1h2m5 0h2m-9 1h1m7 0h2"/></svg>