<svg xmlns="http://www.w3.org/2000/svg" width="32" height="32" viewBox="0 -0.5 16 16" shape-rendering="crispEdges">
<path stroke="#4c2a0f" d="M6 1h4M5 2h1M10 2h3M4 3h1M13 3h1M3 4h1M13 4h1M3 5h1M13 5h1M2 6h2M14 6h1M1 7h1M14 7h1M0 8h1M15 8h1M0 9h1M15 9h1M0 10h1M15 10h1M0 11h1M15 11h1M0 12h1" />
<path stroke="#ffb97f" d="M6 2h4M5 3h8M4 4h8M5 5h6M7 6h3M13 6h1M2 7h2M12 7h1M1 8h4M11 8h2M2 9h4M9 9h3M4 10h2M9 10h2" />
<path stroke="#ffe899" d="M12 4h1M4 5h1M11 5h1M5 6h2M13 7h1M13 8h1M1 9h1M12 9h1M2 10h2M11 10h1" />
<path stroke="#995e2d" d="M12 5h1M10 6h3M4 7h1M11 7h1M14 8h1M13 9h2M6 10h1M13 10h2M4 11h3M13 11h2M4 12h4M13 12h2M1 13h1M5 13h3M12 13h1M2 14h2M5 14h3" />
<path stroke="#f2a260" d="M4 6h1M5 7h1M5 8h1M1 10h1M8 10h1M7 11h3M8 12h2M8 13h3M8 14h1" />
<path stroke="#cc8851" d="M6 7h5M6 8h5M6 9h3M7 10h1M12 10h1M1 11h3M10 11h3M1 12h3M10 12h3M2 13h3M11 13h1M4 14h1" />
</svg>