<svg xmlns="http://www.w3.org/2000/svg" width="32" height="32" shape-rendering="crispEdges" viewBox="0 -0.5 16 16"><path stroke="#193314" d="M7 3h2M6 4h1m2 0h1M6 5h1m2 0h1M3 6h1m3 0h2m3 0h1M6 7h1m2 0h1M7 8h2M1 9h1m4 0h1m2 0h1m4 0h1M2 10h1m10 0h1M3 11h2m6 0h2m-7 1h1m2 0h1m-3 1h2"/><path stroke="#264c1e" d="M4 4h2m4 0h2M3 5h1m8 0h1M2 7h3m6 0h3M1 8h1m3 0h1m4 0h1m3 0h1M5 10h1m4 0h1m-6 1h1m4 0h1"/><path stroke="#49a867" d="M7 4h2M4 6h1m6 0h1M4 8h1m6 0h1M2 9h1m10 0h1m-7 2h2"/><path stroke="#74c857" d="M4 5h2m4 0h2M7 7h2M2 8h2m8 0h2m-7 2h2"/><path stroke="#498f7b" d="M7 5h2M5 6h2m2 0h2M5 7h1m4 0h1M3 9h2m6 0h2m-7 1h1m2 0h1m-4 1h1m2 0h1m-3 1h2"/><path stroke="#417579" d="M6 8h1m2 0h1M5 9h1m1 0h2m1 0h1m-8 1h2m6 0h2"/></svg>