<svg xmlns="http://www.w3.org/2000/svg" width="32" height="32" viewBox="0 -0.5 16 16" shape-rendering="crispEdges">
<path stroke="#1e2233" d="M6 1h5M5 2h1M11 2h1M4 3h1M12 3h1M4 4h1M12 4h1M4 5h1M13 5h1M2 6h2M14 6h1M1 7h1M14 7h1M0 8h1M15 8h1M0 9h1M15 9h1M0 10h1M15 10h1M0 11h1M15 11h1" />
<path stroke="#686f99" d="M6 2h1M10 2h1M11 3h1M13 6h1M4 7h1M9 7h2M12 7h2M12 8h3M13 9h2M4 10h3M13 10h2M5 11h2M14 11h1M6 12h2M6 13h2" />
<path stroke="#a3a7c2" d="M7 2h3M5 3h6M6 4h6M7 5h6M9 6h3M2 7h2M2 8h4M3 9h2" />
<path stroke="#dfe0e8" d="M5 4h1M6 5h1M7 6h2M12 6h1M1 8h1M2 9h1M5 9h1" />
<path stroke="#333b66" d="M5 5h1M5 6h2M6 7h2M6 8h2M1 9h1M6 9h1M1 10h2M2 11h1" />
<path stroke="#35384c" d="M4 6h1M5 7h1M1 11h1M0 12h2M13 12h2M2 13h3M10 13h3M5 14h5" />
<path stroke="#404973" d="M8 7h1M11 7h1M8 8h4M7 9h6M3 10h1M7 10h6M3 11h2M7 11h7M2 12h4M8 12h5M5 13h1M8 13h2" />
</svg>