<svg xmlns="http://www.w3.org/2000/svg" width="32" height="32" shape-rendering="crispEdges" viewBox="0 -0.5 16 16"><path stroke="#1e2233" d="M6 1h5M5 2h1m5 0h1M4 3h1m7 0h1M4 4h1m7 0h1M4 5h1m8 0h1M2 6h2m10 0h1M1 7h1m12 0h1M0 8h1m14 0h1M0 9h1m14 0h1M0 10h1m14 0h1M0 11h1m14 0h1"/><path stroke="#686f99" d="M6 2h1m3 0h1m0 1h1m1 3h1M4 7h1m4 0h2m1 0h2m-2 1h3m-2 1h2M4 10h3m6 0h2M5 11h2m7 0h1m-9 1h2m-2 1h2"/><path stroke="#a3a7c2" d="M7 2h3M5 3h6M6 4h6M7 5h6M9 6h3M2 7h2M2 8h4M3 9h2"/><path stroke="#dfe0e8" d="M5 4h1m0 1h1m0 1h2m3 0h1M1 8h1m0 1h1m2 0h1"/><path stroke="#333b66" d="M5 5h1M5 6h2M6 7h2M6 8h2M1 9h1m4 0h1m-6 1h2m-1 1h1"/><path stroke="#35384c" d="M4 6h1m0 1h1m-5 4h1m-2 1h2m11 0h2M2 13h3m5 0h3m-8 1h5"/><path stroke="#404973" d="M8 7h1m2 0h1M8 8h4M7 9h6M3 10h1m3 0h6M3 11h2m2 0h7M2 12h4m2 0h5m-8 1h1m2 0h2"/></svg>