<svg xmlns="http://www.w3.org/2000/svg" width="64" height="64" shape-rendering="crispEdges" viewBox="0 -0.5 55 60"><path stroke="#0b262d" d="M15 11h3m5 0h3m2 0h4m-17 1h1m2 0h3m1 0h1m3 0h2m4 0h6m-23 1h1m5 0h2m8 0h2m5 0h1M9 14h6m24 0h3M9 15h1m32 0h1M9 16h1m33 0h1M8 17h3m32 0h5M6 18h2m39 0h1M5 19h1m42 0h1M4 20h1m44 0h1M3 21h1m46 0h1M3 22h1m46 0h1M4 23h1m44 0h3M3 24h1m47 0h2M2 25h1m49 0h1M2 26h1m49 0h1M2 27h1m47 0h1m1 0h1M3 28h1m46 0h2M3 29h1m46 0h1M2 30h1m48 0h2M1 31h1m50 0h1M1 32h1m50 0h1M1 33h5m42 0h2m2 0h1M4 34h1m44 0h3M4 35h1m44 0h1M5 36h1m43 0h1M4 37h1m44 0h2M3 38h1m40 0h1m5 0h1M3 39h1m2 0h3m35 0h4m2 0h1M4 40h2m3 0h1m3 0h1m26 0h1m3 0h1m3 0h3M8 41h1m3 0h2m26 0h2m2 0h1M8 42h1m2 0h1m2 0h1m25 0h1m1 0h1m1 0h1M9 43h2m4 0h1m22 0h2m3 0h2m-10 1h3"/><path stroke="#164a45" d="M16 12h2m5 0h3m2 0h4m-16 1h5m2 0h8m2 0h5m-23 1h9m6 0h9m-29 1h6m22 0h4m-32 1h4m26 0h3m-32 1h2m28 0h2M8 18h4m30 0h5M6 19h5m32 0h5M5 20h2m2 0h1m34 0h1m3 0h1M4 21h2m2 0h2m34 0h2m3 0h1M4 22h1m1 0h3m36 0h3m1 0h1M5 23h3m38 0h3M4 24h2m1 0h1m38 0h1m1 0h3M3 25h2m2 0h1m38 0h1m2 0h3M3 26h2m2 0h1m3 0h1m30 0h1m3 0h1m2 0h3M3 27h2m1 0h2m1 0h3m30 0h3m1 0h2m1 0h1m1 0h1M4 28h6m1 0h1m2 0h1m24 0h1m2 0h1m1 0h6M4 29h1m2 0h1m3 0h4m24 0h4m3 0h1m2 0h1M3 30h2m1 0h1m3 0h5m2 0h1m18 0h1m2 0h5m3 0h1m1 0h2M2 31h3m1 0h1m3 0h3m1 0h1m2 0h1m18 0h1m2 0h1m1 0h3m3 0h1m1 0h3M2 32h5m2 0h3m2 0h4m1 0h1m14 0h1m1 0h4m2 0h3m2 0h5M6 33h2m1 0h3m2 0h2m1 0h4m12 0h4m1 0h2m2 0h3m1 0h2m2 0h2M5 34h4m1 0h1m3 0h2m1 0h4m2 0h2m4 0h2m2 0h4m1 0h2m3 0h1m1 0h4M5 35h3m2 0h1m2 0h2m2 0h1m1 0h2m2 0h2m4 0h2m2 0h2m1 0h1m2 0h2m2 0h1m2 0h3M6 36h2m2 0h1m1 0h3m2 0h1m2 0h1m1 0h4m2 0h4m1 0h1m2 0h1m2 0h3m1 0h1m2 0h3M5 37h6m1 0h2m3 0h1m2 0h3m1 0h6m1 0h3m2 0h1m3 0h2m1 0h6M4 38h10m2 0h1m1 0h1m1 0h2m2 0h2m2 0h2m2 0h2m1 0h1m1 0h1m2 0h4m1 0h5M4 39h2m3 0h7m2 0h2m1 0h1m2 0h1m4 0h1m2 0h1m1 0h2m2 0h6m4 0h2m-40 1h3m1 0h2m1 0h2m2 0h1m1 0h3m2 0h3m1 0h1m2 0h2m1 0h2m1 0h3M9 41h3m2 0h5m1 0h6m2 0h6m1 0h5m2 0h2M9 42h2m4 0h5m1 0h12m1 0h6m3 0h1m-26 1h1m2 0h5m2 0h4m3 0h3m-16 1h3m4 0h3"/><path stroke="#22783f" d="M24 14h6m-14 1h2m2 0h14m2 0h2m-24 1h4m3 0h1m3 0h1m2 0h1m3 0h1m3 0h4m-27 1h2m2 0h3m1 0h2m2 0h1m2 0h1m2 0h2m1 0h3m2 0h2m-29 1h5m2 0h3m1 0h1m1 0h4m1 0h1m1 0h3m2 0h5m-31 1h1m2 0h1m1 0h2m2 0h2m2 0h1m4 0h1m2 0h2m2 0h2m1 0h1m2 0h1M7 20h2m1 0h1m2 0h2m2 0h2m16 0h2m2 0h2m2 0h1m1 0h3M6 21h1m3 0h7m20 0h7m3 0h2M5 22h1m3 0h4m2 0h2m2 0h1m14 0h1m2 0h2m2 0h4m3 0h1M8 23h1m2 0h1m2 0h2m2 0h2m14 0h2m2 0h2m2 0h1m2 0h1M6 24h1m3 0h2m4 0h4m14 0h4m4 0h2m3 0h1M5 25h1m2 0h6m2 0h1m1 0h1m2 0h2m8 0h2m2 0h1m1 0h1m2 0h6m2 0h1M5 26h2m1 0h3m2 0h3m2 0h4m2 0h1m4 0h1m2 0h4m2 0h3m2 0h3m1 0h2M5 27h1m2 0h1m4 0h2m3 0h1m2 0h1m1 0h3m2 0h3m1 0h1m2 0h1m3 0h2m4 0h1m2 0h1m-39 1h1m1 0h2m3 0h1m3 0h12m3 0h1m3 0h2m1 0h1M5 29h2m1 0h1m6 0h3m2 0h2m2 0h2m2 0h2m2 0h2m2 0h3m6 0h1m1 0h2M5 30h1m1 0h3m5 0h2m1 0h3m3 0h2m2 0h2m3 0h3m1 0h2m5 0h3m1 0h1M5 31h1m1 0h3m3 0h1m1 0h2m1 0h3m2 0h2m4 0h2m2 0h3m1 0h2m1 0h1m3 0h3m1 0h1M7 32h2m9 0h1m1 0h6m2 0h6m1 0h1m9 0h2M8 33h1m4 0h1m2 0h1m4 0h5m2 0h5m4 0h1m2 0h1m4 0h1M9 34h1m1 0h3m2 0h1m4 0h1m3 0h4m3 0h1m4 0h1m2 0h3m1 0h1M8 35h2m1 0h2m2 0h2m1 0h1m6 0h4m6 0h1m1 0h2m2 0h2m1 0h2M8 36h2m1 0h1m3 0h2m2 0h1m6 0h2m6 0h1m2 0h2m3 0h1m1 0h2m-35 1h1m2 0h3m1 0h2m3 0h1m6 0h1m3 0h2m1 0h3m2 0h1m-29 1h2m1 0h1m1 0h1m2 0h2m2 0h2m2 0h2m2 0h1m1 0h1m1 0h2m-24 1h2m2 0h1m1 0h2m1 0h4m1 0h2m1 0h1m2 0h2m-22 1h1m2 0h2m1 0h1m3 0h2m3 0h1m1 0h2m2 0h1m-19 1h1m6 0h2m6 0h1"/><path stroke="#679c30" d="M18 15h2m14 0h2m-18 1h3m1 0h3m1 0h2m1 0h3m1 0h3m-21 1h2m3 0h1m2 0h2m1 0h2m1 0h2m2 0h1m3 0h2m-22 1h2m3 0h1m1 0h1m4 0h1m1 0h1m3 0h2m-24 1h1m4 0h2m2 0h2m2 0h2m2 0h2m2 0h2m4 0h2m-30 1h1m6 0h4m1 0h1m4 0h1m1 0h4m3 0h1m2 0h2M7 21h1m9 0h9m2 0h7m1 0h1m9 0h1m-33 1h1m2 0h2m1 0h2m2 0h6m2 0h2m1 0h2m3 0h1M9 23h2m2 0h1m2 0h2m2 0h1m2 0h2m4 0h2m2 0h1m2 0h2m5 0h2M8 24h2m2 0h2m6 0h4m2 0h2m2 0h3m7 0h2m2 0h2M6 25h1m12 0h2m2 0h1m2 0h2m2 0h1m2 0h2m12 0h1m-36 1h1m10 0h1m1 0h4m1 0h1m10 0h1m-30 1h1m2 0h1m1 0h1m8 0h2m8 0h3m2 0h1m-27 1h2m3 0h1m12 0h1m3 0h2M9 29h2m8 0h1m14 0h2m7 0h2m-24 1h2m8 0h2m-12 1h2m2 0h2m1 0h1m2 0h2m-21 1h2m12 0h2m12 0h2m-30 1h1m13 0h2m13 0h1m-20 1h1m8 0h1m-11 1h2m8 0h2m-15 1h1m2 0h1m10 0h1m2 0h1"/><path stroke="#9abf44" d="M12 19h1m2 0h1m9 0h1m2 0h1m9 0h1m-28 1h1m3 0h2m6 0h1m1 0h4m1 0h1m6 0h1m-12 1h2m7 0h1m-23 1h1m8 0h2m6 0h2m7 0h1m-28 1h1m8 0h2m2 0h4m2 0h2m7 0h2m-28 1h2m8 0h2m2 0h2m3 0h1m4 0h2m-26 1h2m1 0h1m6 0h2m2 0h2m6 0h1m1 0h2m-24 1h2m4 0h1m8 0h1m4 0h2m-22 1h1m2 0h2m1 0h1m8 0h1m1 0h2m-17 1h2m14 0h2m-18 1h1m3 0h2m2 0h2m2 0h2m-9 1h1m2 0h2m2 0h1m-4 1h1"/><path stroke="#5f253e" d="M20 42h1m12 0h1m-17 1h1m1 0h2m5 0h2m4 0h3m-18 1h5m3 0h4m3 0h3m-18 1h2m2 0h13m-12 1h4m2 0h3m2 0h1m-10 1h2m7 0h1m-1 1h1m-1 1h2m-4 1h1m-1 1h1m-14 1h1m3 0h1m9 0h1m-15 1h1m1 0h2m6 0h1m4 0h1"/><path stroke="#140510" d="M16 43h1m-1 1h1m-1 1h1m17 0h1m-19 1h1m17 0h1m-19 1h1m17 0h1m-19 1h1m17 0h1m-19 1h1m18 0h1m-21 1h1m19 0h1m-23 1h2m21 0h1m-25 1h1m23 0h1m-26 1h1m25 0h1"/><path stroke="#7f3748" d="M19 45h2m-4 1h5m4 0h2m3 0h2m-14 1h1m2 0h2m2 0h6m-13 1h1m3 0h5m-4 1h1m1 0h1m4 0h1m-14 1h2m12 0h1m1 0h1m-17 1h1m3 0h2m8 0h1m2 0h1m-19 1h1m1 0h1m1 0h1m1 0h1m4 0h2m1 0h1m1 0h1m-17 1h1m1 0h1m2 0h1m4 0h1m4 0h1m1 0h1m1 0h1"/><path stroke="#944c4c" d="M17 47h2m1 0h2m10 0h1m-16 1h1m4 0h1m5 0h1m1 0h3m-14 1h1m3 0h1m1 0h1m1 0h1m2 0h1m1 0h1m-17 1h1m3 0h1m2 0h4m2 0h2m2 0h1m-19 1h1m3 0h1m1 0h1m2 0h2m2 0h3m3 0h1m-22 1h1m6 0h1m4 0h1m1 0h1m2 0h1m4 0h1m-24 1h2m1 0h2m8 0h2m2 0h1m1 0h1m3 0h1"/><path stroke="#b16c59" d="M18 48h1m1 0h2m7 0h1m-13 1h2m1 0h3m5 0h2m-13 1h1m3 0h2m4 0h2m-13 1h2m2 0h1m5 0h2m5 0h1m-20 1h3m7 0h1m1 0h1m7 0h1m-21 1h1m8 0h2m5 0h1"/><path stroke="rgba(19,6,17,0.3607843137254902)" d="M10 49h6m20 0h4M9 50h6m21 0h7M7 51h6m24 0h8M4 52h8m25 0h8M3 53h8m27 0h8M3 54h2m2 0h40M6 55h35m1 0h5M5 56h36m1 0h5M8 57h4m2 0h24m7 0h2M8 58h3m3 0h4m1 0h7m2 0h5m3 0h2M9 59h2m16 0h4"/></svg>