<svg xmlns="http://www.w3.org/2000/svg" width="32" height="32" viewBox="0 -0.5 16 16" shape-rendering="crispEdges">
<path stroke="#99a1a8" d="M0 0h3M12 0h1M14 0h2M0 1h1M15 1h1M0 2h1M15 2h1M0 3h1M15 4h1M15 5h1M15 8h1M15 9h1M15 11h1M15 12h1M0 13h1M0 14h1M8 14h1M0 15h3M4 15h2M9 15h3M13 15h1" />
<path stroke="#52636d" d="M3 0h1M3 3h1M13 3h1M12 4h1M12 9h1M13 10h1M12 11h1M4 12h1M11 12h1M3 13h1M12 13h1M12 15h1" />
<path stroke="#000000" d="M4 0h8M4 1h8M4 2h8M4 3h8M0 4h12M0 5h12M0 6h12M0 7h12M0 8h12M0 9h12M0 10h12M0 11h12" />
<path stroke="#697f88" d="M13 0h1M3 1h1M12 1h1M3 2h1M14 3h2M12 5h1M12 6h1M15 6h1M12 7h1M12 8h1M14 10h2M0 12h1M5 12h6M3 14h1M12 14h1M15 14h1M3 15h1M14 15h1" />
<path stroke="#8ea5b2" d="M1 1h2M13 1h2M1 2h2M12 2h3M1 3h2M13 4h2M13 5h2M13 6h2M13 7h3M13 8h2M13 9h2M13 11h2M1 12h2M13 12h2M1 13h2M4 13h8M13 13h3M1 14h2M4 14h4M9 14h3M13 14h2M6 15h3M15 15h1" />
<path stroke="#394451" d="M12 3h1M12 10h1M3 12h1M12 12h1" />
</svg>