<svg xmlns="http://www.w3.org/2000/svg" width="32" height="32" viewBox="0 -0.5 16 16" shape-rendering="crispEdges">
<path stroke="#2f1e45" d="M5 0h5M4 1h1M10 1h1M3 2h1M11 2h1M3 3h1M11 3h1M3 4h1M11 4h1M3 5h1M11 5h1M0 6h3M12 6h4M6 8h3M5 9h1M9 9h1M5 10h1M9 10h1M5 11h1M9 11h1M5 12h1M9 12h1M5 13h1M9 13h1M5 14h1M9 14h1M5 15h1M9 15h1" />
<path stroke="#c38e65" d="M5 1h1M9 1h1M4 2h1M4 3h1M4 4h1M10 4h1M5 5h5M0 7h2M13 7h3" />
<path stroke="#944c4c" d="M6 1h3M5 2h1M9 2h1M5 3h1M9 3h1M6 4h3M5 8h1M14 8h2M7 9h1M12 9h3M0 10h1M8 10h1M15 10h1M0 11h2M8 11h1M6 12h1M8 12h1M6 13h1M8 13h1M7 14h1" />
<path stroke="#b16c59" d="M6 2h3M10 2h1M6 3h3M10 3h1M5 4h1M9 4h1M2 7h1M12 7h1M6 9h1M6 10h2M6 11h2M7 12h1M7 13h1" />
<path stroke="#7f3748" d="M4 5h1M10 5h1M5 6h5M0 8h2M9 8h1M4 9h1M8 9h1M1 10h1M4 10h1M13 10h2M2 11h1M4 11h1M12 11h1M15 11h1M6 14h1M8 14h1M6 15h3" />
<path stroke="#140510" d="M3 6h1M11 6h1M3 7h1M11 7h1M3 8h1M11 8h1M3 9h1M11 9h1M3 10h1M11 10h1M3 11h1M11 11h1M0 12h4M11 12h5M3 13h1M11 13h1M3 14h1M11 14h1M4 15h1M10 15h1" />
<path stroke="#662c2a" d="M4 6h1M10 6h1M4 7h7M2 8h1M4 8h1M10 8h1M12 8h2M0 9h3M10 9h1M15 9h1M2 10h1M10 10h1M12 10h1M10 11h1M13 11h2M4 12h1M10 12h1M4 13h1M10 13h1M4 14h1M10 14h1" />
</svg>