<svg xmlns="http://www.w3.org/2000/svg" width="32" height="32" shape-rendering="crispEdges" viewBox="0 -0.5 9 16"><path stroke="#2f1e45" d="M2 0h5M1 1h1m5 0h1M0 2h1m7 0h1M0 3h1m7 0h1M0 4h1m7 0h1M0 5h1m7 0h1"/><path stroke="#c38e65" d="M2 1h1m3 0h1M1 2h1M1 3h1M1 4h1m5 0h1M2 5h5"/><path stroke="#944c4c" d="M3 1h3M2 2h1m3 0h1M2 3h1m3 0h1M3 4h3M3 9h1m-2 1h3m-3 1h3m-2 1h2m-2 1h2"/><path stroke="#b16c59" d="M3 2h3m1 0h1M3 3h3m1 0h1M2 4h1m3 0h1"/><path stroke="#7f3748" d="M1 5h1m5 0h1M2 6h5M3 8h3M1 9h2m1 0h3m-6 1h1m3 0h2m-6 1h1m3 0h2m-6 1h2m2 0h2m-5 1h1m2 0h2m-5 1h5m-4 1h3"/><path stroke="#140510" d="M0 6h1m7 0h1M0 7h1m7 0h1M0 8h1m7 0h1M0 9h1m7 0h1m-9 1h1m7 0h1m-9 1h1m7 0h1m-9 1h1m7 0h1m-9 1h1m7 0h1m-9 1h1m7 0h1m-8 1h1m5 0h1"/><path stroke="#662c2a" d="M1 6h1m5 0h1M1 7h7M1 8h2m3 0h2M7 9h1m-1 1h1m-1 1h1m-1 1h1m-7 1h1m5 0h1m-7 1h1m5 0h1m-6 1h1m3 0h1"/></svg>