<svg xmlns="http://www.w3.org/2000/svg" width="32" height="32" shape-rendering="crispEdges" viewBox="0 -0.5 16 16"><path stroke="#2f1e45" d="M5 0h5M4 1h1m5 0h1M3 2h1m7 0h1M3 3h1m7 0h1M3 4h1m7 0h1M3 5h1m7 0h1M0 6h3m9 0h4M6 8h3M5 9h1m3 0h1m-5 1h1m3 0h1m-5 1h1m3 0h1m-5 1h1m3 0h1m-5 1h1m3 0h1m-5 1h1m3 0h1m-5 1h1m3 0h1"/><path stroke="#c38e65" d="M5 1h1m3 0h1M4 2h1M4 3h1M4 4h1m5 0h1M5 5h5M0 7h2m11 0h3"/><path stroke="#944c4c" d="M6 1h3M5 2h1m3 0h1M5 3h1m3 0h1M6 4h3M5 8h1m8 0h2M7 9h1m4 0h3M0 10h1m7 0h1m6 0h1M0 11h2m6 0h1m-3 1h1m1 0h1m-3 1h1m1 0h1m-2 1h1"/><path stroke="#b16c59" d="M6 2h3m1 0h1M6 3h3m1 0h1M5 4h1m3 0h1M2 7h1m9 0h1M6 9h1m-1 1h2m-2 1h2m-1 1h1m-1 1h1"/><path stroke="#7f3748" d="M4 5h1m5 0h1M5 6h5M0 8h2m7 0h1M4 9h1m3 0h1m-8 1h1m2 0h1m8 0h2M2 11h1m1 0h1m7 0h1m2 0h1M6 14h1m1 0h1m-3 1h3"/><path stroke="#140510" d="M3 6h1m7 0h1M3 7h1m7 0h1M3 8h1m7 0h1M3 9h1m7 0h1m-9 1h1m7 0h1m-9 1h1m7 0h1M0 12h4m7 0h5M3 13h1m7 0h1m-9 1h1m7 0h1m-8 1h1m5 0h1"/><path stroke="#662c2a" d="M4 6h1m5 0h1M4 7h7M2 8h1m1 0h1m5 0h1m1 0h2M0 9h3m7 0h1m4 0h1M2 10h1m7 0h1m1 0h1m-3 1h1m2 0h2M4 12h1m5 0h1m-7 1h1m5 0h1m-7 1h1m5 0h1"/></svg>