<svg xmlns="http://www.w3.org/2000/svg" width="32" height="32" shape-rendering="crispEdges" viewBox="0 -0.5 36 37"><path stroke="#372840" d="M16 4h4m-4 1h4m-6 1h2m4 0h2m6 0h2M14 7h2m4 0h2m6 0h2M12 8h2m8 0h2m2 0h2m2 0h2M12 9h2m8 0h2m2 0h2m2 0h2m-22 1h2m12 0h2m6 0h2m-24 1h2m12 0h2m6 0h2m-24 1h2m12 0h2m6 0h2m-24 1h2m12 0h2m6 0h2m-22 1h2m8 0h2m2 0h2m2 0h2m-20 1h2m8 0h2m2 0h2m2 0h2m-22 1h2m12 0h4m2 0h2m-22 1h2m12 0h4m2 0h2M8 18h2m16 0h2m2 0h2M8 19h2m16 0h2m2 0h2M8 20h2m16 0h2m2 0h2M8 21h2m16 0h2m2 0h2M6 22h2m18 0h2m2 0h2M6 23h2m18 0h2m2 0h2M4 24h2m4 0h2m12 0h4m2 0h2M4 25h2m4 0h2m12 0h4m2 0h2M6 26h4m2 0h2m8 0h2m2 0h2m2 0h2M6 27h4m2 0h2m8 0h2m2 0h2m2 0h2m-20 1h2m8 0h2m2 0h2m2 0h2m-20 1h2m8 0h2m2 0h2m2 0h2m-22 1h2m10 0h2m2 0h2m2 0h2m-22 1h2m10 0h2m2 0h2m2 0h2m-22 1h2m12 0h4m2 0h2m-22 1h2m12 0h4m2 0h2M8 34h2m16 0h2m2 0h2M8 35h2m16 0h2m2 0h2"/><path stroke="#fff" d="M16 6h4m-4 1h4"/><path stroke="#f1f2ff" d="M14 8h2m4 0h2m-8 1h2m4 0h2m-10 1h2m-2 1h2m-2 1h2m-2 1h2"/><path stroke="#ffe9e3" d="M16 8h4m-4 1h4m-6 1h2m2 0h2m-6 1h2m2 0h2m-2 1h2m-2 1h2"/><path stroke="#fff089" d="M28 8h2m-2 1h2m-4 1h6m-6 1h6m-4 1h2m-2 1h2m-2 1h2m-2 1h2"/><path stroke="#42bfe8" d="M16 10h2m2 0h2m-6 1h2m2 0h2"/><path stroke="#c9d4fd" d="M22 10h2m-2 1h2m-2 1h2m-2 1h2"/><path stroke="#e3cddf" d="M14 12h4m2 0h2m-8 1h4m2 0h2m-8 1h2m4 0h2m-8 1h2m4 0h2m-6 1h4m-4 1h4M6 24h2m-2 1h2"/><path stroke="#f8c53a" d="M26 12h2m2 0h2m-6 1h2m2 0h2"/><path stroke="#c090a9" d="M16 14h4m-4 1h4"/><path stroke="#f1ebdb" d="M12 16h2m8 0h2m-12 1h2m8 0h2m-14 1h2m2 0h2m4 0h2m-12 1h2m2 0h2m4 0h2m-12 1h2m4 0h4m-10 1h2m4 0h4M8 22h2m-2 1h2"/><path stroke="#d4b8b8" d="M14 16h2m4 0h2m-8 1h2m4 0h2m-6 1h4m-4 1h4"/><path stroke="#c68556" d="M28 16h2m-2 1h2m-2 1h2m-2 1h2m-2 1h2m-2 1h2m-2 1h2m-2 1h2m-2 1h2m-2 1h2m-2 1h2m-2 1h2m-2 1h2m-2 1h2m-2 1h2m-2 1h2m-2 1h2m-2 1h2"/><path stroke="#ddcebf" d="M12 18h2m8 0h2m-12 1h2m8 0h2m0 1h2m-2 1h2m-12 1h2m4 0h2m-8 1h2m4 0h2m-6 1h4m-4 1h4m-6 3h2m4 0h2m-8 1h2m4 0h2m-10 1h2m2 0h4m-8 1h2m2 0h4m-6 1h2m4 0h2m-8 1h2m4 0h2m-12 1h2m2 0h2m4 0h2m2 0h2m-16 1h2m2 0h2m4 0h2m2 0h2"/><path stroke="#886e6a" d="M24 18h2m-2 1h2m-14 3h2m8 0h2m-12 1h2m8 0h2m-10 1h2m4 0h2m-8 1h2m4 0h2m-6 1h4m-4 1h4"/><path stroke="#bda499" d="M12 20h4m4 0h4m-12 1h4m4 0h4m-14 1h2m4 0h4m4 0h2m-16 1h2m4 0h4m4 0h2M8 24h2m-2 1h2m4 1h2m4 0h2m-8 1h2m4 0h2m-6 1h4m-4 1h4m-6 1h2m4 0h2m-8 1h2m4 0h2m-10 1h2m2 0h4m2 0h2m-12 1h2m2 0h4m2 0h2m-12 1h2m2 0h4m2 0h2m-12 1h2m2 0h4m2 0h2"/><path stroke="#594d4d" d="M12 24h2m8 0h2m-12 1h2m8 0h2"/><path stroke="#8c5b3e" d="M28 34h2m-2 1h2"/></svg>