<svg xmlns="http://www.w3.org/2000/svg" width="32" height="32" shape-rendering="crispEdges" viewBox="0 -0.5 36 37"><path stroke="#372840" d="M16 3h6m-6 1h6M8 5h4m2 0h2m6 0h2m2 0h4M8 6h4m2 0h2m6 0h2m2 0h4M6 7h2m4 0h2m2 0h6m2 0h2m4 0h2M6 8h2m4 0h2m2 0h6m2 0h2m4 0h2M4 9h2m8 0h2m6 0h2m8 0h2M4 10h2m8 0h2m6 0h2m8 0h2M4 11h2m26 0h2M4 12h2m26 0h2M4 13h2m26 0h2M4 14h2m26 0h2M4 15h2m26 0h2M4 16h2m26 0h2M4 17h2m26 0h2M4 18h2m26 0h2M4 19h2m26 0h2M4 20h2m26 0h2M4 21h2m26 0h2M4 22h2m26 0h2M4 23h2m26 0h2M4 24h2m26 0h2M4 25h2m26 0h2M4 26h2m26 0h2M6 27h2m2 0h2m14 0h2m2 0h2M6 28h2m2 0h2m14 0h2m2 0h2M8 29h2m2 0h2m10 0h2m2 0h2M8 30h2m2 0h2m10 0h2m2 0h2m-18 1h2m2 0h4m2 0h2m-12 1h2m2 0h4m2 0h2m-10 1h2m4 0h2m-8 1h2m4 0h2"/><path stroke="#f8f644" d="M16 5h6m-6 1h6"/><path stroke="#ecebe7" d="M8 7h4m14 0h4M8 8h4m14 0h4M6 9h2m4 0h2m10 0h2m4 0h2M6 10h2m4 0h2m10 0h2m4 0h2M6 11h2m22 0h2M6 12h2m22 0h2M6 13h2m22 0h2M6 14h2m22 0h2M6 15h2m22 0h2M6 16h2m22 0h2M6 17h2m22 0h2M6 18h2m22 0h2M6 19h2m22 0h2M6 20h2m22 0h2M6 21h2m-2 1h2m-2 1h2m-2 1h2"/><path stroke="#f8e398" d="M14 7h2m6 0h2M14 8h2m6 0h2"/><path stroke="#a69e9a" d="M8 9h2m18 0h2M8 10h2m18 0h2m-20 1h2m14 0h2m-18 1h2m14 0h2M8 13h2m18 0h2M8 14h2m18 0h2m-4 1h2m-2 1h2M8 17h2m18 0h2M8 18h2m18 0h2M8 23h2m-2 1h2m-2 1h2m18 0h2M8 26h2m18 0h2"/><path stroke="#cbc6c1" d="M10 9h2m14 0h2m-18 1h2m14 0h2M8 11h2m18 0h2M8 12h2m18 0h2m-4 1h2m-2 1h2M8 15h2m18 0h2M8 16h2m18 0h2m0 7h2m-2 1h2M6 25h2m22 0h2M6 26h2m22 0h2"/><path stroke="#ddcebf" d="M16 9h2m-2 1h2m-4 1h2m-2 1h2m-4 1h2m-2 1h2m-2 1h2m-2 1h2"/><path stroke="#bda499" d="M18 9h4m-4 1h4m-6 1h2m4 0h2m-8 1h2m4 0h2m-10 1h2m-2 1h2m-2 1h2m-2 1h2m-2 1h2m8 0h2m-12 1h2m8 0h2"/><path stroke="#4c3d2e" d="M12 11h2m10 0h2m-14 1h2m10 0h2m-16 1h2m12 0h2m-16 1h2m12 0h2m-16 1h2m12 0h2m-16 1h2m12 0h2m-16 1h2m14 0h2m-18 1h2m14 0h2"/><path stroke="#ffe9e3" d="M18 11h4m-4 1h4m-6 1h2m2 0h2m-6 1h2m2 0h2m-2 1h2m-2 1h2"/><path stroke="#b5e7cb" d="M18 13h2m2 0h2m-6 1h2m2 0h2"/><path stroke="#fad6ff" d="M16 15h4m2 0h2m-8 1h4m2 0h2"/><path stroke="#e6e7f0" d="M12 17h2m-2 1h2m-4 1h2m2 0h2m8 0h4m-18 1h2m2 0h2m8 0h4m-12 1h2m4 0h2m-8 1h2m4 0h2m-6 1h4m-4 1h4m-6 5h2m4 0h2m-8 1h2m4 0h2"/><path stroke="#e3cddf" d="M16 17h2m4 0h2m-8 1h2m4 0h2m-6 1h4m-4 1h4"/><path stroke="#c090a9" d="M18 17h4m-4 1h4"/><path stroke="#464762" d="M8 19h2m18 0h2M8 20h2m18 0h2M8 21h2m20 0h2M8 22h2m20 0h2m-22 1h2m14 0h4m-20 1h2m14 0h4m-18 1h2m10 0h2m-14 1h2m10 0h2m-14 1h2m10 0h2m-14 1h2m10 0h2m-8 1h2m-2 1h2"/><path stroke="#c5c7dd" d="M12 19h2m2 0h2m4 0h2m-12 1h2m2 0h2m4 0h2m-14 1h2m6 0h4m4 0h4m-20 1h2m6 0h4m4 0h4m-18 1h4m6 0h2m-12 1h4m6 0h2m-6 1h4m-4 1h4m-6 1h2m4 0h2m-8 1h2m4 0h2m-10 3h2m4 0h2m-8 1h2m4 0h2"/><path stroke="#9a97b9" d="M12 21h4m8 0h2m-14 1h4m8 0h2m-10 3h2m-2 1h2m-4 1h2m4 0h2m-8 1h2m4 0h2m-8 1h2m4 0h2m-8 1h2m4 0h2"/><path stroke="#696682" d="M16 23h2m6 0h2m-10 1h2m6 0h2m-12 1h2m6 0h2m-10 1h2m6 0h2m-6 1h2m-2 1h2"/><path stroke="#807b7a" d="M10 25h2m14 0h2m-18 1h2m14 0h2M8 27h2m18 0h2M8 28h2m18 0h2"/></svg>