<svg xmlns="http://www.w3.org/2000/svg" width="32" height="32" shape-rendering="crispEdges" viewBox="0 -0.5 36 37"><path stroke="#372840" d="M8 3h2m6 0h8m6 0h2M8 4h2m6 0h8m6 0h2M6 5h2m2 0h2m2 0h2m8 0h2m2 0h2m2 0h2M6 6h2m2 0h2m2 0h2m8 0h2m2 0h2m2 0h2M4 7h2m6 0h2m12 0h2m6 0h2M4 8h2m6 0h2m12 0h2m6 0h2M4 9h2m28 0h2M4 10h2m28 0h2M4 11h2m28 0h2M4 12h2m28 0h2M4 13h2m28 0h2M4 14h2m28 0h2M4 15h2m28 0h2M4 16h2m28 0h2M4 17h2m26 0h4M4 18h2m26 0h4M4 19h2m28 0h2M4 20h2m28 0h2M4 21h2m28 0h2M4 22h2m28 0h2M4 23h2m28 0h2M4 24h2m28 0h2M6 25h2m24 0h2M6 26h2m24 0h2M8 27h2m20 0h2M8 28h2m20 0h2m-22 1h2m12 0h6m-20 1h2m12 0h6m-18 1h2m2 0h4m2 0h2m-12 1h2m2 0h4m2 0h2m-10 1h2m4 0h2m-8 1h2m4 0h2"/><path stroke="#fcf7be" d="M8 5h2m6 0h2m4 0h2m6 0h2M8 6h2m6 0h2m4 0h2m6 0h2M6 7h2m6 0h2m16 0h2M6 8h2m6 0h2m16 0h2M6 11h2m24 0h2M6 12h2m24 0h2"/><path stroke="#f6d896" d="M18 5h4m-4 1h4m-6 1h2m4 0h2m-8 1h2m4 0h2M6 9h2m6 0h2m8 0h2m6 0h2M6 10h2m6 0h2m8 0h2m6 0h2m-20 1h2m8 0h2m-12 1h2m8 0h2M6 13h2m6 0h2m8 0h2m6 0h2M6 14h2m6 0h2m8 0h2m6 0h2M6 19h2m24 0h2M6 20h2m24 0h2M8 23h2m20 0h2M8 24h2m20 0h2m-22 1h2m16 0h2m-20 1h2m16 0h2"/><path stroke="#4f342f" d="M8 7h2m20 0h2M8 8h2m20 0h2M8 9h2m2 0h2m12 0h2m2 0h2M8 10h2m2 0h2m12 0h2m2 0h2M8 11h2m2 0h2m12 0h2m2 0h2M8 12h2m2 0h2m12 0h2m2 0h2M8 13h2m2 0h2m12 0h2m2 0h2M8 14h2m2 0h2m12 0h2m2 0h2M8 15h2m2 0h2m12 0h2m2 0h2M8 16h2m2 0h2m12 0h2m2 0h2M6 17h2m-2 1h2m0 1h2m2 0h2m12 0h2m2 0h2M8 20h2m2 0h2m12 0h2m2 0h2M8 21h2m2 0h2m12 0h2m2 0h2M8 22h2m2 0h2m12 0h2m2 0h2m-22 1h2m16 0h2m-20 1h2m16 0h2"/><path stroke="#fff" d="M10 7h2m16 0h2M10 8h2m16 0h2"/><path stroke="#ffe9e3" d="M18 7h4m-4 1h4m-6 1h2m2 0h2m-6 1h2m2 0h2m-2 1h2m-2 1h2"/><path stroke="#e2b27e" d="M24 7h2m-2 1h2M6 15h2m6 0h2m8 0h2m6 0h2M6 16h2m6 0h2m8 0h2m6 0h2M6 21h2m24 0h2M6 22h2m24 0h2m-22 1h2m12 0h2m-16 1h2m12 0h2m-16 3h2m12 0h2m-16 1h2m12 0h2"/><path stroke="#fff089" d="M10 9h2m16 0h2m-20 1h2m16 0h2"/><path stroke="#59cf93" d="M18 9h2m2 0h2m-6 1h2m2 0h2"/><path stroke="#f8c53a" d="M10 11h2m16 0h2m-20 1h2m16 0h2m-20 1h2m16 0h2m-20 1h2m16 0h2"/><path stroke="#eae0dd" d="M16 11h4m2 0h2m-8 1h4m2 0h2"/><path stroke="#d4b8b8" d="M16 13h2m4 0h2m-8 1h2m4 0h2m-6 1h4m-4 1h4"/><path stroke="#e3cddf" d="M18 13h4m-4 1h4"/><path stroke="#e88a36" d="M10 15h2m16 0h2m-20 1h2m16 0h2"/><path stroke="#b8ccd8" d="M16 15h2m4 0h2m-8 1h2m4 0h2m-6 1h4m-4 1h4m-12 1h2m16 0h2m-20 1h2m16 0h2m-14 7h2m4 0h2m-8 1h2m4 0h2m-8 1h2m4 0h2m-8 1h2m4 0h2"/><path stroke="#b05b2c" d="M8 17h6m12 0h6M8 18h6m12 0h6m-22 3h2m16 0h2m-20 1h2m16 0h2"/><path stroke="#dceaee" d="M14 17h4m4 0h4m-12 1h4m4 0h4m-10 1h8m-8 1h8m-6 1h4m-4 1h4"/><path stroke="#88a3bc" d="M14 19h2m8 0h2m-12 1h2m8 0h2m-10 1h2m4 0h2m-8 1h2m4 0h2m-6 1h4m-4 1h4m-6 1h2m4 0h2m-8 1h2m4 0h2m-4 1h2m-2 1h2m-8 1h2m4 0h2m-8 1h2m4 0h2m-8 1h2m4 0h2m-8 1h2m4 0h2"/><path stroke="#5e718e" d="M14 21h2m8 0h2m-12 1h2m8 0h2m-10 1h2m4 0h2m-8 1h2m4 0h2m-6 1h4m-4 1h4"/><path stroke="#b28b78" d="M6 23h2m24 0h2M6 24h2m24 0h2M8 25h2m2 0h2m12 0h2m2 0h2M8 26h2m2 0h2m12 0h2m2 0h2m-22 1h2m16 0h2m-20 1h2m16 0h2"/><path stroke="#464762" d="M14 23h2m8 0h2m-12 1h2m8 0h2m-12 1h2m8 0h2m-12 1h2m8 0h2m-12 1h2m2 0h2m4 0h2m-12 1h2m2 0h2m4 0h2m-14 1h2m4 0h2m-8 1h2m4 0h2"/></svg>