<svg xmlns="http://www.w3.org/2000/svg" width="32" height="32" shape-rendering="crispEdges" viewBox="0 -0.5 36 35"><path stroke="#24131d" d="M16 4h6m-6 1h6m-8 1h2m6 0h2M14 7h2m6 0h2M12 8h2m10 0h2M12 9h2m10 0h2m-16 1h2m12 0h2m-16 1h2m12 0h2m-16 1h2m12 0h2m-16 1h2m12 0h2m-14 1h2m10 0h2m-14 1h2m10 0h2m-16 1h2m14 0h4m-20 1h2m14 0h4m-20 1h2m18 0h2m-22 1h2m18 0h2m-22 1h2m18 0h2m-22 1h2m18 0h2m-22 1h2m18 0h2m-22 1h2m18 0h2m-22 1h2m18 0h2m-22 1h2m18 0h2m-22 1h2m16 0h2m-20 1h2m16 0h2M8 28h2m10 0h2m4 0h2M8 29h2m10 0h2m4 0h2"/><path stroke="#617077" d="M16 6h6m-6 1h6m-8 1h2m-2 1h2m-4 1h2m-2 1h2m-4 17h2m6 0h2m4 0h2m-16 1h2m6 0h2m4 0h2"/><path stroke="#3c4851" d="M16 8h2m-2 1h2m-4 1h2m-2 1h2m-2 1h2m-2 1h2m2 1h6m-6 1h6m-12 1h2m-2 1h2m-2 1h2m-2 1h2m-2 1h2m-2 1h2m-2 1h2m-2 1h2m-2 1h2m2 0h8m-12 1h2m2 0h8m-12 1h2m2 0h2m4 0h2m-12 1h2m2 0h2m4 0h2m-8 1h2m4 0h2m-8 1h2m4 0h2"/><path stroke="#0f343f" d="M18 8h2m2 0h2m-6 1h2m2 0h2m-8 1h2m-2 1h2m-6 1h2m-2 1h2m0 1h2m-2 1h2m4 1h2m-2 1h2m-6 1h2m6 0h2m-10 1h2m6 0h2m-4 1h2m-2 1h2m-8 1h8m-8 1h8"/><path stroke="#1a1c26" d="M20 8h2m-2 1h2m-4 1h2m2 0h2m-6 1h2m2 0h2m-8 1h2m-2 1h2m-2 1h2m-2 1h2m-4 1h2m2 0h2m2 0h2m-10 1h2m2 0h2m2 0h2m-10 1h2m4 0h2m-8 1h2m4 0h2m-8 1h2m8 0h4m-14 1h2m8 0h4m-14 1h2m8 0h4m-14 1h2m8 0h4m-14 1h2m8 0h4m-14 1h2m8 0h4m-14 1h2m2 0h4m2 0h4m-14 1h2m2 0h4m2 0h4m-16 1h4m-4 1h4m-6 5h2m2 0h6"/><path stroke="#dfb2c6" d="M20 10h2m-2 1h2m-2 1h2m-2 1h2m6 5h2m-2 1h2m-12 1h2m-2 1h2"/><path stroke="#71b5db" d="M18 12h2m2 0h2m-6 1h2m2 0h2"/><path stroke="#2c7d63" d="M16 16h2m6 0h2m-10 1h2m6 0h2m0 1h2m-2 1h2"/><path stroke="#1a5556" d="M18 18h2m2 0h2m-6 1h2m2 0h2m-8 1h2m2 0h2m-6 1h2m2 0h2"/><path stroke="#30a387" d="M28 20h2m-2 1h2"/><path stroke="#50cd90" d="M28 22h2m-2 1h2"/><path stroke="#6ae291" d="M28 24h2m-2 1h2"/></svg>