<svg xmlns="http://www.w3.org/2000/svg" width="32" height="32" shape-rendering="crispEdges" viewBox="0 -0.5 18 18"><path stroke="#1a1c26" d="M7 1h3M6 2h1m3 0h1M5 3h1m5 0h1M5 4h1m6 0h1M5 5h1m6 0h1M5 6h1m6 0h1M5 7h1m6 0h1M2 8h3m8 0h3M1 9h1m14 0h1M1 10h1m14 0h1M1 11h1m2 0h2m6 0h2m2 0h1M2 12h2m2 0h1m4 0h1m2 0h2M6 13h1m4 0h1m-6 1h1m4 0h1m-6 1h1m1 0h1m2 0h1m-6 1h1m2 0h1m2 0h1"/><path stroke="#ebab4c" d="M7 2h1M6 3h1M6 4h1M6 5h1M6 6h1M6 7h1"/><path stroke="#e38524" d="M8 2h1M7 3h1m1 0h2m0 1h1m-1 1h1m-1 1h1m-2 1h2M6 8h1m4 0h1M7 9h1"/><path stroke="#d45c1d" d="M9 2h1M8 3h1M7 4h1M7 5h1M7 6h1M7 7h1M7 8h1"/><path stroke="#edd1d6" d="M8 4h3M9 5h1M9 6h1M9 8h1M8 9h1m1 0h1"/><path stroke="#71b5db" d="M8 5h1m1 0h1"/><path stroke="#dfb2c6" d="M8 6h1m1 0h1M8 8h1m1 0h1M9 9h1"/><path stroke="#c58faa" d="M8 7h2"/><path stroke="#faf8db" d="M5 8h1m6 0h1M2 9h2m10 0h2m-8 1h2"/><path stroke="#5e423c" d="M4 9h1m8 0h1m-8 2h1m4 0h1m-5 1h1m2 0h1"/><path stroke="#f9f3c0" d="M5 9h1m6 0h1m-9 1h1m8 0h1m-6 3h2"/><path stroke="#c7b198" d="M6 9h1m4 0h1m-4 2h2"/><path stroke="#dab580" d="M2 10h2m10 0h2"/><path stroke="#f3e7a8" d="M5 10h1m1 0h1m2 0h1m1 0h1m-5 4h2"/><path stroke="#997d76" d="M6 10h1m4 0h1m-5 1h1m2 0h1m-3 1h2"/><path stroke="#b3794d" d="M2 11h2m10 0h2"/><path stroke="#4ba245" d="M7 13h1m2 0h1"/><path stroke="#2c7d63" d="M7 14h1m2 0h1"/><path stroke="#1a5556" d="M7 15h1m1 0h2"/><path stroke="#617077" d="M7 16h1m2 0h1"/><path stroke="#99a5a7" d="M8 16h1m2 0h1"/></svg>