<svg xmlns="http://www.w3.org/2000/svg" width="32" height="32" shape-rendering="crispEdges" viewBox="0 -0.5 36 37"><path stroke="#120a1a" d="M14 3h8m-8 1h8M12 5h2m8 0h2M12 6h2m8 0h2M12 7h2m8 0h2M12 8h2m8 0h2M10 9h2m10 0h2m4 0h2m-20 1h2m10 0h2m4 0h2M8 11h4m10 0h2m2 0h2m2 0h2M8 12h4m10 0h2m2 0h2m2 0h2M6 13h2m2 0h2m10 0h2m2 0h2m2 0h2M6 14h2m2 0h2m10 0h2m2 0h2m2 0h2M6 15h2m2 0h2m12 0h4m2 0h2M6 16h2m2 0h2m12 0h4m2 0h2M6 17h2m2 0h2m14 0h2m2 0h2M6 18h2m2 0h2m14 0h2m2 0h2M6 19h2m2 0h2m14 0h6M6 20h2m2 0h2m14 0h6M6 21h8m8 0h2m4 0h2M6 22h8m8 0h2m4 0h2M6 23h2m2 0h4m8 0h6M6 24h2m2 0h4m8 0h6M8 25h2m2 0h2m8 0h2m2 0h2M8 26h2m2 0h2m8 0h2m2 0h2M8 27h2m2 0h2m2 0h2m2 0h4m2 0h2M8 28h2m2 0h2m2 0h2m2 0h4m2 0h2M8 29h2m2 0h2m4 0h2m2 0h2m2 0h2M8 30h2m2 0h2m4 0h2m2 0h2m2 0h2M8 31h2m2 0h2m4 0h2m2 0h2m2 0h2M8 32h2m2 0h2m4 0h2m2 0h2m2 0h2m-18 1h4m6 0h2m2 0h2m2 0h2m-20 1h4m6 0h2m2 0h2m2 0h2"/><path stroke="#8b5b37" d="M14 5h2m-2 1h2m-4 3h2m-2 1h2m-2 1h2m-2 1h2"/><path stroke="#894835" d="M16 5h2m2 0h2m-6 1h2m2 0h2m-8 1h2m-2 1h2m-4 5h4m4 0h2m-10 1h4m4 0h2m-8 1h2m4 0h2m-8 1h2m4 0h2m-6 1h2m-2 1h2"/><path stroke="#602631" d="M18 5h2m-2 1h2m-4 1h2m2 0h2m-6 1h2m2 0h2m-8 1h2m-2 1h2m-2 1h2m-2 1h2m0 1h2m-2 1h2m-6 1h2m2 0h2m-6 1h2m2 0h2"/><path stroke="#ed9d7c" d="M18 7h2m-2 1h2m-2 1h2m-2 1h2m6 11h2m-2 1h2M8 23h2m-2 1h2"/><path stroke="#4cc5e4" d="M16 9h2m2 0h2m-6 1h2m2 0h2m6 3h2m-2 1h2M8 15h2m-2 1h2"/><path stroke="#d68552" d="M16 11h4m-4 1h4m4 9h2m-2 1h2"/><path stroke="#d16363" d="M20 11h2m-2 1h2m-4 1h2m-2 1h2"/><path stroke="#8bf5c6" d="M28 11h2m-2 1h2M8 13h2m-2 1h2"/><path stroke="#787d8b" d="M18 15h2m-2 1h2m-2 1h2m-2 1h2m-4 1h4m-4 1h4"/><path stroke="#9da5ae" d="M22 15h2m-2 1h2m0 1h2m-2 1h2"/><path stroke="#47f" d="M28 15h2m-2 1h2M8 17h2m-2 1h2"/><path stroke="#2a2a41" d="M12 17h2m8 0h2m-12 1h2m8 0h2m-12 1h2m8 0h4m-14 1h2m8 0h4m-12 1h2m4 0h2m-8 1h2m4 0h2m-8 1h8m-8 1h8m-8 3h2m-2 1h2m-2 1h2m-2 1h2m-2 1h2m-2 1h2m-2 1h2m-2 1h2"/><path stroke="#59607a" d="M14 17h2m4 0h2m-8 1h2m4 0h2m-8 1h2m4 0h2m-8 1h2m4 0h2m-6 9h2m2 0h2m-6 1h2m2 0h2m-6 1h2m2 0h2m-6 1h2m2 0h2m-6 1h4m2 0h2m-8 1h4m2 0h2"/><path stroke="#2749d0" d="M28 17h2m-2 1h2M8 19h2m-2 1h2"/><path stroke="#404863" d="M16 21h4m-4 1h4m-2 5h2m-2 1h2"/><path stroke="#422490" d="M10 25h2m12 0h2m-16 1h2m12 0h2m-16 1h2m12 0h2m-16 1h2m12 0h2m-16 1h2m12 0h2m-16 1h2m12 0h2m-16 1h2m12 0h2m-16 1h2m12 0h2m0 1h2m-2 1h2"/><path stroke="#926d3c" d="M14 25h4m2 0h2m-8 1h4m2 0h2"/><path stroke="#b59857" d="M18 25h2m-2 1h2"/></svg>