<svg xmlns="http://www.w3.org/2000/svg" width="32" height="32" shape-rendering="crispEdges" viewBox="0 -0.5 18 18"><path stroke="#1a1c26" d="M6 1h4M5 2h1m4 0h1M4 3h1m6 0h1M3 4h1m7 0h1M2 5h1m8 0h1M2 6h1m8 0h1M2 7h1m8 0h1M2 8h1m8 0h1M1 9h1m9 0h1M2 10h1m9 0h4M2 11h1m13 0h1M3 12h2m7 0h3m1 0h1M4 13h1m6 0h1m3 0h1M4 14h1m2 0h1m2 0h1m-7 1h1m1 0h1m1 0h1m1 0h1m-7 1h1m2 0h2m2 0h1"/><path stroke="#99a5a7" d="M6 2h1m2 0h1M3 7h1M2 9h3m6 1h1m-1 1h1m1 0h1m-3 1h1"/><path stroke="#617077" d="M7 2h2M6 3h1m2 0h1m0 1h1M5 5h1m4 0h1M5 6h1m4 0h1M3 8h1m2 3h3m3 0h1m-5 2h1m-3 1h1m1 0h1"/><path stroke="#dfb2c6" d="M5 3h1m4 0h1m-8 7h1m6 1h1"/><path stroke="#c58faa" d="M7 3h2M5 4h2m1 0h1M8 5h1"/><path stroke="#3c4851" d="M4 4h1M4 6h1M4 7h2m4 0h1m-6 4h1m-1 1h4m-2 1h1"/><path stroke="#6ae291" d="M7 4h1m1 0h1"/><path stroke="#d1fbf0" d="M3 5h1m2 3h4M7 9h2m6 2h1"/><path stroke="#fff" d="M4 5h1m10 7h1"/><path stroke="#ac6ca2" d="M6 5h2m1 0h1"/><path stroke="#cbd2d9" d="M3 6h1m10 5h1"/><path stroke="#552d72" d="M6 6h1m2 0h1"/><path stroke="#884b93" d="M7 6h2"/><path stroke="#9ee4ef" d="M6 7h1m2 0h1M5 8h1m4 0h1M6 9h1m2 0h1m-3 1h2m-3 3h1m2 0h1m-5 1h1m3 0h1"/><path stroke="#3466b0" d="M7 7h2M4 8h1m0 2h1m4 0h1"/><path stroke="#71b5db" d="M5 9h1m4 0h1m-5 1h1m2 0h1m-5 3h1"/><path stroke="#151556" d="M4 10h1m-1 1h1m5 2h1"/><path stroke="#5e423c" d="M3 11h1m5 0h1m-5 4h1m3 0h1"/><path stroke="#402830" d="M9 12h2"/><path stroke="#806352" d="M5 16h1m3 0h1"/><path stroke="#a19477" d="M6 16h1m3 0h1"/></svg>