<svg xmlns="http://www.w3.org/2000/svg" width="32" height="32" shape-rendering="crispEdges" viewBox="0 -0.5 36 37"><path stroke="#372840" d="M16 2h12M16 3h12M14 4h2m12 0h2M14 5h2m12 0h2M12 6h2m14 0h2M12 7h2m14 0h2M12 8h2m8 0h8M12 9h2m8 0h8m-18 1h2m10 0h2m4 0h4m-22 1h2m10 0h2m4 0h4m-24 1h2m12 0h2m8 0h2m-26 1h2m12 0h2m8 0h2m-26 1h2m22 0h2m-26 1h2m22 0h2m-26 1h2m22 0h2m-26 1h2m22 0h2M8 18h2m24 0h2M8 19h2m24 0h2M6 20h2m26 0h2M6 21h2m26 0h2M4 22h2m28 0h2M4 23h2m28 0h2M6 24h2m6 0h2m16 0h2M6 25h2m6 0h2m16 0h2M8 26h2m2 0h2m2 0h2m12 0h2M8 27h2m2 0h2m2 0h2m12 0h2m-22 1h2m4 0h2m6 0h2m4 0h2m-22 1h2m4 0h2m6 0h2m4 0h2m-16 1h2m4 0h2m2 0h2m2 0h2m-16 1h2m4 0h2m2 0h2m2 0h2m-16 1h2m4 0h2m2 0h2m4 0h2m-18 1h2m4 0h2m2 0h2m4 0h2"/><path stroke="#fdc9c9" d="M16 4h2m-2 1h2"/><path stroke="#485262" d="M18 4h2m-2 1h2m-2 1h2m-2 1h2m-4 1h4m-4 1h4m-6 1h2m2 0h2m8 0h2m-16 1h2m2 0h2m8 0h2m-10 1h2m6 0h2m-10 1h2m6 0h2m-10 1h8m-8 1h8m-16 1h8m8 0h6m-22 1h8m8 0h6m-22 1h2m2 0h2m12 0h2m-20 1h2m2 0h2m12 0h2m-18 1h2m-2 1h2m-6 3h2m-2 1h2m6 1h4m2 0h2m2 0h2m-12 1h4m2 0h2m2 0h2m-8 1h2m2 0h2m-6 1h2m2 0h2m-8 1h2m-2 1h2m-4 1h2m8 0h2m-12 1h2m8 0h2"/><path stroke="#dceaee" d="M20 4h2m-2 1h2m-6 5h2m-2 1h2m-6 1h4m-4 1h4m-8 7h2m2 0h2m-6 1h2m2 0h2m-4 1h2m-2 1h2"/><path stroke="#b8ccd8" d="M22 4h6m-6 1h6m-8 1h2m-2 1h2m-2 1h2m-2 1h2m-2 1h2m-2 1h2m-6 1h2m12 0h4m-18 1h2m12 0h4m-22 1h6m-6 1h6m2 1h8m-8 1h8M6 22h2m6 0h2M6 23h2m6 0h2m2 5h2m-2 1h2m-2 1h2m-2 1h2m0 1h2m-2 1h2"/><path stroke="#f6a2a8" d="M14 6h2m-2 1h2"/><path stroke="#b25266" d="M16 6h2m-2 1h2m-4 1h2m-2 1h2"/><path stroke="#88a3bc" d="M22 6h6m-6 1h6m-6 3h2m2 0h2m-6 1h2m2 0h2m-10 1h2m2 0h2m2 0h2m-10 1h2m2 0h2m2 0h2m-10 1h2m8 0h6m-16 1h2m8 0h6m-16 3h12m-12 1h12m-20 1h2m18 0h4m-24 1h2m18 0h4m-16 3h4m-4 1h4m-2 3h2m6 0h2m-10 1h2m6 0h2m-2 1h2m-2 1h2m0 1h2m-2 1h2"/><path stroke="#e6e7f0" d="M10 18h2m-2 1h2"/><path stroke="#5e718e" d="M14 18h2m16 0h2m-20 1h2m16 0h2M8 22h2m2 0h2m-6 1h2m2 0h2m-4 3h2m10 0h2m2 0h2m-18 1h2m10 0h2m2 0h2"/><path stroke="#594d4d" d="M16 20h14m-14 1h14"/><path stroke="#886e6a" d="M16 22h18m-18 1h18"/><path stroke="#c5c7dd" d="M8 24h2m2 0h2m-6 1h2m2 0h2"/><path stroke="#4c3d2e" d="M16 24h2m4 0h10m-16 1h2m4 0h10"/></svg>