<svg xmlns="http://www.w3.org/2000/svg" width="32" height="32" shape-rendering="crispEdges" viewBox="0 -0.5 36 37"><path stroke="#372840" d="M16 7h8m-8 1h8M14 9h2m8 0h2m-12 1h2m8 0h2M8 11h6m12 0h6M8 12h6m12 0h6M6 13h2m24 0h2M6 14h2m24 0h2M4 15h2m28 0h2M4 16h2m28 0h2M6 17h2m24 0h2M6 18h2m24 0h2M8 19h2m20 0h2M8 20h2m20 0h2m-22 1h2m16 0h2m-20 1h2m16 0h2m-18 1h2m12 0h2m-16 1h2m12 0h2m-14 1h2m8 0h2m-12 1h2m8 0h2m-14 1h2m4 0h2m4 0h2m-14 1h2m4 0h2m4 0h2m-12 1h4m2 0h4m-10 1h4m2 0h4"/><path stroke="#fcf7be" d="M16 9h2m4 0h2m-8 1h2m4 0h2m-10 1h2m-2 1h2"/><path stroke="#f6d896" d="M18 9h4m-4 1h4m-6 1h2m4 0h2m-8 1h2m4 0h2m-10 1h2m-2 1h2m0 3h2m-2 1h2"/><path stroke="#ffe9e3" d="M18 11h4m-4 1h4m-6 1h2m2 0h2m-6 1h2m2 0h2m-2 1h2m-2 1h2m-8 3h4m4 0h4m-12 1h4m4 0h4m-14 1h2m2 0h8m2 0h2m-16 1h2m2 0h8m2 0h2m-12 3h2m4 0h2m-8 1h2m4 0h2m-8 1h2m4 0h2m-8 1h2m4 0h2"/><path stroke="#e2b27e" d="M24 11h2m-2 1h2m-2 1h2m-2 1h2m-12 1h2m-2 1h2m6 1h2m-2 1h2"/><path stroke="#f1f2ff" d="M8 13h2m20 0h2M8 14h2m20 0h2M6 15h2m24 0h2M6 16h2m24 0h2"/><path stroke="#e6e7f0" d="M10 13h2m16 0h2m-20 1h2m16 0h2M8 15h2m2 0h2m12 0h2m2 0h2M8 16h2m2 0h2m12 0h2m2 0h2m-22 1h2m16 0h2m-20 1h2m16 0h2m-12 5h4m-4 1h4"/><path stroke="#c9d4fd" d="M12 13h2m12 0h2m-16 1h2m12 0h2m-18 1h2m16 0h2m-20 1h2m16 0h2M8 17h2m2 0h2m12 0h2m2 0h2M8 18h2m2 0h2m12 0h2m2 0h2"/><path stroke="#73efe8" d="M18 13h2m2 0h2m-6 1h2m2 0h2"/><path stroke="#eae0dd" d="M16 15h4m-4 1h4"/><path stroke="#e3cddf" d="M22 15h2m-2 1h2m-6 3h4m-4 1h4m-8 1h2m8 0h2m-12 1h2m8 0h2m-12 5h2m4 0h2m-8 1h2m4 0h2"/><path stroke="#d6a851" d="M24 15h2m-2 1h2"/><path stroke="#b28b78" d="M14 17h2m-2 1h2"/><path stroke="#fdc9c9" d="M18 17h4m-4 1h4"/><path stroke="#886e6a" d="M24 17h2m-2 1h2m-14 1h2m12 0h2m-16 1h2m12 0h2"/><path stroke="#c5c7dd" d="M10 19h2m16 0h2m-20 1h2m16 0h2m-14 3h2m4 0h2m-8 1h2m4 0h2"/><path stroke="#594d4d" d="M14 23h2m8 0h2m-12 1h2m8 0h2m-8 1h4m-4 1h4"/></svg>