<svg xmlns="http://www.w3.org/2000/svg" width="32" height="32" shape-rendering="crispEdges" viewBox="0 -0.5 18 18"><path stroke="#24131d" d="M7 6h3M6 7h1m3 0h1M5 8h1m4 0h1M5 9h1m4 0h1m-6 1h1m4 0h1m-7 1h1m6 0h1m-8 1h1m7 0h1m-9 1h1m7 0h1m-8 1h1m5 0h1m-7 1h1m4 0h1m-6 1h1m5 0h1"/><path stroke="#e7d494" d="M7 7h1m1 0h1M6 8h1"/><path stroke="#cea65f" d="M8 7h1M7 8h1m1 0h1M6 9h1"/><path stroke="#dfb2c6" d="M8 8h1M8 9h1"/><path stroke="#71b5db" d="M7 9h1m1 0h1"/><path stroke="#4ba245" d="M6 10h1m-2 1h1"/><path stroke="#c58faa" d="M7 10h2m-4 3h1"/><path stroke="#ac6ca2" d="M9 10h1m-2 1h1m2 2h1"/><path stroke="#2c7d63" d="M6 11h1m3 0h1m-6 1h1m1 0h1m1 0h1m1 0h1m-5 1h3"/><path stroke="#1a5556" d="M7 11h1m1 0h1m-4 1h1m1 0h1m1 0h1"/><path stroke="#0f343f" d="M6 13h1m3 0h1m-1 1h1"/><path stroke="#402830" d="M6 14h1m1 0h1m-2 1h1m1 0h1"/><path stroke="#5e423c" d="M7 14h1m1 0h1m-4 1h1"/><path stroke="#1a1c26" d="M8 15h1m-2 1h1m1 0h1"/><path stroke="#806352" d="M6 16h1m3 0h1"/></svg>