<svg xmlns="http://www.w3.org/2000/svg" width="32" height="32" shape-rendering="crispEdges" viewBox="0 -0.5 36 37"><path stroke="#372840" d="M8 4h2m6 0h4M8 5h2m6 0h4M6 6h2m2 0h2m2 0h2m4 0h2M6 7h2m2 0h2m2 0h2m4 0h2M4 8h2m6 0h2m8 0h2M4 9h2m6 0h2m8 0h2M4 10h2m16 0h2M4 11h2m16 0h2M6 12h2m14 0h2m4 0h2M6 13h2m14 0h2m4 0h2M4 14h2m16 0h2m2 0h2m2 0h2M4 15h2m16 0h2m2 0h2m2 0h2M4 16h2m16 0h2m2 0h2m2 0h2M4 17h2m16 0h2m2 0h2m2 0h2M6 18h2m16 0h2m4 0h2M6 19h2m16 0h2m4 0h2M8 20h2m20 0h2M8 21h2m20 0h2m-22 1h2m18 0h2m-22 1h2m18 0h2m-20 1h2m10 0h2m6 0h2m-22 1h2m10 0h2m6 0h2m-22 1h2m8 0h2m2 0h6m-20 1h2m8 0h2m2 0h6m-20 1h2m8 0h2m-12 1h2m8 0h2m-12 1h2m8 0h2m-12 1h2m8 0h2m-14 1h2m12 0h2m-16 1h2m12 0h2M8 34h2m16 0h2M8 35h2m16 0h2"/><path stroke="#f8f644" d="M8 6h2M8 7h2M6 8h6M6 9h6m-4 1h2m-2 1h2m-2 1h2m-2 1h2m-2 1h2m-2 1h2"/><path stroke="#ffe9e3" d="M16 6h4m-4 1h4m-6 1h8m-8 1h8m-8 1h2m2 0h2m-6 1h2m2 0h2m-2 1h2m-2 1h2M6 14h2m-2 1h2"/><path stroke="#e1bf89" d="M6 10h2m2 0h2m-6 1h2m2 0h2"/><path stroke="#612721" d="M12 10h2m-2 1h2m-2 1h2m-2 1h2m-2 1h2m-2 1h2m-2 1h2m-2 1h2m4 3h2m-2 1h2m-2 1h2m-2 1h2m-2 1h2m2 0h2m-6 1h2m2 0h2m-6 1h2m-2 1h2m-2 1h2m-2 1h2m-2 1h2m-2 1h2m-2 1h2m-2 1h2m-4 1h2m2 0h2m-6 1h2m2 0h2"/><path stroke="#9c8bdb" d="M16 10h2m2 0h2m-6 1h2m2 0h2"/><path stroke="#452a1b" d="M10 12h2m-2 1h2m-2 1h2m-2 1h2m6 19h2m-2 1h2"/><path stroke="#fad6ff" d="M14 12h4m2 0h2m-8 1h4m2 0h2M6 16h2m-2 1h2"/><path stroke="#fcf7be" d="M14 14h2m-2 1h2m0 1h2m-2 1h2"/><path stroke="#c090a9" d="M16 14h4m-4 1h4"/><path stroke="#e3cddf" d="M20 14h2m-2 1h2m-4 1h2m-2 1h2"/><path stroke="#f8c53a" d="M28 14h2m-2 1h2"/><path stroke="#e27285" d="M8 16h2m-2 1h2m0 1h2m2 0h2m-6 1h2m2 0h2m-4 1h4m-4 1h4m-2 1h2m-2 1h2m-2 1h2m-2 1h2m-2 1h2m-2 1h2m-2 1h2m-2 1h2m-2 1h2m-2 1h2m-2 1h2m6 0h2m-10 1h2m6 0h2m-12 1h2m10 0h2m-14 1h2m10 0h2"/><path stroke="#f6a2a8" d="M10 16h2m2 0h2m-6 1h2m2 0h2m-4 1h2m8 0h2m-12 1h2m8 0h2m0 1h2m-2 1h2m0 1h2m-2 1h2m-16 9h2m-2 1h2m-4 1h2m-2 1h2"/><path stroke="#f6d896" d="M20 16h2m-2 1h2m-6 1h2m-2 1h2m-2 1h2m-2 1h2m-2 1h2m-2 1h2m-2 1h2m-2 1h2m-2 1h2m-2 1h2m-2 1h2m-2 1h2m-2 1h2m-2 1h2m-2 1h2m-2 1h2m-4 1h2m-2 1h2"/><path stroke="#e88a36" d="M28 16h2m-2 1h2"/><path stroke="#b25266" d="M8 18h2m8 0h2M8 19h2m8 0h2m-10 1h2m10 0h2m-14 1h2m10 0h2m0 1h2m-2 1h2"/><path stroke="#e2b27e" d="M20 18h2m-2 1h2m-2 1h2m-2 1h2m-2 1h2m-2 1h2m-2 1h2m-2 1h2m-2 1h2m-2 1h2m-2 1h2m-2 1h2m-2 1h2m-2 1h2m-2 1h2m-2 1h2m0 1h2m-2 1h2"/><path stroke="#594d4d" d="M26 18h2m-2 1h2m-2 1h2m-2 1h2"/><path stroke="#ecebe7" d="M28 18h2m-2 1h2m-2 1h2m-2 1h2m-2 1h2m-2 1h2"/><path stroke="#64364b" d="M12 22h2m8 0h2m-12 1h2m8 0h2"/><path stroke="#f8e398" d="M26 24h6m-6 1h6"/></svg>