<svg xmlns="http://www.w3.org/2000/svg" width="32" height="32" shape-rendering="crispEdges" viewBox="0 -0.5 36 37"><path stroke="#372840" d="M12 2h4m6 0h8M12 3h4m6 0h8M6 4h6m4 0h2m2 0h2m8 0h2M6 5h6m4 0h2m2 0h2m8 0h2M4 6h2m10 0h2m2 0h2m8 0h2M4 7h2m10 0h2m2 0h2m8 0h2M4 8h2m10 0h2m2 0h2m8 0h2M4 9h2m10 0h2m2 0h2m8 0h2M4 10h2m10 0h2m2 0h2m8 0h2M4 11h2m10 0h2m2 0h2m8 0h2M4 12h2m6 0h2m4 0h2m12 0h2M4 13h2m6 0h2m4 0h2m12 0h2M4 14h2m2 0h4m22 0h2M4 15h2m2 0h4m22 0h2M4 16h4m2 0h2m22 0h2M4 17h4m2 0h2m22 0h2m-26 1h2m22 0h2m-26 1h2m22 0h2m-24 1h2m4 0h2m14 0h2m-24 1h2m4 0h2m14 0h2m-24 1h2m2 0h2m2 0h2m12 0h2m-24 1h2m2 0h2m2 0h2m12 0h2m-24 1h2m2 0h2m2 0h2m10 0h2m-22 1h2m2 0h2m2 0h2m10 0h2m-22 1h2m2 0h2m2 0h2m8 0h2m-20 1h2m2 0h2m2 0h2m8 0h2m-20 1h2m2 0h2m2 0h2m8 0h2m-20 1h2m2 0h2m2 0h2m8 0h2m-20 1h2m2 0h2m2 0h2m8 0h2m-20 1h2m2 0h2m2 0h2m8 0h2m-20 1h2m2 0h2m2 0h2m4 0h2m4 0h2m-22 1h2m2 0h2m2 0h2m4 0h2m4 0h2"/><path stroke="#fff" d="M12 4h2m-2 1h2M8 6h2M8 7h2m2 1h2m-2 1h2m-6 1h2m-2 1h2m10 3h2m8 0h2m-12 1h2m8 0h2m-10 1h4m2 0h2m-8 1h4m2 0h2"/><path stroke="#8c5b3e" d="M14 4h2m-2 1h2"/><path stroke="#dceaee" d="M22 4h8m-8 1h8"/><path stroke="#e6e7f0" d="M6 6h2M6 7h2M6 8h2M6 9h2m-2 3h2m-2 1h2m10 1h2m2 0h2m8 0h2m-16 1h2m2 0h2m8 0h2m-14 1h2m8 0h2m-12 1h2m8 0h2m-8 3h2m2 0h2m-6 1h2m2 0h2m-6 1h2m2 0h2m-6 1h2m2 0h2m-6 3h2m2 0h2m-6 1h2m2 0h2m-6 1h2m2 0h2m-6 1h2m2 0h2"/><path stroke="#e27285" d="M10 6h4m-4 1h4M8 8h4M8 9h4m-2 1h2m-2 1h2m14 5h2m-2 1h2m-4 1h6m-6 1h6m-4 1h2m-2 1h2m-2 1h2m-2 1h2"/><path stroke="#724b2c" d="M14 6h2m-2 1h2m-2 1h2m-2 1h2m-2 1h2m-2 1h2m-2 1h2m-2 1h2m-2 1h2m-2 1h2m-2 1h2m-2 1h2m-2 1h2m-2 1h2m-2 1h2m-2 1h2m-2 1h2m-2 1h2m-2 1h2m-2 1h2m-2 1h2m-2 1h2m-2 1h2m-2 1h2m-2 1h2m-2 1h2"/><path stroke="#b8ccd8" d="M22 6h2m2 0h2m-6 1h2m2 0h2m-2 1h2m-2 1h2m-2 1h2m-2 1h2m-2 1h2m-2 1h2m-16 3h2m-2 1h2m18 3h2m-2 1h2m-2 1h2m-2 1h2"/><path stroke="#88a3bc" d="M24 6h2m2 0h2m-6 1h2m2 0h2m-8 1h2m-2 1h2m-2 1h4m2 0h2m-8 1h4m2 0h2m-6 1h2m2 0h2m-6 1h2m2 0h2m-18 5h2m18 0h2m-22 1h2m18 0h2M24 32h2m4 0h2m-8 1h2m4 0h2"/><path stroke="#485262" d="M24 8h2m2 0h2m-6 1h2m2 0h2m-10 3h2m8 0h2m-12 1h2m8 0h2m-14 3h2m12 0h2m-16 1h2m12 0h2m-14 1h2m8 0h2m-12 1h2m8 0h2m-12 1h2m8 0h2m-12 1h2m8 0h2m-2 1h2m-2 1h2"/><path stroke="#b25266" d="M6 10h2m-2 1h2m2 1h2m-2 1h2m10 5h2m-2 1h2"/><path stroke="#c5c7dd" d="M12 10h2m-2 1h2m-6 1h2m-2 1h2m-4 1h2m-2 1h2m14 5h2m-2 1h2m-2 1h2m-2 1h2m-2 3h2m-2 1h2m-2 1h2m-2 1h2"/><path stroke="#464762" d="M16 12h2m-2 1h2m-6 1h2m2 0h2m-6 1h2m2 0h2m-2 1h2m-2 1h2m-2 1h2m-2 1h2m-2 1h2m-2 1h2m12 3h2m-2 1h2m-6 1h2m-2 1h2m-2 1h2m-2 1h2m-6 1h8m-8 1h8"/><path stroke="#5e718e" d="M22 12h2m-2 1h2m0 1h6m-6 1h6m-12 3h2m-2 1h2m2 13h2m4 0h2m-8 1h2m4 0h2"/><path stroke="#886e6a" d="M22 24h2m4 0h2m-8 1h2m4 0h2"/><path stroke="#b28b78" d="M24 24h2m-2 1h2"/><path stroke="#bda499" d="M26 24h2m-2 1h2"/><path stroke="#4c3d2e" d="M14 32h2m-2 1h2"/></svg>