<svg xmlns="http://www.w3.org/2000/svg" width="32" height="32" shape-rendering="crispEdges" viewBox="0 -0.5 18 18"><path stroke="#1a1c26" d="M7 2h3M6 3h1m3 0h1M5 4h1m5 0h1M5 5h1m6 0h1M4 6h1m7 0h1M4 7h1m7 0h1M4 8h1m7 0h1M4 9h1m7 0h1M3 10h1m9 0h1M2 11h1m11 0h1M3 12h2m6 0h3m-9 1h1m5 0h1m-7 1h1m5 0h1m-8 1h1m7 0h1m-9 1h1m7 0h1"/><path stroke="#f6dd7a" d="M7 3h1M6 4h1M5 6h1"/><path stroke="#a19477" d="M8 3h1m0 1h1M8 5h1m1 0h1M7 6h1m3 0h1M6 7h1m4 0h1m-1 1h1"/><path stroke="#dab580" d="M9 3h1M7 4h2m1 0h1M6 5h2m3 0h1M6 6h1M5 7h1M5 8h1"/><path stroke="#edd1d6" d="M9 5h1M9 6h1"/><path stroke="#ab684c" d="M8 6h1m1 0h1"/><path stroke="#dfb2c6" d="M7 7h4m-8 4h1m9 0h1"/><path stroke="#9ee4ef" d="M6 8h1M5 9h1m5 0h1m-8 1h1m3 0h1m3 0h1m-5 1h1m-1 2h1m-1 1h1m-1 1h1m-1 1h1"/><path stroke="#d1fbf0" d="M7 8h1m2 0h1M8 9h2"/><path stroke="#c58faa" d="M8 8h2"/><path stroke="#71b5db" d="M6 9h2m2 0h1m-6 1h1m1 0h1m1 0h1m1 0h1m-8 1h1m2 0h1m1 0h1m2 0h1m-6 2h1m1 0h1m-3 1h1m1 0h1m-4 1h2m1 0h2m-6 1h3m1 0h3"/><path stroke="#113f82" d="M6 10h1m3 0h1m-6 1h1m5 0h1m-7 1h2m1 0h1m1 0h1"/><path stroke="#3466b0" d="M6 11h1m3 0h1m-4 1h1m1 0h1m-4 1h1m3 0h1m-5 1h1m3 0h1m-6 1h1m5 0h1"/></svg>