<svg xmlns="http://www.w3.org/2000/svg" width="32" height="32" shape-rendering="crispEdges" viewBox="0 -0.5 36 37"><path stroke="#120a1a" d="M6 3h2m2 0h2m8 0h2m2 0h2M6 4h2m2 0h2m8 0h2m2 0h2M4 5h2m2 0h2m2 0h2m4 0h2m2 0h2m2 0h2M4 6h2m2 0h2m2 0h2m4 0h2m2 0h2m2 0h2M4 7h2m8 0h4m8 0h2M4 8h2m8 0h4m8 0h2M6 9h6m8 0h6m2 0h2M6 10h6m8 0h6m2 0h2M4 11h2m2 0h4m8 0h2m4 0h2m2 0h2M4 12h2m2 0h4m8 0h2m4 0h2m2 0h2M2 13h2m6 0h2m8 0h2m2 0h2m2 0h2m2 0h2M2 14h2m6 0h2m8 0h2m2 0h2m2 0h2m2 0h2M4 15h2m2 0h4m8 0h2m2 0h4m2 0h4M4 16h2m2 0h4m8 0h2m2 0h4m2 0h4M6 17h2m2 0h2m8 0h2m2 0h2m2 0h2m2 0h2M6 18h2m2 0h2m8 0h2m2 0h2m2 0h2m2 0h2M4 19h2m2 0h2m12 0h6m2 0h2M4 20h2m2 0h2m12 0h6m2 0h2M6 21h2m18 0h2m2 0h2M6 22h2m18 0h2m2 0h2M6 23h2m14 0h6m2 0h2M6 24h2m14 0h6m2 0h2M6 25h2m14 0h2m2 0h2m2 0h2M6 26h2m14 0h2m2 0h2m2 0h2M6 27h2m14 0h2m2 0h2m2 0h2M6 28h2m14 0h2m2 0h2m2 0h2M6 29h2m8 0h2m4 0h2m2 0h2m2 0h2M6 30h2m8 0h2m4 0h2m2 0h2m2 0h2M6 31h2m8 0h2m2 0h2m4 0h2m2 0h2M6 32h2m8 0h2m2 0h2m4 0h2m2 0h2M6 33h2m2 0h2m6 0h2m2 0h2m2 0h2m2 0h2M6 34h2m2 0h2m6 0h2m2 0h2m2 0h2m2 0h2"/><path stroke="#b59857" d="M6 5h2m2 0h2m8 0h2m2 0h2M6 6h2m2 0h2m8 0h2m2 0h2"/><path stroke="#926d3c" d="M6 7h2m2 0h2m8 0h2m2 0h2M6 8h2m2 0h2m8 0h2m2 0h2m2 3h2m-2 1h2m-4 1h2m2 0h2m-6 1h2m2 0h2m-18 1h2m2 0h2m-6 1h2m2 0h2m-4 1h2m-2 1h2"/><path stroke="#894835" d="M8 7h2m2 0h2m4 0h2m2 0h2M8 8h2m2 0h2m4 0h2m2 0h2m4 7h2m-2 1h2m-16 1h2m2 0h2m6 0h2m2 0h2m-18 1h2m2 0h2m6 0h2m2 0h2m-16 1h2m-2 1h2m-4 3h2m2 0h2m-6 1h2m2 0h2m-6 1h6m-6 1h6m-4 1h2m-2 1h2m-4 1h2m2 0h2m-6 1h2m2 0h2m-6 1h2m2 0h2m-6 1h2m2 0h2m-6 1h4m2 0h2m-8 1h4m2 0h2"/><path stroke="#602631" d="M12 9h2m4 0h2m-8 1h2m4 0h2m8 9h2m-2 1h2m-2 1h2m-2 1h2m-18 1h2m14 0h2m-18 1h2m14 0h2m-18 1h2m14 0h2m-18 1h2m14 0h2m-18 1h4m2 0h2m8 0h2m-18 1h4m2 0h2m8 0h2m-18 1h2m14 0h2m-18 1h2m14 0h2m-18 1h2m14 0h2m-18 1h2m14 0h2m-18 1h2m-2 1h2"/><path stroke="#85c448" d="M14 9h4m-4 1h4M6 11h2m4 0h2m-8 1h2m4 0h2M4 13h2m2 0h2m-6 1h2m2 0h2m-4 1h2m-2 1h2m2 3h2m-2 1h2"/><path stroke="#439d40" d="M14 11h2m2 0h2m-6 1h2m2 0h2m-8 1h2m-2 1h2m-2 1h2m-2 1h2m-2 1h2m-2 1h2m-2 1h2m6 0h2m-10 1h2m6 0h2m-8 1h2m2 0h2m-6 1h2m2 0h2M8 23h2m6 0h2M8 24h2m6 0h2M8 25h2m-2 1h2m-2 1h2m-2 1h2m-2 1h2m-2 1h2m-2 1h2m-2 1h2m-2 1h2m-2 1h2"/><path stroke="#29694e" d="M16 11h2m-2 1h2m-4 7h2m2 0h2m-6 1h2m2 0h2m-8 1h2m2 0h2m-6 1h2m2 0h2m-8 1h2m8 0h2m-12 1h2m8 0h2m-12 1h2m8 0h2m-12 1h2m8 0h2m-12 1h2m8 0h2m-12 1h2m8 0h2m-12 1h2m8 0h2m-12 1h2m8 0h2m-12 1h2m-2 1h2"/><path stroke="#c8d6ac" d="M6 13h2m-2 1h2"/><path stroke="#2a2a41" d="M14 13h2m2 0h2m-6 1h2m2 0h2"/><path stroke="#ed9d7c" d="M16 13h2m-2 1h2M6 19h2m-2 1h2m0 1h4m8 0h6M8 22h4m8 0h6"/><path stroke="#d68552" d="M16 15h2m-2 1h2"/><path stroke="#4b0c30" d="M28 33h2m-2 1h2"/></svg>