<svg xmlns="http://www.w3.org/2000/svg" width="32" height="32" shape-rendering="crispEdges" viewBox="0 -0.5 18 18"><path stroke="#1a1c26" d="M6 2h3M5 3h1m3 0h1M4 4h1m5 0h1M4 5h1m5 0h1M4 6h1m5 0h1M4 7h1m5 0h1m1 0h2M4 8h1m6 0h1m2 0h1M3 9h1m10 0h1M3 10h1m7 0h1m2 0h1M3 11h1m6 0h1m1 0h2M4 12h1m5 0h1m-7 1h1m5 0h1m-7 1h1m5 0h1m-7 1h1m5 0h1m-7 1h1m2 0h2m2 0h1"/><path stroke="#bdbb93" d="M6 3h1M5 4h1m1 3h2"/><path stroke="#a19477" d="M7 3h2M6 4h2m1 0h1M5 5h1M5 6h1M5 7h2m2 0h1M6 8h1m2 0h1M7 9h2"/><path stroke="#edd1d6" d="M8 4h1M6 5h1m1 0h1M8 6h1m-3 5h1"/><path stroke="#94cc47" d="M7 5h1m1 0h1"/><path stroke="#dfb2c6" d="M6 6h1m2 0h1M7 8h2"/><path stroke="#f3bfad" d="M7 6h1"/><path stroke="#806352" d="M5 8h1m0 1h1m2 0h1m-3 1h2"/><path stroke="#f9f3c0" d="M10 8h1M4 9h1m0 2h1"/><path stroke="#faf8db" d="M12 8h2"/><path stroke="#5e423c" d="M5 9h1m0 1h1m2 0h1m-3 1h3m-5 2h1m1 0h1m1 0h1m-5 1h1m-1 1h1"/><path stroke="#cea65f" d="M10 9h1m-7 2h1m2 1h1"/><path stroke="#e7d494" d="M11 9h1m-8 1h1"/><path stroke="#dab580" d="M12 9h2"/><path stroke="#402830" d="M5 10h1m4 0h1m-5 4h1m1 0h1m-4 2h1m3 0h1"/><path stroke="#b3794d" d="M12 10h2"/><path stroke="#6b5853" d="M5 12h1m3 0h1m-4 1h1m1 0h1m0 1h1m-1 1h1m-4 1h1m3 0h1"/><path stroke="#ab684c" d="M6 12h1m1 0h1"/><path stroke="#372840" d="M7 14h1m-2 1h1m1 0h1"/></svg>