<svg xmlns="http://www.w3.org/2000/svg" width="64" height="64" shape-rendering="crispEdges" viewBox="0 -0.5 32 32"><path stroke="#1a1c26" d="M11 0h2m4 0h2m-9 1h1m2 0h1m2 0h1m2 0h1M9 2h1m2 0h1m4 0h1m2 0h1M9 3h1m3 0h4m3 0h1M9 4h1m10 0h1M10 5h1m8 0h1M10 6h1m8 0h1M8 7h2m10 0h2m5 0h2M6 8h2m14 0h5m2 0h1M5 9h1m24 0h1M4 10h1m19 0h1m1 0h1m1 0h1m1 0h1M5 11h1m18 0h2m1 0h1m1 0h1M4 12h1m1 0h1m16 0h1m1 0h4M4 13h1m2 0h1m14 0h1m2 0h1m1 0h1M2 14h7m13 0h1m2 0h1m1 0h1M1 15h1m7 0h1m11 0h2m2 0h1m1 0h1M0 16h1m9 0h1m9 0h1m1 0h1m2 0h1m1 0h1M0 17h1m9 0h2m8 0h1m1 0h1m2 0h1m1 0h1M0 18h1m9 0h3m6 0h2m1 0h1m2 0h1m1 0h1M0 19h1m9 0h1m1 0h3m3 0h1m1 0h1m1 0h1m2 0h1m1 0h1M0 20h1m9 0h2m7 0h2m1 0h1m2 0h1m1 0h1M0 21h1m9 0h1m1 0h7m1 0h1m1 0h1m2 0h1m1 0h1M0 22h1m9 0h1m9 0h1m1 0h1m2 0h1m1 0h1M0 23h1m9 0h2m1 0h1m2 0h1m1 0h3m1 0h1m2 0h1m1 0h1M0 24h1m1 0h1m5 0h1m1 0h1m1 0h2m2 0h2m2 0h1m1 0h1m2 0h1m1 0h4M1 25h1m1 0h1m3 0h1m1 0h2m2 0h1m2 0h1m2 0h2m1 0h6m3 0h1M2 26h1m1 0h1m1 0h1m1 0h2m1 0h2m1 0h5m1 0h1m1 0h1m2 0h1m1 0h1m3 0h1M3 27h1m3 0h2m1 0h1m1 0h1m3 0h2m1 0h2m1 0h1m2 0h1m1 0h1m3 0h1M4 28h4m3 0h2m3 0h1m1 0h1m2 0h1m1 0h3m1 0h1m3 0h1M6 29h1m5 0h1m3 0h2m4 0h1m1 0h1m1 0h5"/><path stroke="#f9f3c0" d="M11 1h2m4 0h2m-8 1h1m6 0h1m-4 4h2M2 15h7m-4 1h1m-1 1h1m9 3h1m14 5h1m-1 1h1m-1 1h1m-1 1h1"/><path stroke="#f6dd7a" d="M10 2h1m8 0h1m-9 1h1m6 0h1m-7 1h1m4 0h1m-5 3h2m2 0h1M6 9h1m15 0h1M6 10h1m15 0h1M7 11h1m14 0h1M8 12h1m12 0h1M1 16h1m7 0h1m-9 1h1m7 0h1m-9 1h1m3 0h1m3 0h1m-9 1h1m3 0h1m3 0h1m-5 1h1m8 0h1m1 0h1M5 21h1m22 4h2m-4 1h1"/><path stroke="#cea65f" d="M10 3h1m8 0h1m-9 1h1m6 0h1m-7 16h1m5 0h1m-7 2h1m5 0h1M2 25h1m2 0h1m2 0h1m14 2h2m3 0h2m-4 1h1"/><path stroke="#402830" d="M12 3h1m4 0h1"/><path stroke="#ab684c" d="M10 4h1m8 0h1m-9 1h1m6 0h1m-8 14h1m7 0h1m-9 2h1m7 0h1M3 26h1m1 0h1m1 0h1m-4 1h3m21 1h2"/><path stroke="#3c4851" d="M13 4h1m2 0h1m-5 1h1m4 0h1m-7 1h1m6 0h1m-9 1h1m8 0h1M10 8h1m8 0h1M10 9h1m8 0h1m3 0h1m1 0h1m1 0h1m-18 1h1m8 0h1m3 0h1m-14 1h1m8 0h1m3 0h1m2 0h1M9 12h1m10 0h1m1 0h1M8 13h1m12 0h1m-1 1h1m-11 2h1m0 1h1m6 0h1m-7 1h2m3 0h1m-4 1h3M2 20h1m5 0h1m-7 1h3m1 0h3m-7 1h1m5 0h1m4 0h1m2 0h1M2 23h1m5 0h1m-6 1h2m1 0h2m-4 1h1m1 0h1m5 0h1m1 0h2m1 0h1m-9 2h1m-2 1h1m8 0h1M7 29h1m3 0h1m6 0h1"/><path stroke="#cbd2d9" d="M14 4h2m-3 1h1M8 8h2m10 0h2m5 0h2M7 9h1m21 0h1M5 10h1m5 2h1m-2 1h1m2 0h2m3 0h2m-7 1h1m1 0h1m1 0h1m1 0h1m-7 1h1m2 0h1m2 0h1M3 16h2m1 0h2m6 0h1m3 0h1"/><path stroke="#99a5a7" d="M14 5h1m-3 1h1m-2 1h1m-1 1h1M8 9h2m10 0h2m2 0h1m1 0h1m1 0h1M7 10h3m10 0h2m7 0h1M6 11h1m21 0h1M5 12h1m-1 1h1m5 0h1m-2 1h2m2 0h1m3 0h1m-7 1h1m1 0h2m1 0h2m1 0h1m-8 1h1m1 0h3m-4 1h5M3 18h2m1 0h2m8 0h1M3 19h2m1 0h2m-5 1h2m1 0h2m6 3h2m3 3h1M9 28h1m10 0h1M8 29h1m12 0h1"/><path stroke="#617077" d="M15 5h2m-4 1h2m2 0h1m-6 1h1m12 3h1m1 0h1M8 11h2m10 0h2M7 12h1m-2 1h1m3 2h2M2 16h1m5 0h1m3 0h1m6 0h1M2 17h3m1 0h3m4 0h1M2 18h1m5 0h1m6 0h1m1 0h1M2 19h1m5 0h1m-6 3h2m1 0h2m3 0h1m7 0h1M3 23h2m1 0h2m4 0h1m4 0h1m-7 1h1m2 0h2m2 0h2m-9 1h1m6 0h1m-9 1h1m0 1h1m6 0h1m-9 1h1m8 0h1M9 29h2m8 0h2"/><path stroke="#edd1d6" d="M15 7h2m-4 1h1m2 0h1m-4 1h2m1 0h1m-1 1h1"/><path stroke="#f1c256" d="M18 7h1m-7 1h1m-2 1h1M1 20h1m7 0h1m3 0h1m3 0h1M1 21h1m7 0h1m-9 1h1m3 0h1m3 0h1m4 0h2m1 0h1M1 23h1m3 0h1m3 0h1m-9 1h1m3 0h1m3 0h1m13 2h2m3 0h2m-4 1h1"/><path stroke="#71b5db" d="M14 8h2m1 0h1"/><path stroke="#f3bfad" d="M18 8h1"/><path stroke="#de9e8c" d="M12 9h1m2 0h1m1 0h1m-5 1h2m1 2h1"/><path stroke="#f2cdaa" d="M18 9h1m-4 1h1m1 0h1"/><path stroke="#fff" d="M11 10h1m-1 1h2m1 0h5m-9 1h1m1 0h3m3 0h2M9 13h1m2 0h1m2 0h3m2 0h1M9 14h1m2 0h1m3 0h1m3 0h1"/><path stroke="#d07482" d="M12 10h1m5 0h1m-6 1h1"/><path stroke="#dfb2c6" d="M15 12h1m1 0h1"/><path stroke="#5e423c" d="M26 13h1"/><path stroke="#806352" d="M26 14h1m-1 1h1m-1 1h1m-1 1h1m-1 1h1m-1 1h1m-1 1h1m-1 1h1m-1 1h1m-1 1h1m-1 1h1"/><path stroke="#4c0717" d="M21 16h1m-9 10h1m-1 1h1m1 0h1m5 0h1m-9 1h1m1 0h1m6 0h1m-10 1h1m1 0h1m7 0h1"/><path stroke="#810b0b" d="M21 17h1m-1 1h1m-1 1h1m-1 1h1m-1 1h1m-1 1h1m-1 1h1m-1 1h1m-1 1h1m-1 1h1m-8 1h1m-1 1h1m-1 1h1"/></svg>