<svg xmlns="http://www.w3.org/2000/svg" width="32" height="32" shape-rendering="crispEdges" viewBox="0 -0.5 18 18"><path stroke="#1a1c26" d="M4 1h1m1 0h3m1 0h1M3 2h1m1 0h1m3 0h1m1 0h1M3 3h1m7 0h1m1 0h1M3 4h1m6 0h1m1 0h1m1 0h1M4 5h1m5 0h1m1 0h1m1 0h1M4 6h1m5 0h1m1 0h1m1 0h1M4 7h1m5 0h1m1 0h1m1 0h1M3 8h1m7 0h2m1 0h1M2 9h1m9 0h1m1 0h1M2 10h1m12 0h1M2 11h1m9 0h1m1 0h1M2 12h1m9 0h1m1 0h1M2 13h1m9 0h1m1 0h1M3 14h1m3 0h1m3 0h1m1 0h1M4 15h1m2 0h1m2 0h1m-7 1h1m3 0h1m2 0h1"/><path stroke="#cbd2d9" d="M4 2h1m1 0h3m1 0h1M5 3h1m3 0h1"/><path stroke="#99a5a7" d="M4 3h1m1 0h3m1 0h1M4 4h2M5 5h1m1 11h1m2 0h1"/><path stroke="#617077" d="M6 4h4M6 16h1m2 0h1"/><path stroke="#d1fbf0" d="M13 4h1M3 9h1m2 0h1"/><path stroke="#f3bfad" d="M6 5h1m1 0h1M8 6h1m1 3h1m0 1h1"/><path stroke="#9ee4ef" d="M7 5h1m1 0h1m3 0h1m-1 1h1m-1 1h1M4 9h2m-3 1h1m2 0h1"/><path stroke="#bdbb93" d="M5 6h1M5 7h2"/><path stroke="#de9e8c" d="M6 6h2m1 0h1M7 8h2m1 2h1"/><path stroke="#c58faa" d="M7 7h2"/><path stroke="#a19477" d="M9 7h1M9 8h1"/><path stroke="#0f343f" d="M4 8h3m0 1h1m-1 1h1m-1 1h1m-1 1h1m-1 1h1m-2 1h1m-2 1h1"/><path stroke="#e38524" d="M10 8h1M8 9h2m1 0h1m-1 2h1m-1 1h1m-1 1h1"/><path stroke="#71b5db" d="M13 8h1M4 10h2m-3 1h1m2 0h1"/><path stroke="#3466b0" d="M13 9h1M4 11h2m-3 1h4m-3 1h2"/><path stroke="#810b0b" d="M8 10h1m0 1h1m-1 1h1"/><path stroke="#a82b12" d="M9 10h1m-1 3h1m-1 1h1m-1 1h1"/><path stroke="#f6dd7a" d="M12 10h3m-2 3h1"/><path stroke="#4c0717" d="M8 11h1m-1 1h1"/><path stroke="#d45c1d" d="M10 11h1m-1 1h1m-1 1h1m-1 1h1"/><path stroke="#b3794d" d="M13 11h1m-1 1h1"/><path stroke="#113f82" d="M3 13h1m2 0h1m-3 1h2"/><path stroke="#8a4028" d="M8 13h1"/><path stroke="#3c4851" d="M8 14h1m-3 1h1m1 0h1m-4 1h1"/></svg>