<svg xmlns="http://www.w3.org/2000/svg" width="32" height="32" shape-rendering="crispEdges" viewBox="0 -0.5 18 18"><path stroke="#1a1c26" d="M3 1h1m4 0h3M2 2h1m1 0h1m2 0h1m3 0h1M2 3h1m1 0h1m1 0h1m5 0h1m1 0h1M2 4h1m1 0h1m1 0h1m5 0h2m1 0h1M2 5h1m1 0h1m1 0h1m5 0h1m3 0h1M2 6h1m1 0h1m1 0h1m5 0h2m1 0h1M2 7h1m1 0h1m1 0h1m5 0h1m1 0h1M2 8h1m1 0h2m7 0h1M2 9h1m1 0h1m9 0h1M2 10h1m1 0h1m10 0h1M2 11h1m11 0h1M2 12h1m1 0h1m9 0h1M2 13h1m1 0h1m9 0h1M2 14h1m1 0h1m9 0h1M2 15h1m1 0h2m7 0h1M2 16h1m1 0h1m1 0h1m5 0h1"/><path stroke="#c9e8a1" d="M3 2h1m10 3h1"/><path stroke="#f3e7a8" d="M8 2h3M8 3h1M7 5h1M7 6h1M7 7h1M6 8h1m1 0h1"/><path stroke="#6ae291" d="M3 3h1m10 1h1M9 5h1m1 0h1m1 0h1m1 0h1m-2 1h1"/><path stroke="#edd1d6" d="M7 3h1m3 0h1m-2 1h1m-1 1h1m-1 1h1m1 3h1m0 1h2M4 11h2"/><path stroke="#dab580" d="M9 3h1m1 1h1m-1 2h1m-1 1h1M7 8h1m4 0h1M6 9h1"/><path stroke="#b3794d" d="M10 3h1M8 4h2m-1 8h1"/><path stroke="#50cd90" d="M3 4h1"/><path stroke="#f3bfad" d="M7 4h1m0 1h1M8 6h2m-4 4h1"/><path stroke="#3c4851" d="M3 5h1"/><path stroke="#806352" d="M3 6h1M3 7h1M3 8h1M3 9h1m-1 1h1m-1 1h1m-1 1h1m-1 1h1m4 0h3m-8 1h1m4 0h1m1 0h1m-8 1h1m4 0h1m1 0h1m-8 1h1"/><path stroke="#9ee4ef" d="M8 7h1m0 1h2m2 1h1"/><path stroke="#c58faa" d="M9 7h2"/><path stroke="#71b5db" d="M11 8h1M7 9h1m1 0h2m-6 1h1m7 1h1m-9 1h1m7 0h1m-9 1h1m7 0h1m-9 1h1m7 0h1"/><path stroke="#d1fbf0" d="M5 9h1"/><path stroke="#3466b0" d="M8 9h1m2 0h1m-4 1h3m1 0h1m-7 1h1m1 0h3m1 0h1m-7 1h1m5 0h1m-7 1h1m5 0h1m-7 1h1m5 0h1m-7 1h1m5 0h1"/><path stroke="#113f82" d="M7 10h1m3 0h1m-5 1h1m3 0h1m-1 1h1m-1 1h1m-1 1h1m-1 1h1"/><path stroke="#8a4028" d="M7 12h1"/><path stroke="#ab684c" d="M8 12h1m1 0h1"/><path stroke="#5e423c" d="M7 13h1m-1 1h1m1 0h1m-3 1h1m1 0h1m-3 1h1"/><path stroke="#617077" d="M8 16h1m1 0h1"/><path stroke="#99a5a7" d="M9 16h1m1 0h1"/></svg>