<svg xmlns="http://www.w3.org/2000/svg" width="64" height="64" shape-rendering="crispEdges" viewBox="0 -0.5 32 32"><path stroke="#1a1c26" d="M14 0h3m-6 1h1m1 0h1m3 0h1m1 0h1M10 2h1m1 0h1m5 0h1m1 0h1M10 3h1m9 0h1M10 4h1m9 0h1M10 5h1m8 0h1m-9 1h1m7 0h1M10 7h1m9 0h1M9 8h1m11 0h1M8 9h1m13 0h1M2 10h1m5 0h1m13 0h1m5 0h1M1 11h1m1 0h1m1 0h1m1 0h1m15 0h1m1 0h1m1 0h1m1 0h1M1 12h1m2 0h1m1 0h1m17 0h1m1 0h1m2 0h1M1 13h1m27 0h1M2 14h1m25 0h1M3 15h1m23 0h1M3 16h1m23 0h1M3 17h1m23 0h1M3 18h1m17 0h1m5 0h1M3 19h1m5 0h1m10 0h1m1 0h1m4 0h1M4 20h1m3 0h1m1 0h1m9 0h1m2 0h1m2 0h1M5 21h3m1 0h1m11 0h1m2 0h2M9 22h1m11 0h1M9 23h1m11 0h1M9 24h1m11 0h1M9 25h1m12 0h1M8 26h1m13 0h1M8 27h1m13 0h1M8 28h1m13 0h1M7 29h1m15 0h1M6 30h1m4 0h2m4 0h3m4 0h1"/><path stroke="#bdbb93" d="M14 1h3m-4 1h1m3 0h1m-6 1h1m5 0h1m-6 3h1m-1 1h1m-1 1h1m-1 1h1m-1 1h1m-1 1h1"/><path stroke="#edd1d6" d="M11 2h1m7 0h1m-5 1h2m-2 1h2m-1 1h1m-1 1h1M2 11h1m25 0h1M3 12h1m1 0h1m19 0h1m1 0h1M4 13h1m21 0h1"/><path stroke="#a19477" d="M14 2h1m-2 1h1m3 0h1m0 1h1m-6 1h1m4 0h1m-7 1h1m5 0h1m-7 1h1m5 0h1m-7 1h1m5 0h1m-7 1h1m5 0h1m-7 1h1m5 0h1m-6 2h1M7 30h1m15 0h1"/><path stroke="#806352" d="M15 2h2m-3 1h1m-2 1h1m-3 3h1m-1 1h1m-1 1h1m-1 1h1m0 1h1M8 30h2m11 0h2"/><path stroke="#f3bfad" d="M11 3h1m7 0h1m-8 1h1m1 0h1m2 0h1m-4 2h1m-1 1h1M2 12h1m25 0h1M3 13h1m1 0h1m19 0h1m1 0h1M4 14h1m21 0h1"/><path stroke="#dfb2c6" d="M11 4h1m7 0h1m-8 1h1m2 1h1m1 0h1m-1 1h1m-4 1h3M2 13h1m25 0h1M3 14h1m1 0h1m19 0h1m1 0h1"/><path stroke="#c58faa" d="M11 5h1m3 2h2M6 13h1m17 0h1M6 14h1m17 0h1M4 15h2m19 0h2"/><path stroke="#71b5db" d="M14 5h2m1 0h1m1 4h1m-10 1h1m6 0h1m2 0h1m-11 1h1m3 0h1m1 0h2m2 0h2M9 12h1m4 0h1m1 0h1m4 0h1M8 13h1m5 0h1m1 0h1m4 0h2m-9 1h1m1 0h1m5 0h1m-9 1h1m1 0h1m-3 1h1m1 0h1m-3 4h1m1 0h1m-3 1h1m1 0h1m-3 1h1m1 0h1m-3 1h1m1 0h1m-3 1h1m1 0h1m-3 1h1m1 0h1m-3 1h1m1 0h1m-3 1h1m1 0h1m-3 1h1m1 0h1m-3 1h1m1 0h1"/><path stroke="#d1fbf0" d="M19 7h1M10 8h1m9 0h1M9 9h1m11 0h1M9 10h1m-2 1h1m13 0h1M7 12h1m15 0h1"/><path stroke="#3466b0" d="M17 8h1m-4 1h3m-2 1h1m3 0h1m-9 1h1m3 0h1m2 0h2m-10 1h1m1 0h1m2 0h1m1 0h2m1 0h1M9 13h2m2 0h1m1 0h1m1 0h1m2 0h1M8 14h2m5 0h1m5 0h1M7 15h1m1 0h1m5 0h1m5 0h1m1 0h1M7 16h1m15 0h1M7 17h1m15 0h1M7 18h1m15 0h1M7 19h1m4 2h1m5 0h1m-7 1h1m5 0h1m-8 1h1m7 0h1m-9 1h1m7 0h1m-9 1h1m7 0h2m-11 1h1m1 0h1m5 0h1m1 0h1m-11 1h1m1 0h1m5 0h1m1 0h1m-9 1h1m5 0h1"/><path stroke="#9ee4ef" d="M19 8h1M10 9h1m6 0h1m2 0h1m-7 1h1m1 0h1m4 0h1M9 11h1m-2 1h1m13 0h1M7 13h1m15 0h1"/><path stroke="#113f82" d="M11 12h1m7 0h1m-9 1h2m5 0h2m-10 1h1m1 0h2m3 0h2m1 0h1M6 15h1m3 0h1m1 0h1m5 0h1m1 0h1m3 0h1M6 16h1m2 0h1m5 0h1m5 0h1m2 0h1M6 17h1m2 0h1m11 0h1m2 0h1M6 18h1m2 0h1m1 0h1m12 0h1M6 19h1m4 0h2m5 0h2m4 0h1m-14 1h1m1 0h1m1 0h1m1 0h1m1 0h1m-10 1h1m4 0h1m4 0h1m-11 1h1m4 0h1m4 0h1m-11 1h1m1 0h1m2 0h1m2 0h1m1 0h1m-11 1h1m1 0h1m2 0h1m2 0h1m1 0h1m-11 1h1m1 0h1m2 0h1m2 0h1m2 0h1M9 26h1m1 0h1m3 0h1m3 0h1m1 0h1M9 27h1m1 0h1m1 0h1m1 0h1m1 0h1m1 0h1m1 0h1m-11 1h1m1 0h1m1 0h1m1 0h1m1 0h1m-7 1h1m1 0h1"/><path stroke="#f6dd7a" d="M7 14h1m15 0h1M8 15h1m2 0h1m7 0h1m2 0h1m-10 1h1m3 0h1m4 0h1m-10 1h1m3 0h1m4 0h1M10 28h1m9 0h1m-10 1h2m4 0h3m-7 1h2m1 0h1"/><path stroke="#f9f3c0" d="M11 14h1m7 0h1m-7 1h1m3 0h1m-6 1h1m5 0h1m-5 1h3"/><path stroke="#f1c256" d="M4 16h1m3 0h1m10 0h1M4 17h1m3 0h1m3 0h1m5 0h1M4 18h1m3 0h1m4 0h5M9 28h1"/><path stroke="#151556" d="M5 16h1m4 0h1m9 0h1m4 0h1M5 17h1m4 0h1m9 0h1m4 0h1M5 18h1m4 0h1m9 0h1m4 0h1M5 19h1m4 0h1m14 0h1m-14 1h1m5 0h1m-8 1h1m1 0h1m3 0h1m1 0h1m-9 1h1m1 0h1m3 0h1m1 0h1m-7 1h1m3 0h1m-5 1h1m3 0h1m-5 1h1m3 0h1m-5 1h1m3 0h1"/><path stroke="#ebab4c" d="M11 16h1m14 0h1m-16 1h1m7 0h1m6 0h1m-15 1h1m5 0h2m2 0h1m3 0h1M4 19h1m3 0h1m4 0h5m5 0h1m2 0h1M5 20h3m16 0h2m-5 8h1m-7 2h1"/><path stroke="#372840" d="M8 29h3m9 0h3"/><path stroke="#5e423c" d="M10 30h1m9 0h1"/></svg>