<svg xmlns="http://www.w3.org/2000/svg" width="32" height="32" shape-rendering="crispEdges" viewBox="0 -0.5 18 18"><path stroke="#1a1c26" d="M8 1h2M6 2h2m2 0h1M5 3h1m5 0h1M5 4h1m5 0h1M5 5h1m5 0h1M5 6h1m5 0h1M5 7h1m5 0h1M4 8h1m7 0h1M3 9h1m9 0h1M3 10h1m9 0h1M3 11h1m9 0h1M3 12h1m9 0h1M3 13h1m9 0h1M3 14h1m4 0h1m4 0h1M4 15h1m3 0h1m3 0h1m-8 1h1m3 0h1m1 0h1"/><path stroke="#bdbb93" d="M8 2h2M7 3h1M6 5h1M6 6h1M6 7h2M7 8h1"/><path stroke="#edd1d6" d="M6 3h1m3 0h1M9 4h1M9 5h1M9 6h1"/><path stroke="#a19477" d="M8 3h1m1 1h1m-1 3h1M6 8h1m3 0h1M7 9h1"/><path stroke="#806352" d="M9 3h1M7 4h2"/><path stroke="#f3bfad" d="M6 4h1m0 1h1m-3 6h1m5 0h1"/><path stroke="#9ee4ef" d="M8 5h1m1 0h1"/><path stroke="#de9e8c" d="M7 6h2m1 0h1"/><path stroke="#c58faa" d="M8 7h2"/><path stroke="#6ae291" d="M5 8h1M4 9h1"/><path stroke="#4ba245" d="M8 8h2M5 9h1m5 0h1m-8 1h1m7 0h1m-9 1h1m7 0h1m-9 1h1m7 0h1m-9 1h1m7 0h1m-9 1h1m7 0h1"/><path stroke="#50cd90" d="M11 8h1m0 1h1"/><path stroke="#1a5556" d="M6 9h1m3 0h1m-5 1h5m-5 2h1m3 0h1m-5 1h1m3 0h1m-5 1h1m3 0h1m-5 1h1m3 0h1"/><path stroke="#2c7d63" d="M8 9h2m-5 1h1m5 0h1m-7 2h1m5 0h1m-7 1h1m5 0h1m-7 1h1m5 0h1m-7 1h1m5 0h1"/><path stroke="#dfb2c6" d="M6 11h1m3 0h1"/><path stroke="#0f343f" d="M7 11h3m-3 1h3"/><path stroke="#8a4028" d="M7 13h1m1 0h1m-4 3h1"/><path stroke="#dab580" d="M8 13h1"/><path stroke="#b3794d" d="M7 14h1m1 0h1m-3 1h1m1 0h1m-3 1h1m2 0h1"/><path stroke="#cea65f" d="M8 16h1"/></svg>