<svg xmlns="http://www.w3.org/2000/svg" width="32" height="32" shape-rendering="crispEdges" viewBox="0 -0.5 18 18"><path stroke="#1a1c26" d="M5 1h3m3 0h1M4 2h1m3 0h1m1 0h1m1 0h1M3 3h1m5 0h1m2 0h1M3 4h1m9 0h1M3 5h1m10 0h1M3 6h1m11 0h1M3 7h1m11 0h1M2 8h1m12 0h1M1 9h1m13 0h1M1 10h1m13 0h1M1 11h1m13 0h1M1 12h1m12 0h1M1 13h1m11 0h1M1 14h1m4 0h1m5 0h1M2 15h1m3 0h1m3 0h1m1 0h1M3 16h1m3 0h1m1 0h1m1 0h1"/><path stroke="#50cd90" d="M5 2h3M3 8h1m6 0h1M2 9h1m-1 1h1m-1 1h1m-1 1h1m-1 1h1m-1 1h1"/><path stroke="#f3e7a8" d="M11 2h1"/><path stroke="#edd1d6" d="M4 3h1m0 7h1"/><path stroke="#4ba245" d="M5 3h3m1 5h1M6 9h2m-5 2h1m-1 1h1m-1 1h1m-1 1h1m-1 1h1"/><path stroke="#2c7d63" d="M8 3h1M5 4h4M4 9h1m3 0h2m-4 1h2m1 0h1m-6 1h1m4 0h1m-6 1h1m4 0h1m-6 1h1m4 0h1m-6 1h1m4 0h1m-6 1h1m4 0h1"/><path stroke="#402830" d="M10 3h1m-1 1h1m0 1h1m0 1h1m0 1h1m-1 1h1m-1 1h1m-1 1h1m-2 1h1m-2 1h1m-2 1h1m-1 1h1"/><path stroke="#dab580" d="M11 3h1m0 1h1m0 1h1m0 1h1"/><path stroke="#f3bfad" d="M4 4h1m0 1h1m1 0h1M7 6h1m4 2h1M3 10h2"/><path stroke="#1a5556" d="M9 4h1M9 5h1M9 6h1m-2 4h1m-4 1h3"/><path stroke="#b3794d" d="M11 4h1m0 1h1m0 1h1m0 1h1m-1 1h1m-1 1h1m-1 1h1m-1 1h1m-2 1h1m-2 1h1m-2 1h1"/><path stroke="#f9f3c0" d="M4 5h1M4 6h1m0 1h1M5 8h1"/><path stroke="#71b5db" d="M6 5h1m1 0h1"/><path stroke="#0f343f" d="M10 5h1m-1 1h1m-1 1h1m1 0h1m-3 2h1m1 0h1m-3 1h1m1 0h1m-5 1h1m1 0h1m-6 1h4m1 0h1m-3 1h1m-1 1h1m-1 1h1"/><path stroke="#de9e8c" d="M5 6h2m1 0h1"/><path stroke="#bdbb93" d="M11 6h1m-1 1h1m-1 1h1m-1 1h1m-1 1h1m-1 1h1m-6 5h1"/><path stroke="#e7d494" d="M4 7h1m3 0h1"/><path stroke="#c58faa" d="M6 7h2"/><path stroke="#94cc47" d="M9 7h1M6 8h2M3 9h1"/><path stroke="#cea65f" d="M4 8h1m3 0h1M5 9h1"/><path stroke="#8a4028" d="M13 11h1m-2 1h1m-2 1h1"/><path stroke="#806352" d="M5 13h1m1 0h1m-4 3h1"/><path stroke="#f1c256" d="M6 13h1"/><path stroke="#a19477" d="M5 14h1m1 0h1m-3 1h1m1 0h1m-3 1h1m2 0h1"/><path stroke="#6b5853" d="M11 15h1"/></svg>