<svg xmlns="http://www.w3.org/2000/svg" width="32" height="32" shape-rendering="crispEdges" viewBox="0 -0.5 36 37"><path stroke="#372840" d="M14 4h4m-4 1h4m-6 1h2m4 0h2m10 0h2M12 7h2m4 0h2m10 0h2M10 8h2m8 0h2m6 0h2m2 0h2M10 9h2m8 0h2m6 0h2m2 0h2M8 10h2m12 0h2m4 0h2m2 0h2M8 11h2m12 0h2m4 0h2m2 0h2M8 12h2m12 0h2m4 0h2m2 0h2M8 13h2m12 0h2m4 0h2m2 0h2M6 14h2m16 0h2m2 0h2m2 0h2M6 15h2m16 0h2m2 0h2m2 0h2M4 16h2m18 0h2m2 0h2m2 0h2M4 17h2m18 0h2m2 0h2m2 0h2M4 18h2m18 0h2m2 0h2m2 0h2M4 19h2m18 0h2m2 0h2m2 0h2M4 20h2m20 0h4m2 0h2M4 21h2m20 0h4m2 0h2M4 22h2m22 0h2m2 0h2M4 23h2m22 0h2m2 0h2M4 24h2m16 0h8m2 0h2M4 25h2m16 0h8m2 0h2M6 26h4m12 0h2m4 0h2m2 0h2M6 27h4m12 0h2m4 0h2m2 0h2M8 28h2m12 0h2m4 0h2m2 0h2M8 29h2m12 0h2m4 0h2m2 0h2M8 30h2m12 0h2m4 0h2m2 0h2M8 31h2m12 0h2m4 0h2m2 0h2M8 32h2m12 0h2m4 0h2m2 0h2M8 33h2m12 0h2m4 0h2m2 0h2M8 34h2m14 0h2m2 0h2m2 0h2M8 35h2m14 0h2m2 0h2m2 0h2"/><path stroke="#ffe9e3" d="M14 6h4m-4 1h4m-4 1h6m-6 1h6m-8 1h2m2 0h2m-6 1h2m2 0h2m-2 1h2m-2 1h2"/><path stroke="#e2b27e" d="M12 8h2m-2 1h2"/><path stroke="#bda499" d="M30 8h2m-2 1h2"/><path stroke="#b28b78" d="M10 10h2m8 0h2m-12 1h2m8 0h2"/><path stroke="#b8ccd8" d="M14 10h2m2 0h2m-6 1h2m2 0h2"/><path stroke="#886e6a" d="M30 10h2m-2 1h2m-2 1h2m-2 1h2m-2 1h2m-2 1h2m-2 1h2m-2 1h2m-2 1h2m-2 1h2m-2 1h2m-2 1h2m-2 1h2m-2 1h2m-2 1h2m-2 1h2m-2 1h2m-2 1h2m-2 1h2m-2 1h2m-2 1h2m-2 1h2m-2 1h2m-2 1h2m-2 1h2m-2 1h2"/><path stroke="#fdc9c9" d="M10 12h2m8 0h2m-12 1h2m8 0h2m-10 1h2m4 0h2m-8 1h2m4 0h2m-6 1h4m-4 1h4m8 5h2m-2 1h2M6 24h2m-2 1h2"/><path stroke="#fad6ff" d="M12 12h4m2 0h2m-8 1h4m2 0h2"/><path stroke="#c68556" d="M8 14h2m-2 1h2m-4 1h2m-2 1h2m4 7h2m-2 1h2"/><path stroke="#373334" d="M10 14h2m8 0h2m-12 1h2m8 0h2m-10 1h2m4 0h2m-8 1h2m4 0h2M6 18h2m6 0h4m4 0h2M6 19h2m6 0h4m4 0h2M8 20h4m8 0h2M8 21h4m8 0h2M8 22h2m2 0h8m2 0h2M8 23h2m2 0h8m2 0h2M8 24h2m-2 1h2"/><path stroke="#c090a9" d="M14 14h4m-4 1h4"/><path stroke="#b47538" d="M22 14h2m-2 1h2m-14 1h2m8 0h2m-12 1h2m8 0h2m-10 1h2m4 0h2m-8 1h2m4 0h2m-6 1h4m6 0h2m-12 1h4m6 0h2"/><path stroke="#855f39" d="M8 16h2m12 0h2M8 17h2m12 0h2M8 18h4m8 0h2M8 19h4m8 0h2M6 20h2m4 0h2m4 0h2m2 0h2M6 21h2m4 0h2m4 0h2m2 0h2M6 22h2m16 0h2M6 23h2m16 0h2m-14 5h2m-2 1h2m-2 1h2m4 0h2m-8 1h2m4 0h2m-8 1h2m-2 1h2"/><path stroke="#4c3d2e" d="M10 22h2m8 0h2m-12 1h2m8 0h2m-12 3h4m2 0h2m2 0h2m-12 1h4m2 0h2m2 0h2m-12 1h2m4 0h2m2 0h2m-12 1h2m4 0h2m2 0h2m-12 1h2m4 0h2m2 0h2m-12 1h2m4 0h2m2 0h2m-12 1h2m4 0h2m2 0h2m-12 1h2m4 0h2m2 0h2m-12 1h2m2 0h2m2 0h2m2 0h2m-14 1h2m2 0h2m2 0h2m2 0h2"/><path stroke="#8c5b3e" d="M10 24h2m8 0h2m-12 1h2m8 0h2m-8 7h2m2 0h2m-6 1h2m2 0h2m-8 1h2m2 0h2m2 0h2m-10 1h2m2 0h2m2 0h2"/><path stroke="#d6a851" d="M14 24h2m2 0h2m-6 1h2m2 0h2m-6 3h2m2 0h2m-6 1h2m2 0h2m-6 1h2m-2 1h2"/><path stroke="#f8c53a" d="M16 24h2m-2 1h2m-4 1h2m2 0h2m-6 1h2m2 0h2"/></svg>