<svg xmlns="http://www.w3.org/2000/svg" width="32" height="32" shape-rendering="crispEdges" viewBox="0 -0.5 36 37"><path stroke="#372840" d="M14 4h4m10 0h2M14 5h4m10 0h2M12 6h2m4 0h2m6 0h2m2 0h2M12 7h2m4 0h2m6 0h2m2 0h2M10 8h2m8 0h2m2 0h2m6 0h2M10 9h2m8 0h2m2 0h2m6 0h2M8 10h2m12 0h4m6 0h2M8 11h2m12 0h4m6 0h2M8 12h2m12 0h2m6 0h2M8 13h2m12 0h2m6 0h2M8 14h2m12 0h2m6 0h2M8 15h2m12 0h2m6 0h2M6 16h2m16 0h2m4 0h2M6 17h2m16 0h2m4 0h2M4 18h2m24 0h2M4 19h2m24 0h2M4 20h2m16 0h4m4 0h2M4 21h2m16 0h4m4 0h2M4 22h2m14 0h2m8 0h2M4 23h2m14 0h2m8 0h2M4 24h2m14 0h2m8 0h2M4 25h2m14 0h2m8 0h2M6 26h2m12 0h2m8 0h2M6 27h2m12 0h2m8 0h2M8 28h2m10 0h2m8 0h2M8 29h2m10 0h2m8 0h2M8 30h2m10 0h2m8 0h2M8 31h2m10 0h2m8 0h2M8 32h2m10 0h2m8 0h2M8 33h2m10 0h2m8 0h2M6 34h2m14 0h2m6 0h2M6 35h2m14 0h2m6 0h2"/><path stroke="#fff" d="M14 6h4m-4 1h4m-6 1h4m2 0h2m-8 1h4m2 0h2m-10 1h4m6 0h2m-12 1h4m6 0h2m-12 1h2m8 0h2m-12 1h2m8 0h2m-12 1h2m8 0h2m-12 1h2m8 0h2m-10 1h2m4 0h2m-8 1h2m4 0h2m-6 1h6m-6 1h6m-6 1h6m-6 1h6m-4 1h2m-2 1h2"/><path stroke="#f8f644" d="M28 6h2m-2 1h2m-4 1h2m2 0h2m-6 1h2m2 0h2m-22 7h2m8 0h2m-12 1h2m8 0h2m-10 1h2m-2 1h2m0 3h2m2 0h2m-6 1h2m2 0h2"/><path stroke="#ffe9e3" d="M16 8h2m-2 1h2m-4 1h6m-6 1h6m-8 1h2m2 0h2m-6 1h2m2 0h2m-2 1h2m-2 1h2M6 24h2m-2 1h2"/><path stroke="#59cf93" d="M28 8h2m-2 1h2"/><path stroke="#f8c53a" d="M26 10h2m2 0h2m-6 1h2m2 0h2m-4 3h2m-2 1h2"/><path stroke="#fff089" d="M28 10h2m-2 1h2m-2 1h2m-2 1h2"/><path stroke="#42bfe8" d="M14 12h2m2 0h2m-6 1h2m2 0h2"/><path stroke="#452a1b" d="M26 12h2m-2 1h2m-2 1h2m-2 1h2m-2 1h2m-2 1h2m-2 1h2m-2 1h2m-2 1h2m-2 1h2m-2 1h2m-2 1h2m-2 1h2m-2 1h2m-2 1h2m-2 1h2m-2 1h2m-2 1h2m-2 1h2m-2 1h2m-2 1h2m-2 1h2m-2 1h2m-2 1h2"/><path stroke="#e3cddf" d="M12 14h4m2 0h2m-8 1h4m2 0h2"/><path stroke="#f8e398" d="M8 16h2m12 0h2M8 17h2m12 0h2m-14 1h2m8 0h2m2 0h2m-16 1h2m8 0h2m2 0h2m-14 1h2m-2 1h2m0 3h2m2 0h2m-6 1h2m2 0h2m-6 1h2m2 0h2m-6 1h2m2 0h2m-6 1h2m2 0h2m-6 1h2m2 0h2m-6 1h2m2 0h2m-6 1h2m2 0h2m-6 1h2m2 0h2m-6 1h2m2 0h2m-6 1h2m2 0h2m-6 1h2m2 0h2"/><path stroke="#fdc9c9" d="M14 16h4m-4 1h4"/><path stroke="#b47538" d="M28 16h2m-2 1h2m-2 1h2m-2 1h2m-2 1h2m-2 1h2m-2 1h2m-2 1h2m-2 1h2m-2 1h2m-2 1h2m-2 1h2m-2 1h2m-2 1h2m-2 1h2m-2 1h2m-2 1h2m-2 1h2m-2 1h2m-2 1h2"/><path stroke="#e6e7f0" d="M6 18h2m-2 1h2m-2 1h2m-2 1h2m-2 1h2m2 0h2m-6 1h2m2 0h2m-2 1h2m-2 1h2m-2 1h2m-2 1h2m-2 1h2m-2 1h2m-2 1h2m-2 1h2m-2 1h2m-2 1h2m-4 1h2m-2 1h2"/><path stroke="#c5c7dd" d="M8 18h2m12 0h2M8 19h2m12 0h2m-14 1h2m8 0h2m-12 1h2m8 0h2m-10 1h2m-2 1h2m-2 1h2m-2 1h2m-2 1h2m-2 1h2m-2 1h2m-2 1h2m-2 1h2m-2 1h2m-2 1h2m-2 1h2m-4 1h4m6 0h2m-12 1h4m6 0h2"/><path stroke="#696682" d="M8 20h2m-2 1h2m6 5h2m-2 1h2"/><path stroke="#564f5b" d="M8 22h2m-2 1h2m6 5h2m-2 1h2"/><path stroke="#322f35" d="M8 24h2m-2 1h2m-2 1h2m-2 1h2m6 3h2m-2 1h2m-2 1h2m-2 1h2m-2 1h2m-2 1h2"/><path stroke="#9a97b9" d="M16 24h2m-2 1h2"/></svg>