<svg xmlns="http://www.w3.org/2000/svg" width="32" height="32" shape-rendering="crispEdges" viewBox="0 -0.5 18 18"><path stroke="#24131d" d="M6 5h2M5 6h1m2 0h3M4 7h1m6 0h1M5 8h1m6 0h1M6 9h1m6 0h1m-8 1h1m6 0h1m-9 1h1m6 0h1m-8 1h1m5 0h1m-7 1h1m5 0h1m-6 1h1m4 0h1m-6 1h1m4 0h1m-6 1h1m5 0h1"/><path stroke="#bdbb93" d="M6 6h2M5 7h1m2 0h1m1 0h1M7 8h1"/><path stroke="#a19477" d="M6 7h2m1 0h1M8 8h1m1 0h1M7 9h1"/><path stroke="#806352" d="M6 8h1"/><path stroke="#dfb2c6" d="M9 8h1M9 9h1"/><path stroke="#5e423c" d="M11 8h1m-1 1h1"/><path stroke="#9ee4ef" d="M8 9h1m1 0h1"/><path stroke="#c58faa" d="M12 9h1m-5 1h2m-4 3h1"/><path stroke="#ebab4c" d="M7 10h1m-2 1h1"/><path stroke="#ac6ca2" d="M10 10h1m-2 1h1"/><path stroke="#a82b12" d="M11 10h1m-4 1h1m1 0h1m-4 1h1m1 0h1m-3 1h1"/><path stroke="#d45c1d" d="M12 10h1m-6 1h1m3 0h1m-6 1h1m1 0h1m1 0h1m-3 1h3"/><path stroke="#3c4851" d="M7 14h1m1 0h1m-2 1h1m1 0h1"/><path stroke="#617077" d="M8 14h1m1 0h1m-4 1h1"/><path stroke="#1a1c26" d="M9 15h1m-2 1h1m1 0h1"/><path stroke="#99a5a7" d="M7 16h1m3 0h1"/></svg>