<svg xmlns="http://www.w3.org/2000/svg" width="32" height="32" shape-rendering="crispEdges" viewBox="0 -0.5 36 37"><path stroke="#372840" d="M14 2h6m-6 1h6m-8 1h2m6 0h2M12 5h2m6 0h2M10 6h2m10 0h2M10 7h2m10 0h2M10 8h2m4 0h8m2 0h4M10 9h2m4 0h8m2 0h4M8 10h2m12 0h4m4 0h2M8 11h2m12 0h4m4 0h2M6 12h2m14 0h2m4 0h2m2 0h2M6 13h2m14 0h2m4 0h2m2 0h2M6 14h8m14 0h2m2 0h2M6 15h8m14 0h2m2 0h2M4 16h2m8 0h2m12 0h2m2 0h2M4 17h2m8 0h2m12 0h2m2 0h2M4 18h2m8 0h2m12 0h2m2 0h2M4 19h2m8 0h2m12 0h2m2 0h2M4 20h2m8 0h2m10 0h2m6 0h2M4 21h2m8 0h2m10 0h2m6 0h2M4 22h2m8 0h2m8 0h4m6 0h2M4 23h2m8 0h2m8 0h4m6 0h2M4 24h2m8 0h2m6 0h2m2 0h2m6 0h2M4 25h2m8 0h2m6 0h2m2 0h2m6 0h2M6 26h2m4 0h2m8 0h2m4 0h6M6 27h2m4 0h2m8 0h2m4 0h6M8 28h4m4 0h2m4 0h2M8 29h4m4 0h2m4 0h2M8 30h2m4 0h2m2 0h2m2 0h2M8 31h2m4 0h2m2 0h2m2 0h2M8 32h2m4 0h2m2 0h2m4 0h2M8 33h2m4 0h2m2 0h2m4 0h2"/><path stroke="#f1f2ff" d="M14 4h6m-6 1h6m-8 1h2m-2 1h2m-2 1h2m-2 1h2m-6 3h2m-2 1h2"/><path stroke="#c9d4fd" d="M14 6h6m-6 1h6m-6 1h2m-2 1h2m-2 1h2m-2 1h2m-6 1h4m-4 1h4m2 3h4m-4 1h4"/><path stroke="#b8ccd8" d="M20 6h2m-2 1h2m-6 3h4m-4 1h4m10 3h2m-2 1h2m-12 1h2m-2 1h2m-6 1h6m4 0h2m2 0h2m-16 1h6m4 0h2m2 0h2m0 1h2m-2 1h2m-2 1h2m-2 1h2m-22 9h2m8 0h2m-12 1h2m8 0h2"/><path stroke="#485262" d="M10 10h4m-4 1h4m0 1h2m-2 1h2m0 1h8m-8 1h8m-2 1h2m2 0h2m-6 1h2m2 0h2m-6 1h4m-4 1h4m-4 1h2m-2 1h2m-4 1h4m-4 1h4m-8 1h6m-6 1h6"/><path stroke="#88a3bc" d="M20 10h2m-2 1h2m-6 1h4m-4 1h4m-6 1h2m-2 1h2m0 5h6m2 0h2m-10 1h6m2 0h2m2 3h4m-4 1h4m-18 1h6m-6 1h6m-8 1h2m6 0h2m-10 1h2m6 0h2m-12 1h2m8 0h2m-12 1h2m8 0h2"/><path stroke="#b28b78" d="M26 10h2m-2 1h2M8 18h2m-2 1h2m0 1h2m-2 1h2m-4 1h2m-2 1h2m0 1h2m-2 1h2"/><path stroke="#dceaee" d="M28 10h2m-2 1h2m0 1h2m-2 1h2m-2 3h2m-2 1h2m-2 3h2m-2 1h2m-4 1h4m-4 1h4"/><path stroke="#5e718e" d="M20 12h2m-2 1h2m-6 9h4m-4 1h4m12 1h2m-2 1h2m-14 1h2m-2 1h2m-8 1h2m2 0h2m-6 1h2m2 0h2m-8 1h2m-2 1h2m-4 1h2m8 0h2m-12 1h2m8 0h2"/><path stroke="#4c3d2e" d="M24 12h2m-2 1h2m-2 1h2m-2 1h2m-2 1h2m-2 1h2"/><path stroke="#886e6a" d="M26 12h2m-2 1h2m-2 1h2m-2 1h2m-18 3h2m-2 1h2m-4 1h2m-2 1h2m0 1h2m-2 1h2m-4 1h2m-2 1h2"/><path stroke="#fcf7be" d="M6 16h8m-8 1h8m-8 1h2m-2 1h2m-2 1h2m-2 1h2"/><path stroke="#f6d896" d="M12 18h2m-2 1h2m-2 1h2m-2 1h2m-8 1h2m4 0h2m-8 1h2m4 0h2m-8 1h2m4 0h2m-8 1h2m4 0h2"/><path stroke="#fff" d="M28 20h2m-2 1h2"/><path stroke="#e2b27e" d="M8 26h4m-4 1h4"/></svg>