<svg xmlns="http://www.w3.org/2000/svg" width="32" height="32" shape-rendering="crispEdges" viewBox="0 -0.5 36 37"><path stroke="#120a1a" d="M26 3h6m-6 1h6M10 5h10m4 0h2m6 0h2M10 6h10m4 0h2m6 0h2M8 7h2m10 0h2m2 0h4m2 0h4M8 8h2m10 0h2m2 0h4m2 0h4M6 9h2m12 0h2m2 0h2m2 0h2m2 0h2M6 10h2m12 0h2m2 0h2m2 0h2m2 0h2M4 11h2m14 0h2m4 0h2m2 0h2M4 12h2m14 0h2m4 0h2m2 0h2M4 13h6m10 0h2m4 0h6M4 14h6m10 0h2m4 0h6m-22 1h2m8 0h2m4 0h2m2 0h2m-22 1h2m8 0h2m4 0h2m2 0h2M8 17h2m12 0h2m2 0h2m2 0h2M8 18h2m12 0h2m2 0h2m2 0h2M6 19h2m16 0h4m2 0h2M6 20h2m16 0h4m2 0h2M6 21h2m12 0h4m2 0h2m2 0h2M6 22h2m12 0h4m2 0h2m2 0h2M6 23h2m10 0h2m2 0h6m2 0h2M6 24h2m10 0h2m2 0h6m2 0h2M6 25h2m10 0h2m6 0h2m2 0h2M6 26h2m10 0h2m6 0h2m2 0h2M6 27h2m10 0h2m6 0h2m2 0h2M6 28h2m10 0h2m6 0h2m2 0h2M6 29h2m10 0h2m6 0h2m2 0h2M6 30h2m10 0h2m6 0h2m2 0h2M6 31h4m6 0h4m6 0h2m2 0h2M6 32h4m6 0h4m6 0h2m2 0h2M4 33h4m10 0h4m4 0h2m2 0h2M4 34h4m10 0h4m4 0h2m2 0h2"/><path stroke="#feffe5" d="M26 5h6m-6 1h6"/><path stroke="#787d8b" d="M10 7h4m-4 1h4M8 9h2m-2 1h2m-4 1h2m-2 1h2m2 5h2m-2 1h2m-4 1h2m-2 1h2"/><path stroke="#59607a" d="M14 7h6m-6 1h6m-8 1h4m2 0h2m-8 1h4m2 0h2m-8 1h2m-2 1h2m-2 1h2m-2 1h2m-2 1h2m-2 1h2m-2 1h2m6 0h2m-10 1h2m6 0h2m-12 1h2m2 0h2m2 0h2m-10 1h2m2 0h2m2 0h2M8 21h2m6 0h2M8 22h2m6 0h2M8 23h2m4 0h2m-8 1h2m4 0h2"/><path stroke="#c8d6ac" d="M28 7h2m-2 1h2"/><path stroke="#404863" d="M10 9h2m-2 1h2m-4 1h2m-2 1h2m2 7h2m-2 1h2m-2 1h4m2 0h2m-8 1h4m2 0h2m-8 1h2m2 0h2m-6 1h2m2 0h2M8 25h4m4 0h2M8 26h4m4 0h2m-8 1h2m2 0h2m-6 1h2m2 0h2m-6 1h2m2 0h2m-6 1h2m2 0h2m-4 1h2m-2 1h2"/><path stroke="#2a2a41" d="M16 9h2m-2 1h2m-8 1h2m4 0h2m-8 1h2m4 0h2m-8 1h2m2 0h6m-10 1h2m2 0h6m-6 1h6m-6 1h6m-6 1h6m-6 1h6m-4 1h2m-2 1h2M8 27h2m2 0h2m2 0h2M8 28h2m2 0h2m2 0h2M8 29h2m2 0h2m2 0h2M8 30h2m2 0h2m2 0h2m-8 1h2m2 0h2m-6 1h2m2 0h2m-8 1h10M8 34h10"/><path stroke="#b7ab76" d="M26 9h2m2 0h2m-6 1h2m2 0h2m-4 1h2m-2 1h2m-10 7h4m-4 1h4m-14 1h2m12 0h2m-16 1h2m12 0h2m-16 1h2m-2 1h2m0 1h4m-4 1h4"/><path stroke="#439d40" d="M14 11h2m2 0h2m-6 1h2m2 0h2"/><path stroke="#8b5b37" d="M28 15h2m-2 1h2m-2 1h2m-2 1h2m-2 1h2m-2 1h2m-2 1h2m-2 1h2m-2 1h2m-2 1h2m-2 1h2m-2 1h2m-2 1h2m-2 1h2m-2 1h2m-2 1h2m-2 1h2m-2 1h2"/><path stroke="#602631" d="M28 33h2m-2 1h2"/></svg>