<svg xmlns="http://www.w3.org/2000/svg" width="32" height="32" shape-rendering="crispEdges" viewBox="0 -0.5 36 37"><path stroke="#372840" d="M6 2h2m4 0h8m4 0h2M6 3h2m4 0h8m4 0h2M4 4h2m2 0h4m8 0h4m2 0h2M4 5h2m2 0h4m8 0h4m2 0h2M6 6h2m16 0h2M6 7h2m16 0h2M8 8h2m12 0h2M8 9h2m12 0h2m-14 1h2m8 0h2m-12 1h2m8 0h2M8 12h2m12 0h2M8 13h2m12 0h2M6 14h2m16 0h2M6 15h2m16 0h2M6 16h6m12 0h2M6 17h6m12 0h2M4 18h2m6 0h2m10 0h2M4 19h2m6 0h2m10 0h2M4 20h2m6 0h2m10 0h2M4 21h2m6 0h2m10 0h2M4 22h2m6 0h2m12 0h8M4 23h2m6 0h2m12 0h8M4 24h2m6 0h2m8 0h2m10 0h2M4 25h2m6 0h2m8 0h2m10 0h2M6 26h2m2 0h2m8 0h4m2 0h8M6 27h2m2 0h2m8 0h4m2 0h8M8 28h4m8 0h2m2 0h2M8 29h4m8 0h2m2 0h2m-16 1h2m8 0h2m-12 1h2m8 0h2m-12 1h2m6 0h2m2 0h2m-14 1h2m6 0h2m2 0h2"/><path stroke="#f8e398" d="M6 4h2m16 0h2M6 5h2m16 0h2M16 8h2m-2 1h2m6 13h2m-2 1h2m-2 1h2m-2 1h2m-2 1h2m-2 1h2"/><path stroke="#dceaee" d="M12 4h8m-8 1h8M8 14h2m12 0h2M8 15h2m12 0h2m8 9h2m-2 1h2"/><path stroke="#e1bf89" d="M8 6h4m4 0h2m4 0h2M8 7h4m4 0h2m4 0h2M14 8h2m2 0h2m-6 1h2m2 0h2m-4 1h2m-2 1h2m-2 1h2m-2 1h2M8 22h2m-2 1h2"/><path stroke="#b8ccd8" d="M12 6h2m-2 1h2m-4 7h2m8 0h2m-12 1h2m8 0h2m-8 1h6m-6 1h6m2 1h2m-2 1h2m2 5h6m-6 1h6m-18 3h2m-2 1h2m-2 1h2m-2 1h2m0 1h2m-2 1h2"/><path stroke="#88a3bc" d="M14 6h2m2 0h2m-6 1h2m2 0h2m-8 1h2m-2 1h2m-2 1h4m2 0h2m-8 1h4m2 0h2m-6 1h2m2 0h2m-6 1h2m2 0h2m-8 1h2m-2 1h2m0 3h6m-6 1h6m-4 1h2m4 0h2m-8 1h2m4 0h2m-12 5h2m-2 1h2m-2 1h2m-2 1h2m-2 1h2m-2 1h2m0 1h2m4 0h2m-8 1h2m4 0h2"/><path stroke="#485262" d="M20 6h2m-2 1h2M10 8h2m8 0h2M10 9h2m8 0h2m-12 3h4m6 0h2m-12 1h4m6 0h2m-8 1h6m-6 1h6m2 1h2m-2 1h2m-4 1h2m-2 1h2m-2 1h2m-2 1h2m-6 1h4m-4 1h4"/><path stroke="#5e718e" d="M12 16h2m6 0h2m-10 1h2m6 0h2m-8 3h2m2 0h2m-6 1h2m2 0h2m2 1h2m-2 1h2m-6 5h2m-2 1h2m-2 1h2m-2 1h2m-8 1h2m-2 1h2"/><path stroke="#42bfe8" d="M6 18h2m2 0h2m-6 1h2m2 0h2"/><path stroke="#f6d896" d="M8 18h2m-2 1h2m-4 1h6m-6 1h6m4 3h2m-2 1h2"/><path stroke="#2789cd" d="M6 22h2m2 0h2m-6 1h2m2 0h2"/><path stroke="#464762" d="M14 22h2m4 0h2m-8 1h2m4 0h2m-2 1h2m-2 1h2m-8 1h6m-6 1h6m-4 1h2m-2 1h2m-2 1h2m-2 1h2"/><path stroke="#2b4e95" d="M6 24h2m2 0h2m-6 1h2m2 0h2m-4 1h2m-2 1h2"/><path stroke="#b29476" d="M8 24h2m-2 1h2"/><path stroke="#e2b27e" d="M14 24h2m-2 1h2"/><path stroke="#b28b78" d="M18 24h2m-2 1h2"/></svg>