<svg xmlns="http://www.w3.org/2000/svg" width="32" height="32" shape-rendering="crispEdges" viewBox="0 -0.5 36 37"><path stroke="#120a1a" d="M28 4h2m-2 1h2M6 6h2m10 0h4m4 0h2m2 0h2M6 7h2m10 0h4m4 0h2m2 0h2M4 8h2m2 0h2m6 0h2m4 0h4m6 0h2M4 9h2m2 0h2m6 0h2m4 0h4m6 0h2M2 10h2m6 0h2m2 0h2m8 0h2m6 0h2M2 11h2m6 0h2m2 0h2m8 0h2m6 0h2M2 12h2m8 0h2m10 0h2m6 0h2M2 13h2m8 0h2m10 0h2m6 0h2M2 14h2m8 0h2m10 0h2m4 0h2M2 15h2m8 0h2m10 0h2m4 0h2M4 16h2m6 0h2m8 0h2m4 0h2M4 17h2m6 0h2m8 0h2m4 0h2M6 18h2m6 0h2m6 0h2m2 0h2M6 19h2m6 0h2m6 0h2m2 0h2M8 20h2m2 0h2m10 0h6M8 21h2m2 0h2m10 0h6M8 22h4m2 0h2m6 0h2m2 0h2m2 0h2M8 23h4m2 0h2m6 0h2m2 0h2m2 0h2M6 24h2m4 0h4m6 0h4m6 0h2M6 25h2m4 0h4m6 0h4m6 0h2M4 26h2m8 0h2m6 0h2m8 0h2M4 27h2m8 0h2m6 0h2m8 0h2M4 28h2m8 0h2m2 0h2m2 0h10M4 29h2m8 0h2m2 0h2m2 0h10M6 30h8m2 0h2m2 0h2M6 31h8m2 0h2m2 0h2m-8 1h2m2 0h2m-6 1h2m2 0h2"/><path stroke="#8bf5c6" d="M28 6h2m-2 1h2M6 8h2m18 0h2m2 0h2M6 9h2m18 0h2m2 0h2M4 10h2m2 0h2m20 0h2M4 11h2m2 0h2m20 0h2M4 12h2m4 0h2m18 0h2M4 13h2m4 0h2m18 0h2M4 14h2m22 0h2M4 15h2m22 0h2M6 16h2m18 0h2M6 17h2m18 0h2M8 18h2m2 0h2m10 0h2M8 19h2m2 0h2m10 0h2m-16 1h2m-2 1h2m16 1h2m-2 1h2M8 24h4m18 0h2M8 25h4m18 0h2M6 26h2m16 0h8M6 27h2m16 0h8M6 28h8m-8 1h8"/><path stroke="#f1934c" d="M18 8h2m-2 1h2m-4 1h2m-2 1h2"/><path stroke="#dc4926" d="M20 8h2m-2 1h2m-4 1h2m2 0h2m-6 1h2m2 0h2"/><path stroke="#c8d6ac" d="M28 8h2m-2 1h2M6 10h2m18 0h4M6 11h2m18 0h4M6 12h4m16 0h4M6 13h4m16 0h4M6 14h6m14 0h2M6 15h6m14 0h2M8 16h4m12 0h2M8 17h4m12 0h2m-16 1h2m-2 1h2m14 5h4m-4 1h4M8 26h6m-6 1h6"/><path stroke="#ed9d7c" d="M20 10h2m-2 1h2m-2 1h2m-2 1h2m-4 1h4m-4 1h4m-8 5h2m-2 1h2m-4 1h2m-2 1h2m2 3h2m-2 1h2m-2 1h2m-2 1h2m-4 1h2m-2 1h2"/><path stroke="#d49733" d="M14 12h2m-2 1h2m-2 1h2m-2 1h2m-2 1h2m-2 1h2m0 1h2m-2 1h2"/><path stroke="#be5a1e" d="M16 12h2m-2 1h2m-2 1h2m-2 1h2m-2 1h2m-2 1h2m0 1h2m-2 1h2"/><path stroke="#47f" d="M18 12h2m2 0h2m-6 1h2m2 0h2"/><path stroke="#d68552" d="M22 14h2m-2 1h2m-6 1h4m-4 1h4m0 3h2m-2 1h2m0 1h2m-2 1h2m-6 3h2m-2 1h2m-2 1h2m-2 1h2m-4 1h2m-2 1h2"/><path stroke="#85c448" d="M20 18h2m-2 1h2m-4 1h2m-2 1h2"/><path stroke="#29694e" d="M16 20h2m2 0h2m-6 1h2m2 0h2m-6 1h2m2 0h2m-6 1h2m2 0h2m-6 1h2m2 0h2m-6 1h2m2 0h2m-4 1h2m-2 1h2"/><path stroke="#439d40" d="M18 22h2m-2 1h2m-2 1h2m-2 1h2"/></svg>