<svg xmlns="http://www.w3.org/2000/svg" width="32" height="32" shape-rendering="crispEdges" viewBox="0 -0.5 36 37"><path stroke="#372840" d="M16 4h6m-6 1h6m-8 1h2m6 0h2M14 7h2m6 0h2M12 8h2m10 0h2M12 9h2m10 0h2m-14 1h2m10 0h2m-14 1h2m10 0h2m-14 1h2m10 0h2m-14 1h2m10 0h2M8 14h4m12 0h2M8 15h4m12 0h2M6 16h2m18 0h8M6 17h2m18 0h8M4 18h2m28 0h2M4 19h2m28 0h2M6 20h2m24 0h2M6 21h2m24 0h2M6 22h2m18 0h4m2 0h2M6 23h2m18 0h4m2 0h2M6 24h2m16 0h2m4 0h2M6 25h2m16 0h2m4 0h2M8 26h4m12 0h2M8 27h4m12 0h2m-14 1h2m10 0h2m-14 1h2m10 0h2m-14 1h2m10 0h2m-14 1h2m10 0h2m-14 1h2m10 0h2m-14 1h2m10 0h2m-16 1h2m14 0h2m-18 1h2m14 0h2"/><path stroke="#fff" d="M16 6h6m-6 1h6m-8 1h2m-2 1h2"/><path stroke="#f1ebdb" d="M16 8h2m-2 1h2m-4 1h2m-2 1h2m-2 1h2m-2 1h2m-2 1h2m-2 1h2m8 3h6m-6 1h6M12 34h2m-2 1h2"/><path stroke="#ddcebf" d="M18 8h6m-6 1h6m-8 1h2m-2 1h2m-2 1h2m-2 1h2m-2 1h2m-2 1h2m-2 1h2m-2 1h2m-2 1h2m-2 1h2m-2 1h2m-2 1h2m-2 1h2m-2 1h2m-2 1h2m-2 1h2m-2 1h2m-2 1h2m-2 1h2m-2 1h2m-2 1h2m-2 1h2m-2 1h2m-2 1h2m-4 1h2m8 0h2m-12 1h2m8 0h2"/><path stroke="#ffe9e3" d="M18 10h4m-4 1h4m-2 1h2m-2 1h2m-2 1h2m-2 1h2M6 18h2m24 0h2M6 19h2m24 0h2"/><path stroke="#ffe0b7" d="M22 10h2m-2 1h2m-6 3h2m2 0h2m-6 1h2m2 0h2"/><path stroke="#8aa1f6" d="M18 12h2m2 0h2m-6 1h2m2 0h2"/><path stroke="#4c3d2e" d="M12 14h2m-2 1h2m0 1h2m8 0h2m-12 1h2m8 0h2m-12 1h2m-2 1h2m-2 1h2m-2 1h2m-2 1h2m-2 1h2m-2 1h2m-2 1h2m-4 1h2m-2 1h2"/><path stroke="#e2b27e" d="M8 16h6m-6 1h6"/><path stroke="#fdc9c9" d="M18 16h4m-4 1h4"/><path stroke="#e3cddf" d="M22 16h2m-2 1h2"/><path stroke="#855f39" d="M8 18h2m2 0h2m-6 1h2m2 0h2m-6 3h2m2 0h2m-6 1h2m2 0h2m-6 1h2m2 0h2m-6 1h2m2 0h2"/><path stroke="#fcf7be" d="M10 18h2m-2 1h2m-2 1h2m-2 1h2m-2 1h2m-2 1h2"/><path stroke="#e27285" d="M18 18h2m2 0h2m-6 1h2m2 0h2m-6 13h2m2 0h2m-6 1h2m2 0h2"/><path stroke="#f8c53a" d="M20 18h2m-2 1h2"/><path stroke="#a69e9a" d="M30 18h2m-2 1h2m-2 1h2m-2 1h2m-12 1h2m2 0h2m4 0h2m-12 1h2m2 0h2m4 0h2M16 34h2m-2 1h2"/><path stroke="#f6d896" d="M8 20h2m2 0h2m-6 1h2m2 0h2m-4 3h2m-2 1h2"/><path stroke="#b25266" d="M18 20h2m2 0h2m-6 1h2m2 0h2m-6 1h2m2 0h2m-6 1h2m2 0h2m-6 1h2m2 0h2m-6 1h2m2 0h2m-6 1h2m2 0h2m-6 1h2m2 0h2m-6 1h2m2 0h2m-6 1h2m2 0h2m-6 1h2m2 0h2m-6 1h2m2 0h2"/><path stroke="#cbc6c1" d="M20 20h2m2 0h6m-10 1h2m2 0h6"/><path stroke="#807b7a" d="M20 24h2m-2 1h2m-8 1h2m4 0h2m-8 1h2m4 0h2m-8 1h2m4 0h2m-8 1h2m4 0h2m-8 1h2m4 0h2m-8 1h2m4 0h2m-8 1h2m4 0h2m-8 1h2m4 0h2m-2 1h2m-2 1h2"/><path stroke="#f6a2a8" d="M18 34h2m2 0h2m-6 1h2m2 0h2"/></svg>