<svg xmlns="http://www.w3.org/2000/svg" width="32" height="32" shape-rendering="crispEdges" viewBox="0 -0.5 36 37"><path stroke="#120a1a" d="M12 5h8m-8 1h8M10 7h2m8 0h2m2 0h6M10 8h2m8 0h2m2 0h6M10 9h2m8 0h4m6 0h2m-22 1h2m8 0h4m6 0h2m-22 1h2m8 0h4m6 0h2m-22 1h2m8 0h4m6 0h2m-22 1h2m8 0h4m6 0h2m-22 1h2m8 0h4m6 0h2m-22 1h2m8 0h2m2 0h2m2 0h2m-20 1h2m8 0h2m2 0h2m2 0h2M8 17h2m12 0h4m2 0h2M8 18h2m12 0h4m2 0h2M6 19h2m16 0h2m2 0h2M6 20h2m16 0h2m2 0h2M6 21h2m14 0h2m2 0h2M6 22h2m14 0h2m2 0h2M6 23h2m14 0h2M6 24h2m14 0h2M6 25h2m14 0h2M6 26h2m14 0h2M6 27h2m14 0h2M6 28h2m14 0h2M6 29h2m12 0h2M6 30h2m12 0h2M6 31h2m6 0h2m2 0h2M6 32h2m6 0h2m2 0h2M8 33h2m6 0h2m2 0h2M8 34h2m6 0h2m2 0h2"/><path stroke="#dc4926" d="M12 7h6m-6 1h6m-6 1h2m12 0h2m-16 1h2m12 0h2m-4 1h4m-4 1h4m-18 5h2m-2 1h2m-4 1h2m-2 1h2m-2 3h2m-2 1h2m0 1h2m-2 1h2m-4 1h2m-2 1h2m0 1h2m-2 1h2m-4 1h2m-2 1h2"/><path stroke="#cc1825" d="M18 7h2m-2 1h2m-6 1h2m12 0h2m-16 1h2m12 0h2m-18 1h2m14 0h2m-18 1h2m14 0h2m-18 1h2m12 0h2m-16 1h2m12 0h2m-16 1h2m4 0h2m-8 1h2m4 0h2m-8 1h2m4 0h4m-10 1h2m4 0h4m-12 1h2m-2 1h2m-4 1h2m10 0h2M8 22h2m10 0h2m-2 1h2m-2 1h2M8 25h2m10 0h2M8 26h2m10 0h2m-12 1h2m8 0h2m-12 1h2m8 0h2M8 29h2m-2 1h2"/><path stroke="#81173f" d="M16 9h4m-4 1h4m-8 17h6m-6 1h6m-6 1h2m2 0h2m-6 1h2m2 0h2m-6 1h2m2 0h2m-6 1h2m2 0h2m-6 1h4m2 0h2m-8 1h4m2 0h2"/><path stroke="#f1934c" d="M24 9h2m-2 1h2"/><path stroke="#602631" d="M14 11h2m2 0h2m-6 1h2m2 0h2m-6 7h4m-4 1h4m-4 1h4m-4 1h4m-2 1h2m-2 1h2"/><path stroke="#ed9d7c" d="M16 11h2m-2 1h2m2 7h4m-4 1h4m-14 1h2m-2 1h2m-2 1h6m-6 1h6"/><path stroke="#d68552" d="M14 13h6m-6 1h6"/><path stroke="#e4cd5a" d="M24 13h2m2 0h2m-6 1h2m2 0h2m-4 1h2m-2 1h2"/><path stroke="#d16363" d="M14 15h4m-4 1h4"/><path stroke="#4b0c30" d="M14 17h4m-4 1h4m-6 1h2m4 0h2m-8 1h2m4 0h2m-8 1h2m4 0h2m-8 1h2m4 0h2m-2 1h2m-2 1h2m-2 1h2m-2 1h2m-2 1h2m-2 1h2m-6 1h2m2 0h2m-6 1h2m2 0h2m-10 1h2m-2 1h2m-2 1h2m-2 1h2"/><path stroke="#d49733" d="M26 17h2m-2 1h2m-2 1h2m-2 1h2m-14 5h2m-2 1h2"/><path stroke="#be5a1e" d="M12 25h2m2 0h2m-6 1h2m2 0h2"/></svg>