<svg xmlns="http://www.w3.org/2000/svg" width="32" height="32" shape-rendering="crispEdges" viewBox="0 -0.5 36 35"><path stroke="#1a1c26" d="M14 4h4m-4 1h4m-6 1h2m4 0h2m-8 1h2m4 0h2M10 8h2m8 0h6M10 9h2m8 0h6m-16 1h2m14 0h2m-18 1h2m14 0h2m-18 1h2m16 0h2m-20 1h2m16 0h2M8 14h2m20 0h2M8 15h2m20 0h2M8 16h2m20 0h2M8 17h2m20 0h2M8 18h2m20 0h2M8 19h2m20 0h2M8 20h2m20 0h2M8 21h2m20 0h2M8 22h2m18 0h2M8 23h2m18 0h2M8 24h2m16 0h2M8 25h2m16 0h2M8 26h2m14 0h2M8 27h2m14 0h2M6 28h2m8 0h2m4 0h2M6 29h2m8 0h2m4 0h2"/><path stroke="#94cc47" d="M14 6h4m-4 1h4m-6 1h2m-2 1h2"/><path stroke="#4ba245" d="M14 8h2m2 0h2m-6 1h2m2 0h2m-8 1h2m-2 1h2m-2 1h2m-2 1h2m-4 1h2m-2 1h2m-2 1h2m-2 1h2m-2 1h2m-2 1h2m-2 1h2m-2 1h2m-2 1h2m-2 1h2m-2 1h2m-2 1h2m-2 1h2m-2 1h2m-4 1h2m-2 1h2"/><path stroke="#2c7d63" d="M16 8h2m-2 1h2m-4 1h2m2 0h2m-6 1h2m2 0h2m-8 3h2m-2 1h2m-2 1h2m2 0h2m2 0h2m-10 1h2m2 0h2m2 0h2m-6 3h2m-2 1h2m-8 7h2m-2 1h2"/><path stroke="#dfb2c6" d="M16 10h2m-2 1h2m-2 1h2m-2 1h2m-6 5h6m-6 1h6"/><path stroke="#24131d" d="M20 10h2m-2 1h2m-2 1h2m2 0h2m-6 1h2m2 0h2m-6 1h2m2 0h4m-8 1h2m2 0h4m-4 1h4m-4 1h4m-2 1h2m-2 1h2m-4 1h4m-4 1h4m-4 1h2m-2 1h2m-10 3h2m2 0h4m-8 1h2m2 0h4"/><path stroke="#b3794d" d="M22 10h4m-4 1h4m0 1h2m-2 1h2m0 1h2m-2 1h2m-2 1h2m-2 1h2m-2 1h2m-2 1h2m-2 1h2m-2 1h2"/><path stroke="#50cd90" d="M14 12h2m2 0h2m-6 1h2m2 0h2"/><path stroke="#bdbb93" d="M22 12h2m-2 1h2m-2 1h2m-2 1h2m-2 1h2m-2 1h2m-2 1h2m-2 1h2m-2 1h2m-2 1h2m-2 1h2m-2 1h2"/><path stroke="#c58faa" d="M14 14h4m-4 1h4m6 3h2m-2 1h2"/><path stroke="#ac6ca2" d="M18 14h2m-2 1h2"/><path stroke="#1a5556" d="M14 16h2m2 0h2m-6 1h2m2 0h2m-2 1h4m-4 1h4m-10 1h4m2 0h2m-8 1h4m2 0h2m-8 1h2m-2 1h2m-2 1h2m-2 1h2m-2 1h2m-2 1h2m-2 1h2m-2 1h2"/><path stroke="#0f343f" d="M20 20h2m-2 1h2m-2 1h2m-2 1h2m-2 1h2m-2 1h2"/><path stroke="#617077" d="M14 22h2m2 0h2m-6 1h2m2 0h2"/><path stroke="#99a5a7" d="M16 22h2m-2 1h2"/><path stroke="#8a4028" d="M26 22h2m-2 1h2m-6 1h4m-4 1h4"/><path stroke="#5e423c" d="M14 24h4m-4 1h4"/><path stroke="#402830" d="M18 24h2m-2 1h2m-6 1h2m2 0h2m-6 1h2m2 0h2m-2 1h2m-2 1h2"/><path stroke="#806352" d="M14 28h2m4 0h2m-8 1h2m4 0h2"/></svg>