<svg xmlns="http://www.w3.org/2000/svg" width="32" height="32" shape-rendering="crispEdges" viewBox="0 -0.5 36 35"><path stroke="#24131d" d="M16 4h4m-4 1h4m-6 1h2m4 0h2m-8 1h2m4 0h2M12 8h2m8 0h2M12 9h2m8 0h2m-12 1h2m8 0h2m-12 1h2m8 0h2m-14 1h2m10 0h2m-14 1h2m10 0h2m-14 1h2m10 0h2m-14 1h2m10 0h2M8 16h2m14 0h2M8 17h2m14 0h2M8 18h2m16 0h2M8 19h2m16 0h2M8 20h2m18 0h2M8 21h2m18 0h2M8 22h2m20 0h2M8 23h2m20 0h2M8 24h2m14 0h6M8 25h2m14 0h6M8 26h2m12 0h2M8 27h2m12 0h2M6 28h2m10 0h2m4 0h2M6 29h2m10 0h2m4 0h2"/><path stroke="#806352" d="M16 6h4m-4 1h4m-6 1h2m-2 1h2m-4 3h2m-2 1h2m-4 3h2m-2 1h2M8 28h2m-2 1h2"/><path stroke="#6b5853" d="M16 8h2m2 0h2m-6 1h2m2 0h2m-8 1h2m-2 1h2m-4 3h2m-2 1h2m-4 3h2m-2 1h2m-2 1h2m-2 1h2m-2 1h2m-2 1h2m-2 1h2m-2 1h2m-2 1h2m-2 1h2"/><path stroke="#402830" d="M18 8h2m-2 1h2m-4 1h2m2 0h2m-6 1h2m2 0h2m-8 1h2m-2 1h2m-2 1h2m-2 1h2m-4 1h2m2 0h2m2 0h2m-10 1h2m2 0h2m2 0h2m-10 1h2m4 0h2m-8 1h2m4 0h2m-8 1h2m-2 1h2m-2 3h2m-2 1h2m-2 1h2m-2 1h2m-2 1h2m-2 1h2"/><path stroke="#dfb2c6" d="M18 10h2m-2 1h2m-2 1h2m-2 1h2m-8 9h2m-2 1h2"/><path stroke="#50cd90" d="M16 12h2m2 0h2m-6 1h2m2 0h2"/><path stroke="#c58faa" d="M16 14h4m-4 1h4m4 7h2m-2 1h2"/><path stroke="#ac6ca2" d="M20 14h2m-2 1h2m-4 1h2m-2 1h2"/><path stroke="#a82b12" d="M14 16h2m6 0h2m-10 1h2m6 0h2m-10 1h2m8 0h2m-12 1h2m8 0h2"/><path stroke="#810b0b" d="M16 18h2m2 0h2m-6 1h2m2 0h2m-8 1h2m2 0h2m-6 1h2m2 0h2"/><path stroke="#4c0717" d="M22 18h2m-2 1h2m-8 1h2m2 0h6m-10 1h2m2 0h6m-8 1h4m-4 1h4"/><path stroke="#3c133b" d="M26 20h2m-2 1h2m-6 1h2m-2 1h2m-2 1h2m-2 1h2"/><path stroke="#cbd2d9" d="M14 22h2m12 0h2m-16 1h2m12 0h2"/><path stroke="#fff" d="M16 22h2m-2 1h2"/><path stroke="#99a5a7" d="M26 22h2m-2 1h2"/><path stroke="#8a4028" d="M14 24h2m-2 1h2"/><path stroke="#ab684c" d="M16 24h2m2 0h2m-6 1h2m2 0h2"/><path stroke="#ebab4c" d="M18 24h2m-2 1h2"/><path stroke="#3c4851" d="M14 26h2m4 0h2m-8 1h2m4 0h2m-8 1h2m4 0h2m-8 1h2m4 0h2"/><path stroke="#1a1c26" d="M16 26h4m-4 1h4"/><path stroke="#5e423c" d="M10 28h2m-2 1h2"/><path stroke="#617077" d="M16 28h2m4 0h2m-8 1h2m4 0h2"/></svg>