<svg xmlns="http://www.w3.org/2000/svg" width="32" height="32" shape-rendering="crispEdges" viewBox="0 -0.5 36 37"><path stroke="#372840" d="M8 4h4m10 0h4M8 5h4m10 0h4M6 6h2m4 0h2m6 0h2m4 0h2M6 7h2m4 0h2m6 0h2m4 0h2M4 8h2m2 0h4m2 0h2m2 0h2m8 0h2M4 9h2m2 0h4m2 0h2m2 0h2m8 0h2M6 10h2m2 0h2m2 0h4m12 0h2M6 11h2m2 0h2m2 0h4m12 0h2M8 12h2m2 0h2m2 0h2m12 0h2M8 13h2m2 0h2m2 0h2m12 0h2M8 14h2m2 0h2m2 0h2m12 0h2M8 15h2m2 0h2m2 0h2m12 0h2M8 16h2m2 0h4m16 0h2M8 17h2m2 0h4m16 0h2M8 18h2m2 0h2m20 0h2M8 19h2m2 0h2m20 0h2M8 20h2m2 0h2m20 0h2M8 21h2m2 0h2m20 0h2M8 22h2m2 0h4m18 0h2M8 23h2m2 0h4m18 0h2M8 24h2m2 0h2m2 0h2m16 0h2M8 25h2m2 0h2m2 0h2m16 0h2M8 26h2m2 0h2m2 0h2m12 0h4M8 27h2m2 0h2m2 0h2m12 0h4M8 28h2m2 0h2m2 0h2m12 0h2M8 29h2m2 0h2m2 0h2m12 0h2M8 30h2m2 0h2m2 0h2m12 0h2M8 31h2m2 0h2m2 0h2m12 0h2M8 32h2m2 0h2m2 0h2m12 0h2M8 33h2m2 0h2m2 0h2m12 0h2M8 34h2m2 0h2m2 0h2m14 0h2M8 35h2m2 0h2m2 0h2m14 0h2"/><path stroke="#d4b8b8" d="M8 6h4M8 7h4M6 8h2M6 9h2"/><path stroke="#f6d896" d="M22 6h2m-2 1h2m-4 1h2m-2 1h2m-4 1h2m-2 1h2m-2 1h2m-2 1h2"/><path stroke="#e2b27e" d="M24 6h2m-2 1h2m-4 1h2m2 0h2m-6 1h2m2 0h2m-8 5h2m4 0h2m-8 1h2m4 0h2"/><path stroke="#c090a9" d="M12 8h2m-2 1h2m-2 1h2m-2 1h2m-4 1h2m-2 1h2m-2 1h2m-2 1h2m-2 1h2m-2 1h2m-2 1h2m-2 1h2m-2 1h2m-2 1h2m-2 1h2m-2 1h2m-2 1h2m-2 1h2m-2 1h2m-2 1h2m-2 1h2m-2 1h2m-2 1h2m-2 1h2m-2 1h2m-2 1h2m-2 1h2m-2 1h2"/><path stroke="#ffe9e3" d="M24 8h2m-2 1h2m-6 1h2m2 0h2m-6 1h2m2 0h2m-2 1h2m-2 1h2"/><path stroke="#b8ccd8" d="M22 10h2m2 0h2m-6 1h2m2 0h2"/><path stroke="#b28b78" d="M28 10h2m-2 1h2m-2 1h2m-2 1h2m-12 1h2m2 0h4m2 0h2m-12 1h2m2 0h4m2 0h2m-10 1h2m4 0h2m-8 1h2m4 0h2m-6 1h4m-4 1h4m2 11h2m-2 1h2m-2 1h2m-2 1h2m0 1h2m-2 1h2"/><path stroke="#fdc9c9" d="M20 12h2m4 0h2m-8 1h2m4 0h2m4 11h2m-2 1h2"/><path stroke="#fad6ff" d="M22 12h2m-2 1h2m-2 3h4m-4 1h4"/><path stroke="#f1ebdb" d="M16 16h2m-2 1h2m-4 1h2m-2 1h2"/><path stroke="#695b59" d="M18 16h2m8 0h2m-12 1h2m8 0h2m-10 1h2m4 0h2m-8 1h2m4 0h2m-6 1h4m-4 1h4"/><path stroke="#ddcebf" d="M30 16h2m-2 1h2m-16 1h4m8 0h2m2 0h2m-18 1h4m8 0h2m2 0h2m-20 1h2m4 0h2m4 0h2m-14 1h2m4 0h2m4 0h2m-6 1h4m-4 1h4m-8 7h2m-2 1h2m-2 1h2m-2 1h2m0 1h2m-2 1h2"/><path stroke="#bda499" d="M30 18h2m-2 1h2m-14 1h2m8 0h2m2 0h2m-16 1h2m8 0h2m2 0h2m-14 1h2m4 0h2m-8 1h2m4 0h2m-6 7h4m-4 1h4m-4 1h4m-4 1h4m-2 1h4m-4 1h4"/><path stroke="#594d4d" d="M16 20h2m12 0h2m-16 1h2m12 0h2m-16 1h2m12 0h2m-16 1h2m12 0h2m-2 1h2m-2 1h2m-14 1h2m8 0h2m-12 1h2m8 0h2m-10 1h8m-8 1h8"/><path stroke="#886e6a" d="M18 22h2m8 0h2m2 0h2m-16 1h2m8 0h2m2 0h2m-14 1h8m-8 1h8m-10 3h2m8 0h2m-12 1h2m8 0h2m-10 1h2m4 0h2m-8 1h2m4 0h2m-8 1h2m4 0h2m-8 1h2m4 0h2m-10 1h2m2 0h2m4 0h2m-12 1h2m2 0h2m4 0h2"/><path stroke="#807b7a" d="M18 24h2m8 0h2m-12 1h2m8 0h2"/><path stroke="#a69e9a" d="M20 26h2m4 0h2m-8 1h2m4 0h2"/><path stroke="#cbc6c1" d="M22 26h4m-4 1h4"/></svg>