<svg xmlns="http://www.w3.org/2000/svg" width="32" height="32" shape-rendering="crispEdges" viewBox="0 -0.5 36 35"><path stroke="#24131d" d="M22 2h2m2 0h2m-6 1h2m2 0h2M10 4h4m6 0h2m2 0h2m2 0h2M10 5h4m6 0h2m2 0h2m2 0h2M8 6h2m4 0h2m4 0h2m8 0h2M8 7h2m4 0h2m4 0h2m8 0h2M6 8h2m8 0h2m4 0h2m2 0h4m2 0h2M6 9h2m8 0h2m4 0h2m2 0h4m2 0h2M6 10h2m8 0h2m4 0h2m8 0h2M6 11h2m8 0h2m4 0h2m8 0h2M4 12h2m12 0h2m2 0h2m2 0h6M4 13h2m12 0h2m2 0h2m2 0h6M6 14h2m8 0h2m4 0h2m2 0h2M6 15h2m8 0h2m4 0h2m2 0h2M4 16h2m12 0h2m2 0h2m2 0h2M4 17h2m12 0h2m2 0h2m2 0h2M4 18h2m14 0h4m2 0h2M4 19h2m14 0h4m2 0h2M4 20h2m16 0h2m2 0h2M4 21h2m16 0h2m2 0h2M4 22h2m12 0h6m2 0h2M4 23h2m12 0h6m2 0h2M6 24h2m14 0h2m2 0h2M6 25h2m14 0h2m2 0h2M6 26h2m8 0h2m4 0h2m2 0h2M6 27h2m8 0h2m4 0h2m2 0h2M6 28h2m10 0h2m2 0h2m2 0h2M6 29h2m10 0h2m2 0h2m2 0h2"/><path stroke="#e7d494" d="M22 4h2m2 0h2m-6 1h2m2 0h2"/><path stroke="#b3794d" d="M10 6h2m-2 1h2M8 8h2m4 0h2M8 9h2m4 0h2"/><path stroke="#ab684c" d="M12 6h2m-2 1h2m-4 1h2m-2 1h2m-4 1h2m-2 1h2"/><path stroke="#cea65f" d="M22 6h2m4 0h2m-8 1h2m4 0h2m-6 1h2m4 0h2m-8 1h2m4 0h2"/><path stroke="#5e423c" d="M24 6h2m-2 1h2m-2 3h2m-2 1h2m-2 1h2m-2 1h2m-2 1h2m-2 1h2m-2 1h2m-2 1h2m-2 1h2m-2 1h2m-2 1h2m-2 1h2m-2 1h2m-2 1h2m-16 1h4m10 0h2m-16 1h4m10 0h2M8 26h2m14 0h2M8 27h2m14 0h2m-2 1h2m-2 1h2"/><path stroke="#806352" d="M26 6h2m-2 1h2M8 28h2m6 0h2M8 29h2m6 0h2"/><path stroke="#8a4028" d="M12 8h2m-2 1h2m-4 1h2m2 0h2m-6 1h2m2 0h2m-8 1h2m-2 1h2m-2 1h2m-2 1h2"/><path stroke="#dfb2c6" d="M12 10h2m-2 1h2m-8 1h2m4 0h2m-8 1h2m4 0h2"/><path stroke="#a82b12" d="M26 10h2m2 0h2m-6 1h2m2 0h2"/><path stroke="#810b0b" d="M28 10h2m-2 1h2"/><path stroke="#94cc47" d="M10 12h2m2 0h2m-6 1h2m2 0h2"/><path stroke="#c58faa" d="M16 12h2m-2 1h2m-8 1h4m-4 1h4m-8 5h2m12 0h2M6 21h2m12 0h2M6 22h2m-2 1h2"/><path stroke="#ac6ca2" d="M14 14h2m-2 1h2m-4 1h2m-2 1h2m4 3h2m-2 1h2"/><path stroke="#4ba245" d="M6 16h2m-2 1h2"/><path stroke="#2c7d63" d="M8 16h2m6 0h2M8 17h2m6 0h2M6 18h2m2 0h2m2 0h2m2 0h2M6 19h2m2 0h2m2 0h2m2 0h2m-8 1h2m-2 1h2"/><path stroke="#1a5556" d="M10 16h2m2 0h2m-6 1h2m2 0h2m-8 1h2m2 0h2m2 0h2M8 19h2m2 0h2m2 0h2m-8 1h2m2 0h2m-6 1h2m2 0h2"/><path stroke="#0f343f" d="M8 20h2m6 0h2M8 21h2m6 0h2m-2 1h2m-2 1h2m-2 1h2m-2 1h2"/><path stroke="#3c4851" d="M8 22h2m-2 1h2"/><path stroke="#617077" d="M10 22h2m2 0h2m-6 1h2m2 0h2"/><path stroke="#99a5a7" d="M12 22h2m-2 1h2"/><path stroke="#402830" d="M8 24h2m4 0h2m-8 1h2m4 0h2m-6 1h2m2 0h2m-6 1h2m2 0h2"/><path stroke="#1a1c26" d="M12 26h2m-2 1h2m-4 1h2m2 0h2m-6 1h2m2 0h2"/></svg>