<svg xmlns="http://www.w3.org/2000/svg" width="32" height="32" shape-rendering="crispEdges" viewBox="0 -0.5 36 37"><path stroke="#372840" d="M12 2h6m12 0h2M12 3h6m12 0h2M10 4h2m6 0h2m2 0h8m2 0h2M10 5h2m6 0h2m2 0h8m2 0h2M8 6h2m10 0h2m10 0h2M8 7h2m10 0h2m10 0h2M8 8h2m22 0h2M8 9h2m22 0h2M8 10h2m12 0h4m2 0h2m2 0h2M8 11h2m12 0h4m2 0h2m2 0h2M8 12h2m14 0h2m2 0h4M8 13h2m14 0h2m2 0h4M6 14h2m16 0h2m2 0h2M6 15h2m16 0h2m2 0h2M6 16h2m16 0h2m2 0h2M6 17h2m16 0h2m2 0h2M6 18h6m16 0h2M6 19h6m16 0h2M4 20h2m6 0h2m8 0h2m4 0h2M4 21h2m6 0h2m8 0h2m4 0h2M4 22h2m6 0h2m6 0h2m2 0h2m2 0h2M4 23h2m6 0h2m6 0h2m2 0h2m2 0h2M4 24h2m6 0h2m6 0h2m4 0h2M4 25h2m6 0h2m6 0h2m4 0h2M4 26h2m6 0h2m6 0h2M4 27h2m6 0h2m6 0h2M6 28h6m8 0h2M6 29h6m8 0h2M8 30h2m10 0h2M8 31h2m10 0h2M8 32h2m4 0h2m6 0h2M8 33h2m4 0h2m6 0h2"/><path stroke="#b28b78" d="M12 4h2m-2 1h2m-4 1h2m-2 1h2m-2 1h2m-2 1h2m-2 1h2m-2 1h2m-2 1h4m6 0h2m-12 1h4m6 0h2m-10 1h2m4 0h2m-8 1h2m4 0h2m-8 1h2m-2 1h2m0 7h2m2 0h2m-6 1h2m2 0h2"/><path stroke="#886e6a" d="M14 4h4m-4 1h4m-6 1h2m-2 1h2m-4 7h2m8 0h2m-12 1h2m8 0h2m-4 1h2m-2 1h2"/><path stroke="#fff" d="M30 4h2m-2 1h2M8 20h2m-2 1h2"/><path stroke="#ffe9e3" d="M14 6h4m-4 1h4m-6 1h2m2 0h2m-6 1h2m2 0h2m-2 1h2m-2 1h2"/><path stroke="#fad6ff" d="M18 6h2m-2 1h2m-8 3h4m2 0h2m-8 1h4m2 0h2"/><path stroke="#5e718e" d="M22 6h2m-2 1h2m-2 1h2m-2 1h2"/><path stroke="#88a3bc" d="M24 6h4m-4 1h4m-4 1h4m-4 1h4"/><path stroke="#b8ccd8" d="M28 6h2m-2 1h2m-2 1h2m-2 1h2M8 24h2m-2 1h2m-2 1h2m-2 1h2"/><path stroke="#dceaee" d="M30 6h2m-2 1h2m-2 1h2m-2 1h2m-2 1h2m-2 1h2M6 22h6m-6 1h6m4 1h2m-2 1h2"/><path stroke="#8aa1f6" d="M14 8h2m2 0h2m-6 1h2m2 0h2"/><path stroke="#564f5b" d="M20 8h2m-2 1h2m-2 1h2m-2 1h2m0 1h2m-2 1h2m0 7h2m-2 1h2m-12 7h2m-2 1h2m-4 1h2m2 0h2m-6 1h2m2 0h2m-2 1h2m-2 1h2"/><path stroke="#c68556" d="M26 10h2m-2 1h2m-2 1h2m-2 1h2m-2 1h2m-2 1h2m-2 1h2m-2 1h2m-2 1h2m-2 1h2m-2 1h2m-2 1h2m-2 1h2m-2 1h2"/><path stroke="#e3cddf" d="M14 12h6m-6 1h6"/><path stroke="#ecebe7" d="M8 14h2m12 0h2M8 15h2m12 0h2"/><path stroke="#595757" d="M14 14h4m-4 1h4m2 3h2m-2 1h2m-2 1h2m-2 1h2m-8 1h6m-6 1h6m-4 3h2m-2 1h2m-2 1h2m-2 1h2"/><path stroke="#cbc6c1" d="M8 16h2m4 0h4M8 17h2m4 0h4"/><path stroke="#a69e9a" d="M10 16h2m10 0h2m-14 1h2m10 0h2m-10 1h6m4 0h2m-12 1h6m4 0h2m-10 1h2m-2 1h2m-6 11h2m6 0h2m-10 1h2m6 0h2"/><path stroke="#807b7a" d="M20 16h2m-2 1h2m-10 1h2m8 0h2m-12 1h2m8 0h2m-10 1h2m2 0h2m-6 1h2m2 0h2m-6 5h2m2 0h2m-6 1h2m2 0h2m-8 1h2m4 0h2m-8 1h2m4 0h2m-10 3h2m6 0h2m-10 1h2m6 0h2"/><path stroke="#e27285" d="M6 20h2m-2 1h2"/><path stroke="#696682" d="M10 20h2m-2 1h2"/><path stroke="#464762" d="M6 24h2m-2 1h2m-2 1h2m-2 1h2"/><path stroke="#b25266" d="M10 24h2m-2 1h2m-2 1h2m-2 1h2"/><path stroke="#695b59" d="M10 30h2m6 0h2m-10 1h2m6 0h2"/></svg>