<svg xmlns="http://www.w3.org/2000/svg" width="32" height="32" shape-rendering="crispEdges" viewBox="0 -0.5 36 37"><path stroke="#120a1a" d="M6 3h2m10 0h4M6 4h2m10 0h4M4 5h2m2 0h2m6 0h2m4 0h2M4 6h2m2 0h2m6 0h2m4 0h2M4 7h2m2 0h2m4 0h2m8 0h2M4 8h2m2 0h2m4 0h2m8 0h2M4 9h2m2 0h2m2 0h2m10 0h2M4 10h2m2 0h2m2 0h2m10 0h2M4 11h6m2 0h2m10 0h2M4 12h6m2 0h2m10 0h2M4 13h2m2 0h2m2 0h2m10 0h2M4 14h2m2 0h2m2 0h2m10 0h2M4 15h2m2 0h2m2 0h2m10 0h2M4 16h2m2 0h2m2 0h2m10 0h2M4 17h2m2 0h2m2 0h2m12 0h2M4 18h2m2 0h2m2 0h2m12 0h2M4 19h2m2 0h4m16 0h2M4 20h2m2 0h4m16 0h2M4 21h2m2 0h2m18 0h2M4 22h2m2 0h2m18 0h2M4 23h2m2 0h2m18 0h2M4 24h2m2 0h2m18 0h2M4 25h2m2 0h2m18 0h2M4 26h2m2 0h2m18 0h2M4 27h2m2 0h2m18 0h2M4 28h2m2 0h2m18 0h2M4 29h2m2 0h2m8 0h2m8 0h2M4 30h2m2 0h2m8 0h2m8 0h2M4 31h2m2 0h4m6 0h2m6 0h2M4 32h2m2 0h4m6 0h2m6 0h2M4 33h2m2 0h2m2 0h2m6 0h2m2 0h2M4 34h2m2 0h2m2 0h2m6 0h2m2 0h2"/><path stroke="#8bf5c6" d="M6 5h2M6 6h2"/><path stroke="#b7ab76" d="M18 5h4m-4 1h4m-6 1h2m-2 1h2m-4 1h2m-2 1h2m-2 1h2m-2 1h2"/><path stroke="#4cc5e4" d="M6 7h2M6 8h2"/><path stroke="#b59857" d="M18 7h2m2 0h2m-6 1h2m2 0h2m-10 5h2m-2 1h2m-2 1h4m4 0h2m-10 1h4m4 0h2m-8 1h2m4 0h2m-8 1h2m4 0h2m-8 1h2m2 0h2m-6 1h2m2 0h2"/><path stroke="#926d3c" d="M20 7h2m-2 1h2m-6 1h4m2 0h2m-8 1h4m2 0h2"/><path stroke="#47f" d="M6 9h2m-2 1h2"/><path stroke="#ed9d7c" d="M20 9h2m-2 1h2m-6 1h2m2 0h2m-6 1h2m2 0h2m-6 1h2m-2 1h2m-4 5h2m8 0h2m-12 1h2m8 0h2m-16 1h4m12 0h2m-18 1h4m12 0h2m-2 1h2m-2 1h2"/><path stroke="#422490" d="M18 11h2m2 0h2m-6 1h2m2 0h2"/><path stroke="#81173f" d="M6 13h2m-2 1h2m-2 1h2m-2 1h2m-2 1h2m-2 1h2m-2 1h2m10 0h2m2 0h2M6 20h2m10 0h2m2 0h2M6 21h2m16 0h2M6 22h2m16 0h2M6 23h2m4 0h2m10 0h2M6 24h2m4 0h2m10 0h2M6 25h2m4 0h2m10 0h4M6 26h2m4 0h2m10 0h4M6 27h2m4 0h2m10 0h2M6 28h2m4 0h2m10 0h2M6 29h2m4 0h2m10 0h2M6 30h2m4 0h2m10 0h2M6 31h2m4 0h2m10 0h2M6 32h2m4 0h2m10 0h2M6 33h2m-2 1h2"/><path stroke="#d68552" d="M18 13h6m-6 1h6"/><path stroke="#d16363" d="M18 15h4m-4 1h4"/><path stroke="#cc1825" d="M14 17h2m2 0h4m2 0h2m-12 1h2m2 0h4m2 0h2m-14 1h2m12 0h2m-16 1h2m12 0h2m-18 3h2m-2 1h2m-2 1h2m-2 1h2m-2 1h2m14 0h2m-18 1h2m14 0h2m-18 1h2m14 0h2m-18 1h2m14 0h2"/><path stroke="#4b0c30" d="M14 21h2m6 0h2m-10 1h2m6 0h2m-10 1h2m6 0h2m-10 1h2m6 0h2m-10 1h2m6 0h2m-10 1h2m6 0h2m-10 1h2m6 0h2m-10 1h2m6 0h2m-10 1h2m6 0h2m-10 1h2m6 0h2m-10 1h2m6 0h2m-10 1h2m6 0h2"/><path stroke="#602631" d="M16 21h6m-6 1h6m-6 1h6m-6 1h6m-6 1h6m-6 1h6"/><path stroke="#59607a" d="M16 27h6m-6 1h6m-8 5h2m-2 1h2"/><path stroke="#787d8b" d="M16 29h2m2 0h2m-6 1h2m2 0h2m-6 1h2m2 0h2m-6 1h2m2 0h2m-6 1h4m2 0h2m-8 1h4m2 0h2"/></svg>