<svg xmlns="http://www.w3.org/2000/svg" width="32" height="32" shape-rendering="crispEdges" viewBox="0 -0.5 36 37"><path stroke="#372840" d="M12 2h6m10 0h2M12 3h6m10 0h2M10 4h2m6 0h2m6 0h2m2 0h2M10 5h2m6 0h2m6 0h2m2 0h2M8 6h2m10 0h2m4 0h2m2 0h2M8 7h2m10 0h2m4 0h2m2 0h2M8 8h2m10 0h2m4 0h2m2 0h2M8 9h2m10 0h2m4 0h2m2 0h2M8 10h2m10 0h2m4 0h2m2 0h2M8 11h2m10 0h2m4 0h2m2 0h2M8 12h2m12 0h2m2 0h2m2 0h2M8 13h2m12 0h2m2 0h2m2 0h2M6 14h2m16 0h4m2 0h2M6 15h2m16 0h4m2 0h2M4 16h2m26 0h2M4 17h2m26 0h2M4 18h2m24 0h2M4 19h2m24 0h2M4 20h2m16 0h4m4 0h2M4 21h2m16 0h4m4 0h2M6 22h2m12 0h2m4 0h2m2 0h2M6 23h2m12 0h2m4 0h2m2 0h2M8 24h2m10 0h2m6 0h2M8 25h2m10 0h2m6 0h2M8 26h2m10 0h2M8 27h2m10 0h2M8 28h2m4 0h2m4 0h2M8 29h2m4 0h2m4 0h2M8 30h2m2 0h2m2 0h2m2 0h2M8 31h2m2 0h2m2 0h2m2 0h2M8 32h2m4 0h4m4 0h2M8 33h2m4 0h4m4 0h2"/><path stroke="#ffe9e3" d="M12 4h6m-6 1h6m-8 1h8m-8 1h8m-6 1h2m2 0h2m-6 1h2m2 0h2m-2 1h2m-2 1h2m-8 11h2m-2 1h2"/><path stroke="#dceaee" d="M28 4h2m-2 1h2"/><path stroke="#fad6ff" d="M18 6h2m-2 1h2m-8 3h2m-2 1h2"/><path stroke="#b8ccd8" d="M28 6h2m-2 1h2m-2 1h2m-2 1h2m-2 1h2m-2 1h2M8 14h2m12 0h2M8 15h2m12 0h2M6 16h2m-2 1h2m4 9h2m4 0h2m-8 1h2m4 0h2m-10 1h2m6 0h2m-10 1h2m6 0h2"/><path stroke="#886e6a" d="M10 8h2m-2 1h2m-2 1h2m-2 1h2m-2 1h2m-2 1h2"/><path stroke="#8aa1f6" d="M14 8h2m2 0h2m-6 1h2m2 0h2"/><path stroke="#e3cddf" d="M14 10h2m2 0h2m-6 1h2m2 0h2m-8 1h2m4 0h2m-8 1h2m4 0h2m-6 1h4m-4 1h4"/><path stroke="#c090a9" d="M14 12h4m-4 1h4"/><path stroke="#595757" d="M20 12h2m-2 1h2m-12 1h2m8 0h2m-12 1h2m8 0h2m-12 1h4m4 0h2m-10 1h4m4 0h2M6 18h4m4 0h4m2 0h2M6 19h4m4 0h4m2 0h2m-12 1h2m8 0h2m-12 1h2m8 0h2m-10 1h8m-8 1h8"/><path stroke="#88a3bc" d="M28 12h2m-2 1h2M8 16h2m12 0h2M8 17h2m12 0h2m-14 9h2m-2 1h2"/><path stroke="#b28b78" d="M12 14h2m4 0h2m-8 1h2m4 0h2m-6 1h4m-4 1h4"/><path stroke="#5e718e" d="M28 14h2m-2 1h2m-10 1h2m-2 1h2m-6 9h2m-2 1h2m-6 1h2m2 0h2m-6 1h2m2 0h2"/><path stroke="#464762" d="M24 16h2m-2 1h2m-16 1h2m14 0h2m-18 1h2m14 0h2m-2 1h2m-2 1h2m-18 3h2m-2 1h2m2 1h2m-2 1h2"/><path stroke="#f8e398" d="M26 16h6m-6 1h6"/><path stroke="#a69e9a" d="M12 18h2m4 0h2m4 0h2m-14 1h2m4 0h2m4 0h2M6 20h2m6 0h4M6 21h2m6 0h4M8 22h2m-2 1h2m2 9h2m6 0h2m-10 1h2m6 0h2"/><path stroke="#807b7a" d="M22 18h2m-2 1h2M8 20h2m2 0h2m4 0h2M8 21h2m2 0h2m4 0h2M10 32h2m6 0h2m-10 1h2m6 0h2"/><path stroke="#695b59" d="M28 18h2m-2 1h2m-2 1h2m-2 1h2m-20 9h2m6 0h2m-10 1h2m6 0h2"/><path stroke="#e1bf89" d="M28 22h2m-2 1h2"/><path stroke="#724b2c" d="M12 24h2m4 0h2m-8 1h2m4 0h2"/><path stroke="#e2b27e" d="M14 24h2m-2 1h2"/><path stroke="#f6d896" d="M16 24h2m-2 1h2"/></svg>