<svg xmlns="http://www.w3.org/2000/svg" width="32" height="32" shape-rendering="crispEdges" viewBox="0 -0.5 18 18"><path stroke="#1a1c26" d="M5 2h3M4 3h1m3 0h1M3 4h1m5 0h1M3 5h1m5 0h1m2 0h1M3 6h1m5 0h1m1 0h1m1 0h1M3 7h1m5 0h1m1 0h1m1 0h1M3 8h1m6 0h1m2 0h1M2 9h1m10 0h1M2 10h1m7 0h2m2 0h1M2 11h1m6 0h1m2 0h1m1 0h1M3 12h1m5 0h1m2 0h1m1 0h1M4 13h1m4 0h1m1 0h1m2 0h1M4 14h1m4 0h1m1 0h1m1 0h1M4 15h1m4 0h1m1 0h1m1 0h1M4 16h1m5 0h1m2 0h1"/><path stroke="#edd1d6" d="M5 3h3M4 4h2m1 0h1M5 5h1m1 0h1M7 6h1m-3 5h1"/><path stroke="#fff" d="M6 4h1m1 0h1M4 5h1m1 2h2M5 8h1m2 0h1"/><path stroke="#a19477" d="M6 5h1m1 0h1"/><path stroke="#cbd2d9" d="M4 6h1M4 7h2m2 0h1M6 9h2"/><path stroke="#dfb2c6" d="M5 6h1m2 0h1M6 8h2"/><path stroke="#f3bfad" d="M6 6h1"/><path stroke="#dab580" d="M12 6h1m0 4h1m-2 3h1"/><path stroke="#b3794d" d="M12 7h1m-1 3h1m0 1h1m-1 2h1m-2 1h1"/><path stroke="#99a5a7" d="M4 8h1m0 1h1m2 0h1m-3 1h2"/><path stroke="#d45c1d" d="M9 8h1M3 9h1m6 0h1"/><path stroke="#402830" d="M11 8h1m-1 1h1m-8 1h1m4 0h1m-6 2h1m2 2h1m-2 1h1m0 1h1m3 0h1"/><path stroke="#ab684c" d="M12 8h1m-1 1h1m0 3h1m-2 3h1"/><path stroke="#617077" d="M4 9h1m0 1h1m2 0h1m-3 1h2"/><path stroke="#a82b12" d="M9 9h1m-7 1h1m-1 1h2m1 1h2"/><path stroke="#810b0b" d="M8 11h1m-4 1h1m2 0h1"/><path stroke="#5e423c" d="M5 13h1m1 0h1m-3 1h1m1 1h1m-3 1h1m2 0h1"/><path stroke="#806352" d="M6 13h1m1 0h1m-3 1h1m1 0h1m-4 1h1m2 0h1m-3 1h1m2 0h1m2 0h1"/></svg>