<svg xmlns="http://www.w3.org/2000/svg" width="32" height="32" shape-rendering="crispEdges" viewBox="0 -0.5 36 35"><path stroke="#1a1c26" d="M16 4h6m-6 1h6m-8 1h2m6 0h2M14 7h2m6 0h2M12 8h2m10 0h2m2 0h2M12 9h2m10 0h2m2 0h2m-18 1h2m12 0h2m2 0h2m-20 1h2m12 0h2m2 0h2M8 12h4m14 0h2m2 0h2M8 13h4m14 0h2m2 0h2M6 14h2m18 0h2m2 0h2M6 15h2m18 0h2m2 0h2M6 16h2m18 0h2m4 0h2M6 17h2m18 0h2m4 0h2M4 18h2m22 0h2m2 0h2M4 19h2m22 0h2m2 0h2M4 20h2m22 0h2m2 0h2M4 21h2m22 0h2m2 0h2M6 22h6m12 0h6m2 0h2M6 23h6m12 0h6m2 0h2m-22 1h2m8 0h2m4 0h2m2 0h2m-22 1h2m8 0h2m4 0h2m2 0h2m-22 1h2m8 0h2m2 0h2m4 0h2m-22 1h2m8 0h2m2 0h2m4 0h2m-22 1h2m10 0h4m2 0h2m-20 1h2m10 0h4m2 0h2m-2 5h2"/><path stroke="#99a5a7" d="M16 6h2m2 0h2m-6 1h2m2 0h2m-8 1h2m2 0h2m-6 1h2m2 0h2"/><path stroke="#617077" d="M18 6h2m-2 1h2m-4 1h2m4 0h2m-8 1h2m4 0h2m-10 1h2m-2 1h2m-2 3h2m-2 1h2m0 1h2m4 0h2m-8 1h2m4 0h2m-6 1h4m-4 1h4"/><path stroke="#3c4851" d="M20 8h2m-2 1h2m-6 1h4m2 0h4m-10 1h4m2 0h4m-12 1h2m-2 1h2m-2 3h2m-2 1h2m0 1h2m4 0h2m-8 1h2m4 0h2m-6 1h4m-4 1h4"/><path stroke="#f3bfad" d="M20 10h2m-2 1h2m-2 1h2m-2 1h2m-2 1h2m-2 1h2"/><path stroke="#a19477" d="M28 10h2m-2 1h2m-2 1h2m-2 1h2m-2 1h2m-2 1h2m0 1h2m-2 1h2"/><path stroke="#de9e8c" d="M12 12h2m2 0h2m6 0h2m-14 1h2m2 0h2m6 0h2m-8 1h2m-2 1h2m-6 7h2m-2 1h2"/><path stroke="#d1fbf0" d="M18 12h2m2 0h2m-6 1h2m2 0h2"/><path stroke="#cea65f" d="M8 14h2m-2 1h2m-2 1h2m-2 1h2m-4 1h2m-2 1h2"/><path stroke="#ab684c" d="M10 14h2m-2 1h2m-4 3h2m-2 1h2m-4 1h2m-2 1h2"/><path stroke="#402830" d="M12 14h2m-2 1h2m-2 1h2m-2 1h2m-4 1h2m-2 1h2m-2 1h2m-2 1h2"/><path stroke="#ca867a" d="M16 14h2m4 0h2m-8 1h2m4 0h2m-6 1h4m-4 1h4"/><path stroke="#0b3b44" d="M24 14h2m-2 1h2m-2 1h2m-2 1h2m0 1h2m-2 1h2m-14 1h2m8 0h2m-12 1h2m8 0h2m-10 1h2m4 0h2m-8 1h2m4 0h2m-10 1h2m-2 1h2"/><path stroke="#6b5853" d="M10 16h2m-2 1h2m-4 3h2m-2 1h2"/><path stroke="#806352" d="M28 16h2m-2 1h2m0 1h2m-2 1h2m-2 1h2m-2 1h2m-2 1h2m-2 1h2m-16 1h2m2 0h2m8 0h2m-16 1h2m2 0h2m8 0h2m-4 1h2m-2 1h2m-16 1h2m6 0h2m-10 1h2m6 0h2"/><path stroke="#50cd90" d="M12 18h4m-4 1h4"/><path stroke="#30a387" d="M24 18h2m-2 1h2m-14 1h2m2 0h2m4 0h2m-12 1h2m2 0h2m4 0h2m-6 1h4m-4 1h4"/><path stroke="#17756e" d="M26 20h2m-2 1h2m-16 1h2m-2 1h2"/><path stroke="#cbd2d9" d="M18 24h2m-2 1h2"/><path stroke="#5e423c" d="M14 26h4m2 0h2m8 0h2m-18 1h4m2 0h2m8 0h2m-4 1h2m-2 1h2"/><path stroke="#24131d" d="M18 26h2m-2 1h2m-4 1h2m2 0h2m-6 1h2m2 0h2"/></svg>