<svg xmlns="http://www.w3.org/2000/svg" width="32" height="32" shape-rendering="crispEdges" viewBox="0 -0.5 35 34"><path stroke="#141013" d="M20 10h2m-2 1h2m-4 1h2m2 0h2m4 0h2m-12 1h2m2 0h2m4 0h2M6 14h6m10 0h2m2 0h2m2 0h2M6 15h6m10 0h2m2 0h2m2 0h2M4 16h2m6 0h2m2 0h4m2 0h6M4 17h2m6 0h2m2 0h4m2 0h6M2 18h2m10 0h2m4 0h2m6 0h2M2 19h2m10 0h2m4 0h2m6 0h2M2 20h2m24 0h2M2 21h2m24 0h2M2 22h2m26 0h2M2 23h2m26 0h2M4 24h2m4 0h2m10 0h4m4 0h2M4 25h2m4 0h2m10 0h4m4 0h2M4 26h2m2 0h2m2 0h2m2 0h2m2 0h2m4 0h4M4 27h2m2 0h2m2 0h2m2 0h2m2 0h2m4 0h4M2 28h2m2 0h2m2 0h2m2 0h2m2 0h2m2 0h2M2 29h2m2 0h2m2 0h2m2 0h2m2 0h2m2 0h2"/><path stroke="#6d758d" d="M6 16h6m-6 1h6m-8 1h2m6 0h2m2 0h4m2 0h6M4 19h2m6 0h2m2 0h4m2 0h6M8 22h2m4 0h2m2 0h2M8 23h2m4 0h2m2 0h2"/><path stroke="#4a5462" d="M6 18h6m-6 1h6m-8 1h2m6 0h2m2 0h2m8 0h2M4 21h2m6 0h2m2 0h2m8 0h2M6 24h2m6 0h2m2 0h2M6 25h2m6 0h2m2 0h2"/><path stroke="#333941" d="M6 20h2m2 0h2m10 0h2M6 21h2m2 0h2m10 0h2m0 1h4m-4 1h4M6 26h2m6 0h2m2 0h2M6 27h2m6 0h2m2 0h2"/><path stroke="#242234" d="M8 20h2m4 0h2m2 0h4M8 21h2m4 0h2m2 0h4M4 22h4m2 0h4m2 0h2m2 0h4m4 0h2M4 23h4m2 0h4m2 0h2m2 0h4m4 0h2M8 24h2m2 0h2m2 0h2m2 0h2m4 0h2M8 25h2m2 0h2m2 0h2m2 0h2m4 0h2M4 28h2m6 0h2m6 0h2M4 29h2m6 0h2m6 0h2"/><path stroke="#df3e23" d="M24 20h2m-2 1h2"/></svg>