<svg xmlns="http://www.w3.org/2000/svg" width="32" height="32" shape-rendering="crispEdges" viewBox="0 -0.5 36 37"><path stroke="#372840" d="M16 13h2m4 0h2m-8 1h2m4 0h2M4 15h8m2 0h2m2 0h4m2 0h2m2 0h4M4 16h8m2 0h2m2 0h4m2 0h2m2 0h4M4 17h2m6 0h4m8 0h4m2 0h2M4 18h2m6 0h4m8 0h4m2 0h2M4 19h2m8 0h2m8 0h2m4 0h2M4 20h2m8 0h2m8 0h2m4 0h2M6 21h2m6 0h2m8 0h2m2 0h2M6 22h2m6 0h2m8 0h2m2 0h2M8 23h2m4 0h2m8 0h4M8 24h2m4 0h2m8 0h4m-18 1h8m4 0h4m-16 1h8m4 0h4m-14 1h12m-12 1h12m-10 1h8m-8 1h8"/><path stroke="#3d3957" d="M16 15h2m4 0h2m-8 1h2m4 0h2m-8 1h2m4 0h2m-8 1h2m4 0h2M6 19h6m16 0h2M6 20h6m16 0h2M8 21h6m12 0h2M8 22h6m12 0h2m-18 1h4m6 0h2m-12 1h4m6 0h2m-4 1h4m-4 1h4"/><path stroke="#524a63" d="M6 17h6m6 0h4m6 0h2M6 18h6m6 0h4m6 0h2m-18 1h2m2 0h8m2 0h2m-16 1h2m2 0h8m2 0h2m-12 1h2m2 0h2m-6 1h2m2 0h2m-6 1h4m2 0h2m-8 1h4m2 0h2"/><path stroke="#bf2651" d="M18 21h2m2 0h2m-6 1h2m2 0h2"/></svg>