<svg xmlns="http://www.w3.org/2000/svg" width="32" height="32" shape-rendering="crispEdges" viewBox="0 -0.5 35 34"><path stroke="#141013" d="M13 6h8m-8 1h8M9 8h4m8 0h4M9 9h4m8 0h4M7 10h2m16 0h4M7 11h2m16 0h4M5 12h2m22 0h2m2 0h2M5 13h2m22 0h2m2 0h2M3 14h2m26 0h2M3 15h2m26 0h2M3 16h2m26 0h4M3 17h2m26 0h4M3 18h2m20 0h2m4 0h2M3 19h2m20 0h2m4 0h2M5 20h2m4 0h2m6 0h2m6 0h6M5 21h2m4 0h2m6 0h2m6 0h6M7 22h22m2 0h2M7 23h22m2 0h2m-22 1h2m2 0h2m2 0h2m2 0h2m2 0h2m4 0h2m-24 1h2m2 0h2m2 0h2m2 0h2m2 0h2m4 0h2M9 26h2m2 0h2m2 0h2m6 0h2m2 0h2M9 27h2m2 0h2m2 0h2m6 0h2m2 0h2"/><path stroke="#422433" d="M13 8h2m2 0h2m-6 1h2m2 0h2m-8 1h2m2 0h2m2 0h2m-10 1h2m2 0h2m2 0h2M9 12h2m2 0h2m2 0h2m4 0h2M9 13h2m2 0h2m2 0h2m4 0h2M9 14h2m2 0h2m2 0h2m2 0h2M9 15h2m2 0h2m2 0h2m2 0h2M9 16h2m2 0h2m2 0h2m2 0h2M9 17h2m2 0h2m2 0h2m2 0h2M5 18h6m2 0h6m2 0h2M5 19h6m2 0h6m2 0h2"/><path stroke="#8e5252" d="M15 8h2m2 0h2m-6 1h2m2 0h2m2 1h2m-2 1h2m-4 1h2m4 0h2m-8 1h2m4 0h2M5 14h4m2 0h2m2 0h2m2 0h2m4 0h2M5 15h4m2 0h2m2 0h2m2 0h2m4 0h2m-4 1h2m2 0h2m-6 1h2m2 0h2m0 1h2m-2 1h2"/><path stroke="#f5a097" d="M9 10h2m2 0h2m2 0h2m2 0h2M9 11h2m2 0h2m2 0h2m2 0h2M7 12h2m2 0h2m2 0h2m2 0h2M7 13h2m2 0h2m2 0h2m2 0h2"/><path stroke="#ba756a" d="M25 12h2m-2 1h2m-4 1h2m2 0h2m-6 1h2m2 0h2m-4 1h2m-2 1h2"/><path stroke="#3b1725" d="M29 14h2m-2 1h2m-20 3h2m6 0h2m-10 1h2m6 0h2M7 20h4m2 0h6m2 0h6M7 21h4m2 0h6m2 0h6"/><path stroke="#5b3138" d="M5 16h4m2 0h2m2 0h2m2 0h2M5 17h4m2 0h2m2 0h2m2 0h2m2 1h2m-2 1h2"/><path stroke="#fa6a0a" d="M29 16h2m-2 1h2m-4 1h2m-2 1h2"/></svg>