<svg xmlns="http://www.w3.org/2000/svg" width="32" height="32" shape-rendering="crispEdges" viewBox="0 -0.5 35 34"><path stroke="#141013" d="M28 8h2m-2 1h2m-6 1h2m2 0h4m-8 1h2m2 0h4M6 12h12m4 0h4m4 0h4M6 13h12m4 0h4m4 0h4M4 14h2m12 0h6m6 0h4M4 15h2m12 0h6m6 0h4M2 16h2m20 0h2m4 0h4M2 17h2m20 0h2m4 0h4M2 18h2m22 0h8M2 19h2m22 0h8M2 20h2m28 0h2M2 21h2m28 0h2M2 22h2m26 0h2M2 23h2m26 0h2M4 24h6m2 0h4m2 0h2m2 0h2m2 0h4M4 25h6m2 0h4m2 0h2m2 0h2m2 0h4M4 26h2m4 0h2m4 0h2m2 0h2m2 0h2m2 0h2M4 27h2m4 0h2m4 0h2m2 0h2m2 0h2m2 0h2M2 28h2m4 0h2m4 0h2m6 0h2m2 0h2m2 0h2M2 29h2m4 0h2m4 0h2m6 0h2m2 0h2m2 0h2"/><path stroke="#b4202a" d="M6 14h12M6 15h12M4 16h2m12 0h2m2 0h2M4 17h2m12 0h2m2 0h2m0 1h2m-2 1h2m0 1h4m-4 1h4"/><path stroke="#73172d" d="M6 16h12M6 17h12M4 18h2m12 0h2m2 0h2M4 19h2m12 0h2m2 0h2M6 20h12m12 0h2M6 21h12m12 0h2"/><path stroke="#242234" d="M20 16h2m-2 1h2m-2 1h2m-2 1h2m-2 1h2m-2 1h2M4 22h2m12 0h6M4 23h2m12 0h6m-14 1h2m4 0h2m2 0h2m2 0h2m-16 1h2m4 0h2m2 0h2m2 0h2"/><path stroke="#3b1725" d="M6 18h12M6 19h12M4 20h2m12 0h2m2 0h2M4 21h2m12 0h2m2 0h2M6 22h12m6 0h6M6 23h12m6 0h6"/><path stroke="#fa6a0a" d="M24 20h2m-2 1h2"/></svg>