<svg xmlns="http://www.w3.org/2000/svg" width="32" height="32" shape-rendering="crispEdges" viewBox="0 -0.5 36 36"><path stroke="#1d1d1c" d="M16 10h6m-6 1h6m-8 1h2m6 0h2m4 0h2m-16 1h2m6 0h2m4 0h2m-20 1h4m10 0h4m2 0h2m-22 1h4m10 0h4m2 0h2M8 16h2m20 0h2M8 17h2m20 0h2M6 18h2m22 0h2M6 19h2m22 0h2M4 20h2m26 0h2M4 21h2m26 0h2M4 22h2m26 0h2M4 23h2m26 0h2M2 24h2m8 0h2m18 0h2M2 25h2m8 0h2m18 0h2M4 26h4m4 0h2m2 0h4m10 0h2M4 27h4m4 0h2m2 0h4m10 0h2M6 28h2m2 0h2m2 0h2m4 0h2m6 0h2M6 29h2m2 0h2m2 0h2m4 0h2m6 0h2M6 30h2m2 0h2m2 0h2m4 0h2m2 0h2m2 0h2M6 31h2m2 0h2m2 0h2m4 0h2m2 0h2m2 0h2M8 32h2m2 0h2m2 0h2m4 0h2m2 0h2m2 0h2M8 33h2m2 0h2m2 0h2m4 0h2m2 0h2m2 0h2"/><path stroke="#d49577" d="M16 12h6m-6 1h6m-8 1h2m6 0h2m4 0h2m-16 1h2m6 0h2m4 0h2m-20 1h4m10 0h4m-18 1h4m10 0h4M8 18h2m16 0h2M8 19h2m16 0h2M6 20h2m18 0h2M6 21h2m18 0h2M6 22h2m-2 1h2m-4 1h2m-2 1h2"/><path stroke="#9f705a" d="M16 14h4m-4 1h4m-6 1h6m-6 1h6m-10 1h16m2 0h2m-20 1h16m2 0h2M8 20h4m8 0h2M8 21h4m8 0h2M8 22h2m-2 1h2m-4 1h2m-2 1h2"/><path stroke="#633b3f" d="M20 14h2m-2 1h2m-2 1h2m-2 1h2m-10 5h6m2 0h2m-10 1h6m2 0h2m-12 3h2m-2 1h2m14 3h2m-2 1h2"/><path stroke="#845750" d="M22 16h2m4 0h2m-8 1h2m4 0h2m-18 3h8m-8 1h8m-10 1h2m6 0h2m-10 1h2m6 0h2M8 24h4m6 0h2M8 25h4m6 0h2M8 26h2m10 0h2M8 27h2m10 0h2M8 28h2m12 0h2M8 29h2m12 0h2M8 30h2m12 0h2M8 31h2m12 0h2"/><path stroke="#fff" d="M22 20h2m6 0h2m-10 1h2m6 0h2"/><path stroke="#f22f46" d="M24 20h2m2 0h2m-6 1h2m2 0h2"/><path stroke="#dbcfb1" d="M22 22h2m6 0h2m-10 1h2m6 0h2"/><path stroke="#a18897" d="M24 22h2m2 0h2m-6 1h2m2 0h2"/><path stroke="#abafb9" d="M26 22h2m-2 1h2"/><path stroke="#542323" d="M14 24h4m2 0h2m-8 1h4m2 0h2m-8 1h2m6 0h2m-10 1h2m6 0h2m-12 1h2m10 0h4m-16 1h2m10 0h4m-16 1h2m-2 1h2"/><path stroke="#a9a48d" d="M22 24h2m6 0h2m-10 1h2m6 0h2"/><path stroke="#4c3250" d="M24 24h2m2 0h2m-6 1h2m2 0h2"/><path stroke="#756276" d="M26 24h2m-2 1h2"/><path stroke="#5d4660" d="M24 26h6m-6 1h6m-20 5h2m12 0h2m-16 1h2m12 0h2"/><path stroke="#432641" d="M14 32h2m12 0h2m-16 1h2m12 0h2"/></svg>