<svg xmlns="http://www.w3.org/2000/svg" width="32" height="32" shape-rendering="crispEdges" viewBox="0 -0.5 36 36"><path stroke="#1d1d1c" d="M8 10h2m12 0h2m4 0h2M8 11h2m12 0h2m4 0h2M6 12h2m2 0h2m8 0h2m2 0h4m2 0h2M6 13h2m2 0h2m8 0h2m2 0h4m2 0h2M4 14h2m2 0h2m10 0h2m8 0h2M4 15h2m2 0h2m10 0h2m8 0h2M2 16h2m2 0h2m10 0h2m12 0h2M2 17h2m2 0h2m10 0h2m12 0h2M2 18h2m4 0h10m14 0h2M2 19h2m4 0h10m14 0h2M4 20h2m26 0h2M4 21h2m26 0h2M4 22h2m24 0h2M4 23h2m24 0h2M2 24h2m24 0h2M2 25h2m24 0h2M2 26h2m24 0h2M2 27h2m24 0h2M2 28h2m8 0h6m10 0h2M2 29h2m8 0h6m10 0h2M2 30h2m6 0h2m6 0h2m8 0h2M2 31h2m6 0h2m6 0h2m8 0h2M4 32h2m2 0h2m2 0h2m6 0h2m2 0h4m2 0h2M4 33h2m2 0h2m2 0h2m6 0h2m2 0h4m2 0h2"/><path stroke="#eaeae8" d="M8 12h2m12 0h2m4 0h2M8 13h2m12 0h2m4 0h2m-2 5h2m-2 1h2m-8 1h2m6 0h2m-10 1h2m6 0h2m-8 1h6m-6 1h6M6 32h2m14 0h2M6 33h2m14 0h2"/><path stroke="#fdbd8f" d="M6 14h2m16 0h4M6 15h2m16 0h4M4 16h2m14 0h4m2 0h2m2 0h2M4 17h2m14 0h4m2 0h2m2 0h2M6 18h2m12 0h2M6 19h2m12 0h2M6 20h2m2 0h2m2 0h2m2 0h4M6 21h2m2 0h2m2 0h2m2 0h4M8 22h2m2 0h2m2 0h4m2 0h2M8 23h2m2 0h2m2 0h4m2 0h2M4 24h2m2 0h2m2 0h2m2 0h2m2 0h2M4 25h2m2 0h2m2 0h2m2 0h2m2 0h2M6 26h2m12 0h2m4 0h2M6 27h2m12 0h2m4 0h2M4 28h2m-2 1h2m-2 1h2m14 0h2m4 0h2M4 31h2m14 0h2m4 0h2"/><path stroke="#cecac9" d="M22 14h2m4 0h2m-8 1h2m4 0h2M10 32h2m16 0h2m-20 1h2m16 0h2"/><path stroke="#4cbd56" d="M24 16h2m2 0h2m-6 1h2m2 0h2"/><path stroke="#f0886b" d="M4 18h2m-2 1h2m2 1h2m2 0h2m2 0h2M8 21h2m2 0h2m2 0h2m0 3h2m-2 1h2m2 1h4m-4 1h4"/><path stroke="#eb8f48" d="M18 18h2m2 0h2m6 0h2m-14 1h2m2 0h2m6 0h2M6 22h2m2 0h2m2 0h2m4 0h2M6 23h2m2 0h2m2 0h2m4 0h2m-2 5h2m4 0h2m-8 1h2m4 0h2"/><path stroke="#fff" d="M24 18h2m-2 1h2"/><path stroke="#f6bafe" d="M26 18h2m-2 1h2"/><path stroke="#5d4660" d="M24 20h6m-6 1h6"/><path stroke="#f87b1b" d="M6 24h2m2 0h2m2 0h2M6 25h2m2 0h2m2 0h2M4 26h2m2 0h2m-6 1h2m2 0h2m-4 1h2m-2 1h2"/><path stroke="#ae454a" d="M22 24h6m-6 1h6m-14 1h2m-2 1h2m-6 1h2m10 0h4m-16 1h2m10 0h4M8 30h2m-2 1h2"/><path stroke="#542323" d="M10 26h2m6 0h2m-10 1h2m6 0h2M8 28h2m8 0h2M8 29h2m8 0h2M6 30h2m14 0h4M6 31h2m14 0h4"/><path stroke="#d17441" d="M12 26h2m2 0h2m-6 1h2m2 0h2"/></svg>