<svg xmlns="http://www.w3.org/2000/svg" width="32" height="32" shape-rendering="crispEdges" viewBox="0 -0.5 36 36"><path stroke="#1d1d1c" d="M22 4h2m-2 1h2m-6 1h4m2 0h2m-8 1h4m2 0h2M6 8h2m8 0h2m6 0h2M6 9h2m8 0h2m6 0h2M4 10h2m2 0h2m6 0h2m8 0h2M4 11h2m2 0h2m6 0h2m8 0h2M2 12h2m4 0h2m6 0h2m8 0h2M2 13h2m4 0h2m6 0h2m8 0h2M2 14h2m6 0h2m4 0h2m10 0h2M2 15h2m6 0h2m4 0h2m10 0h2M2 16h2m8 0h4m12 0h2M2 17h2m8 0h4m12 0h2M4 18h2m20 0h2M4 19h2m20 0h2M2 20h2m22 0h2M2 21h2m22 0h2M4 22h2m20 0h2M4 23h2m20 0h2M6 24h2m16 0h2M6 25h2m16 0h2M8 26h2m12 0h2M8 27h2m12 0h2m-14 1h2m8 0h2m-12 1h2m8 0h2m-10 1h2m2 0h2m2 0h2m-10 1h2m2 0h2m2 0h2m-12 1h2m2 0h2m2 0h2m2 0h2m-14 1h2m2 0h2m2 0h2m2 0h2"/><path stroke="#fb7575" d="M22 6h2m-2 1h2m-6 1h2m-2 1h2m2 5h2m-2 1h2"/><path stroke="#fb3b64" d="M20 8h4m-4 1h4m-2 7h2m-2 1h2"/><path stroke="#eaeae8" d="M6 10h2m-2 1h2m-4 1h2m-2 1h2m0 1h2m-2 1h2m-4 1h2m2 0h2m-6 1h2m2 0h2m-2 1h2m-2 1h2m-6 1h4m-4 1h4m-2 1h2m10 0h2m4 0h2M6 23h2m10 0h2m4 0h2m-12 1h2m-2 1h2"/><path stroke="#c83157" d="M18 10h2m-2 1h2m2 7h4m-4 1h4m-2 1h2m-2 1h2"/><path stroke="#fff" d="M20 10h6m-6 1h6M6 12h2m10 0h2m2 0h2M6 13h2m10 0h2m2 0h2M4 14h2m2 0h2m8 0h4M4 15h2m2 0h2m8 0h4M6 16h2m2 0h2m6 0h4M6 17h2m2 0h2m6 0h4M6 18h2m2 0h2m2 0h8M6 19h2m2 0h2m2 0h8M8 20h2m2 0h12M8 21h2m2 0h12m-14 1h8m4 0h2m-14 1h8m4 0h2M8 24h6m-6 1h6"/><path stroke="#4f2351" d="M20 12h2m2 0h2m-6 1h2m2 0h2"/><path stroke="#fac05a" d="M24 14h2m-2 1h2m-6 17h2m-2 1h2"/><path stroke="#ffe08b" d="M26 14h2m-2 1h2"/><path stroke="#cecac9" d="M16 16h2m-2 1h2m-6 1h2m-2 1h2m-4 1h2m-2 1h2m-4 1h2m-2 1h2m10 1h4m-4 1h4m-8 1h4m-4 1h4"/><path stroke="#d17441" d="M24 16h2m-2 1h2"/><path stroke="#eb8f48" d="M26 16h2m-2 1h2"/><path stroke="#abafb9" d="M20 22h2m-2 1h2m-6 1h4m-4 1h4m-10 1h6m-6 1h6"/><path stroke="#a18897" d="M20 26h2m-2 1h2m-10 1h8m-8 1h8"/><path stroke="#e38d18" d="M14 30h2m2 0h2m-6 1h2m2 0h2"/><path stroke="#ebbf4a" d="M12 32h2m2 0h2m-6 1h2m2 0h2"/></svg>