<svg xmlns="http://www.w3.org/2000/svg" width="32" height="32" shape-rendering="crispEdges" viewBox="0 -0.5 35 34"><path stroke="#141013" d="M22 2h2m10 0h1M22 3h2m10 0h1M24 4h2m6 0h2M24 5h2m6 0h2M24 6h2m6 0h2M24 7h2m6 0h2m-8 1h2m2 0h2m-6 1h2m2 0h2M8 10h14m4 0h2m2 0h2M8 11h14m4 0h2m2 0h2M6 12h2m14 0h2m2 0h2m2 0h2M6 13h2m14 0h2m2 0h2m2 0h2M4 14h2m18 0h4m2 0h2M4 15h2m18 0h4m2 0h2M4 16h2m22 0h2M4 17h2m22 0h2M6 18h2m22 0h2M6 19h2m22 0h2M8 20h16m6 0h2M8 21h16m6 0h2M8 22h2m2 0h2m2 0h2m2 0h2m2 0h8M8 23h2m2 0h2m2 0h2m2 0h2m2 0h8M8 24h2m2 0h2m2 0h2m2 0h2m2 0h2m2 0h2M8 25h2m2 0h2m2 0h2m2 0h2m2 0h2m2 0h2M6 26h2m2 0h2m2 0h2m6 0h2m2 0h2m2 0h2M6 27h2m2 0h2m2 0h2m6 0h2m2 0h2m2 0h2"/><path stroke="#dba463" d="M8 12h2m-2 1h2m-4 1h2m14 0h2M6 15h2m14 0h2M6 16h2m12 0h2M6 17h2m12 0h2"/><path stroke="#bb7547" d="M10 12h2m-2 1h2m-4 1h2m-2 1h2m-2 1h2m12 0h2M8 17h2m12 0h2m-4 1h2m-2 1h2"/><path stroke="#8e5252" d="M12 12h2m-2 1h2m-4 1h2m-2 1h2m-2 1h2m-2 1h2m-4 1h2m-2 1h2"/><path stroke="#71413b" d="M14 12h2m-2 1h2m-4 1h2m-2 1h2m-2 1h2m10 0h2m-14 1h2m10 0h2m-16 1h2m10 0h2m2 0h2m-18 1h2m10 0h2m2 0h2"/><path stroke="#5b3138" d="M16 12h4m-4 1h4m-6 1h4m-4 1h4m-4 1h2m-2 1h2m-4 1h4m-4 1h4"/><path stroke="#422433" d="M20 12h2m-2 1h2m-4 1h2m-2 1h2m-4 1h2m-2 1h2m-2 1h2m-2 1h2m10 1h2m-2 1h2"/><path stroke="#3b1725" d="M20 14h2m-2 1h2m-4 1h2m6 0h2m-10 1h2m6 0h2m-10 1h2m4 0h2m-8 1h2m4 0h2m-2 1h2m-2 1h2"/><path stroke="#92dcba" d="M28 18h2m-2 1h2m-4 1h2m-2 1h2"/></svg>