<svg xmlns="http://www.w3.org/2000/svg" width="32" height="32" shape-rendering="crispEdges" viewBox="0 -0.5 36 36"><path stroke="#1d1d1c" d="M20 6h2m2 0h4m2 0h2M20 7h2m2 0h4m2 0h2M18 8h2m2 0h2m4 0h2m2 0h2M18 9h2m2 0h2m4 0h2m2 0h2m-16 1h2m12 0h2m-16 1h2m12 0h2M6 12h12m12 0h2M6 13h12m12 0h2M4 14h2m24 0h2M4 15h2m24 0h2M2 16h2m28 0h2M2 17h2m28 0h2M2 18h2m28 0h2M2 19h2m28 0h2M2 20h2m28 0h2M2 21h2m28 0h2M4 22h2m24 0h2M4 23h2m24 0h2M4 24h2m22 0h2M4 25h2m22 0h2M2 26h2m8 0h4m6 0h2m4 0h2M2 27h2m8 0h4m6 0h2m4 0h2M2 28h2m6 0h2m4 0h2m2 0h2m2 0h2m2 0h2M2 29h2m6 0h2m4 0h2m2 0h2m2 0h2m2 0h2M2 30h2m6 0h2m4 0h2m2 0h2m2 0h2m2 0h2M2 31h2m6 0h2m4 0h2m2 0h2m2 0h2m2 0h2M4 32h2m2 0h2m2 0h2m4 0h2m2 0h2m2 0h2m2 0h2M4 33h2m2 0h2m2 0h2m4 0h2m2 0h2m2 0h2m2 0h2"/><path stroke="#756276" d="M20 8h2m8 0h2M20 9h2m8 0h2m-10 1h4m2 0h2m-8 1h4m2 0h2"/><path stroke="#fff" d="M24 8h4m-4 1h4m-2 1h2m-2 1h2m-2 1h2m-2 1h2m-18 1h2m6 0h2m6 0h2m-18 1h2m6 0h2m6 0h2m-18 1h4m4 0h2m4 0h2m-16 1h4m4 0h2m4 0h2M8 18h2m6 0h4M8 19h2m6 0h4M6 20h2m10 0h4M6 21h2m10 0h4M6 22h2m10 0h6M6 23h2m10 0h6M6 24h2m-2 1h2m-4 1h4m-4 1h4"/><path stroke="#4c3250" d="M20 10h2m8 0h2m-12 1h2m8 0h2m-12 1h2m-2 1h2m0 1h2m-2 1h2m2 3h2m2 0h2m-6 1h2m2 0h2m-22 3h6m-6 1h6m-8 1h2m6 0h2M8 25h2m6 0h2"/><path stroke="#432641" d="M18 12h2m-2 1h2m0 1h2m-2 1h2m0 1h2m-2 1h2m-2 1h2m-2 1h2m0 1h2m-2 1h2m0 1h4m-4 1h4M8 26h2m6 0h2m2 0h2m2 0h2M8 27h2m6 0h2m2 0h2m2 0h2M6 28h2m-2 1h2m-2 1h2m-2 1h2"/><path stroke="#5d4660" d="M22 12h2m-2 1h2M6 14h4m2 0h6m6 0h2m2 0h2M6 15h4m2 0h6m6 0h2m2 0h2M4 16h6m4 0h4m2 0h2M4 17h6m4 0h4m2 0h2M4 18h4m12 0h2M4 19h4m12 0h2M4 20h2m4 0h6m6 0h2M4 21h2m4 0h6m6 0h2M8 22h2m6 0h2m6 0h2M8 23h2m6 0h2m6 0h2"/><path stroke="#73dff2" d="M24 12h2m2 0h2m-6 1h2m2 0h2"/><path stroke="#fdbd8f" d="M26 16h4m-4 1h4"/><path stroke="#f0886b" d="M30 16h2m-2 1h2m-8 1h2m2 0h2m-6 1h2m2 0h2m-20 5h4m-4 1h4"/><path stroke="#eaeae8" d="M10 18h6m-6 1h6m-8 1h2m6 0h2M8 21h2m6 0h2m0 3h2m6 0h2m-10 1h2m6 0h2m-10 1h2m-2 1h2M4 28h2m12 0h2M4 29h2m12 0h2"/><path stroke="#fb7575" d="M26 20h6m-6 1h6m-18 3h2m-2 1h2m-6 1h2m-2 1h2"/><path stroke="#cecac9" d="M20 24h6m-6 1h6m0 1h2m-2 1h2m-10 3h2m-2 1h2"/><path stroke="#abafb9" d="M8 28h2m16 0h2M8 29h2m16 0h2M4 30h2m2 0h2m16 0h2M4 31h2m2 0h2m16 0h2"/><path stroke="#414040" d="M6 32h2m2 0h2m8 0h2m6 0h2M6 33h2m2 0h2m8 0h2m6 0h2"/></svg>