<svg xmlns="http://www.w3.org/2000/svg" width="32" height="32" shape-rendering="crispEdges" viewBox="0 -0.5 36 36"><path stroke="#1d1d1c" d="M4 10h2m2 0h2m16 0h2m2 0h2M4 11h2m2 0h2m16 0h2m2 0h2M2 12h2m2 0h2m2 0h2m12 0h2m2 0h2m2 0h2M2 13h2m2 0h2m2 0h2m12 0h2m2 0h2m2 0h2M2 14h2m6 0h2m12 0h2m6 0h2M2 15h2m6 0h2m12 0h2m6 0h2M2 16h2m6 0h2m12 0h2m6 0h2M2 17h2m6 0h2m12 0h2m6 0h2M2 18h2m6 0h2m2 0h8m2 0h2m6 0h2M2 19h2m6 0h2m2 0h8m2 0h2m6 0h2M4 20h2m6 0h2m8 0h2m6 0h2M4 21h2m6 0h2m8 0h2m6 0h2M6 22h2m20 0h2M6 23h2m20 0h2M6 24h2m18 0h2M6 25h2m18 0h2M4 26h2m22 0h2M4 27h2m22 0h2M2 28h2m26 0h2M2 29h2m26 0h2M2 30h2m14 0h2m10 0h2M2 31h2m14 0h2m10 0h2M4 32h2m10 0h2m2 0h2m6 0h2M4 33h2m10 0h2m2 0h2m6 0h2"/><path stroke="#fb7575" d="M4 12h2m2 0h2m16 0h2m2 0h2M4 13h2m2 0h2m16 0h2m2 0h2m-18 7h8m-8 1h8m-10 1h2m-2 1h2m-4 1h2m-2 1h2m-6 7h2m2 0h2m2 0h2m6 0h2m2 0h2M6 33h2m2 0h2m2 0h2m6 0h2m2 0h2"/><path stroke="#fb3b64" d="M4 14h2m2 0h2m16 0h2m2 0h2M4 15h2m2 0h2m16 0h2m2 0h2M6 16h2m20 0h2M6 17h2m20 0h2m-20 5h2m2 0h10m-14 1h2m2 0h10M8 24h2m2 0h2m10 0h2M8 25h2m2 0h2m10 0h2M6 26h2m2 0h2m14 0h2M6 27h2m2 0h2m14 0h2M4 28h2m2 0h2m2 0h2m10 0h2m2 0h2M4 29h2m2 0h2m2 0h2m10 0h2m2 0h2M4 30h2m2 0h2m2 0h2m6 0h2m2 0h2m2 0h2M4 31h2m2 0h2m2 0h2m6 0h2m2 0h2m2 0h2"/><path stroke="#4f2351" d="M6 14h2m20 0h2M6 15h2m20 0h2M8 26h2m14 0h2M8 27h2m14 0h2M6 28h2m2 0h2m10 0h2m2 0h2M6 29h2m2 0h2m10 0h2m2 0h2M6 30h2m2 0h2m2 0h4m4 0h2m2 0h2M6 31h2m2 0h2m2 0h4m4 0h2m2 0h2M8 32h2m2 0h2m10 0h2M8 33h2m2 0h2m10 0h2"/><path stroke="#c83157" d="M4 16h2m2 0h2m16 0h2m2 0h2M4 17h2m2 0h2m16 0h2m2 0h2M6 18h2m20 0h2M6 19h2m20 0h2M8 20h2m16 0h2M8 21h2m16 0h2m-4 1h2m-2 1h2m-12 1h2m2 0h2m2 0h2m-10 1h2m2 0h2m2 0h2m-12 1h2m-2 1h2"/><path stroke="#8e375c" d="M4 18h2m2 0h2m16 0h2m2 0h2M4 19h2m2 0h2m16 0h2m2 0h2M6 20h2m2 0h2m12 0h2m2 0h2M6 21h2m2 0h2m12 0h2m2 0h2M8 22h2m16 0h2M8 23h2m16 0h2m-14 5h8m-8 1h8"/><path stroke="#ffe08b" d="M16 24h2m2 0h2m-6 1h2m2 0h2"/><path stroke="#bc1642" d="M14 26h10m-10 1h10"/></svg>