<svg xmlns="http://www.w3.org/2000/svg" width="32" height="32" shape-rendering="crispEdges" viewBox="0 -0.5 36 36"><path stroke="#1d1d1c" d="M22 8h6m-6 1h6m-8 1h2m6 0h2m-10 1h2m6 0h2M6 12h2m10 0h2m10 0h2M6 13h2m10 0h2m10 0h2M4 14h2m2 0h2m6 0h2m12 0h2M4 15h2m2 0h2m6 0h2m12 0h2M2 16h2m6 0h8m12 0h2M2 17h2m6 0h8m12 0h2M2 18h2m22 0h2m2 0h2M2 19h2m22 0h2m2 0h2M2 20h2m26 0h2M2 21h2m26 0h2M4 22h2m22 0h2M4 23h2m22 0h2M4 24h2m22 0h2M4 25h2m22 0h2M4 26h2m22 0h2M4 27h2m22 0h2M4 28h2m10 0h2m10 0h2M4 29h2m10 0h2m10 0h2M4 30h2m8 0h2m2 0h2m8 0h2M4 31h2m8 0h2m2 0h2m8 0h2M6 32h2m2 0h2m4 0h2m2 0h2m2 0h4m2 0h2M6 33h2m2 0h2m4 0h2m2 0h2m2 0h4m2 0h2"/><path stroke="#d49577" d="M22 10h6m-6 1h6m-4 1h4m-4 1h4M6 14h2m18 0h2M6 15h2m18 0h2M4 16h2m20 0h2M4 17h2m20 0h2m-18 1h8m-8 1h8M8 20h2m-2 1h2m-4 1h2m-2 1h2m-2 1h2m-2 1h2m0 7h2m-2 1h2"/><path stroke="#633b3f" d="M20 12h2m-2 1h2m-4 1h4m-4 1h4M6 16h4m8 0h4M6 17h4m8 0h4M6 18h2m10 0h4M6 19h2m10 0h4m0 1h2m-2 1h2m-12 3h6m-6 1h6m-8 1h2m6 0h2m-10 1h2m6 0h2M8 28h2m2 0h2m-6 1h2m2 0h2m-6 1h2m2 0h2m-6 1h2m2 0h2"/><path stroke="#9f705a" d="M22 12h2m4 0h2m-8 1h2m4 0h2m-8 1h2m-2 1h2m-2 1h4m2 0h2m-8 1h4m2 0h2M4 18h2m2 0h2m14 0h2m2 0h2M4 19h2m2 0h2m14 0h2m2 0h2M6 20h2m2 0h10M6 21h2m2 0h10M8 22h2m10 0h2M8 23h2m10 0h2m0 1h4m-4 1h4M6 26h2m-2 1h2m-2 1h2m-2 1h2m-2 1h2m-2 1h2m14 1h2m4 0h2m-8 1h2m4 0h2"/><path stroke="#542323" d="M24 14h2m2 0h2m-6 1h2m2 0h2m-6 7h4m-4 1h4m-16 3h6m-6 1h6m4 1h4m-4 1h4m-14 3h2m-2 1h2"/><path stroke="#845750" d="M22 18h2m-2 1h2M4 20h2m14 0h2m2 0h6M4 21h2m14 0h2m2 0h6m-20 1h10m2 0h2m-14 1h10m2 0h2M8 24h4m6 0h4m4 0h2M8 25h4m6 0h4m4 0h2M8 26h2m10 0h8M8 27h2m10 0h8m-8 1h2m4 0h2m-8 1h2m4 0h2m-8 1h2m4 0h2m-8 1h2m4 0h2m-14 1h2m-2 1h2"/><path stroke="#432641" d="M10 28h2m2 0h2m2 0h2m-10 1h2m2 0h2m2 0h2m-10 1h2m10 0h4m-16 1h2m10 0h4"/></svg>