<svg xmlns="http://www.w3.org/2000/svg" width="32" height="32" shape-rendering="crispEdges" viewBox="0 -0.5 36 36"><path stroke="#1d1d1c" d="M20 2h6m-6 1h6m-8 1h2m6 0h2M18 5h2m6 0h2M16 6h2m8 0h2M16 7h2m8 0h2M16 8h2m10 0h2M16 9h2m10 0h2m-14 1h2m12 0h2m-16 1h2m12 0h2M6 12h2m10 0h2m4 0h6M6 13h2m10 0h2m4 0h6M4 14h2m2 0h2m10 0h2m4 0h2M4 15h2m2 0h2m10 0h2m4 0h2M4 16h2m4 0h10m6 0h2M4 17h2m4 0h10m6 0h2M4 18h2m22 0h2M4 19h2m22 0h2M6 20h2m20 0h2M6 21h2m20 0h2M6 22h2m20 0h2M6 23h2m20 0h2M8 24h2m16 0h2M8 25h2m16 0h2m-18 1h2m12 0h2m-16 1h2m12 0h2m-14 1h2m8 0h2m-12 1h2m8 0h2m-10 1h2m2 0h2m2 0h2m-10 1h2m2 0h2m2 0h2m-12 1h2m2 0h2m2 0h2m2 0h2m-14 1h2m2 0h2m2 0h2m2 0h2"/><path stroke="#fff" d="M20 4h6m-6 1h6m-8 1h2m2 0h2m-6 1h2m2 0h2m-6 1h8m-8 1h8m-6 1h4m-4 1h4M6 14h2m14 0h2M6 15h2m14 0h2M6 16h4m12 0h4M6 17h4m12 0h4M8 18h2m2 0h4m4 0h6M8 19h2m2 0h4m4 0h6m-16 1h4m4 0h8m-16 1h4m4 0h8m-10 1h8m-8 1h8m-12 1h10m-10 1h10"/><path stroke="#a18897" d="M20 6h2m2 0h2m-6 1h2m2 0h2"/><path stroke="#fac05a" d="M26 8h2m-2 1h2m0 1h2m-2 1h2M14 32h2m2 0h2m2 0h2m-10 1h2m2 0h2m2 0h2"/><path stroke="#eaeae8" d="M18 10h2m-2 1h2m0 1h4m-4 1h4m0 1h2m-2 1h2M6 18h2m2 0h2m4 0h2m8 0h2M6 19h2m2 0h2m4 0h2m8 0h2M8 20h2m4 0h2m10 0h2M8 21h2m4 0h2m10 0h2m-18 1h2m12 0h4m-18 1h2m12 0h4m-6 1h2m-2 1h2"/><path stroke="#d17441" d="M24 10h2m-2 1h2"/><path stroke="#eb8f48" d="M26 10h2m-2 1h2"/><path stroke="#cecac9" d="M20 16h2m-2 1h2m-4 1h2m-2 1h2m-4 1h2m-2 1h2M8 22h2m2 0h4m-8 1h2m2 0h4m-6 1h2m-2 1h2"/><path stroke="#abafb9" d="M24 24h2m-2 1h2m-14 1h10m-10 1h10"/><path stroke="#7b8382" d="M22 26h2m-2 1h2m-10 1h8m-8 1h8"/><path stroke="#e38d18" d="M16 30h2m2 0h2m-6 1h2m2 0h2"/></svg>