<svg xmlns="http://www.w3.org/2000/svg" width="32" height="32" shape-rendering="crispEdges" viewBox="0 -0.5 36 36"><path stroke="#1d1d1c" d="M20 8h2m6 0h2M20 9h2m6 0h2m-12 1h2m2 0h6m2 0h2m-14 1h2m2 0h6m2 0h2m-14 1h2m10 0h2m-14 1h2m10 0h2m-14 1h2m10 0h2m-14 1h2m10 0h2m-16 1h2m4 0h2m2 0h2m4 0h2m-18 1h2m4 0h2m2 0h2m4 0h2M8 18h10m12 0h2M8 19h10m12 0h2M6 20h2m16 0h2m2 0h2M6 21h2m16 0h2m2 0h2M4 22h2m22 0h2M4 23h2m22 0h2M2 24h2m24 0h2M2 25h2m24 0h2M2 26h2m24 0h2M2 27h2m24 0h2M2 28h2m12 0h2m10 0h2M2 29h2m12 0h2m10 0h2M4 30h4m6 0h2m2 0h2m2 0h4m2 0h2M4 31h4m6 0h2m2 0h2m2 0h4m2 0h2M8 32h2m2 0h2m2 0h2m2 0h2m2 0h4m2 0h2M8 33h2m2 0h2m2 0h2m2 0h2m2 0h4m2 0h2"/><path stroke="#e3e6ff" d="M20 10h2m6 0h2m-10 1h2m6 0h2m-10 7h2m6 0h2m-10 1h2m6 0h2m-8 1h2m2 0h2m-6 1h2m2 0h2"/><path stroke="#b3b9d1" d="M20 12h2m6 0h2m-10 1h2m6 0h2m-8 13h4m-4 1h4"/><path stroke="#fff" d="M22 12h6m-6 1h6m-4 1h2m-2 1h2M8 20h12M8 21h12M6 22h2m-2 1h2m-4 1h2m-2 1h2m-2 1h2m-2 1h2m-2 1h2m-2 1h2"/><path stroke="#eaeae8" d="M20 14h4m2 0h4m-10 1h4m2 0h4m-6 1h2m-2 1h2m-2 1h2m-2 1h2M8 22h2m-2 1h2"/><path stroke="#cecac9" d="M18 16h4m6 0h4m-14 1h4m6 0h4m-10 1h2m2 0h2m-6 1h2m2 0h2m-18 3h12m-12 1h12M8 24h2m2 0h6m2 0h8M8 25h2m2 0h6m2 0h8M8 26h2m10 0h2m4 0h2M8 27h2m10 0h2m4 0h2m-18 5h2m2 0h2m6 0h2m4 0h2m-20 1h2m2 0h2m6 0h2m4 0h2"/><path stroke="#5f5f6e" d="M18 18h2m-2 1h2m0 1h2m-2 1h2m0 1h6m-6 1h6M6 24h2m-2 1h2m-2 1h2m-2 1h2m-2 1h2m2 0h2m2 0h2m2 0h2m2 0h4M6 29h2m2 0h2m2 0h2m2 0h2m2 0h4m-16 1h2m-2 1h2"/><path stroke="#abafb9" d="M10 24h2m6 0h2m-10 1h2m6 0h2m-2 1h2m-2 1h2M8 28h2m2 0h2m6 0h2m4 0h2M8 29h2m2 0h2m6 0h2m4 0h2M8 30h2m2 0h2m6 0h2m4 0h2M8 31h2m2 0h2m6 0h2m4 0h2"/><path stroke="#7b8382" d="M10 26h8m-8 1h8"/></svg>