<svg xmlns="http://www.w3.org/2000/svg" width="32" height="32" shape-rendering="crispEdges" viewBox="0 -0.5 36 36"><path stroke="#28192f" d="M22 12h4m2 0h2m-8 1h4m2 0h2m-10 1h2m4 0h2m2 0h2m-12 1h2m4 0h2m2 0h2m-14 1h2m10 0h2m-14 1h2m10 0h2m-18 1h4m12 0h2m-18 1h4m12 0h2m-22 1h4m16 0h2m-22 1h4m16 0h2M8 22h2m18 0h2M8 23h2m18 0h2M6 24h2m20 0h2M6 25h2m20 0h2M4 26h2m20 0h2M4 27h2m20 0h2M4 28h2m20 0h2M4 29h2m20 0h2M4 30h2m20 0h2M4 31h2m20 0h2M4 32h2m22 0h2M4 33h2m22 0h2"/><path stroke="#ebff8b" d="M22 14h4m2 0h2m-8 1h4m2 0h2m-10 1h2m-2 1h2m-4 1h2m-2 1h2m-6 1h4m-4 1h4m-8 1h4m-4 1h4m-6 1h2m-2 1h2m-4 1h2m-2 1h2"/><path stroke="#b3e363" d="M22 16h2m2 0h2m-6 1h2m2 0h2m-8 1h2m-2 1h2m-4 1h2m-2 1h2m-6 1h2m-2 1h2m-6 1h4m-4 1h4m-6 1h2m-2 1h2m-4 1h12M6 29h12m-4 3h2m2 0h2m2 0h2m2 0h2m-14 1h2m2 0h2m2 0h2m2 0h2"/><path stroke="#f87b1b" d="M24 16h2m2 0h2m-6 1h2m2 0h2"/><path stroke="#4cbd56" d="M22 18h8m-8 1h8m-10 1h2m-2 1h2m-6 1h6m-6 1h6m-8 1h2m2 0h4m-8 1h2m2 0h4m-2 1h2m-2 1h2m-2 1h2m-2 1h2M6 30h2m8 0h2m2 0h2M6 31h2m8 0h2m2 0h2M8 32h6m6 0h2M8 33h6m6 0h2"/><path stroke="#2f8735" d="M22 20h2m-2 1h2m-8 3h2m-2 1h2m-8 1h2m6 0h2m-10 1h2m6 0h2M8 30h2m12 0h2M8 31h2m12 0h2M6 32h2m16 0h2M6 33h2m16 0h2"/><path stroke="#0b5931" d="M24 20h6m-6 1h6m-18 5h6m-6 1h6m0 1h2m4 0h2m-8 1h2m4 0h2m-16 1h6m2 0h2m4 0h2m-16 1h6m2 0h2m4 0h2m-10 1h2m-2 1h2"/><path stroke="#eb8f48" d="M22 22h6m-6 1h6"/><path stroke="#fac05a" d="M22 24h2m2 0h2m-6 1h2m2 0h2m-6 1h2m-2 1h2m-2 1h2m-2 1h2"/><path stroke="#ffe08b" d="M24 24h2m-2 1h2m-2 1h2m-2 1h2"/></svg>