<svg xmlns="http://www.w3.org/2000/svg" width="32" height="32" shape-rendering="crispEdges" viewBox="0 -0.5 36 36"><path stroke="#1d1d1c" d="M20 6h8m-8 1h8M18 8h2m4 0h2m2 0h2M18 9h2m4 0h2m2 0h2m-10 1h2m4 0h2m2 0h2m-12 1h2m4 0h2m2 0h2M4 12h2m14 0h2m8 0h2M4 13h2m14 0h2m8 0h2M2 14h2m2 0h14m12 0h2M2 15h2m2 0h14m12 0h2M2 16h2m26 0h2M2 17h2m26 0h2M2 18h2m28 0h2M2 19h2m28 0h2M2 20h2m24 0h2m2 0h2M2 21h2m24 0h2m2 0h2M2 22h2m24 0h4M2 23h2m24 0h4M4 24h2m20 0h2M4 25h2m20 0h2M4 26h2m6 0h6m8 0h2M4 27h2m6 0h6m8 0h2M2 28h2m6 0h2m6 0h2m6 0h2M2 29h2m6 0h2m6 0h2m6 0h2M2 30h2m6 0h2m8 0h2m6 0h2M2 31h2m6 0h2m8 0h2m6 0h2M4 32h2m2 0h2m2 0h2m6 0h2m2 0h2m2 0h2M4 33h2m2 0h2m2 0h2m6 0h2m2 0h2m2 0h2"/><path stroke="#a9a48d" d="M20 8h2m4 0h2m-8 1h2m4 0h2"/><path stroke="#7b8382" d="M22 8h2m-2 1h2m0 1h2m2 0h2m-6 1h2m2 0h2"/><path stroke="#5f5f6e" d="M22 10h2m-2 1h2"/><path stroke="#fff" d="M22 12h8m-8 1h8M4 14h2m14 0h2m4 0h2m2 0h2M4 15h2m14 0h2m4 0h2m2 0h2M6 16h14m6 0h4M6 17h14m6 0h4M4 18h4m20 0h2M4 19h4m20 0h2M4 20h2m-2 1h2"/><path stroke="#eaeae8" d="M22 14h2m-2 1h2m-4 1h2m2 0h2m-6 1h2m2 0h2M8 18h12m6 0h2M8 19h12m6 0h2M6 20h4m8 0h4M6 21h4m8 0h4M4 22h4m12 0h4M4 23h4m12 0h4M6 24h2m12 0h4M6 25h2m12 0h4M6 26h2m12 0h2M6 27h2m12 0h2M4 28h2m14 0h2M4 29h2m14 0h2M4 30h2m16 0h2M4 31h2m16 0h2"/><path stroke="#315dcd" d="M24 14h2m2 0h2m-6 1h2m2 0h2"/><path stroke="#5d4660" d="M4 16h2m-2 1h2m20 5h2m-2 1h2m-18 9h2m14 0h2m-18 1h2m14 0h2"/><path stroke="#cecac9" d="M22 16h2m-2 1h2m-4 1h2m2 0h2m4 0h2m-12 1h2m2 0h2m4 0h2m-22 1h8m4 0h2m2 0h2m2 0h2m-22 1h8m4 0h2m2 0h2m2 0h2M8 22h2m8 0h2m4 0h2M8 23h2m8 0h2m4 0h2m-2 1h2m-2 1h2m-2 1h2m-2 1h2m-2 1h2m-2 1h2m0 1h2m-2 1h2"/><path stroke="#756276" d="M22 18h2m-2 1h2m0 1h2m-2 1h2M6 32h2m14 0h2M6 33h2m14 0h2"/><path stroke="#abafb9" d="M10 22h8m-8 1h8m-8 1h2m6 0h2m-10 1h2m6 0h2"/><path stroke="#45365d" d="M8 24h2m-2 1h2m-2 1h2m12 0h2M8 27h2m12 0h2M6 28h2m14 0h2M6 29h2m14 0h2M6 30h2m16 0h2M6 31h2m16 0h2"/><path stroke="#a18897" d="M12 24h6m-6 1h6m-8 1h2m6 0h2m-10 1h2m6 0h2M8 28h2m-2 1h2m-2 1h2m-2 1h2"/></svg>