<svg xmlns="http://www.w3.org/2000/svg" width="32" height="32" shape-rendering="crispEdges" viewBox="0 -0.5 36 36"><path stroke="#1d1d1c" d="M22 10h2m4 0h2m-8 1h2m4 0h2m-10 1h2m2 0h4m2 0h2m-12 1h2m2 0h4m2 0h2m-22 1h10m10 0h2m-22 1h10m10 0h2M8 16h2m20 0h2M8 17h2m20 0h2M6 18h2m22 0h2M6 19h2m22 0h2M4 20h2m26 0h2M4 21h2m26 0h2M4 22h2m26 0h2M4 23h2m26 0h2M2 24h2m28 0h2M2 25h2m28 0h2M4 26h2m24 0h2M4 27h2m24 0h2M6 28h2m8 0h4m8 0h2M6 29h2m8 0h4m8 0h2M6 30h2m6 0h2m4 0h2m6 0h2M6 31h2m6 0h2m4 0h2m6 0h2M8 32h2m2 0h2m2 0h2m4 0h2m2 0h2m2 0h2M8 33h2m2 0h2m2 0h2m4 0h2m2 0h2m2 0h2"/><path stroke="#fb7575" d="M22 12h2m4 0h2m-8 1h2m4 0h2m-10 1h2m-2 1h2M6 22h2m16 0h2m2 0h2M6 23h2m16 0h2m2 0h2M4 24h2m20 0h6M4 25h2m20 0h6m-22 7h2m12 0h2m-16 1h2m12 0h2"/><path stroke="#f74a53" d="M22 14h2m4 0h2m-8 1h2m4 0h2"/><path stroke="#fdbd8f" d="M24 14h4m-4 1h4m-18 1h10m2 0h8m-20 1h10m2 0h8M8 18h16m2 0h2M8 19h16m2 0h2M6 20h20M6 21h20M8 22h4m2 0h4m2 0h4M8 23h4m2 0h4m2 0h4M8 24h2m12 0h2M8 25h2m12 0h2M8 26h2m12 0h2M8 27h2m12 0h2M8 28h2m12 0h2M8 29h2m12 0h2"/><path stroke="#f0886b" d="M20 16h2m-2 1h2m4 3h6m-6 1h6m-20 1h2m4 0h2m-8 1h2m4 0h2m-10 1h2m2 0h4m2 0h2m-12 1h2m2 0h4m2 0h2m-12 1h2m-2 1h2m-4 3h2m12 0h2M8 31h2m12 0h2"/><path stroke="#633b3f" d="M24 18h2m2 0h2m-6 1h2m2 0h2"/><path stroke="#3f2323" d="M26 22h2m2 0h2m-6 1h2m2 0h2m-18 5h2m-2 1h2"/><path stroke="#8c3132" d="M6 24h2m16 0h2M6 25h2m16 0h2M6 26h2m4 0h2m4 0h2m6 0h4M6 27h2m4 0h2m4 0h2m6 0h4m-20 1h2m8 0h2m2 0h2m-16 1h2m8 0h2m2 0h2m-16 1h2m12 0h2m-16 1h2m12 0h2"/><path stroke="#ae454a" d="M12 24h2m4 0h2m-8 1h2m4 0h2m-6 1h4m2 0h2m2 0h2m-12 1h4m2 0h2m2 0h2m-14 1h2m12 0h2m-16 1h2m12 0h2m-16 1h2m12 0h2m-16 1h2m12 0h2m-14 1h2m12 0h2m-16 1h2m12 0h2"/></svg>