<svg xmlns="http://www.w3.org/2000/svg" width="32" height="32" shape-rendering="crispEdges" viewBox="0 -0.5 35 34"><path stroke="#141013" d="M18 6h4m6 0h4M18 7h4m6 0h4M16 8h2m4 0h6m4 0h2M16 9h2m4 0h6m4 0h2m-18 1h2m14 0h2m-18 1h2m14 0h2m-16 1h2m10 0h2m-14 1h2m10 0h2m-16 1h2m12 0h2m-16 1h2m12 0h2m-18 1h2m12 0h2m-16 1h2m12 0h2m-16 1h2m14 0h2m-18 1h2m14 0h2m-18 1h2m12 0h2m-16 1h2m12 0h2m-20 1h6m12 0h2m-20 1h6m12 0h2M8 24h2m6 0h2m12 0h2M8 25h2m6 0h2m12 0h2"/><path stroke="#f5a097" d="M18 8h2m10 0h2M18 9h2m10 0h2m-4 5h2m-2 1h2m-6 3h2m2 0h2m-6 1h2m2 0h2m-18 5h2m8 0h2m4 0h2m-18 1h2m8 0h2m4 0h2"/><path stroke="#dae0ea" d="M20 8h2m6 0h2M20 9h2m6 0h2m-8 1h6m-6 1h6m-8 1h2m-2 1h2m-4 1h2m-2 1h2m-4 1h2m-2 1h2"/><path stroke="#e86a73" d="M18 10h4m6 0h4m-14 1h4m6 0h4M14 24h2m4 0h2m4 0h2m-14 1h2m4 0h2m4 0h2"/><path stroke="#df3e23" d="M22 12h2m2 0h2m-6 1h2m2 0h2"/><path stroke="#b3b9d1" d="M24 12h2m-2 1h2m-6 1h2m-2 1h2m-4 1h2m-2 1h2m-4 1h2m-2 1h2"/><path stroke="#242234" d="M28 12h2m-2 1h2m-4 3h2m-2 1h2"/><path stroke="#8b93af" d="M22 14h6m-6 1h6m-8 1h2m-2 1h2m-4 1h6m2 0h2m-10 1h6m2 0h2m-12 1h4m4 0h2m-10 1h4m4 0h2m-8 1h6m2 0h2m-10 1h6m2 0h2"/><path stroke="#6d758d" d="M22 16h4m-4 1h4m-6 3h4m2 0h2m-8 1h4m2 0h2m-12 1h2m-2 1h2"/><path stroke="#4a5462" d="M24 22h2m-2 1h2m-8 1h2m4 0h2m-8 1h2m4 0h2"/><path stroke="#fad6b8" d="M10 24h2m-2 1h2"/></svg>