<svg xmlns="http://www.w3.org/2000/svg" width="32" height="32" shape-rendering="crispEdges" viewBox="0 -0.5 36 37"><path stroke="#372840" d="M10 20h10m-10 1h10M8 22h2m10 0h4M8 23h2m10 0h4M6 24h2m14 0h6M6 25h2m14 0h6M6 26h2m14 0h2m4 0h2M6 27h2m14 0h2m4 0h2M6 28h2m12 0h6m4 0h4M6 29h2m12 0h6m4 0h4M8 30h28M8 31h28M6 32h4m2 0h4m2 0h2m2 0h2m2 0h4m4 0h2M6 33h4m2 0h4m2 0h2m2 0h2m2 0h4m4 0h2M4 34h4m2 0h4m2 0h2m6 0h2m2 0h4M4 35h4m2 0h4m2 0h2m6 0h2m2 0h4"/><path stroke="#e6cc8a" d="M10 22h2m6 0h2m-10 1h2m6 0h2m-8 1h6m-6 1h6"/><path stroke="#fafac3" d="M12 22h6m-6 1h6"/><path stroke="#d6a57a" d="M8 24h4m6 0h4M8 25h4m6 0h4m-12 1h10m-10 1h10"/><path stroke="#b3785d" d="M8 26h2m10 0h2M8 27h2m10 0h2M8 28h12M8 29h12"/><path stroke="#5d8bb3" d="M24 26h2m-2 1h2m2 1h2m-2 1h2"/><path stroke="#99c2db" d="M26 26h2m-2 1h2"/><path stroke="#4d6a94" d="M26 28h2m-2 1h2"/></svg>