<svg xmlns="http://www.w3.org/2000/svg" width="32" height="32" shape-rendering="crispEdges" viewBox="0 -0.5 35 34"><path stroke="#141013" d="M15 6h2m-2 1h2m-4 1h2m2 0h2m4 0h4M13 9h2m2 0h2m4 0h4M7 10h6m4 0h2m2 0h2m4 0h2M7 11h6m4 0h2m2 0h2m4 0h2M5 12h2m12 0h2m8 0h2M5 13h2m12 0h2m8 0h2M3 14h2m26 0h2M3 15h2m26 0h2M3 16h2m28 0h2M3 17h2m28 0h2M3 18h2m24 0h2m2 0h2M3 19h2m24 0h2m2 0h2M5 20h2m20 0h2m2 0h4M5 21h2m20 0h2m2 0h4M7 22h2m20 0h2M7 23h2m20 0h2M5 24h2m18 0h4m2 0h2M5 25h2m18 0h4m2 0h2M3 26h2m2 0h6m4 0h4m2 0h2m4 0h2m2 0h2M3 27h2m2 0h6m4 0h4m2 0h2m4 0h2m2 0h2M3 28h4m6 0h4m4 0h2m8 0h4M3 29h4m6 0h4m4 0h2m8 0h4"/><path stroke="#dba463" d="M15 8h2m-2 1h2m6 1h4m-4 1h4M7 12h8m-8 1h8M5 14h2m8 0h2m10 0h4M5 15h2m8 0h2m10 0h4m-14 1h2m-2 1h2m2 1h2m-2 1h2m-10 3h2m2 0h2m6 0h4m-16 1h2m2 0h2m6 0h4m-8 1h2m-2 1h2"/><path stroke="#322b28" d="M13 10h2m-2 1h2m0 1h4m4 0h6m-14 1h4m4 0h6m-12 1h4m2 0h4m-10 1h4m2 0h4m-8 1h6m2 0h4m-12 1h6m2 0h4M7 18h4m6 0h2m6 0h4m2 0h2M7 19h4m6 0h2m6 0h4m2 0h2M7 20h12m6 0h2M7 21h12m6 0h2M9 22h4m2 0h2m2 0h6M9 23h4m2 0h2m2 0h6m-12 1h2m2 0h4m2 0h2m-12 1h2m2 0h4m2 0h2M5 26h2m6 0h2m16 0h2M5 27h2m6 0h2m16 0h2"/><path stroke="#71413b" d="M15 10h2m-2 1h2m4 3h2m-2 1h2M7 16h6m12 0h2m4 0h2M7 17h6m12 0h2m4 0h2M5 18h2m4 0h4M5 19h2m4 0h4m4 1h2m2 0h2m-6 1h2m2 0h2M7 24h2m20 0h2M7 25h2m20 0h2m-16 1h2m4 0h2m-8 1h2m4 0h2"/><path stroke="#bb7547" d="M21 12h2m-2 1h2M7 14h8m-8 1h8M5 16h2m6 0h4M5 17h2m6 0h4m-2 1h2m2 0h2m-6 1h2m2 0h2M9 24h4m2 0h2m-8 1h4m2 0h2"/><path stroke="#df3e23" d="M23 18h2m-2 1h2m-4 1h2m-2 1h2"/></svg>