<svg xmlns="http://www.w3.org/2000/svg" width="32" height="32" shape-rendering="crispEdges" viewBox="0 -0.5 35 34"><path stroke="#141013" d="M11 6h12M11 7h12M9 8h2m12 0h2M9 9h2m12 0h2M7 10h2m16 0h2M7 11h2m16 0h2M5 12h2m20 0h2M5 13h2m20 0h2M5 14h2m20 0h4M5 15h2m20 0h4M5 16h2m20 0h2M5 17h2m20 0h2M5 18h2m20 0h4M5 19h2m20 0h4M5 20h2m20 0h2M5 21h2m20 0h2M7 22h2m16 0h2m2 0h2M7 23h2m16 0h2m2 0h2M9 24h16m2 0h2M9 25h16m2 0h2m-14 1h2m2 0h2m2 0h2m-10 1h2m2 0h2m2 0h2"/><path stroke="#e4d2aa" d="M11 8h12M11 9h12M9 10h2m-2 1h2m-4 1h2m4 0h4M7 13h2m4 0h4M7 14h2m2 0h2m-6 1h2m2 0h2"/><path stroke="#c7b08b" d="M11 10h8m4 0h2m-14 1h8m4 0h2M9 12h4m4 0h2m6 0h2M9 13h4m4 0h2m6 0h2M9 14h2m4 0h2m8 0h2M9 15h2m4 0h2m8 0h2M7 16h2m2 0h4m-8 1h2m2 0h4m-8 1h2m-2 1h2"/><path stroke="#a08662" d="M19 10h2m-2 1h2m-2 1h2m-2 1h2m-4 1h2m-2 1h2M9 16h2m4 0h2m-8 1h2m4 0h2m-6 1h4m-4 1h4m-8 1h2m-2 1h2"/><path stroke="#796755" d="M21 10h2m-2 1h2m-2 1h2m-2 1h2m-4 1h2m-2 1h2m-4 1h2m-2 1h2M9 18h2m4 0h2m-8 1h2m4 0h2m-8 1h6m-6 1h6m-6 1h12M9 23h12"/><path stroke="#5a4e44" d="M23 12h2m-2 1h2m-4 1h4m-4 1h4m-6 1h6m-6 1h6m-8 1h6m-6 1h6m-8 1h6m-6 1h6m0 1h2m-2 1h2"/><path stroke="#fef3c0" d="M13 14h2m-2 1h2"/><path stroke="#333941" d="M25 16h2m-2 1h2m-4 1h2m-2 1h2m-4 1h2m-2 1h2"/><path stroke="#b4202a" d="M25 18h2m-2 1h2m-4 1h2m-2 1h2"/><path stroke="#242234" d="M25 20h2m-2 1h2m-4 1h2m-2 1h2"/></svg>