<svg xmlns="http://www.w3.org/2000/svg" width="32" height="32" shape-rendering="crispEdges" viewBox="0 -0.5 36 36"><path stroke="#28192f" d="M22 12h4m2 0h2m-8 1h4m2 0h2m-12 1h4m4 0h2m2 0h2m-14 1h4m4 0h2m2 0h2m-20 1h6m12 0h2m-20 1h6m12 0h2m-22 1h2m18 0h2m-22 1h2m18 0h2M8 20h2m20 0h2M8 21h2m20 0h2M6 22h2m20 0h2M6 23h2m20 0h2M4 24h2m22 0h2M4 25h2m22 0h2M4 26h2m20 0h2M4 27h2m20 0h2M4 28h2m20 0h2M4 29h2m20 0h2M4 30h2m20 0h2M4 31h2m20 0h2M6 32h2m20 0h2M6 33h2m20 0h2"/><path stroke="#fdbd8f" d="M22 14h4m2 0h2m-8 1h4m2 0h2m-12 1h4m-4 1h4m-10 1h6m-6 1h6m-8 1h2m-2 1h2m-4 1h2m-2 1h2m-4 1h2m-2 1h2"/><path stroke="#f0886b" d="M22 16h2m2 0h2m-6 1h2m2 0h2m-10 1h4m-4 1h4m-10 1h6m-6 1h6m-8 1h2m-2 1h2m-4 1h2m-2 1h2m-4 1h4m-4 1h4m-4 1h10M6 29h10m-4 3h2m4 0h2m2 0h2m2 0h2m-16 1h2m4 0h2m2 0h2m2 0h2"/><path stroke="#b12935" d="M24 16h2m2 0h2m-6 1h2m2 0h2"/><path stroke="#d36853" d="M22 18h8m-8 1h8m-12 1h2m-2 1h2m-8 1h12m-12 1h12m-14 1h8m2 0h2m-12 1h8m2 0h2m-2 1h2m-2 1h2m-2 1h2m-2 1h2M6 30h2m6 0h2m4 0h2M6 31h2m6 0h2m4 0h2M8 32h4m8 0h2M8 33h4m8 0h2"/><path stroke="#ae454a" d="M20 20h2m-2 1h2m-4 3h2m-2 1h2m-10 1h2m4 0h4m-10 1h2m4 0h4m-2 1h2m-2 1h2M8 30h2m8 0h2m2 0h2M8 31h2m8 0h2m2 0h2m-8 1h2m6 0h2m-10 1h2m6 0h2"/><path stroke="#8c3132" d="M22 20h8m-8 1h8m-18 5h4m-4 1h4m0 1h2m6 0h2m-10 1h2m6 0h2m-16 1h4m2 0h2m6 0h2m-16 1h4m2 0h2m6 0h2m-12 1h2m-2 1h2"/><path stroke="#eb8f48" d="M24 22h4m-4 1h4m-6 1h2m-2 1h2"/><path stroke="#ffe08b" d="M24 24h2m-2 1h2m-2 1h2m-2 1h2"/><path stroke="#fac05a" d="M26 24h2m-2 1h2m-6 1h2m-2 1h2m-2 1h2m-2 1h2"/></svg>