<svg xmlns="http://www.w3.org/2000/svg" width="32" height="32" shape-rendering="crispEdges" viewBox="0 -0.5 36 36"><path stroke="#1d1d1c" d="M22 4h2m6 0h2M22 5h2m6 0h2M20 6h2m2 0h6m2 0h2M20 7h2m2 0h6m2 0h2M20 8h2m10 0h2M20 9h2m10 0h2m-14 1h2m10 0h2m-14 1h2m10 0h2m-16 1h2m12 0h2m-16 1h2m12 0h2M8 14h10m14 0h2M8 15h10m14 0h2M6 16h2m18 0h2m4 0h2M6 17h2m18 0h2m4 0h2M4 18h2m24 0h2M4 19h2m24 0h2M2 20h2m26 0h2M2 21h2m26 0h2M2 22h2m26 0h2M2 23h2m26 0h2M4 24h2m8 0h6m10 0h2M4 25h2m8 0h6m10 0h2M4 26h2m6 0h2m6 0h2m8 0h2M4 27h2m6 0h2m6 0h2m8 0h2M4 28h2m6 0h2m6 0h2m8 0h2M4 29h2m6 0h2m6 0h2m8 0h2M4 30h2m6 0h2m6 0h2m2 0h4m2 0h2M4 31h2m6 0h2m6 0h2m2 0h4m2 0h2M6 32h2m2 0h2m2 0h2m6 0h2m2 0h4m2 0h2M6 33h2m2 0h2m2 0h2m6 0h2m2 0h4m2 0h2"/><path stroke="#dbcfb1" d="M22 6h2m6 0h2M22 7h2m6 0h2m-6 1h2m-2 1h2m-8 3h2m-2 1h2m-4 1h2m-2 1h2M8 16h10m6 0h2m2 0h2M8 17h10m6 0h2m2 0h2M6 18h2m-2 1h2"/><path stroke="#7b8382" d="M22 8h2m6 0h2M22 9h2m6 0h2m-12 9h2m-2 1h2m-10 1h12m-12 1h12m-14 1h2m12 0h2m2 0h2m-20 1h2m12 0h2m2 0h2M8 24h2m16 0h2M8 25h2m16 0h2M6 26h2m-2 1h2m-2 1h2m-2 1h2m-2 1h2m-2 1h2"/><path stroke="#cecac9" d="M24 8h2m2 0h2m-6 1h2m2 0h2m-8 1h2m2 0h2m2 0h2m-10 1h2m2 0h2m2 0h2m-6 1h2m-2 1h2m-2 1h2m-2 1h2m-2 3h2m-2 1h2M4 20h2m-2 1h2"/><path stroke="#a9a48d" d="M24 10h2m2 0h2m-6 1h2m2 0h2m-8 1h2m6 0h2m-10 1h2m6 0h2m-12 1h2m2 0h2m2 0h2m-10 1h2m2 0h2m2 0h2m-12 1h4m-4 1h4M8 18h12m2 0h2M8 19h12m2 0h2M8 20h4m12 0h2m2 0h2M8 21h4m12 0h2m2 0h2M8 22h2m16 0h2M8 23h2m16 0h2M6 24h2m-2 1h2"/><path stroke="#8e375c" d="M24 12h2m2 0h2m-6 1h2m2 0h2"/><path stroke="#abafb9" d="M22 14h2m6 0h2m-10 1h2m6 0h2m-10 1h2m6 0h2m-10 1h2m6 0h2m-8 1h2m2 0h2m-6 1h2m2 0h2m-4 1h2m-2 1h2M4 22h2m-2 1h2"/><path stroke="#242234" d="M6 20h2m-2 1h2m-2 1h2m-2 1h2m2 1h2m8 0h2m-12 1h2m8 0h2M8 26h2m-2 1h2m-2 1h2m14 0h4M8 29h2m14 0h4M8 30h2m-2 1h2"/><path stroke="#5f5f6e" d="M12 22h12m-12 1h12m-12 1h2m8 0h4m2 0h2m-18 1h2m8 0h4m2 0h2m-20 1h2m10 0h2m4 0h2m-20 1h2m10 0h2m4 0h2m-20 1h2m10 0h2m4 0h2m-20 1h2m10 0h2m4 0h2m-20 1h2m10 0h2m4 0h2m-20 1h2m10 0h2m4 0h2M8 32h2m2 0h2m10 0h2m4 0h2M8 33h2m2 0h2m10 0h2m4 0h2"/><path stroke="#45365d" d="M24 26h4m-4 1h4"/></svg>