<svg xmlns="http://www.w3.org/2000/svg" width="32" height="32" shape-rendering="crispEdges" viewBox="0 -0.5 16 16"><path stroke="#625565" d="M0 0h1m1 0h1m5 0h1m1 0h1M0 1h3m1 0h8m1 0h3M0 2h3m1 0h8m1 0h3M2 4h1m1 0h1m4 0h1m1 0h1m1 0h1M0 5h5m1 0h8m1 0h1M0 6h5m1 0h8m1 0h1M0 8h1m1 0h1m5 0h1m1 0h2M0 9h3m1 0h8m1 0h3M0 10h3m1 0h8m1 0h3M2 12h1m1 0h1m4 0h1m1 0h1m1 0h1M0 13h5m1 0h8m1 0h1M0 14h5m1 0h8m1 0h1"/><path stroke="#7f6c80" d="M1 0h1m2 0h4m1 0h1m1 0h1m1 0h3M0 4h2m1 0h1m2 0h3m1 0h1m1 0h1m2 0h1M1 8h1m2 0h4m1 0h1m3 0h3M0 12h2m1 0h1m2 0h3m1 0h1m1 0h1m2 0h1"/><path stroke="#3e3546" d="M3 0h1m8 0h1M3 1h1m8 0h1M3 2h1m8 0h1M0 3h16M5 4h1m8 0h1M5 5h1m8 0h1M5 6h1m8 0h1M0 7h16M3 8h1m8 0h1M3 9h1m8 0h1M3 10h1m8 0h1M0 11h16M5 12h1m8 0h1M5 13h1m8 0h1M5 14h1m8 0h1M0 15h16"/></svg>