<svg xmlns="http://www.w3.org/2000/svg" width="32" height="32" shape-rendering="crispEdges" viewBox="0 -0.5 16 16"><path stroke="#b27c7c" d="M0 0h1m1 0h7m1 0h6M0 1h3m1 0h2m1 0h4m1 0h2m1 0h1M0 2h16M0 3h1m1 0h5m1 0h1m1 0h5M0 4h4m1 0h7m1 0h3M0 5h2m1 0h7m1 0h5M1 6h5m1 0h1m1 0h5m1 0h1M0 7h3m1 0h7m1 0h4M0 8h1m1 0h7m1 0h6M0 9h3m1 0h2m1 0h4m1 0h2m1 0h1M0 10h16M0 11h1m1 0h5m1 0h1m1 0h5M0 12h4m1 0h7m1 0h3M0 13h2m1 0h7m1 0h5M1 14h5m1 0h1m1 0h5m1 0h1M0 15h3m1 0h7m1 0h4"/><path stroke="#c18787" d="M1 0h1m7 0h1M1 3h1m5 0h1m1 0h1m5 0h1M4 4h1m7 0h1M0 6h1m7 0h1M3 7h1m7 0h1M1 8h1m7 0h1m-9 3h1m5 0h1m1 0h1m5 0h1M4 12h1m7 0h1M0 14h1m7 0h1m-6 1h1m7 0h1"/><path stroke="#b26b6b" d="M3 1h1m2 0h1m4 0h1m2 0h1M2 5h1m7 0h1M6 6h1m7 0h1M3 9h1m2 0h1m4 0h1m2 0h1M2 13h1m7 0h1m-5 1h1m7 0h1"/></svg>