<svg xmlns="http://www.w3.org/2000/svg" width="32" height="32" shape-rendering="crispEdges" viewBox="0 -0.5 16 16"><path stroke="#b27c7c" d="M0 0h16M0 1h1m2 0h1m1 0h4m2 0h1m1 0h3M0 2h1m2 0h6m2 0h5M0 3h6m1 0h7m1 0h1M0 4h16M0 5h16M0 6h2m1 0h3m1 0h3m1 0h3m1 0h1M0 7h16M0 8h16M0 9h1m2 0h1m1 0h4m2 0h1m1 0h3M0 10h1m2 0h6m2 0h5M0 11h6m1 0h7m1 0h1M0 12h16M0 13h16M0 14h2m1 0h3m1 0h3m1 0h3m1 0h1M0 15h16"/><path stroke="#c18787" d="M1 1h2m6 0h2M1 2h2m6 0h2M6 6h1m7 0h1M1 9h2m6 0h2M1 10h2m6 0h2m-5 4h1m7 0h1"/><path stroke="#b26b6b" d="M4 1h1m7 0h1M6 3h1m7 0h1M2 6h1m7 0h1M4 9h1m7 0h1m-7 2h1m7 0h1M2 14h1m7 0h1"/></svg>