<svg xmlns="http://www.w3.org/2000/svg" width="32" height="32" shape-rendering="crispEdges" viewBox="0 -0.5 16 16"><path stroke="#3d996a" d="M0 0h1m4 0h4m4 0h3M0 1h2m2 0h1m3 0h2m2 0h1M3 2h1m7 0h1M7 3h1m7 0h1M3 5h1m7 0h1M1 6h1m1 0h1m5 0h1m1 0h1M0 7h1m2 0h1m3 0h2m2 0h1m3 0h1M0 8h1m4 0h4m4 0h3M0 9h2m2 0h1m3 0h2m2 0h1M3 10h1m7 0h1m-5 1h1m7 0h1M3 13h1m7 0h1M1 14h1m1 0h1m5 0h1m1 0h1M0 15h1m2 0h1m3 0h2m2 0h1m3 0h1"/><path stroke="#6bb282" d="M1 0h1m2 0h1m4 0h1m2 0h1M2 1h2m3 0h1m2 0h2m3 0h1M2 2h1m4 0h1m2 0h1m4 0h1M3 3h1m2 0h1m4 0h1m2 0h1M0 4h1m2 0h1m1 0h1m2 0h1m2 0h1m1 0h1M0 5h2m2 0h1m3 0h2m2 0h1M0 6h1m1 0h1m1 0h1m2 0h2m1 0h1m1 0h1m2 0h1M4 7h1m1 0h1m5 0h1m1 0h1M1 8h1m2 0h1m4 0h1m2 0h1M2 9h2m3 0h1m2 0h2m3 0h1M2 10h1m4 0h1m2 0h1m4 0h1M3 11h1m2 0h1m4 0h1m2 0h1M0 12h1m2 0h1m1 0h1m2 0h1m2 0h1m1 0h1M0 13h2m2 0h1m3 0h2m2 0h1M0 14h1m1 0h1m1 0h1m2 0h2m1 0h1m1 0h1m2 0h1M4 15h1m1 0h1m5 0h1m1 0h1"/><path stroke="#7acca2" d="M2 0h2m6 0h2M5 2h2m6 0h2M0 3h2m2 0h2m2 0h2m2 0h2M1 4h2m1 0h1m4 0h2m1 0h1M2 5h1m3 0h2m2 0h1m3 0h2M5 6h2m6 0h2M5 7h1m7 0h1M2 8h2m6 0h2m-7 2h2m6 0h2M0 11h2m2 0h2m2 0h2m2 0h2M1 12h2m1 0h1m4 0h2m1 0h1M2 13h1m3 0h2m2 0h1m3 0h2M5 14h2m6 0h2M5 15h1m7 0h1"/><path stroke="#42C882" d="M5 1h2m6 0h2M0 2h2m2 0h1m3 0h2m2 0h1M2 3h1m7 0h1M6 4h2m6 0h2M5 5h1m7 0h1M1 7h2m6 0h2M5 9h2m6 0h2M0 10h2m2 0h1m3 0h2m2 0h1M2 11h1m7 0h1m-5 1h2m6 0h2M5 13h1m7 0h1M1 15h2m6 0h2"/></svg>