<svg xmlns="http://www.w3.org/2000/svg" width="32" height="32" shape-rendering="crispEdges" viewBox="0 -0.5 16 16"><path stroke="#665e51" d="M0 0h1m2 0h1m4 0h1m2 0h1M0 3h1m2 0h1m4 0h1m2 0h1M4 4h1m2 0h1m4 0h1m2 0h1M4 5h1m2 0h1m4 0h1m2 0h1M4 7h1m2 0h1m4 0h1m2 0h1M0 8h1m2 0h1m4 0h1m2 0h1M0 11h1m2 0h1m4 0h1m2 0h1m-8 1h1m2 0h1m4 0h1m2 0h1M4 13h1m2 0h1m4 0h1m2 0h1M4 15h1m2 0h1m4 0h1m2 0h1"/><path stroke="#4c3d4c" d="M1 0h2m4 0h1m1 0h2m4 0h1M0 1h1m2 0h1m4 0h1m2 0h1M0 2h1m2 0h1m4 0h1m2 0h1M1 3h2m1 0h1m2 0h1m1 0h2m1 0h1m2 0h1M0 4h1m4 0h2m1 0h1m4 0h2M4 6h1m2 0h1m4 0h1m2 0h1M3 7h1m1 0h2m4 0h1m1 0h2M1 8h2m4 0h1m1 0h2m4 0h1M0 9h1m2 0h1m4 0h1m2 0h1M0 10h1m2 0h1m4 0h1m2 0h1M1 11h2m1 0h1m2 0h1m1 0h2m1 0h1m2 0h1M0 12h1m4 0h2m1 0h1m4 0h2M4 14h1m2 0h1m4 0h1m2 0h1M3 15h1m1 0h2m4 0h1m1 0h2"/><path stroke="#9a979d" d="M4 0h1m7 0h1M5 1h1m7 0h1M1 2h2m1 0h1m1 0h1m2 0h2m1 0h1m1 0h1M5 3h2m6 0h2M4 8h1m7 0h1M5 9h1m7 0h1M1 10h2m1 0h1m1 0h1m2 0h2m1 0h1m1 0h1M5 11h2m6 0h2"/><path stroke="#acb1b9" d="M5 0h2m6 0h2M1 1h2m1 0h1m1 0h2m1 0h2m1 0h1m1 0h2M5 2h1m1 0h1m5 0h1m1 0h1M5 8h2m6 0h2M1 9h2m1 0h1m1 0h2m1 0h2m1 0h1m1 0h2M5 10h1m1 0h1m5 0h1m1 0h1"/><path stroke="#c3beb1" d="M1 4h2m6 0h2M0 5h2m1 0h1m1 0h2m1 0h2m1 0h1m1 0h2M0 6h1m1 0h1m5 0h1m1 0h1M1 12h2m6 0h2M0 13h2m1 0h1m1 0h2m1 0h2m1 0h1m1 0h2M0 14h1m1 0h1m5 0h1m1 0h1"/><path stroke="#ddd3c6" d="M3 4h1m7 0h1M2 5h1m7 0h1M1 6h1m1 0h1m1 0h2m2 0h1m1 0h1m1 0h2M1 7h2m6 0h2m-8 5h1m7 0h1M2 13h1m7 0h1M1 14h1m1 0h1m1 0h2m2 0h1m1 0h1m1 0h2M1 15h2m6 0h2"/><path stroke="#5c4f5c" d="M0 7h1m7 0h1m-9 8h1m7 0h1"/></svg>