<svg xmlns="http://www.w3.org/2000/svg" width="32" height="32" shape-rendering="crispEdges" viewBox="0 -0.5 16 16"><path stroke="#e5e0ac" d="M0 0h16M0 1h1m1 0h7m1 0h6M0 2h5m1 0h7m1 0h2M0 3h16M0 4h16M0 5h6m1 0h7m1 0h1M0 6h2m1 0h7m1 0h5M0 7h16M0 8h16M0 9h1m1 0h7m1 0h6M0 10h5m1 0h7m1 0h2M0 11h16M0 12h16M0 13h6m1 0h7m1 0h1M0 14h2m1 0h7m1 0h5M0 15h16"/><path stroke="#d8d3a2" d="M1 1h1m7 0h1M6 5h1m7 0h1M1 9h1m7 0h1m-4 4h1m7 0h1"/><path stroke="#f4f0c3" d="M5 2h1m7 0h1M2 6h1m7 0h1m-6 4h1m7 0h1M2 14h1m7 0h1"/></svg>