<svg xmlns="http://www.w3.org/2000/svg" width="32" height="32" viewBox="0 -0.5 16 16" shape-rendering="crispEdges">
<path stroke="#e5e0ac" d="M0 0h16M0 1h2M4 1h3M8 1h8M0 2h1M5 2h8M14 2h2M0 3h1M5 3h3M9 3h7M0 4h2M4 4h7M12 4h4M0 5h4M5 5h11M0 6h7M8 6h3M12 6h2M15 6h1M0 7h16M0 8h2M3 8h2M6 8h10M0 9h13M14 9h2M0 10h9M10 10h6M1 11h11M14 11h2M0 12h5M6 12h5M15 12h1M0 13h2M3 13h8M15 13h1M0 14h12M14 14h2M0 15h8M9 15h7" />
<path stroke="#f4f0c3" d="M2 1h2M1 2h1M4 2h1M13 2h1M8 3h1M4 5h1M11 6h1M5 8h1M13 9h1M9 10h1M12 11h2M11 12h1M14 12h1M2 13h1" />
<path stroke="#d8d3a2" d="M7 1h1M2 2h2M1 3h4M2 4h2M11 4h1M7 6h1M14 6h1M2 8h1M0 11h1M5 12h1M12 12h2M11 13h4M12 14h2M8 15h1" />
</svg>