<svg xmlns="http://www.w3.org/2000/svg" width="32" height="32" viewBox="0 -0.5 16 16" shape-rendering="crispEdges">
<path stroke="#5a6599" d="M0 0h2M13 0h2M0 1h1M14 1h1M6 4h1M8 4h1M5 5h2M8 5h2M5 8h2M8 8h2M6 9h1M8 9h1M0 12h1M14 12h1M0 13h2M13 13h2" />
<path stroke="#4c5580" d="M2 0h5M8 0h5M1 1h6M8 1h6M0 2h7M8 2h7M0 3h7M8 3h7M0 4h6M9 4h6M0 5h5M10 5h5M0 8h5M10 8h5M0 9h6M9 9h6M0 10h7M8 10h7M0 11h7M8 11h7M1 12h6M8 12h6M2 13h5M8 13h5" />
<path stroke="#2d334c" d="M7 0h1M15 0h1M7 1h1M7 2h1M7 3h1M7 4h1M7 5h1M15 5h1M15 6h1M0 7h6M9 7h7M15 8h1M7 9h1M7 10h1M7 11h1M7 12h1M7 13h1M7 14h1M15 14h1M0 15h1M5 15h4M14 15h2" />
<path stroke="#231e33" d="M15 1h1M15 2h1M15 3h1M15 4h1M7 6h1M6 7h3M7 8h1M15 9h1M15 10h1M15 11h1M15 12h1M15 13h1M1 15h4M9 15h5" />
<path stroke="#3d4466" d="M0 6h7M8 6h7M0 14h7M8 14h7" />
</svg>