<svg xmlns="http://www.w3.org/2000/svg" width="32" height="32" shape-rendering="crispEdges" viewBox="0 -0.5 16 16"><path stroke="#5a6599" d="M0 0h2m11 0h2M0 1h1m13 0h1M6 4h1m1 0h1M5 5h2m1 0h2M5 8h2m1 0h2M6 9h1m1 0h1m-9 3h1m13 0h1M0 13h2m11 0h2"/><path stroke="#4c5580" d="M2 0h5m1 0h5M1 1h6m1 0h6M0 2h7m1 0h7M0 3h7m1 0h7M0 4h6m3 0h6M0 5h5m5 0h5M0 8h5m5 0h5M0 9h6m3 0h6M0 10h7m1 0h7M0 11h7m1 0h7M1 12h6m1 0h6M2 13h5m1 0h5"/><path stroke="#2d334c" d="M7 0h1m7 0h1M7 1h1M7 2h1M7 3h1M7 4h1M7 5h1m7 0h1m-1 1h1M0 7h6m3 0h7m-1 1h1M7 9h1m-1 1h1m-1 1h1m-1 1h1m-1 1h1m-1 1h1m7 0h1M0 15h1m4 0h4m5 0h2"/><path stroke="#231e33" d="M15 1h1m-1 1h1m-1 1h1m-1 1h1M7 6h1M6 7h3M7 8h1m7 1h1m-1 1h1m-1 1h1m-1 1h1m-1 1h1M1 15h4m4 0h5"/><path stroke="#3d4466" d="M0 6h7m1 0h7M0 14h7m1 0h7"/></svg>