<svg xmlns="http://www.w3.org/2000/svg" width="32" height="32" shape-rendering="crispEdges" viewBox="0 -0.5 16 16"><path stroke="#495766" d="M0 0h16M0 1h2m6 0h1M0 2h1m7 0h1M0 3h1m7 0h1M0 4h1m7 0h1M0 5h1m7 0h1M0 6h1m7 0h1M0 7h1m7 0h1M0 8h16M0 9h1m7 0h1m-9 1h1m7 0h1m-9 1h1m7 0h1m-9 1h1m7 0h1m-9 1h1m7 0h1m-9 1h1m7 0h1m-9 1h1m6 0h2m6 0h1"/><path stroke="#829fa1" d="M2 1h3m1 0h1m2 0h5M1 2h1m7 0h1M1 3h1m7 0h1M1 4h1m11 0h1M9 5h1M1 9h4m4 0h4m1 0h1M1 10h1m7 0h1m-9 1h1m7 0h1m-9 1h1m7 1h1m-9 1h1"/><path stroke="#687f88" d="M5 1h1m1 0h1m6 0h2M2 2h6m2 0h6M2 3h6m2 0h6M2 4h6m1 0h4m1 0h2M1 5h7m2 0h4m1 0h1M1 6h6m2 0h6M1 7h2m1 0h4m1 0h3m1 0h1M5 9h3m5 0h1m1 0h1M2 10h6m2 0h6M2 11h6m2 0h6M2 12h6m1 0h7M1 13h7m2 0h6M2 14h6m1 0h6M1 15h3m1 0h2m2 0h3m1 0h1"/><path stroke="#52636d" d="M14 5h1M7 6h1m7 0h1M3 7h1m8 0h1m1 0h2m-1 7h1M4 15h1m7 0h1m1 0h1"/></svg>