<svg xmlns="http://www.w3.org/2000/svg" width="32" height="32" shape-rendering="crispEdges" viewBox="0 -0.5 16 16"><path stroke="#495766" d="M0 0h16M0 1h1M0 2h1M0 3h1M0 4h1M0 5h1M0 6h1M0 7h1M0 8h1M0 9h1m-1 1h1m-1 1h1m-1 1h1m-1 1h1m-1 1h1m-1 1h1"/><path stroke="#829fa1" d="M1 1h4m1 0h1M1 2h1M1 3h1M1 5h1m13 5h1m-1 2h1m-1 2h1m-6 1h1m1 0h1m1 0h2"/><path stroke="#687f88" d="M5 1h1m1 0h9M2 2h14M2 3h14M1 4h15M2 5h14M1 6h15M1 7h15M1 8h15M1 9h15M1 10h14M1 11h15M1 12h14M1 13h15M1 14h14M1 15h9m1 0h1m1 0h1"/></svg>