<svg xmlns="http://www.w3.org/2000/svg" width="32" height="32" shape-rendering="crispEdges" viewBox="0 -0.5 16 16"><path stroke="#0080e5" d="M0 0h2m6 0h4m3 0h1M0 1h1m6 0h3m4 0h2M6 2h3m3 0h1m1 0h2M3 3h2m1 0h2m4 0h2M2 4h4m5 0h2M1 5h1m1 0h2m5 0h2M1 6h2m6 0h1m1 0h1M0 7h4m5 0h2M0 8h2m6 0h4m3 0h1M0 9h1m6 0h3m4 0h2M6 10h3m3 0h1m1 0h2M3 11h2m1 0h2m4 0h2M2 12h4m5 0h2M1 13h1m1 0h2m5 0h2M1 14h2m6 0h1m1 0h1M0 15h4m5 0h2"/><path stroke="#6DBDFF" d="M2 0h3M1 1h1m2 0h1m5 0h2M0 2h1m4 0h1m3 0h1m3 0h1M1 3h1m3 0h1m2 0h1m5 0h2M1 4h1m5 0h1m1 0h1m3 0h1M2 5h1m6 0h1m2 0h1M3 6h1m6 0h1m0 1h1M2 8h3M1 9h1m2 0h1m5 0h1m2 0h1M0 10h1m4 0h1m3 0h1m3 0h1M1 11h1m3 0h1m2 0h1m5 0h2M1 12h1m5 0h1m1 0h1m3 0h1M2 13h1m6 0h1m2 0h1M3 14h1m6 0h1m0 1h2"/><path stroke="#32a4ff" d="M5 0h3m5 0h2M5 1h2m5 0h1M2 2h3M2 3h1m7 0h2m-2 1h1M0 5h1m13 0h2M0 6h1m5 0h3m4 0h3M5 7h4m4 0h3M5 8h3m5 0h2M5 9h2m5 0h1M2 10h3m-3 1h1m7 0h2m-2 1h1M0 13h1m13 0h2M0 14h1m5 0h3m4 0h3M5 15h4m4 0h3"/><path stroke="#7DC4FF" d="M12 0h1m0 1h1M6 4h1M5 5h1M4 6h1m7 1h1m-1 1h1m-2 1h1m-6 3h1m-2 1h1m-2 1h1"/><path stroke="#65baff" d="M2 1h2M1 2h1m8 0h2M0 3h1m8 0h1M0 4h1m7 0h1m5 0h2M6 5h3m4 0h1M5 6h1m6 0h1M4 7h1M2 9h2m-3 1h1m8 0h2M0 11h1m8 0h1M0 12h1m7 0h1m5 0h2M6 13h3m4 0h1m-9 1h1m6 0h1m-9 1h1"/></svg>