<svg xmlns="http://www.w3.org/2000/svg" width="32" height="32" shape-rendering="crispEdges" viewBox="0 -0.5 35 36"><path stroke="#1d1d1c" d="M15 4h4m-4 1h4m-6 1h2m4 0h2m-8 1h2m4 0h2M11 8h2m8 0h2M11 9h2m8 0h2M3 10h2m2 0h2m2 0h2m8 0h2m2 0h2m2 0h2M3 11h2m2 0h2m2 0h2m8 0h2m2 0h2m2 0h2M1 12h2m2 0h2m2 0h2m12 0h2m2 0h2m2 0h2M1 13h2m2 0h2m2 0h2m12 0h2m2 0h2m2 0h2M1 14h2m28 0h2M1 15h2m28 0h2M1 16h2m28 0h2M1 17h2m28 0h2M3 18h2m22 0h4M3 19h2m22 0h4M5 20h6m10 0h6M5 21h6m10 0h6m-16 1h2m6 0h2m-10 1h2m6 0h2M9 24h2m10 0h2M9 25h2m10 0h2M9 26h2m4 0h2m4 0h2M9 27h2m4 0h2m4 0h2M9 28h2m2 0h2m2 0h2m2 0h2M9 29h2m2 0h2m2 0h2m2 0h2M9 30h2m2 0h2m2 0h2m2 0h2M9 31h2m2 0h2m2 0h2m2 0h2M9 32h2m4 0h2m2 0h2m2 0h2M9 33h2m4 0h2m2 0h2m2 0h2"/><path stroke="#897a71" d="M15 6h4m-4 1h4m-6 1h2m-2 1h2m-4 5h2m-2 1h2m0 1h2m-2 1h2m0 1h4m-4 1h4m-6 13h2m-2 1h2"/><path stroke="#625353" d="M15 8h6m-6 1h6m-8 1h2m-2 1h2m6 3h2m-2 1h2m-4 1h2m-2 1h2m-8 1h2m4 0h2m-8 1h2m4 0h2m-6 1h4m-4 1h4m-6 5h2m4 0h2m-8 1h2m4 0h2m-10 1h2m6 0h2m-10 1h2m6 0h2m-10 1h2m6 0h2m-10 1h2m6 0h2m0 1h2m-2 1h2"/><path stroke="#ffd569" d="M15 10h2m2 0h2m-6 1h2m2 0h2"/><path stroke="#3e373d" d="M17 10h2m-2 1h2m-6 1h8m-8 1h8m-6 1h4m-4 1h4m-8 1h2m8 0h2m-12 1h2m8 0h2M9 18h2m12 0h2M9 19h2m12 0h2m-12 1h2m4 0h2m-8 1h2m4 0h2m-8 1h6m-6 1h6m-8 1h4m2 0h4m-10 1h4m2 0h4m-10 1h2m4 0h2m-8 1h2m4 0h2m-8 5h2m-2 1h2"/><path stroke="#f6c4a6" d="M3 12h2m2 0h2m16 0h2m2 0h2M3 13h2m2 0h2m16 0h2m2 0h2"/><path stroke="#1e2028" d="M11 12h2m8 0h2m-12 1h2m8 0h2m-10 1h2m4 0h2m-8 1h2m4 0h2m-6 1h4m-4 1h4m-8 1h2m8 0h2m-12 1h2m8 0h2m-12 1h2m-2 1h2m2 3h2m-2 1h2"/><path stroke="#cb804a" d="M3 14h2m2 0h2m16 0h2m2 0h2M3 15h2m2 0h2m16 0h2m2 0h2"/><path stroke="#371115" d="M5 14h2m2 0h2m12 0h2m2 0h2M5 15h2m2 0h2m12 0h2m2 0h2M5 16h2m2 0h2m12 0h2m2 0h2M5 17h2m2 0h2m12 0h2m2 0h2M5 18h4m16 0h2M5 19h4m16 0h2"/><path stroke="#682a19" d="M3 16h2m2 0h2m16 0h2m2 0h2M3 17h2m2 0h2m16 0h2m2 0h2"/></svg>