<svg xmlns="http://www.w3.org/2000/svg" width="64" height="64" shape-rendering="crispEdges" viewBox="0 -0.5 32 32"><path stroke="#12173d" d="M5 0h4m15 0h2M4 1h1m3 0h1m14 0h1m2 0h1M3 2h1m3 0h1m4 0h2m5 0h2m3 0h1m2 0h1M2 3h1m3 0h1m4 0h1m2 0h1m3 0h1m2 0h1m3 0h1m2 0h1M1 4h1m4 0h1m3 0h1m2 0h1m5 0h1m2 0h1m2 0h1m3 0h1M0 5h1m5 0h1m2 0h1m2 0h1m1 0h1m3 0h1m1 0h1m2 0h1m1 0h1m4 0h1M0 6h1m6 0h1m1 0h1m3 0h1m1 0h1m1 0h1m1 0h1m4 0h1m6 0h1M0 7h1m7 0h1m22 0h1M0 8h1m30 0h1M0 9h1m30 0h1M0 10h1m30 0h1M0 11h1m30 0h1M0 12h1m30 0h1M0 13h1m30 0h1M0 14h1m30 0h1M0 15h1m30 0h1M0 16h1m30 0h1M0 17h1m30 0h1M0 18h1m30 0h1M0 19h1m4 0h3m17 0h2m4 0h1M0 20h1m3 0h1m3 0h1m16 0h1m1 0h1m3 0h1M1 21h1m1 0h1m4 0h1m16 0h1m2 0h1m1 0h1M1 22h1m1 0h1m4 0h1m16 0h1m2 0h1m1 0h1M2 23h1m3 0h2m17 0h1m3 0h1M4 24h2m19 0h1M2 25h2m21 0h1M1 26h1m23 0h2M0 27h1m26 0h1M0 28h1m27 0h1M0 29h1m27 0h1M0 30h1m24 0h1m2 0h1M1 31h1m7 0h1m5 0h5m6 0h1m2 0h1"/><path stroke="#f29faa" d="M5 1h3m16 0h2M4 2h1m21 0h1M3 3h1m23 0h1M2 4h1m25 0h1M1 5h1m27 0h1M6 6h1m15 0h1m2 0h1m4 0h1M7 7h1m3 0h2m1 0h1m3 0h1m1 0h3m1 0h1M8 8h1m1 0h2m9 0h2m-13 2h1m11 0h1m-12 1h1m9 0h1"/><path stroke="#ff6675" d="M5 2h2m18 0h1M4 3h2m20 0h1M3 4h3m20 0h2M2 5h2m1 0h1m20 0h3M1 6h2m2 0h1m20 0h1m1 0h2M1 7h1m3 0h2m18 0h2m2 0h2M1 8h1m3 0h3m8 0h2m6 0h3m3 0h1M1 9h1m3 0h1m1 0h2m6 0h4m5 0h1m1 0h1m3 0h1M1 10h1m3 0h1m1 0h1m7 0h5m4 0h1m1 0h1m3 0h1M1 11h1m3 0h1m1 0h1m9 0h1m6 0h1m1 0h1m3 0h1M1 12h1m3 0h1m1 0h1m8 0h4m4 0h1m1 0h1m3 0h1M1 13h1m3 0h1m2 0h1m8 0h3m3 0h1m2 0h1m3 0h1M1 14h1m3 0h1m2 0h1m9 0h3m2 0h1m2 0h1m3 0h1M1 15h1m3 0h1m2 0h1m3 0h1m10 0h1m2 0h1m3 0h1M1 16h1m3 0h1m2 0h1m2 0h1m11 0h1m2 0h1m3 0h1M1 17h1m3 0h1m2 0h1m1 0h1m15 0h1m3 0h1M1 18h1m3 0h1m3 0h1m16 0h1m3 0h1M1 19h1m28 0h1M1 20h1m28 0h1M6 24h2m-4 1h2m-4 1h2m-3 1h1m0 1h2m0 1h3m0 1h1"/><path stroke="#fff" d="M12 3h2m5 0h2M11 4h1m9 0h1M10 5h1m2 0h1m5 0h1m2 0h1"/><path stroke="#ffccd0" d="M12 4h1m7 0h1M11 5h1m9 0h1M10 6h2m2 0h1m3 0h1m2 0h1M10 7h1m-1 24h1m1 0h1m1 0h1m6 0h1m1 0h1m1 0h1m2 0h1"/><path stroke="#dd3745" d="M4 5h1M3 6h2m22 0h1M2 7h3m22 0h2M2 8h2m11 0h1m2 0h1m9 0h2M2 9h1m3 0h1m7 0h1m4 0h1m5 0h1m3 0h1M2 10h1m3 0h1m1 0h1m5 0h1m10 0h1m3 0h1M2 11h1m5 0h1m5 0h1m14 0h1M2 12h1m6 0h1m5 0h1m7 0h1m5 0h1M2 13h1m13 0h1m3 0h1m8 0h1M2 14h1m14 0h1m3 0h1m7 0h1M2 15h1m16 0h1m9 0h1M2 16h1m9 0h2m15 0h1M2 17h1m8 0h1m10 0h1m6 0h1M2 18h1m7 0h1m12 0h1m5 0h1M2 19h1m6 0h1m13 0h1m5 0h1M2 20h1m6 0h1m14 0h1m4 0h1M2 21h1m26 0h1M2 22h1m6 0h1m14 0h1m4 0h1M9 23h1m14 0h1M9 24h1m14 0h1M6 25h1m2 0h1m14 0h1M4 26h2m1 0h1m1 0h1m14 0h1M2 27h1m3 0h1m-6 1h1m2 0h2"/><path stroke="#3f1f3c" d="M12 6h1m7 0h1m2 0h1M9 7h1m3 0h1m1 0h3m1 0h1m3 0h1M9 8h1m13 0h1M9 9h2m11 0h2M9 10h1m1 0h2m8 0h1m1 0h1M9 11h1m10 0h1m2 0h1m-14 1h1m11 0h1m-12 1h2m8 0h1m-10 1h1m1 0h1m7 0h1m-12 1h1m1 0h1m1 0h1m6 0h1M9 16h2m3 0h1m1 0h1m5 0h1m1 0h1M6 17h2m1 0h1m5 0h1m1 0h5m1 0h3M4 18h1m1 0h3m7 0h1m3 0h1m3 0h2m1 0h1M4 19h1m3 0h1m8 0h3m4 0h1m2 0h1M3 20h1m24 0h1m-16 1h1m6 0h1m-9 1h1m8 0h1M8 23h1m3 0h1m8 0h1M8 24h1m3 0h1m8 0h1M7 25h2m3 0h1m8 0h1M6 26h1m1 0h1m3 0h1m8 0h1M4 27h2m3 0h1m3 0h1m7 0h1m2 0h1M6 28h1m2 0h1m3 0h1m6 0h2m2 0h1M7 29h1m1 0h1m3 0h2m5 0h2m3 0h1M8 30h1m1 0h1m3 0h8m4 0h1m-7 1h1m6 0h1"/><path stroke="#a52639" d="M4 8h1m22 0h1M3 9h2m22 0h2M3 10h2m22 0h2M3 11h2m1 0h1m6 0h1m11 0h1m1 0h2M3 12h1m2 0h1m1 0h1m5 0h1m5 0h1m4 0h1m1 0h2M3 13h1m2 0h2m1 0h2m4 0h1m8 0h2m2 0h1M3 14h1m3 0h1m1 0h1m6 0h1m7 0h1m3 0h1M3 15h1m13 0h1m3 0h1m6 0h1M3 16h1m14 0h4m6 0h1M3 17h1m8 0h2m14 0h1M3 18h1m7 0h2m9 0h1m5 0h1M3 19h1m6 0h2m10 0h1m5 0h1m-19 1h2m10 0h2M9 21h2m12 0h2m-15 2h1m12 0h1m-14 1h1m12 0h1m-14 1h1m12 0h1m-14 1h1m12 0h1M3 27h1m3 0h1m2 0h1m12 0h1m2 0h1m-17 1h2m11 0h1m3 0h1M1 29h3m6 0h1m13 0h1M3 30h4m4 0h2m9 0h2M6 31h3"/><path stroke="#c37289" d="M12 8h2m6 0h1M11 9h2m8 0h1m-12 2h1m11 0h1m-12 1h1m9 0h1m-7 15h5"/><path stroke="#994c69" d="M14 8h1m4 0h1m-7 1h1m6 0h1m-8 1h1m6 0h1m-9 1h1m-1 1h1m2 7h2m-3 1h1m4 0h1m-6 1h1m4 0h1m-7 1h1m6 0h1m-8 1h1m6 0h1m-8 1h1m6 0h1m-8 1h1m6 0h1m-8 1h1m6 0h1m-5 3h3"/><path stroke="#ffe091" d="M15 11h2m1 0h2"/><path stroke="#721c2f" d="M4 12h1m8 0h1M4 13h1m8 0h2m7 0h1m4 0h1M4 14h1m1 0h1m3 0h2m1 0h1m1 0h1m9 0h1m1 0h1M4 15h1m1 0h2m1 0h2m3 0h1m1 0h1m1 0h1m1 0h1m3 0h2m1 0h1M4 16h1m1 0h2m7 0h1m1 0h1m7 0h1m1 0h1M4 17h1m9 0h1m1 0h1m10 0h1m-15 1h3m1 0h3m1 0h1m-10 1h3m5 0h2m-10 1h2m6 0h2m-11 1h2m8 0h2m-13 1h2m10 0h2m-13 1h1m10 0h1m-12 1h1m10 0h1m-12 1h1m10 0h1m-12 1h1m10 0h1M8 27h1m2 0h2m9 0h1m2 0h1M7 28h2m3 0h1m9 0h1m2 0h2M8 29h1m2 0h2m9 0h2m2 0h2M1 30h2m6 0h1m3 0h1m10 0h1m2 0h1M2 31h4m5 0h1m1 0h1m8 0h1m1 0h1"/><path stroke="#ffaa6e" d="M15 20h4m-5 2h6m-6 2h6m-6 2h6"/><path stroke="#cc817a" d="M15 21h4m-5 2h6m-6 2h6m-5 3h4"/><path stroke="#723352" d="M14 27h1m5 0h1m-7 1h1m4 0h1m-5 1h1m3 0h1"/></svg>