<svg xmlns="http://www.w3.org/2000/svg" width="64" height="64" shape-rendering="crispEdges" viewBox="0 -0.5 32 32"><path stroke="#12173d" d="M12 0h3m1 0h3m2 0h1m7 0h1M9 1h3m3 0h1m3 0h2m1 0h1m1 0h1m1 0h1m1 0h1m1 0h1M7 2h2m14 0h1m1 0h1m1 0h1m2 0h1M6 3h1m23 0h1M5 4h1m25 0h1M4 5h1M3 6h1m27 0h1M3 7h1M2 8h1m28 0h1M2 9h1m28 0h1M1 10h1m28 0h1M1 11h1m28 0h1M1 12h1m4 0h1m23 0h1M1 13h1m3 0h1m1 0h1m22 0h1M1 14h1m2 0h1m2 0h1m15 0h2m4 0h1M1 15h1m1 0h1m2 0h1m16 0h1m1 0h1m3 0h1M1 16h1m1 0h1m1 0h1m17 0h1m2 0h3M2 17h1m2 0h1m13 0h1m4 0h1M4 18h1m13 0h1m1 0h1m3 0h1M3 19h1m14 0h1m2 0h1m3 0h1M3 20h1m13 0h1m4 0h1m3 0h1M2 21h1m15 0h1m4 0h1m3 0h1M2 22h1m16 0h2m2 0h1m1 0h1m1 0h1M1 23h1m19 0h2m1 0h1m1 0h1M1 24h1m21 0h1M1 25h1m22 0h1M1 26h1m23 0h3M1 27h1m26 0h1M2 28h1m5 0h2m19 0h1M3 29h1m3 0h1m2 0h1m19 0h1M2 30h1m4 0h1m3 0h6m5 0h1m1 0h5m2 0h1M2 31h1m5 0h1m8 0h1m5 0h1m5 0h2"/><path stroke="#ffe091" d="M12 1h1m3 0h1M9 2h3M7 3h2M6 4h1M5 5h1m19 0h2M4 6h1m19 0h4M17 7h2m5 0h5M3 8h1m11 0h3m8 0h1M13 9h3m9 0h3M2 10h1m10 0h2m11 0h2m-1 1h2M6 16h1m4 0h2m-7 1h1m5 0h2m-9 1h1m7 0h2M4 19h1m9 0h1M4 20h1m-2 1h1m3 3h1m13 0h2M6 25h2m14 0h2M6 26h1"/><path stroke="#909edd" d="M13 1h1m3 0h1m3 2h1m2 0h1m1 0h1m2 0h1m-8 1h1m5 0h1m-6 1h2m2 0h1m-8 1h1m2 0h1m6 0h1M21 7h2m-3 1h1m-1 1h1m9 0h1m-3 1h2M2 16h1m12 6h1m1 0h1"/><path stroke="#c1d9f2" d="M14 1h1m3 0h1m2 1h1m2 0h1m1 0h1m2 0h1m-8 1h1m5 0h1m-6 1h1m3 0h1m-8 1h1m9 0h1M21 6h1m7 0h1m1 1h1M19 8h1m8 1h2m-6 11h1m-1 2h1m1 0h1m-12 1h1m1 0h1M3 31h1m1 0h1m1 0h1m10 0h1m1 0h1m1 0h1"/><path stroke="#fff" d="M21 1h1m7 0h1M19 5h1m11 0h1m-8 3h2m1 0h2m1 0h1"/><path stroke="#ffc539" d="M12 2h1m2 0h2M9 3h1m3 0h1m3 0h1M7 4h1m4 0h2m2 0h1M6 5h1m4 0h2m2 0h1M5 6h1m4 0h3m2 0h1M4 7h1m4 0h1m2 0h1m1 0h1m8 0h1M4 8h1m3 0h1m3 0h1m10 0h1M3 9h1m3 0h1m4 0h1m3 0h2m6 0h1M6 10h1m5 0h1m2 0h2m8 0h1M2 11h1m2 0h2m6 0h3m10 0h1m2 0h1M2 12h1m2 0h1m7 0h2m13 0h1M2 13h1m9 0h2M2 14h1m8 0h2m-6 1h1m2 0h2m-2 1h1m0 1h1m-6 1h1m5 0h1m-8 1h1m7 0h1m-9 1h1m8 0h2M4 21h1m10 0h3M3 22h1m2 0h2m-3 1h4m11 0h1M4 24h3m1 0h1m10 0h2M5 25h1m2 0h1m11 0h2M7 26h1m13 0h3m1 1h3m0 1h1M4 29h1m24 0h1M3 30h1m26 0h1"/><path stroke="#6b74b2" d="M13 2h1m3 0h1m3 2h1m7 0h1m-8 1h1m5 0h1m0 2h1m-9 2h1M3 14h1m-2 1h1"/><path stroke="#3f1f3c" d="M14 2h1m3 0h1m-5 1h1m3 0h1m-5 1h1m2 0h1m-5 1h1m2 0h1m-4 1h1m2 0h1m-4 1h1m1 0h2m-4 1h2m-8 3h1m13 0h1m1 0h1M7 12h1m4 0h1m9 0h1m1 0h1m-14 1h1m9 0h1m1 0h1m1 0h1m-16 1h1m10 0h1m4 0h3M9 15h1m4 0h1m5 0h1M9 16h1m3 0h1m6 0h1M9 17h1m4 0h1m-6 1h1m5 0h1m-6 1h1m4 0h1m-5 1h2m3 0h1m-4 1h1m-5 1h1m3 0h1m4 0h1m-9 1h1m3 0h1m1 0h1m1 0h1m-9 1h1m4 0h1m1 0h1M3 25h1m6 0h1m-8 1h1m6 0h6m8 0h1M3 27h2m4 0h1m6 0h4m4 0h1M3 28h1m1 0h3m10 0h1m4 0h1m-7 1h1m5 0h1m-7 1h1"/><path stroke="#293268" d="M20 2h1m1 0h1m5 0h1m-9 1h1m2 0h1m1 0h1m1 0h1m-9 1h2m3 0h3m3 0h1M18 5h1m2 0h1m7 0h1M17 6h3m2 0h1m5 0h1M19 7h2m9 0h1M18 8h1m2 0h1m7 0h1M19 9h1m0 1h2"/><path stroke="#f19319" d="M10 3h3m2 0h2M8 4h2M7 5h1M6 6h1M5 7h1m4 0h2M9 8h1m1 0h1m10 0h1M4 9h1m3 0h1m2 0h1m6 0h1m4 0h1M3 10h1m3 0h1m3 0h1m5 0h1m6 0h1M3 11h1m7 0h2m3 0h1m8 0h1M3 12h1m6 0h2m3 0h1m10 0h1M3 13h1m5 0h2m3 0h1m12 0h3M8 14h2m3 0h1m8 0h1M8 15h1m3 0h1m9 0h1M7 16h2m13 0h1M7 17h1m2 0h1m12 0h1M7 18h1m3 0h1m11 0h1M6 19h2m4 0h1m11 0h1M6 20h2m5 0h1m11 0h1M5 21h4m5 0h1m11 0h1M4 22h2m2 0h1m7 0h1M2 23h3m4 0h1m9 0h1M2 24h1m6 0h1m8 0h1M9 25h1m7 0h3M5 26h1m2 0h1m11 0h1M6 27h2m14 0h2m-3 1h2m2 0h3m-8 1h3m5 0h1M4 30h1m16 0h1m7 0h1"/><path stroke="#c35f1d" d="M10 4h2m3 0h1M8 5h3m3 0h1M7 6h2m5 0h1M6 7h2M5 8h2m3 0h1M5 9h1m3 0h1m12 0h1M4 10h1m3 0h1m9 0h2m3 0h1M4 11h1m12 0h2m5 0h1M4 12h1m11 0h2m3 0h1m3 0h1m-11 1h2m3 0h1m1 0h1m3 0h1m-13 1h2m4 0h1m-8 1h1m7 0h1m-1 1h1M8 17h1m13 0h1M8 18h1m1 0h1m-3 1h1m2 0h1m11 0h1M8 20h2m-1 1h2m14 0h1m-12 1h1M3 24h1m-2 1h1m1 0h1m11 0h1M2 26h1m1 0h1m4 0h1m7 0h3M5 27h1m2 0h1m12 0h1M4 28h1m15 0h1m3 0h1M5 29h1m13 0h1m5 0h3M5 30h2m11 0h3"/><path stroke="#893a1b" d="M9 6h1M8 7h1M7 8h1M6 9h1m3 0h1m-6 1h1m3 0h2m11 0h1M8 11h2m12 0h1M8 12h1m14 0h1m3 0h1m1 0h1M4 13h1m19 0h1m0 1h1m-11 1h1m3 0h1m6 0h3m-15 1h1m4 0h1m-2 1h1m2 0h1m-5 1h1m4 0h1M9 19h1m7 0h1m-8 1h1m12 0h1m-13 1h1m12 0h1m-15 1h1m5 2h1m-2 1h1m0 1h1M2 27h1m7 0h1m4 0h1m4 0h1m-5 1h1m2 0h1M6 29h1m4 0h1m6 0h1m5 0h1M4 31h1m1 0h1m12 0h1m1 0h1"/><path stroke="#61393b" d="M10 11h1m-2 1h1m-2 1h1m11 4h1m0 1h1m0 1h1m-13 9h1m6 0h1"/><path stroke="#b483ef" d="M19 11h2m-4 2h3m-4 2h3m-4 2h3"/><path stroke="#854cbf" d="M18 12h3m-5 2h4m-5 2h4m-3 2h1m-5 3h1m-2 2h3m-3 2h4"/><path stroke="#5d2f8c" d="M16 19h1m-6 3h2m-2 2h4m-4 3h4m-3 2h5"/><path stroke="#431e66" d="M11 28h5"/></svg>