<svg xmlns="http://www.w3.org/2000/svg" width="32" height="32" shape-rendering="crispEdges" viewBox="0 -0.5 36 37"><path stroke="#372840" d="M12 3h4m-4 1h4M6 5h2m2 0h2m4 0h2m2 0h2M6 6h2m2 0h2m4 0h2m2 0h2M6 7h4m8 0h4M6 8h4m8 0h4M6 9h2m12 0h2M6 10h2m12 0h2M8 11h2m2 0h2m2 0h4M8 12h2m2 0h2m2 0h4M8 13h2m4 0h2m2 0h2M8 14h2m4 0h2m2 0h2m-10 1h2m4 0h2m-8 1h2m4 0h2m-8 1h8m4 0h2m-14 1h8m4 0h2M6 19h4m8 0h4m2 0h8M6 20h4m8 0h4m2 0h8M4 21h2m2 0h2m8 0h2m12 0h2M4 22h2m2 0h2m8 0h2m12 0h2M2 23h2m6 0h8m2 0h2m2 0h8M2 24h2m6 0h8m2 0h2m2 0h8M4 25h2m2 0h2m2 0h2m8 0h2M4 26h2m2 0h2m2 0h2m8 0h2M4 27h2m2 0h8M4 28h2m2 0h8M4 29h2m2 0h2m2 0h2m2 0h2M4 30h2m2 0h2m2 0h2m2 0h2M4 31h2m2 0h2m2 0h2m2 0h2M4 32h2m2 0h2m2 0h2m2 0h2M6 33h6m2 0h2m2 0h2M6 34h6m2 0h2m2 0h2"/><path stroke="#c6dbde" d="M12 5h4m-4 1h4m-6 1h2m-2 1h2m0 11h4m-4 1h4m10 1h4m-4 1h4M6 27h2m-2 1h2m-2 1h2m-2 1h2"/><path stroke="#a7b8c2" d="M12 7h6m-6 1h6m-4 1h2m-2 1h2m-2 1h2m-2 1h2m-6 7h2m4 0h2m-8 1h2m4 0h2m-6 1h4m8 0h2m-14 1h4m8 0h2M6 25h2m-2 1h2m2 3h2m-2 1h2m-2 1h2m-2 1h2"/><path stroke="#728794" d="M8 9h6m2 0h4M8 10h6m2 0h4m2 9h2m-2 1h2m-14 1h2m4 0h2m4 0h2m-14 1h2m4 0h2m4 0h2M4 23h6m12 0h2M4 24h6m12 0h2m-10 5h2m-2 1h2m-2 1h2m-2 1h2"/><path stroke="#dfd3c3" d="M10 11h2m-2 1h2m0 1h2m-2 1h2"/><path stroke="#c7b198" d="M10 13h2m4 0h2m-8 1h2m4 0h2"/><path stroke="#997d76" d="M12 15h4m-4 1h4m-4 17h2m-2 1h2"/><path stroke="#57404e" d="M6 21h2m12 0h2M6 22h2m12 0h2m-6 11h2m-2 1h2"/><path stroke="#dfeded" d="M30 21h2m-2 1h2M6 31h2m-2 1h2"/></svg>