<svg xmlns="http://www.w3.org/2000/svg" width="32" height="32" shape-rendering="crispEdges" viewBox="0 -0.5 36 37"><path stroke="#12173d" d="M8 6h2m18 0h2M8 7h2m18 0h2M6 8h2m2 0h2m4 0h2m2 0h2m4 0h2m2 0h2M6 9h2m2 0h2m4 0h2m2 0h2m4 0h2m2 0h2M4 10h2m6 0h4m2 0h2m2 0h4m6 0h2M4 11h2m6 0h4m2 0h2m2 0h4m6 0h2M2 12h2m28 0h2M2 13h2m28 0h2M2 14h2m28 0h2M2 15h2m28 0h2M2 16h2m28 0h2M2 17h2m28 0h2M2 18h2m4 0h4m20 0h2M2 19h2m4 0h4m20 0h2M2 20h6m4 0h2m12 0h8M2 21h6m4 0h2m12 0h8M2 22h2m4 0h4m12 0h2m6 0h2M2 23h2m4 0h4m12 0h2m6 0h2M6 24h2m14 0h2M6 25h2m14 0h2M4 26h2m2 0h6m2 0h4m2 0h2M4 27h2m2 0h6m2 0h4m2 0h2M6 28h2m6 0h2m4 0h2M6 29h2m6 0h2m4 0h2"/><path stroke="#78fae6" d="M8 8h2M8 9h2m-4 1h2m2 0h2m-6 1h2m2 0h2m-8 1h2m10 0h8M4 13h2m10 0h8M4 14h2m-2 1h2m-2 1h2m-2 1h2"/><path stroke="#27d3cb" d="M28 8h2m-2 1h2M8 10h2m16 0h2m2 0h2M8 11h2m16 0h2m2 0h2M6 12h10m8 0h2m4 0h2M6 13h10m8 0h2m4 0h2M6 14h2m4 0h2m2 0h2m2 0h2m8 0h2M6 15h2m4 0h2m2 0h2m2 0h2m8 0h2m-12 1h2m8 0h2m-12 1h2m8 0h2M4 18h2m-2 1h2m0 7h2m-2 1h2"/><path stroke="#ffd3ad" d="M16 10h2m2 0h2m-6 1h2m2 0h2"/><path stroke="#00aaa5" d="M28 10h2m-2 1h2m-4 1h4m-4 1h4M8 14h4m16 0h2M8 15h4m16 0h2M6 16h2m4 0h2m2 0h4m2 0h2M6 17h2m4 0h2m2 0h4m2 0h2m-10 1h2m14 0h2m-18 1h2m14 0h2m-18 1h2m-2 1h2m-8 3h4m-4 1h4"/><path stroke="#163755" d="M14 14h2m8 0h2m-12 1h2m8 0h2m-12 1h2m8 0h2m-12 1h2m8 0h2m-10 1h8m2 0h2m-12 1h8m2 0h2m-12 1h2m4 0h2m-8 1h2m4 0h2m-12 1h4m6 0h2m-12 1h4m6 0h2m-12 1h2m-2 1h2"/><path stroke="#a52639" d="M18 14h2m2 0h2m-6 1h2m2 0h2"/><path stroke="#008782" d="M26 14h2m-2 1h2M8 16h4m16 0h2M8 17h4m16 0h2M6 18h2m4 0h2m10 0h2M6 19h2m4 0h2m10 0h2m-2 1h2m-2 1h2m-12 3h2m-2 1h2m-2 1h2m-2 1h2"/><path stroke="#3b768f" d="M26 16h2m-2 1h2m0 1h2m-2 1h2m-10 1h2m-2 1h2m-2 1h2m-2 1h2m-2 1h2m-2 1h2m-2 1h2m-2 1h2"/><path stroke="#cdc599" d="M18 20h2m-2 1h2m-4 3h4m-4 1h4"/><path stroke="#988f64" d="M16 22h4m-4 1h4"/></svg>