<svg xmlns="http://www.w3.org/2000/svg" width="32" height="32" shape-rendering="crispEdges" viewBox="0 -0.5 36 37"><path stroke="#372840" d="M12 4h8m-8 1h8M10 6h2m8 0h2m2 0h2M10 7h2m8 0h2m2 0h2M10 8h2m8 0h4m2 0h2M10 9h2m8 0h4m2 0h2m-18 1h2m2 0h2m2 0h6m2 0h2m-18 1h2m2 0h2m2 0h6m2 0h2M8 12h4m8 0h4m2 0h2M8 13h4m8 0h4m2 0h2M6 14h2m2 0h2m8 0h2m2 0h2m2 0h2M6 15h2m2 0h2m8 0h2m2 0h2m2 0h2M4 16h2m2 0h6m4 0h4m2 0h4m2 0h2M4 17h2m2 0h6m4 0h4m2 0h4m2 0h2M6 18h4m2 0h8m2 0h8m2 0h2M6 19h4m2 0h8m2 0h8m2 0h2M8 20h2m10 0h2m2 0h2m2 0h2m2 0h2M8 21h2m10 0h2m2 0h2m2 0h2m2 0h2m-24 1h20m2 0h2m-24 1h20m2 0h2M8 24h2m10 0h2m2 0h4m2 0h2M8 25h2m10 0h2m2 0h4m2 0h2M6 26h2m2 0h2m8 0h2m2 0h2m2 0h2M6 27h2m2 0h2m8 0h2m2 0h2m2 0h2M4 28h2m2 0h4m8 0h4m2 0h2M4 29h2m2 0h4m8 0h4m2 0h2M6 30h2m2 0h2m4 0h2m2 0h4m2 0h2M6 31h2m2 0h2m4 0h2m2 0h4m2 0h2M8 32h2m2 0h2m2 0h2m2 0h4m2 0h2M8 33h2m2 0h2m2 0h2m2 0h4m2 0h2M6 34h2m2 0h2m6 0h2m2 0h4M6 35h2m2 0h2m6 0h2m2 0h4"/><path stroke="#f0ece2" d="M12 6h6m-6 1h6m-6 1h2m-2 1h2m-4 9h2m-2 1h2m-2 1h2m2 0h2m-6 1h2m2 0h2"/><path stroke="#dfd3c3" d="M18 6h2m-2 1h2m-6 1h2m-2 1h2m-4 1h2m-2 1h2m-2 1h4m-4 1h4m-4 1h2m-2 1h2m-2 5h2m2 0h4m-8 1h2m2 0h4m-10 3h6m-6 1h6m-8 1h2m2 0h2m-6 1h2m2 0h2m-8 1h2m4 0h4M6 29h2m4 0h4m-2 3h2m-2 1h2m0 1h2m-2 1h2"/><path stroke="#c7b198" d="M16 8h4m-4 1h4m-4 1h2m-2 1h2m-2 1h4m-4 1h4M8 14h2m-2 1h2m-4 1h2m6 0h2M6 17h2m6 0h2m4 1h2m-2 1h2m0 1h2m-2 1h2m-8 3h4m-4 1h4m-6 1h2m2 0h2m-6 1h2m2 0h2m-8 3h4m2 0h2m-8 1h4m2 0h2m-10 1h2m-2 1h2m-4 1h2m4 0h2m4 0h2M8 35h2m4 0h2m4 0h2"/><path stroke="#d6a57a" d="M24 8h2m-2 1h2m-2 1h2m-2 1h2m-2 1h2m-2 1h2m0 1h2m-2 1h2m0 1h2m-2 1h2m0 1h2m-2 1h2m-2 1h2m-2 1h2m-2 1h2m-2 1h2"/><path stroke="#57404e" d="M14 14h4m-4 1h4m-2 13h2m-2 1h2"/><path stroke="#997d76" d="M18 14h2m-2 1h2m-4 1h2m-2 1h2m8 3h2m-2 1h2m-12 5h2m-2 1h2m0 1h2m-2 1h2m-2 3h2m-2 1h2m-8 1h2m-2 1h2"/><path stroke="#b3785d" d="M28 24h2m-2 1h2m-4 1h2m-2 1h2"/><path stroke="#9c4f41" d="M24 28h2m-2 1h2m-2 1h2m-2 1h2m-2 1h2m-2 1h2"/></svg>