<svg xmlns="http://www.w3.org/2000/svg" width="32" height="32" shape-rendering="crispEdges" viewBox="0 -0.5 35 36"><path stroke="#1d1d1c" d="M11 12h6m2 0h6m-14 1h6m2 0h6M9 14h2m6 0h2m6 0h2M9 15h2m6 0h2m6 0h2M9 16h2m12 0h2M9 17h2m12 0h2M7 18h2m14 0h2M7 19h2m14 0h2M5 20h2m18 0h2M5 21h2m18 0h2M5 22h2m18 0h2M5 23h2m18 0h2M5 24h2m18 0h2M5 25h2m18 0h2M5 26h2m18 0h2M5 27h2m18 0h2M7 28h4m10 0h4M7 29h4m10 0h4m-14 1h2m4 0h2m2 0h2m-12 1h2m4 0h2m2 0h2m-12 1h2m2 0h2m2 0h2m2 0h2m-14 1h2m2 0h2m2 0h2m2 0h2"/><path stroke="#cc75af" d="M11 14h2m-2 1h2"/><path stroke="#834a59" d="M13 14h2m6 0h2m-10 1h2m6 0h2"/><path stroke="#5a4143" d="M15 14h2m2 0h2m-6 1h2m2 0h2"/><path stroke="#a6557b" d="M23 14h2m-2 1h2"/><path stroke="#292236" d="M11 16h2m8 0h2m-12 1h2m8 0h2m-10 1h2m4 0h2m-8 1h2m4 0h2m-6 1h4m-4 1h4m-8 3h2m-2 1h2m-2 1h2m-2 1h2m-2 1h4m4 0h2m-10 1h4m4 0h2m-6 1h2m-2 1h2"/><path stroke="#a27cb7" d="M13 16h2m2 0h2m-6 1h2m2 0h2M9 18h2m-2 1h2m-4 1h2m-2 1h2"/><path stroke="#e84444" d="M15 16h2m2 0h2m-6 1h2m2 0h2"/><path stroke="#745888" d="M11 18h2m2 0h4m2 0h2m-12 1h2m2 0h4m2 0h2M9 20h2m2 0h2m4 0h2m2 0h2M9 21h2m2 0h2m4 0h2m2 0h2M7 22h2m6 0h4m4 0h2M7 23h2m6 0h4m4 0h2M7 26h2m14 0h2M7 27h2m14 0h2m-12 3h2m4 0h2m-8 1h2m4 0h2"/><path stroke="#504261" d="M11 20h2m8 0h2m-12 1h2m8 0h2M9 22h2m2 0h2m4 0h2M9 23h2m2 0h2m4 0h2m-6 1h4m-4 1h4"/><path stroke="#3a3346" d="M11 22h2m8 0h2m-12 1h2m8 0h2M9 24h2m2 0h2m4 0h4M9 25h2m2 0h2m4 0h4M9 26h2m10 0h2M9 27h2m10 0h2m-8 1h4m-4 1h4m-6 3h2m6 0h2m-10 1h2m6 0h2"/><path stroke="#f2d17c" d="M7 24h2m14 0h2M7 25h2m14 0h2m-10 1h4m-4 1h4"/><path stroke="#dd8944" d="M13 26h2m4 0h2m-8 1h2m4 0h2"/></svg>