<svg xmlns="http://www.w3.org/2000/svg" width="32" height="32" shape-rendering="crispEdges" viewBox="0 -0.5 36 37"><path stroke="#372840" d="M12 5h2m6 0h2M12 6h2m6 0h2M10 7h2m2 0h2m2 0h2m2 0h2m2 0h2M10 8h2m2 0h2m2 0h2m2 0h2m2 0h2M6 9h2m2 0h2m4 0h2m4 0h4m2 0h2M6 10h2m2 0h2m4 0h2m4 0h4m2 0h2M4 11h2m2 0h2m2 0h2m2 0h2m4 0h2m4 0h2M4 12h2m2 0h2m2 0h2m2 0h2m4 0h2m4 0h2M4 13h2m2 0h2m2 0h2m2 0h2m4 0h2m2 0h2m2 0h2M4 14h2m2 0h2m2 0h2m2 0h2m4 0h2m2 0h2m2 0h2M4 15h2m2 0h2m2 0h2m8 0h2m2 0h2m2 0h2M4 16h2m2 0h2m2 0h2m8 0h2m2 0h2m2 0h2M4 17h2m4 0h2m18 0h2M4 18h2m4 0h2m18 0h2M6 19h4m16 0h4M6 20h4m16 0h4M8 21h2m6 0h6m4 0h2M8 22h2m6 0h6m4 0h2M8 23h2m4 0h2m6 0h2m2 0h2M8 24h2m4 0h2m6 0h2m2 0h2M8 25h2m4 0h2m6 0h2m2 0h2M8 26h2m4 0h2m6 0h2m2 0h2M8 27h2m6 0h6m4 0h2M8 28h2m6 0h6m4 0h2m-18 1h2m12 0h2m-16 1h2m12 0h2m-14 1h12m-12 1h12"/><path stroke="#dfeded" d="M12 7h2m6 0h2M12 8h2m6 0h2m-8 1h2m2 0h2m6 0h2m-14 1h2m2 0h2m6 0h2M6 11h2m2 0h2m12 0h2M6 12h2m2 0h2m12 0h2m2 1h2m-2 1h2M6 15h2m6 0h8M6 16h2m6 0h8m-10 1h2m8 0h2m-12 1h2m8 0h2m-14 1h2m12 0h2m-16 1h2m12 0h2"/><path stroke="#728794" d="M12 9h2m6 0h2m-10 1h2m6 0h2m-2 1h2m4 0h2m-8 1h2m4 0h2M6 13h2m12 0h2M6 14h2m12 0h2m6 1h2m-2 1h2m-4 1h4m-4 1h4m-16 1h10m-10 1h10m-12 1h4m6 0h4m-14 1h4m6 0h4m-16 1h4m10 0h2m-16 1h4m10 0h2m-14 1h2m-2 1h2"/><path stroke="#a7b8c2" d="M14 11h2m2 0h2m-6 1h2m2 0h2m-10 1h2m2 0h2m2 0h2m4 0h2m-16 1h2m2 0h2m2 0h2m4 0h2m-16 1h2m12 0h2m-16 1h2m12 0h2M6 17h4m4 0h8m2 0h2M6 18h4m4 0h8m2 0h2m-14 1h2m-2 1h2m-4 1h2m-2 1h2"/><path stroke="#bf2651" d="M16 23h2m2 0h2m-6 1h2m2 0h2"/><path stroke="#e6a3a3" d="M18 23h2m-2 1h2"/><path stroke="#524a63" d="M10 25h2m12 0h2m-16 1h2m12 0h2m-14 1h4m6 0h2m-12 1h4m6 0h2m-10 1h8m-8 1h8"/><path stroke="#911d55" d="M16 25h6m-6 1h6"/><path stroke="#3d3957" d="M10 27h2m12 0h2m-16 1h2m12 0h2m-14 1h2m8 0h2m-12 1h2m8 0h2"/></svg>