<svg xmlns="http://www.w3.org/2000/svg" width="32" height="32" shape-rendering="crispEdges" viewBox="0 -0.5 36 35"><path stroke="#1a1c26" d="M12 0h2m2 0h2m-6 1h2m2 0h2m-8 1h2m2 0h2m2 0h8M10 3h2m2 0h2m2 0h8M10 4h2m14 0h2M10 5h2m14 0h2M8 6h2m16 0h2M8 7h2m16 0h2M6 8h2m20 0h2M6 9h2m20 0h2M6 10h2m22 0h2M6 11h2m22 0h2M6 12h2m24 0h2M6 13h2m24 0h2M6 14h2m24 0h2M6 15h2m24 0h2M6 16h2m24 0h2M6 17h2m24 0h2M6 18h2m24 0h2M6 19h2m24 0h2M8 20h2m20 0h2M8 21h2m20 0h2m-22 1h2m16 0h2m-20 1h2m16 0h2m-18 1h2m12 0h2m-16 1h2m12 0h2m-14 1h2m10 0h2m-14 1h2m10 0h2m-16 1h2m10 0h2m-14 1h2m10 0h2m-14 1h2m4 0h4m4 0h2m-16 1h2m4 0h4m4 0h2"/><path stroke="#eaf257" d="M12 2h2m2 0h2m-6 1h2m2 0h2m-8 3h2m-2 1h2"/><path stroke="#f6dd7a" d="M12 4h2m-2 1h2M8 8h2M8 9h2"/><path stroke="#f1c256" d="M14 4h2m-2 1h2"/><path stroke="#1a5556" d="M16 4h2m-2 1h2m-6 1h4m-4 1h4m-6 1h2m-2 1h2m-4 1h2m-2 1h2m10 15h2m-2 1h2m-8 3h2m6 0h2m-10 1h2m6 0h2"/><path stroke="#4ba245" d="M18 4h2m-2 1h2m-2 1h2m-2 1h2m-6 3h2m-2 1h2m-6 1h2m16 0h2m-20 1h2m16 0h2m0 1h2m-2 1h2M8 16h2m-2 1h2m6 7h2m4 0h2m-8 1h2m4 0h2m-8 1h2m6 0h2m-10 1h2m6 0h2"/><path stroke="#94cc47" d="M20 4h6m-6 1h6m-4 1h2m-2 1h2M12 8h4m6 0h2M12 9h4m6 0h2m-14 1h4m14 0h2m-20 1h4m14 0h2M8 12h2m20 0h2M8 13h2m20 0h2M8 14h2m-2 1h2"/><path stroke="#0b3b44" d="M16 6h2m-2 1h2m-2 1h2m8 0h2M16 9h2m8 0h2m-12 1h2m2 0h2m2 0h4m-12 1h2m2 0h2m2 0h4m-10 1h2m6 0h2m-10 1h2m6 0h2m-16 1h2m6 0h6m-14 1h2m6 0h6m-14 1h2m12 0h4m-18 1h2m12 0h4m-16 1h2m8 0h2m-12 1h2m8 0h2m-12 1h2m8 0h2m-12 1h2m8 0h2m-14 1h2m12 0h2m-16 1h2m12 0h2m-10 3h2m-2 1h2m-4 1h2m2 0h2m-6 1h2m2 0h2"/><path stroke="#a94b84" d="M20 6h2m2 0h2m-6 1h2m2 0h2"/><path stroke="#30a387" d="M18 8h4m2 0h2m-8 1h4m2 0h2m-4 1h2m-2 1h2m-10 1h2m-2 1h2m-2 1h2m10 0h2m-14 1h2m10 0h2m-14 1h2m14 0h2m-18 1h2m14 0h2m-22 1h4m2 0h2m8 0h4m-20 1h4m2 0h2m8 0h4m-14 1h2m-2 1h2m-2 1h2m4 0h2m-8 1h2m4 0h2m-10 1h2m-2 1h2m6 1h2m-2 1h2m-10 1h2m6 0h2m-10 1h2m6 0h2"/><path stroke="#17756e" d="M18 10h2m-2 1h2m-8 1h2m6 0h6m-14 1h2m6 0h6m-16 1h2m16 0h2m-20 1h2m16 0h2m-20 1h2m-2 1h2m-4 1h2m20 0h2M8 19h2m20 0h2m-22 1h4m12 0h4m-20 1h4m12 0h4m-16 1h2m8 0h2m-12 1h2m8 0h2m-2 1h2m-2 1h2m-10 5h2m6 0h2m-10 1h2m6 0h2"/><path stroke="#e7d494" d="M16 12h2m-2 1h2m-2 3h10m-10 1h10m-8 3h6m-6 1h6m-6 3h4m-4 1h4"/><path stroke="#cea65f" d="M16 14h4m-4 1h4m-2 3h6m-6 1h6m-6 3h4m-4 1h4"/></svg>