<svg xmlns="http://www.w3.org/2000/svg" width="32" height="32" shape-rendering="crispEdges" viewBox="0 -0.5 35 36"><path stroke="#1d1d1c" d="M8 8h2m4 0h2M8 9h2m4 0h2M6 10h2m2 0h4m2 0h2M6 11h2m2 0h4m2 0h2M6 12h2m8 0h2M6 13h2m8 0h2M6 14h2m8 0h2M6 15h2m8 0h2M6 16h2m8 0h2M6 17h2m8 0h2M6 18h2m8 0h2M6 19h2m8 0h2M4 20h2m12 0h2M4 21h2m12 0h2M2 22h2m2 0h2m8 0h2m2 0h2M2 23h2m2 0h2m8 0h2m2 0h2M2 24h2m12 0h2m2 0h4M2 25h2m12 0h2m2 0h4M2 26h2m12 0h2m6 0h2M2 27h2m12 0h2m6 0h2M4 28h2m10 0h8M4 29h2m10 0h8M6 30h2m4 0h2m2 0h2M6 31h2m4 0h2m2 0h2M6 32h2m2 0h2m2 0h2m2 0h2M6 33h2m2 0h2m2 0h2m2 0h2"/><path stroke="#897a71" d="M8 10h2m4 0h2m-8 1h2m4 0h2"/><path stroke="#625353" d="M8 12h2m4 0h2m-8 1h2m4 0h2"/><path stroke="#4d0a1a" d="M10 12h4m-4 1h4m-6 1h2m4 0h2m-8 1h2m4 0h2m-4 13h2m-2 1h2m-4 1h2m-2 1h2"/><path stroke="#f26e26" d="M10 14h4m-4 1h4m-6 1h2m-2 1h2m-4 3h2m-2 1h2"/><path stroke="#c1f567" d="M10 16h2m2 0h2m-6 1h2m2 0h2"/><path stroke="#e84444" d="M12 16h2m-2 1h2m2 3h2m-2 1h2M4 22h2m-2 1h2"/><path stroke="#8b1842" d="M8 18h2m4 0h2m-8 1h2m4 0h2m-6 9h2m2 0h2m-6 1h2m2 0h2"/><path stroke="#ac162d" d="M10 18h4m-4 1h4m0 1h2m-2 1h2m2 3h2m-2 1h2m-6 5h2m-2 1h2"/><path stroke="#d31212" d="M8 20h2m-2 1h2m8 1h2m-2 1h2M4 24h2m-2 1h2m2 5h2m-2 1h2"/><path stroke="#6d1d51" d="M10 20h4m-4 1h4"/><path stroke="#c4c4c5" d="M8 22h2m4 0h2m-8 1h2m4 0h2m-6 1h4m-4 1h4"/><path stroke="#9b9c9b" d="M10 22h4m-4 1h4m0 1h2m-2 1h2"/><path stroke="#444443" d="M6 24h4m-4 1h4m0 1h2m2 0h2m-6 1h2m2 0h2M6 28h4m-4 1h4"/><path stroke="#888cbc" d="M4 26h2m12 0h2M4 27h2m12 0h2"/><path stroke="#a5a4d0" d="M6 26h2m12 0h2M6 27h2m12 0h2"/><path stroke="#d8ceeb" d="M8 26h2m12 0h2M8 27h2m12 0h2"/><path stroke="#6e6e6e" d="M12 26h2m-2 1h2"/><path stroke="#8f8685" d="M8 32h2m-2 1h2"/><path stroke="#67656d" d="M16 32h2m-2 1h2"/></svg>