<svg xmlns="http://www.w3.org/2000/svg" width="32" height="32" shape-rendering="crispEdges" viewBox="0 -0.5 36 37"><path stroke="#372840" d="M14 3h4m-4 1h4m-6 1h2m4 0h2m-8 1h2m4 0h2M10 7h2m8 0h2m4 0h2M10 8h2m8 0h2m4 0h2M10 9h2m8 0h2m2 0h2m2 0h2m-20 1h2m8 0h2m2 0h2m2 0h2m-20 1h2m2 0h2m2 0h4m2 0h2m2 0h2m-20 1h2m2 0h2m2 0h4m2 0h2m2 0h2m-20 1h2m4 0h2m2 0h2m2 0h2m2 0h2m-20 1h2m4 0h2m2 0h2m2 0h2m2 0h2m-18 1h2m4 0h2m4 0h2m2 0h2m-18 1h2m4 0h2m4 0h2m2 0h2M8 17h4m2 0h4m4 0h2m6 0h2M8 18h4m2 0h4m4 0h2m6 0h2M6 19h2m4 0h2m4 0h2m2 0h10M6 20h2m4 0h2m4 0h2m2 0h10M4 21h2m8 0h2m4 0h2m2 0h2m2 0h2M4 22h2m8 0h2m4 0h2m2 0h2m2 0h2M4 23h2m8 0h4m4 0h6M4 24h2m8 0h4m4 0h6M6 25h2m4 0h4M6 26h2m4 0h4m-8 1h10M8 28h10m-8 1h2m2 0h2m2 0h2m-10 1h2m2 0h2m2 0h2m-10 1h2m2 0h2m2 0h2m-10 1h2m2 0h2m2 0h2m-10 1h2m4 0h2m2 0h2m-12 1h2m4 0h2m2 0h2"/><path stroke="#c6dbde" d="M14 5h4m-4 1h4m-6 1h2m4 0h2m-8 1h2m4 0h2m6 3h2m-2 1h2m-2 1h2m-2 1h2M8 19h4m-4 1h4"/><path stroke="#a7b8c2" d="M14 7h4m-4 1h4m-2 1h2m-2 1h2m-2 1h2m-2 1h2m8 3h2m-2 1h2M6 21h2m4 0h2m-8 1h2m4 0h2"/><path stroke="#728794" d="M12 9h4m2 0h2m-8 1h4m2 0h2m4 7h6m-6 1h6M6 23h2m4 0h2m-8 1h2m4 0h2m-6 1h4m-4 1h4"/><path stroke="#dfeded" d="M26 9h2m-2 1h2"/><path stroke="#c7b198" d="M12 11h2m-2 1h2m0 1h2m2 0h2m-6 1h2m2 0h2m-6 5h2m-2 1h2m-4 11h2m-2 1h2m-2 1h2m-2 1h2"/><path stroke="#997d76" d="M12 13h2m-2 1h2m0 1h4m-4 1h4m-2 5h2m-2 1h2m-6 7h2m-2 1h2m0 3h2m-2 1h2"/><path stroke="#dfd3c3" d="M16 19h2m-2 1h2"/><path stroke="#b3785d" d="M8 21h2m-2 1h2m0 1h2m-2 1h2"/><path stroke="#9c4f41" d="M10 21h2m-2 1h2m-4 1h2m-2 1h2"/><path stroke="#57404e" d="M18 21h2m6 0h2m-10 1h2m6 0h2m-12 7h2m-2 1h2m-2 1h2m-2 1h2m0 1h2m-2 1h2"/></svg>