<svg xmlns="http://www.w3.org/2000/svg" width="32" height="32" shape-rendering="crispEdges" viewBox="0 -0.5 18 18"><path stroke="#1a1c26" d="M7 3h4M5 4h2m4 0h2M4 5h1m8 0h1M4 6h1m8 0h1M5 7h1m6 0h2M4 8h1m9 0h1M3 9h1m10 0h1M3 10h1m8 0h2M4 11h1m6 0h1m-7 1h1m5 0h1m-7 1h1m5 0h1m-1 1h1m-7 1h1m2 0h1m2 0h1m-7 1h1m1 0h1m1 0h1m2 0h1"/><path stroke="#e17676" d="M7 4h4M5 5h2m4 0h2M5 8h1m7 0h1M4 9h1m1 1h1"/><path stroke="#c3435c" d="M7 5h4M9 6h1M9 7h2m0 1h2m-9 2h2"/><path stroke="#a41057" d="M5 6h1m1 0h1m4 0h1M8 7h1m4 2h1m-8 2h1"/><path stroke="#810b0b" d="M6 6h1m4 0h1M7 7h1M7 8h1M5 9h1m2 0h2m1 0h2m-3 1h1m-6 1h1m2 0h3"/><path stroke="#f1c256" d="M8 6h1m1 0h1"/><path stroke="#3c133b" d="M6 7h1M6 8h1m3 0h1M7 9h1m2 0h1m-3 1h2"/><path stroke="#4c0717" d="M11 7h1M8 8h2M6 9h1m0 1h1m3 0h1m-5 1h1m-2 1h1"/><path stroke="#617077" d="M7 12h1m1 0h1"/><path stroke="#99a5a7" d="M8 12h1"/><path stroke="#3c4851" d="M10 12h1"/><path stroke="#402830" d="M6 13h1m3 0h1"/><path stroke="#5e423c" d="M7 13h3m-4 1h1m1 0h1m1 0h1m-4 1h1m1 0h1m0 1h1"/><path stroke="#24131d" d="M5 14h1"/><path stroke="#806352" d="M7 14h1m1 0h1m-4 1h1m3 0h1"/><path stroke="#a19477" d="M6 16h1m4 0h1"/></svg>