<svg xmlns="http://www.w3.org/2000/svg" width="32" height="32" shape-rendering="crispEdges" viewBox="0 -0.5 36 37"><path stroke="#12173d" d="M12 11h2m8 0h2m-12 1h2m8 0h2M6 13h2m2 0h2m2 0h8m2 0h2m2 0h2M6 14h2m2 0h2m2 0h8m2 0h2m2 0h2M4 15h2m2 0h2m16 0h2m2 0h2M4 16h2m2 0h2m16 0h2m2 0h2M4 17h2m24 0h2M4 18h2m24 0h2M4 19h2m24 0h2M4 20h2m24 0h2M4 21h2m24 0h2M4 22h2m24 0h2M6 23h2m20 0h2M6 24h2m20 0h2M8 25h2m16 0h2M8 26h2m16 0h2m-18 1h2m14 0h2m-18 1h2m14 0h2M8 29h2m2 0h2m10 0h2M8 30h2m2 0h2m10 0h2M6 31h2m2 0h4m8 0h2M6 32h2m2 0h4m8 0h2M8 33h2m2 0h2m4 0h2m4 0h2M8 34h2m2 0h2m4 0h2m4 0h2"/><path stroke="#cdc599" d="M12 13h2m8 0h2m-12 1h2m8 0h2m-6 13h2m-2 1h2m-4 5h2m4 0h2m-8 1h2m4 0h2"/><path stroke="#eba26d" d="M6 15h2m6 0h8m6 0h2M6 16h2m6 0h8m6 0h2M8 17h4m6 0h2m4 0h4M8 18h4m6 0h2m4 0h4m-10 1h6m-6 1h6M8 31h2m-2 1h2"/><path stroke="#0a2a33" d="M10 15h2m12 0h2m-16 1h2m12 0h2m-14 1h2m8 0h2m-12 1h2m8 0h2m-12 1h2m10 0h2m-14 1h2m10 0h2m-12 1h2m8 0h2m-12 1h2m8 0h2m-12 1h2m2 0h6m-10 1h2m2 0h6m-12 1h2m10 0h2m-14 1h2m10 0h2m-14 1h2m-2 1h2m8 1h2m-2 1h2m-8 1h2m-2 1h2"/><path stroke="#988f64" d="M12 15h2m8 0h2m-12 1h2m8 0h2m-6 9h2m-2 1h2m-2 3h2m-2 1h2"/><path stroke="#cc6c42" d="M6 17h2m6 0h2m12 0h2M6 18h2m6 0h2m12 0h2M6 19h2m6 0h4m10 0h2M6 20h2m6 0h4m10 0h2M6 21h2m8 0h2m2 0h2m6 0h2M6 22h2m8 0h2m2 0h2m6 0h2M8 23h2m6 0h2m8 0h2M8 24h2m6 0h2m8 0h2m-18 1h2m2 0h2m6 0h2m-14 1h2m2 0h2m6 0h2m-10 1h4m4 0h4m-12 1h4m4 0h4m-16 5h2m-2 1h2"/><path stroke="#afd370" d="M16 17h2m2 0h2m-6 1h2m2 0h2"/><path stroke="#8c3d2e" d="M8 19h4m14 0h2M8 20h4m14 0h2M8 21h2m8 0h2m2 0h2M8 22h2m8 0h2m2 0h2"/><path stroke="#723352" d="M10 21h4m12 0h2m-18 1h4m12 0h2m-18 1h4m10 0h2m-16 1h4m10 0h2"/><path stroke="#5c5d41" d="M16 25h2m2 0h2m-6 1h2m2 0h2m-2 1h2m-2 1h2m-6 1h2m2 0h2m-6 1h2m2 0h2m-4 1h2m-2 1h2"/><path stroke="#895654" d="M14 29h2m-2 1h2m-2 1h2m4 0h2m-8 1h2m4 0h2m-8 1h2m4 0h2m-8 1h2m4 0h2"/></svg>