<svg xmlns="http://www.w3.org/2000/svg" width="32" height="32" shape-rendering="crispEdges" viewBox="0 -0.5 36 37"><path stroke="#12173d" d="M6 5h2m4 0h2m8 0h2m4 0h2M6 6h2m4 0h2m8 0h2m4 0h2M4 7h2m2 0h4m2 0h8m2 0h4m2 0h2M4 8h2m2 0h4m2 0h8m2 0h4m2 0h2M2 9h2m28 0h2M2 10h2m28 0h2M2 11h2m28 0h2M2 12h2m28 0h2M2 13h2m28 0h2M2 14h2m28 0h2M2 15h2m28 0h2M2 16h2m28 0h2M2 17h2m28 0h2M2 18h2m28 0h2M2 19h2m28 0h2M2 20h2m28 0h2M2 21h2m28 0h2M2 22h2m28 0h2M2 23h2m28 0h2M2 24h2m28 0h2M4 25h2m2 0h2m16 0h2m2 0h2M4 26h2m2 0h2m16 0h2m2 0h2M6 27h2m20 0h2M6 28h2m20 0h2M6 29h2m20 0h2M6 30h2m20 0h2M6 31h2m20 0h2M6 32h2m20 0h2M4 33h2m2 0h2m6 0h4m6 0h2m2 0h2M4 34h2m2 0h2m6 0h4m6 0h2m2 0h2"/><path stroke="#ffd3ad" d="M6 7h2m20 0h2M6 8h2m20 0h2M4 9h2m2 0h2m6 0h4m6 0h2m2 0h2M4 10h2m2 0h2m6 0h4m6 0h2m2 0h2M4 11h2m8 0h8m8 0h2M4 12h2m8 0h8m8 0h2M4 13h2m12 0h2m10 0h2M4 14h2m12 0h2m10 0h2M4 15h2m12 0h6m6 0h2M4 16h2m12 0h6m6 0h2M4 17h2m24 0h2M4 18h2m24 0h2M4 19h2m24 0h2M4 20h2m24 0h2M4 21h2m24 0h2M4 22h2m24 0h2M4 23h2m24 0h2M4 24h2m24 0h2"/><path stroke="#ffccd0" d="M12 7h2m8 0h2M12 8h2m8 0h2"/><path stroke="#f19319" d="M6 9h2m20 0h2M6 10h2m20 0h2M6 11h2m20 0h2M6 12h2m20 0h2M6 13h2m6 0h2m12 0h2M6 14h2m6 0h2m12 0h2M6 15h2m8 0h2m10 0h2M6 16h2m8 0h2m10 0h2M6 17h2m4 0h2m6 0h2m6 0h2M6 18h2m4 0h2m6 0h2m6 0h2M6 19h2m4 0h2m14 0h2M6 20h2m4 0h2m14 0h2M6 21h2m4 0h2m14 0h2M6 22h2m4 0h2m14 0h2M6 23h2m4 0h2m14 0h2M6 24h2m4 0h2m14 0h2M6 25h2m4 0h2m8 0h2m4 0h2M6 26h2m4 0h2m8 0h2m4 0h2M8 27h2m2 0h2m8 0h2m2 0h2M8 28h2m2 0h2m8 0h2m2 0h2m-16 1h2m8 0h2m-12 1h2m8 0h2m-12 1h2m8 0h2m-12 1h2m8 0h2m-12 1h2m8 0h2m-12 1h2m8 0h2"/><path stroke="#163755" d="M10 9h2m12 0h2m-16 1h2m12 0h2m-16 1h2m12 0h2m-16 1h2m12 0h2m-14 1h2m8 0h2m-12 1h2m8 0h2m-12 1h2m10 0h2m-14 1h2m10 0h2m-16 1h2m2 0h2m8 0h2m-16 1h2m2 0h2m8 0h2m-16 1h2m4 0h2m6 0h2m-16 1h2m4 0h2m6 0h2m-16 1h2m6 0h8m-16 1h2m6 0h8m-16 1h2m12 0h2m-16 1h2m12 0h2m-16 1h2m12 0h2m-16 1h2m12 0h2m-16 1h2m12 0h2m-16 1h2m12 0h2m-16 1h2m12 0h2m-16 1h2m12 0h2m-16 1h2m12 0h2m-16 1h2m12 0h2"/><path stroke="#f29faa" d="M12 9h4m4 0h4m-12 1h4m4 0h4"/><path stroke="#c35f1d" d="M8 11h2m16 0h2M8 12h2m16 0h2M8 13h2m16 0h2M8 14h2m16 0h2M8 15h2m4 0h2m10 0h2M8 16h2m4 0h2m10 0h2M8 17h2m6 0h2m8 0h2M8 18h2m6 0h2m8 0h2M8 19h2m4 0h2m2 0h6m2 0h2M8 20h2m4 0h2m2 0h6m2 0h2M8 21h2m4 0h2m10 0h2M8 22h2m4 0h2m10 0h2M8 23h2m4 0h2m6 0h2m2 0h2M8 24h2m4 0h2m6 0h2m2 0h2m-14 1h2m4 0h2m-8 1h2m4 0h2m-8 1h2m4 0h2m-8 1h2m4 0h2M8 29h2m4 0h2m4 0h2m4 0h2M8 30h2m4 0h2m4 0h2m4 0h2"/><path stroke="#c37289" d="M12 11h2m8 0h2m-12 1h2m8 0h2"/><path stroke="#893a1b" d="M10 13h2m12 0h2m-16 1h2m12 0h2m-16 1h2m-2 1h2m8 7h2m-2 1h2M8 31h2m16 0h2M8 32h2m16 0h2"/><path stroke="#42bc7f" d="M16 13h2m2 0h2m-6 1h2m2 0h2"/><path stroke="#3f1f3c" d="M18 17h2m2 0h2m-6 1h2m2 0h2M14 31h2m4 0h2m-8 1h2m4 0h2"/><path stroke="#3b768f" d="M16 21h2m-2 1h2m-2 3h4m-4 1h4m-4 3h4m-4 1h4"/><path stroke="#53a1ad" d="M16 23h4m-4 1h4m-4 3h4m-4 1h4m-4 3h4m-4 1h4"/><path stroke="#c1d9f2" d="M6 33h2m20 0h2M6 34h2m20 0h2"/><path stroke="#fff" d="M10 33h2m2 0h2m4 0h2m2 0h2m-16 1h2m2 0h2m4 0h2m2 0h2"/></svg>