<svg xmlns="http://www.w3.org/2000/svg" width="32" height="32" shape-rendering="crispEdges" viewBox="0 -0.5 36 37"><path stroke="#372840" d="M14 4h8m-8 1h8M12 6h2m8 0h2M12 7h2m8 0h2M12 8h2m8 0h2M12 9h2m8 0h2m-12 1h2m8 0h2m-12 1h2m8 0h2m-12 1h2m8 0h2m-12 1h2m8 0h2m-12 1h2m8 0h2m-12 1h2m8 0h2m-14 1h4m8 0h4m-16 1h4m8 0h4M8 18h2m6 0h6m4 0h2M8 19h2m6 0h6m4 0h2M8 20h2m16 0h2M8 21h2m16 0h2M8 22h2m16 0h2M8 23h2m16 0h2M8 24h2m16 0h2M8 25h2m16 0h2m-18 1h16m-16 1h16m-14 1h2m8 0h2m-12 1h2m8 0h2m-12 1h2m4 0h2m2 0h2m-12 1h2m4 0h2m2 0h2m-12 1h2m4 0h2m2 0h2m-12 1h2m4 0h2m2 0h2m-12 1h2m6 0h2m2 0h2m-14 1h2m6 0h2m2 0h2"/><path stroke="#f0ece2" d="M14 6h6m-6 1h6m-6 1h2m-2 1h2m-6 9h4m-4 1h4"/><path stroke="#dfd3c3" d="M20 6h2m-2 1h2m-6 1h4m-4 1h4m-6 3h4m-4 1h4m-4 5h2m-2 1h2m-6 1h2m4 0h4m-10 1h2m4 0h4m-10 1h2m-2 1h2m0 1h2m-2 1h2m0 7h4m-4 1h4m0 1h2m-2 1h2"/><path stroke="#c7b198" d="M20 8h2m-2 1h2m-8 1h6m-6 1h6m-2 1h4m-4 1h4m-8 1h2m-2 1h2m0 1h2m-2 1h2m4 1h4m-4 1h4m-12 1h2m4 0h2m2 0h2m-12 1h2m4 0h2m2 0h2m-14 1h2m10 0h2m-14 1h2m10 0h2m-16 1h2m2 0h4m2 0h4m-14 1h2m2 0h4m2 0h4m-10 5h4m-4 1h4m2 1h2m-2 1h2m-8 1h4m4 0h2m-10 1h4m4 0h2"/><path stroke="#997d76" d="M20 10h2m-2 1h2m-2 3h2m-2 1h2m-4 1h2m-2 1h2m2 5h2m-2 1h2m-6 1h2m4 0h2m-8 1h2m4 0h2m-12 3h4m2 0h2m-8 1h4m2 0h2m-2 1h2m-2 1h2"/><path stroke="#57404e" d="M16 14h4m-4 1h4m-6 1h2m4 0h2m-8 1h2m4 0h2m-10 3h2m8 0h2m-12 1h2m8 0h2m-10 1h8m-8 1h8m-4 5h2m-2 1h2"/></svg>