<svg xmlns="http://www.w3.org/2000/svg" width="64" height="64" shape-rendering="crispEdges" viewBox="0 -0.5 32 32"><path stroke="#141013" d="M10 1h15M8 2h2m15 0h3M7 3h1m20 0h1M6 4h1m22 0h1M5 5h1m24 0h1M4 6h1m24 0h1M3 7h1m26 0h1M3 8h1m25 0h1M2 9h1m27 0h1M2 10h1m25 0h2M1 11h1m27 0h1M1 12h1m11 0h2m13 0h1M1 13h1m10 0h1m2 0h2m11 0h1M1 14h1m9 0h1m5 0h2m8 0h1M1 15h1m8 0h1m8 0h2m6 0h1M1 16h1m8 0h1m5 0h1m4 0h1m3 0h2M1 17h1m8 0h1m4 0h1m1 0h1m4 0h3M1 18h1m8 0h1m4 0h1m1 0h1M1 19h1m8 0h1m4 0h1m1 0h1M2 20h1m7 0h1m4 0h2m1 0h2M2 21h1m8 0h1m3 0h1m4 0h9M3 22h1m8 0h1m3 0h1m12 0h1M3 23h1m9 0h1m3 0h1m12 0h1M4 24h1m9 0h1m3 0h1m11 0h1M4 25h1m10 0h3m12 0h1M5 26h1m23 0h1M6 27h1m22 0h1M7 28h1m20 0h1M8 29h1m17 0h2M9 30h2m12 0h3m-15 1h12"/><path stroke="#fad6b8" d="M10 2h4m3 0h6M9 3h2M5 6h1M4 7h1M4 8h1"/><path stroke="#f5a097" d="M14 2h1m8 0h1M8 3h1m2 0h2m3 0h5M8 4h4m5 0h2M6 5h1m3 0h1M6 6h1M5 7h1M5 8h1M3 9h2m-1 1h1"/><path stroke="#e86a73" d="M15 2h1m-4 2h1m2 0h2m2 0h1m6 0h1M8 5h2m1 0h1m2 0h5m5 0h1m2 0h1M8 6h4m2 0h4M6 7h1m1 0h2m5 0h2m6 0h1m3 0h1M6 8h1m1 0h1M5 9h2m15 0h1m4 0h1M5 10h2m-3 1h2m15 0h1m4 0h1M4 12h2m21 0h1M4 13h2m15 0h1m3 0h1M5 14h1m-2 1h1m16 0h1m2 0h1M4 16h2m-2 1h2m-2 1h2m-2 2h2m11 0h1M5 21h2m12 0h1M6 22h1m14 0h1m1 0h2m1 0h1M6 23h2m0 1h1m18 0h1M8 25h2m-1 1h3m14 0h1m-15 1h3m1 0h4m1 0h3m1 0h1"/><path stroke="#242234" d="M16 2h1"/><path stroke="#403353" d="M24 2h1M15 3h1m7 0h1M7 4h1m6 0h1m7 0h1M7 5h1m5 0h1m7 0h1M7 6h1m5 0h1m7 0h1M7 7h1m5 0h1m6 0h1M7 8h1m5 0h1m6 0h1M7 9h1m5 0h1m5 0h1M8 10h1m4 0h1m5 0h1M9 11h1m2 0h3m3 0h1M9 12h4m2 0h2m1 0h1M2 13h1m7 0h2m5 0h2M3 14h2m4 0h2m-6 1h5m-1 1h1m-1 1h1m-2 1h2m-8 1h8m-1 1h1m0 1h1m7 0h1m-9 1h2m5 0h1m2 0h1m1 0h1m2 0h1M4 23h1m3 0h2m2 0h1m6 0h1m2 0h1m1 0h1m1 0h3M5 24h3m5 0h1m5 0h1m2 0h1m1 0h2m3 0h1M5 25h1m7 0h2m3 0h7m1 0h2m1 0h1M6 26h1m5 0h1m3 0h1m3 0h1m2 0h1m4 0h1M7 27h1m3 0h1m3 0h1m4 0h1m3 0h1m2 0h2M8 28h1m1 0h1m4 0h1m4 0h1m3 0h1m1 0h2M9 29h2m4 0h1m4 0h1m3 0h2m-15 1h12"/><path stroke="#bc4a9b" d="M13 3h2m6 0h1m-2 1h1m-2 1h1m-2 1h1m-9 1h2m2 0h1m2 0h2M9 8h3m2 0h4M9 9h2m3 0h4M3 10h1m3 0h1m7 0h2M2 11h2m2 0h2m-5 1h1m2 0h1m-4 1h1m2 0h1m-1 1h1m-4 1h1m-1 1h1m2 0h1m-4 1h1m2 0h1m-4 1h1m2 0h1m-1 2h1m-3 1h1m2 0h1m9 0h1M5 22h1m1 0h2m9 0h1m8 0h1m-8 1h2m1 0h1M9 24h2m15 0h1m1 0h1M7 25h1m2 0h3m-5 1h1m4 0h3m1 0h3m1 0h2m1 0h2M9 27h2m15 0h1m-16 1h4m1 0h4m1 0h3"/><path stroke="#793a80" d="M22 3h1M13 4h1m7 0h1M12 5h1m7 0h1m-9 1h1m6 0h2m-9 1h1m6 0h1m-8 1h1m5 0h2M8 9h1m2 0h2m5 0h1M9 10h4m1 0h1m2 0h2M8 11h1m1 0h2m3 0h3M2 12h1m4 0h2m8 0h1M7 13h3m-8 1h1m4 0h2m-7 1h1m-1 1h1m4 0h2m-7 1h1m4 0h2m-7 1h1m4 0h1m-5 2h1m3 0h2m-6 1h1m4 0h2m6 0h1M4 22h1m4 0h1m9 0h1m8 0h1M5 23h1m4 0h2m6 0h1m6 0h1m3 0h1m-19 1h2m7 0h2m1 0h1M6 25h1m18 0h1m2 0h1M7 26h1m19 0h1M8 27h1m0 1h1m15 0h1m-15 1h4m1 0h4m1 0h3"/><path stroke="#73172d" d="M24 3h2m-3 1h1m-2 1h1m-1 1h1m2 0h1m1 0h1m-7 1h1m-1 1h1m2 0h1m1 0h1m-7 1h2m4 0h1m-7 1h1m2 0h1m-5 1h1m5 0h1m-7 1h1m2 0h1m2 0h1m-7 1h1m4 0h1m-6 1h1m2 0h1m1 0h1m-3 2h1"/><path stroke="#b4202a" d="M26 3h2m-4 1h2m-3 1h1m-1 1h2m3 0h1m-7 1h1m-1 1h2m3 0h2m-8 2h2m3 0h2m-8 1h1m-1 1h2m4 0h1m-7 1h1m-1 1h2m3 0h2"/><path stroke="#fef3c0" d="M27 4h1m-3 1h1m2 0h1m-5 2h1m3 0h1m-6 2h1m4 0h1"/><path stroke="#fff" d="M28 4h1m-3 1h1m2 0h1m-5 2h1m3 0h1m-6 2h1m4 0h1m-7 2h1m4 0h1m-6 2h1m3 0h1m-5 2h1m2 0h1m-3 1h1m-9 1h1"/><path stroke="#3b1725" d="M26 6h1m-1 1h1m-2 1h1m-1 1h1m-2 1h2m-2 1h1m-2 1h2m-2 2h1"/><path stroke="#e4d2aa" d="M22 11h1m4 0h1m-6 2h1m3 0h1m-5 2h1m2 0h1m-3 1h1m-8 2h1"/><path stroke="#c7b08b" d="M16 19h1"/></svg>