<svg xmlns="http://www.w3.org/2000/svg" width="32" height="32" shape-rendering="crispEdges" viewBox="0 -0.5 36 37"><path stroke="#12173d" d="M4 7h2m24 0h2M4 8h2m24 0h2M2 9h2m2 0h6m12 0h6m2 0h2M2 10h2m2 0h6m12 0h6m2 0h2M2 11h2m8 0h2m8 0h2m8 0h2M2 12h2m8 0h2m8 0h2m8 0h2M2 13h2m10 0h2m4 0h2m10 0h2M2 14h2m10 0h2m4 0h2m10 0h2M2 15h2m12 0h4m12 0h2M2 16h2m12 0h4m12 0h2M2 17h2m28 0h2M2 18h2m28 0h2M2 19h2m28 0h2M2 20h2m28 0h2M2 21h2m28 0h2M2 22h2m28 0h2M2 23h2m28 0h2M2 24h2m28 0h2M2 25h2m2 0h2m22 0h4M2 26h2m2 0h2m22 0h4M4 27h2m2 0h2m18 0h2m2 0h2M4 28h2m2 0h2m18 0h2m2 0h2M8 29h2m20 0h2M8 30h2m20 0h2M6 31h2m24 0h2M6 32h2m24 0h2M6 33h2m8 0h4m8 0h2m2 0h2M6 34h2m8 0h4m8 0h2m2 0h2"/><path stroke="#f29faa" d="M4 9h2m24 0h2M4 10h2m24 0h2M6 11h6m12 0h6M6 12h6m12 0h6M4 13h2m-2 1h2m-2 1h2m-2 1h2m-2 1h2m8 0h8M4 18h2m8 0h8M4 19h2m12 0h2M4 20h2m12 0h2M4 21h2m12 0h6M4 22h2m12 0h6M4 23h2m-2 1h2m-2 1h2m-2 1h2m4 7h2m2 0h2m4 0h2m2 0h2m-16 1h2m2 0h2m4 0h2m2 0h2"/><path stroke="#c37289" d="M4 11h2m-2 1h2m0 1h2m22 0h2M6 14h2m22 0h2m-2 1h2m-2 1h2M6 17h2m22 0h2M6 18h2m22 0h2M6 19h2m6 0h2m14 0h2M6 20h2m6 0h2m14 0h2M6 21h2m8 0h2m12 0h2M6 22h2m8 0h2m12 0h2M6 23h2m4 0h2m6 0h2m8 0h2M6 24h2m4 0h2m6 0h2m8 0h2m-20 1h2m-2 1h2m-2 1h2m-2 1h2m-2 1h2m14 0h2m-18 1h2m14 0h2m-18 1h2m8 0h2m6 0h2m-20 1h2m8 0h2m6 0h2"/><path stroke="#994c69" d="M30 11h2m-2 1h2m-4 1h2m-2 1h2m-2 3h2m-2 1h2M8 19h2m18 0h2M8 20h2m18 0h2M8 21h2m4 0h2m12 0h2M8 22h2m4 0h2m12 0h2M8 23h2m6 0h2m10 0h2M8 24h2m6 0h2m10 0h2m-12 1h6m-6 1h6m-10 1h2m-2 1h2m-2 1h2m6 0h2m-10 1h2m6 0h2M8 31h2m4 0h2m4 0h2m4 0h2M8 32h2m4 0h2m4 0h2m4 0h2m-16 1h2m8 0h2m6 0h2m-20 1h2m8 0h2m6 0h2"/><path stroke="#3f1f3c" d="M8 13h6m8 0h6M8 14h6m8 0h6M6 15h2m20 0h2M6 16h2m20 0h2M8 17h2m16 0h2M8 18h2m16 0h2m-18 1h4m8 0h4m-16 1h4m8 0h4m-14 1h2m10 0h2m-14 1h2m10 0h2m-12 1h2m8 0h2m-12 1h2m8 0h2M8 25h4m4 0h2m6 0h6M8 26h4m4 0h2m6 0h6m-12 1h6m2 0h2m-10 1h6m2 0h2m-2 1h2m-2 1h2m-18 1h2m12 0h2m2 0h2m-20 1h2m12 0h2m2 0h2"/><path stroke="#cc817a" d="M8 15h8m4 0h8M8 16h8m4 0h8M16 27h2m-2 1h2"/><path stroke="#895654" d="M10 17h4m8 0h4m-16 1h4m8 0h4M16 31h4m-4 1h4"/><path stroke="#f9c22b" d="M16 19h2m2 0h2m-6 1h2m2 0h2"/><path stroke="#723352" d="M26 19h2m-2 1h2m-18 1h2m14 0h2m-18 1h2m14 0h2m-18 1h2m6 0h2m2 0h2m2 0h2m-18 1h2m6 0h2m2 0h2m2 0h2m-14 1h2m-2 1h2m-6 1h2m12 0h2m-16 1h2m12 0h2m-16 1h2m8 0h2m2 0h2m-16 1h2m8 0h2m2 0h2M8 33h2m16 0h2M8 34h2m16 0h2"/><path stroke="#ffaa6e" d="M16 29h4m-4 1h4"/></svg>