<svg xmlns="http://www.w3.org/2000/svg" width="32" height="32" shape-rendering="crispEdges" viewBox="0 -0.5 36 37"><path stroke="#12173d" d="M4 7h2m4 0h4m4 0h4m2 0h4m2 0h2M4 8h2m4 0h4m4 0h4m2 0h4m2 0h2M2 9h2m2 0h4m4 0h4m4 0h2m4 0h2m2 0h2M2 10h2m2 0h4m4 0h4m4 0h2m4 0h2m2 0h2M2 11h2m28 0h2M2 12h2m28 0h2M2 13h2m28 0h2M2 14h2m28 0h2M2 15h2m28 0h2M2 16h2m28 0h2M2 17h2m28 0h2M2 18h2m28 0h2M2 19h2m28 0h2M2 20h2m28 0h2M2 21h2m2 0h4m18 0h4M2 22h2m2 0h4m18 0h4M4 23h2m2 0h2m18 0h2M4 24h2m2 0h2m18 0h2M8 25h2m16 0h2M8 26h2m16 0h2M6 27h2m18 0h2M6 28h2m18 0h2M4 29h2m20 0h2M4 30h2m20 0h2M4 31h2m20 0h2M4 32h2m20 0h2M6 33h6m4 0h8m4 0h2M6 34h6m4 0h8m4 0h2"/><path stroke="#f29faa" d="M4 9h2m12 0h4M4 10h2m12 0h4M6 11h4m4 0h10M6 12h4m4 0h10M4 13h2m14 0h2M4 14h2m14 0h2M4 15h2m14 0h6M4 16h2m14 0h6M4 17h2m-2 1h2m-2 1h2m-2 1h2m-2 1h2m-2 1h2"/><path stroke="#cc817a" d="M10 9h4m10 0h4m-18 1h4m10 0h4M18 23h4m-4 1h4m-4 3h4m-4 1h4m-8 5h2m10 0h2m-14 1h2m10 0h2"/><path stroke="#c37289" d="M30 9h2m-2 1h2M4 11h2m22 0h2M4 12h2m22 0h2M6 13h4m6 0h2m12 0h2M6 14h4m6 0h2m12 0h2M6 15h2m10 0h2m10 0h2M6 16h2m10 0h2m10 0h2M6 17h2m14 0h2m6 0h2M6 18h2m14 0h2m6 0h2M6 19h2m6 0h2m14 0h2M6 20h2m6 0h2m14 0h2m-20 1h2m10 0h2m-14 1h2m10 0h2m-16 1h2m14 0h2m-18 1h2m14 0h2M8 27h2m2 0h2m10 0h2M8 28h2m2 0h2m10 0h2"/><path stroke="#3f1f3c" d="M10 11h2m14 0h2m-18 1h2m14 0h2m-16 1h2m10 0h2m-14 1h2m10 0h2m-12 1h2m10 0h2m-14 1h2m10 0h2m-14 1h4m8 0h2m-14 1h4m8 0h2m-16 1h2m4 0h8m-14 1h2m4 0h8m-16 1h2m14 0h2m-18 1h2m14 0h2m-16 1h2m10 0h2m-14 1h2m10 0h2m-16 1h2m-2 1h2m-2 1h2m-2 1h2m-4 1h4m-4 1h4m-2 1h2m2 0h2m6 0h2m-14 1h2m2 0h2m6 0h2"/><path stroke="#895654" d="M12 11h2m10 0h2m-14 1h2m10 0h2m-8 19h4m-4 1h4"/><path stroke="#994c69" d="M30 11h2m-2 1h2m-22 1h2m2 0h2m12 0h2m-20 1h2m2 0h2m12 0h2M8 15h4m4 0h2m10 0h2M8 16h4m4 0h2m10 0h2M8 17h2m8 0h2m8 0h2M8 18h2m8 0h2m8 0h2M8 19h2m6 0h2m10 0h2M8 20h2m6 0h2m10 0h2m-16 1h2m6 0h2m-10 1h2m6 0h2m-8 1h2m-2 1h2m-2 1h2m4 0h2m-8 1h2m4 0h2m-8 1h2m-2 1h2M6 29h2m4 0h2m2 0h2m6 0h2M6 30h2m4 0h2m2 0h2m6 0h2M8 31h2m-2 1h2"/><path stroke="#f9c22b" d="M18 13h2m2 0h2m-6 1h2m2 0h2"/><path stroke="#723352" d="M26 13h2m-2 1h2m-16 1h2m-2 1h2m-4 1h4m6 0h2m2 0h2m-16 1h4m6 0h2m2 0h2m-16 1h2m14 0h2m-18 1h2m14 0h2m-12 1h2m-2 1h2m-4 1h2m6 0h2m-10 1h2m6 0h2m-12 1h4m8 0h2m-14 1h4m8 0h2m-12 1h2m6 0h2m-10 1h2m6 0h2m-10 1h2m6 0h2m-10 1h2m6 0h2M6 31h2m4 0h2m2 0h2m6 0h2M6 32h2m4 0h2m2 0h2m6 0h2m-14 1h2m10 0h2m-14 1h2m10 0h2"/><path stroke="#ffaa6e" d="M18 21h4m-4 1h4m-4 3h4m-4 1h4m-4 3h4m-4 1h4"/></svg>