<svg xmlns="http://www.w3.org/2000/svg" width="32" height="32" shape-rendering="crispEdges" viewBox="0 -0.5 36 37"><path stroke="#372840" d="M16 20h8m-8 1h8m-10 1h4m6 0h2m-12 1h4m6 0h2m-14 1h4m8 0h4m-16 1h4m8 0h4m-18 1h2m2 0h2m8 0h2m2 0h2m-20 1h2m2 0h2m8 0h2m2 0h2M6 28h4m4 0h2m8 0h2m4 0h2M6 29h4m4 0h2m8 0h2m4 0h2M4 30h2m2 0h2m2 0h6m4 0h6m4 0h2M4 31h2m2 0h2m2 0h6m4 0h6m4 0h2M2 32h2m4 0h2m8 0h6m2 0h4m2 0h2M2 33h2m4 0h2m8 0h6m2 0h4m2 0h2"/><path stroke="#bf2651" d="M18 22h4m-4 1h4m-4 1h2m-2 1h2m6 1h2m-2 1h2M6 30h2m-2 1h2m-4 1h2m-2 1h2"/><path stroke="#b5e0ba" d="M22 22h2m-2 1h2m-8 1h2m-2 1h2"/><path stroke="#78b392" d="M20 24h4m-4 1h4m-4 1h2m-2 1h2"/><path stroke="#997d76" d="M12 26h2m-2 1h2m-4 1h2m16 0h2m-20 1h2m16 0h2m-20 1h2m18 0h2m-22 1h2m18 0h2"/><path stroke="#4c8f82" d="M16 26h2m-2 1h2m0 1h6m-6 1h6m-8 3h2m12 0h2m-16 1h2m12 0h2"/><path stroke="#3d3957" d="M18 26h2m2 0h2m-6 1h2m2 0h2"/><path stroke="#57404e" d="M12 28h2m-2 1h2m14 1h2m-2 1h2m-20 1h6m-6 1h6"/><path stroke="#524a63" d="M16 28h2m-2 1h2m0 1h4m-4 1h4"/><path stroke="#911d55" d="M26 28h2m-2 1h2M6 32h2m-2 1h2"/></svg>