<svg xmlns="http://www.w3.org/2000/svg" width="32" height="32" shape-rendering="crispEdges" viewBox="0 -0.5 36 36"><path stroke="#1c0b21" d="M14 2h6m-6 1h6m-8 1h2m6 0h2M12 5h2m6 0h2M10 6h2m10 0h2M10 7h2m10 0h2M6 8h4m12 0h2M6 9h4m12 0h2M4 10h2m18 0h2M4 11h2m18 0h2M2 12h2m22 0h2M2 13h2m22 0h2M2 14h2m24 0h2M2 15h2m24 0h2M0 16h2m26 0h2M0 17h2m26 0h2M0 18h2m26 0h2M0 19h2m26 0h2M0 20h2m26 0h2M0 21h2m26 0h2M2 22h2m24 0h2M2 23h2m24 0h2M2 24h2m24 0h2M2 25h2m24 0h2M4 26h4m14 0h6M4 27h4m14 0h6M8 28h2m12 0h2M8 29h2m12 0h2M8 30h2m12 0h2M8 31h2m12 0h2M8 32h2m14 0h2M8 33h2m14 0h2"/><path stroke="#dfae65" d="M14 4h6m-6 1h6m-8 1h2m6 0h2M12 7h2m6 0h2M6 10h4m-4 1h4m-6 1h2m18 0h2M4 13h2m18 0h2"/><path stroke="#be8f44" d="M14 6h2m-2 1h2m-4 1h2m6 0h2M12 9h2m6 0h2m-12 1h2m-2 1h2m-6 1h2m2 0h2m-6 1h2m2 0h2"/><path stroke="#947e31" d="M16 6h4m-4 1h4m-6 1h2m-2 1h2m-4 1h2m-2 1h2m-6 1h2m-2 1h2m-2 1h4m-4 1h4m-2 1h2m-2 1h2m-2 1h2m-2 1h2m0 1h2m-2 1h2"/><path stroke="#0a3001" d="M10 8h2m-2 1h2m-4 9h2m-2 1h2m-2 1h2m-2 1h2m-2 1h2m-2 1h2"/><path stroke="#fffeff" d="M16 8h4m-4 1h4m-4 1h2m-2 1h2"/><path stroke="#da827a" d="M14 10h2m-2 1h2m0 1h2m-2 1h2M6 14h2m16 0h2M6 15h2m16 0h2M6 16h2m16 0h2M6 17h2m16 0h2M4 18h2m20 0h2M4 19h2m20 0h2M4 20h2m20 0h2M4 21h2m20 0h2M4 22h2m20 0h2M4 23h2m20 0h2M6 24h2m16 0h2M6 25h2m16 0h2"/><path stroke="#2e9adc" d="M18 10h2m-2 1h2"/><path stroke="#ca614e" d="M20 10h2m-2 1h2M4 16h2m20 0h2M4 17h2m20 0h2M6 18h2m16 0h2M6 19h2m16 0h2M4 24h2m20 0h2M4 25h2m20 0h2"/><path stroke="#331b1a" d="M22 10h2m-2 1h2"/><path stroke="#676920" d="M12 12h2m8 0h2m-12 1h2m8 0h2m-12 1h2m8 0h2m-12 1h2m8 0h2M8 16h2m2 0h2m8 0h2M8 17h2m2 0h2m8 0h2m-12 1h2m8 0h2m-12 1h2m8 0h2m-14 1h2m2 0h2m4 0h4m-14 1h2m2 0h2m4 0h4m-12 1h10m-10 1h10"/><path stroke="#833e11" d="M14 12h2m4 0h2m-8 1h2m4 0h2m-8 1h8m-8 1h8m-6 1h4m-4 1h4m-2 1h2m-2 1h2"/><path stroke="#e09f9d" d="M18 12h2m-2 1h2M4 14h2m20 0h2M4 15h2m20 0h2M2 16h2m-2 1h2m-2 1h2m-2 1h2m-2 1h2m-2 1h2m2 1h2m16 0h2M6 23h2m16 0h2"/><path stroke="#532918" d="M14 16h2m4 0h2m-8 1h2m4 0h2m-8 1h4m2 0h2m-8 1h4m2 0h2m-6 1h4m-4 1h4"/><path stroke="#650c25" d="M6 20h2m16 0h2M6 21h2m16 0h2"/><path stroke="#30626d" d="M10 22h2m10 0h2m-14 1h2m10 0h2"/><path stroke="#041623" d="M8 24h2m-2 1h2m-2 1h2m-2 1h2"/><path stroke="#163d4a" d="M10 24h2m10 0h2m-14 1h2m10 0h2m-12 1h10m-10 1h10"/><path stroke="#4d858d" d="M12 24h2m6 0h2m-10 1h2m6 0h2"/><path stroke="#75a3a8" d="M14 24h2m2 0h2m-6 1h2m2 0h2"/><path stroke="#afc8c8" d="M16 24h2m-2 1h2"/><path stroke="#414040" d="M10 26h2m-2 1h2m-2 1h2m6 0h2m-10 1h2m6 0h2m-10 1h2m6 0h2m-10 1h2m6 0h2m-10 1h4m4 0h4m-12 1h4m4 0h4"/><path stroke="#6f6f6e" d="M12 28h4m4 0h2m-10 1h4m4 0h2m-10 1h4m4 0h2m-10 1h4m4 0h2m-8 1h4m4 0h2m-10 1h4m4 0h2"/><path stroke="#1d1d1c" d="M16 28h2m-2 1h2m-2 1h2m-2 1h2"/></svg>