<svg xmlns="http://www.w3.org/2000/svg" width="32" height="32" shape-rendering="crispEdges" viewBox="0 -0.5 35 36"><path stroke="#1d1d1c" d="M6 16h2m12 0h2M6 17h2m12 0h2M6 18h4m2 0h4m2 0h4M6 19h4m2 0h4m2 0h4M6 20h2m2 0h2m4 0h2m2 0h2M6 21h2m2 0h2m4 0h2m2 0h2M8 22h2m8 0h2M8 23h2m8 0h2M6 24h2m12 0h2M6 25h2m12 0h2M4 26h2m2 0h2m8 0h2m2 0h2M4 27h2m2 0h2m8 0h2m2 0h2M6 28h2m2 0h2m4 0h2m2 0h2M6 29h2m2 0h2m4 0h2m2 0h2m-12 1h2m2 0h4m-8 1h2m2 0h4m-8 1h4m2 0h4m-10 1h4m2 0h4"/><path stroke="#a6557b" d="M8 20h2m-2 1h2"/><path stroke="#a27cb7" d="M12 20h4m-4 1h4m-6 1h2m-2 1h2m-4 1h2m-2 1h2m-4 1h2m-2 1h2"/><path stroke="#834a59" d="M18 20h2m-2 1h2"/><path stroke="#d31212" d="M12 22h2m2 0h2m-6 1h2m2 0h2"/><path stroke="#745888" d="M14 22h2m-2 1h2m-6 1h2m4 0h4m-10 1h2m4 0h4m-8 1h4m4 0h2m-10 1h4m4 0h2"/><path stroke="#3a3346" d="M12 24h4m-4 1h4m-4 5h2m-2 1h2"/><path stroke="#504261" d="M10 26h2m4 0h2m-8 1h2m4 0h2m-6 1h4m-4 1h4"/></svg>