<svg xmlns="http://www.w3.org/2000/svg" width="32" height="32" shape-rendering="crispEdges" viewBox="0 -0.5 34 36"><path stroke="#1d1d1c" d="M14 10h2m4 0h2m-8 1h2m4 0h2m-10 1h2m2 0h4m2 0h2m-12 1h2m2 0h4m2 0h2m-12 1h2m8 0h2m-12 1h2m8 0h2M8 16h2m2 0h2m8 0h2m2 0h2M8 17h2m2 0h2m8 0h2m2 0h2M6 18h2m2 0h2m12 0h2m2 0h2M6 19h2m2 0h2m12 0h2m2 0h2M6 20h2m4 0h2m8 0h2m4 0h2M6 21h2m4 0h2m8 0h2m4 0h2M6 22h2m20 0h2M6 23h2m20 0h2M6 24h2m20 0h2M6 25h2m20 0h2M6 26h2m2 0h2m12 0h2m2 0h2M6 27h2m2 0h2m12 0h2m2 0h2M8 28h2m2 0h2m8 0h2m2 0h2M8 29h2m2 0h2m8 0h2m2 0h2m-16 1h2m4 0h2m2 0h2m-12 1h2m4 0h2m2 0h2m-12 1h2m2 0h2m2 0h2m2 0h2m-14 1h2m2 0h2m2 0h2m2 0h2"/><path stroke="#cc75af" d="M14 12h2m-2 1h2"/><path stroke="#a6557b" d="M20 12h2m-2 1h2"/><path stroke="#834a59" d="M14 14h2m4 0h2m-8 1h2m4 0h2"/><path stroke="#a27cb7" d="M16 14h4m-4 1h4M8 18h2m-2 1h2m4 1h2m-2 1h2m-4 1h2m2 0h4m-8 1h2m2 0h4m-6 5h2m-2 1h2m-2 3h2m-2 1h2"/><path stroke="#745888" d="M14 16h2m2 0h2m-6 1h2m2 0h2m6 1h2m-2 1h2m-18 1h2m8 0h2m2 0h2m-16 1h2m8 0h2m2 0h2m-12 1h2m6 0h2m-10 1h2m6 0h2m-12 1h2m-2 1h2m6 3h2m-2 1h2m0 3h2m-2 1h2"/><path stroke="#e84444" d="M16 16h2m2 0h2m-6 1h2m2 0h2"/><path stroke="#292236" d="M14 18h2m4 0h2m-8 1h2m4 0h2m-6 1h4m-4 1h4m-10 1h2m12 0h2m-16 1h2m12 0h2m-16 1h2m12 0h2m-16 1h2m12 0h2m-14 1h4m4 0h4m2 0h2m-16 1h4m4 0h4m2 0h2m-12 3h2m-2 1h2"/><path stroke="#3a3346" d="M16 18h4m-4 1h4m6 1h2m-2 1h2m-2 1h2m-2 1h2m-14 1h2m4 0h2m4 0h2m-14 1h2m4 0h2m4 0h2M8 26h2m6 0h4M8 27h2m6 0h4m-4 1h4m-4 1h4"/><path stroke="#504261" d="M8 20h2m-2 1h2m-2 1h2m10 0h2M8 23h2m10 0h2M8 24h2m6 0h4m2 0h2M8 25h2m6 0h4m2 0h2m-10 5h2m4 0h2m-8 1h2m4 0h2"/></svg>