<svg xmlns="http://www.w3.org/2000/svg" width="32" height="32" shape-rendering="crispEdges" viewBox="0 -0.5 35 36"><path stroke="#1d1d1c" d="M11 6h2m4 0h2m-8 1h2m4 0h2M9 8h2m2 0h4m2 0h2M9 9h2m2 0h4m2 0h2M9 10h2m8 0h2M9 11h2m8 0h2M9 12h2m8 0h2M9 13h2m8 0h2M7 14h4m8 0h4M7 15h4m8 0h4M5 16h2m2 0h2m8 0h2m2 0h2M5 17h2m2 0h2m8 0h2m2 0h2M5 18h2m4 0h2m4 0h2m4 0h2M5 19h2m4 0h2m4 0h2m4 0h2M5 20h2m6 0h4m6 0h2M5 21h2m6 0h4m6 0h2M5 22h2m2 0h2m8 0h2m2 0h2M5 23h2m2 0h2m8 0h2m2 0h2M5 24h2m4 0h2m6 0h2m2 0h2M5 25h2m4 0h2m6 0h2m2 0h2M7 26h6m6 0h4M7 27h6m6 0h4M9 28h2m8 0h2M9 29h2m8 0h2M9 30h2m4 0h2m2 0h2M9 31h2m4 0h2m2 0h2M9 32h2m2 0h2m2 0h2m2 0h2M9 33h2m2 0h2m2 0h2m2 0h2"/><path stroke="#cb804a" d="M11 8h2m4 0h2m-8 1h2m4 0h2M7 16h2m12 0h2M7 17h2m12 0h2"/><path stroke="#682a19" d="M11 10h2m4 0h2m-8 1h2m4 0h2M7 18h2m12 0h2M7 19h2m12 0h2"/><path stroke="#897a71" d="M13 10h4m-4 1h4m-6 1h2m-2 1h2m-6 7h2m-2 1h2m-2 1h2m-2 1h2m-2 1h4m-4 1h4m0 7h2m-2 1h2"/><path stroke="#625353" d="M13 12h6m-6 1h6m-8 1h2m2 0h2m-6 1h2m2 0h2m-6 1h2m-2 1h2m-4 3h4m6 0h4M9 21h4m6 0h4m-10 1h6m2 0h2m-10 1h6m2 0h2m-2 1h2m-2 1h2m-10 3h2m2 0h2m-6 1h2m2 0h2m0 3h2m-2 1h2"/><path stroke="#ffd569" d="M13 14h2m2 0h2m-6 1h2m2 0h2"/><path stroke="#3e373d" d="M13 16h6m-6 1h6M9 18h2m2 0h4m2 0h2M9 19h2m2 0h4m2 0h2m-4 1h2m-2 1h2m-8 1h2m-2 1h2m0 1h6m-6 1h6m-8 3h2m-2 1h2m-2 1h2m4 0h2m-8 1h2m4 0h2"/><path stroke="#cd7900" d="M13 26h2m2 0h2m-6 1h2m2 0h2"/><path stroke="#ffc02a" d="M15 26h2m-2 1h2"/><path stroke="#1e2028" d="M15 28h2m-2 1h2m-4 1h2m-2 1h2"/></svg>