<svg xmlns="http://www.w3.org/2000/svg" width="32" height="32" shape-rendering="crispEdges" viewBox="0 -0.5 35 36"><path stroke="#1d1d1c" d="M7 4h2m4 0h8m4 0h2M7 5h2m4 0h8m4 0h2M5 6h2m2 0h4m8 0h4m2 0h2M5 7h2m2 0h4m8 0h4m2 0h2M5 8h2m20 0h2M5 9h2m20 0h2M5 10h2m20 0h2M5 11h2m20 0h2M5 12h2m20 0h2M5 13h2m20 0h2M5 14h2m20 0h2M5 15h2m20 0h2M5 16h2m20 0h2M5 17h2m20 0h2M5 18h2m20 0h2M5 19h2m20 0h2M5 20h2m20 0h2M5 21h2m20 0h2M7 22h2m16 0h2M7 23h2m16 0h2M9 24h2m14 0h2M9 25h2m14 0h2M9 26h2m12 0h2M9 27h2m12 0h2M9 28h2m2 0h2m2 0h2m2 0h2M9 29h2m2 0h2m2 0h2m2 0h2m-12 1h2m2 0h2m2 0h2m-10 1h2m2 0h2m2 0h2"/><path stroke="#897a71" d="M7 6h2m16 0h2M7 7h2m16 0h2"/><path stroke="#f26e26" d="M13 6h8m-8 1h8M11 8h2m-2 1h2m-4 1h2m-2 1h2m-4 1h2m-2 1h2"/><path stroke="#625353" d="M7 8h2m16 0h2M7 9h2m16 0h2"/><path stroke="#3e373d" d="M9 8h2m12 0h2M9 9h2m12 0h2M7 10h2m16 0h2M7 11h2m16 0h2"/><path stroke="#e84444" d="M13 8h10M13 9h10m-12 1h2m8 0h4m-14 1h2m8 0h4M9 12h2m12 0h4M9 13h2m12 0h4M7 14h2m-2 1h2"/><path stroke="#d31212" d="M13 10h2m-2 1h2m-4 1h2m-2 1h2m-4 1h2m14 0h2M9 15h2m14 0h2M9 16h2m14 0h2M9 17h2m14 0h2M9 18h4m12 0h2M9 19h4m12 0h2m-16 1h4m8 0h2m-14 1h4m8 0h2m-12 1h4m4 0h2m-10 1h4m4 0h2m-8 1h2m2 0h2m-6 1h2m2 0h2"/><path stroke="#ac162d" d="M15 10h2m-2 1h2m-4 1h2m-2 1h2m-4 1h2m-2 1h2m-6 1h2m2 0h2m-6 1h2m2 0h2m0 1h2m8 0h2m-12 1h2m8 0h2m-10 1h2m-2 1h2"/><path stroke="#4d0a1a" d="M17 10h4m-4 1h4m-6 1h2m4 0h2m-8 1h2m4 0h2m-10 1h2m8 0h2m-12 1h2m8 0h2m-12 1h2m8 0h2m-12 1h2m8 0h2m-10 1h2m4 0h2m-8 1h2m4 0h2m-6 1h4m-4 1h4m-8 3h2m6 0h2m-10 1h2m6 0h2m-10 1h2m2 0h2m2 0h2m-10 1h2m2 0h2m2 0h2"/><path stroke="#6ac81f" d="M17 12h4m-4 1h4m-6 1h2m4 0h2m-8 1h2m4 0h2m-8 1h2m4 0h2m-8 1h2m4 0h2m-6 1h4m-4 1h4"/><path stroke="#049050" d="M17 14h2m-2 1h2m-2 1h4m-4 1h4"/><path stroke="#c1f567" d="M19 14h2m-2 1h2"/><path stroke="#8b1842" d="M7 18h2m-2 1h2m0 1h2m10 0h2M9 21h2m10 0h2m-12 1h2m4 0h4m2 0h2m-14 1h2m4 0h4m2 0h2m-14 1h2m4 0h2m-8 1h2m4 0h2m-4 1h2m2 0h2m-6 1h2m2 0h2"/><path stroke="#6d1d51" d="M7 20h2m-2 1h2m0 1h2m-2 1h2m12 1h2m-2 1h2m-14 1h2m-2 1h2"/><path stroke="#3d253b" d="M25 20h2m-2 1h2"/><path stroke="#4d1446" d="M11 28h2m2 0h2m2 0h2m-10 1h2m2 0h2m2 0h2"/></svg>