<svg xmlns="http://www.w3.org/2000/svg" width="32" height="32" shape-rendering="crispEdges" viewBox="0 -0.5 36 37"><path stroke="#372840" d="M8 3h6m4 0h4m4 0h6M8 4h6m4 0h4m4 0h6M6 5h2m6 0h4m4 0h4m6 0h2M6 6h2m6 0h4m4 0h4m6 0h2M4 7h2m8 0h2m8 0h2m8 0h2M4 8h2m8 0h2m8 0h2m8 0h2M4 9h2m6 0h2m20 0h2M4 10h2m6 0h2m20 0h2M4 11h2m6 0h2m20 0h2M4 12h2m6 0h2m20 0h2M4 13h2m28 0h2M4 14h2m28 0h2M4 15h2m28 0h2M4 16h2m28 0h2M4 17h2m28 0h2M4 18h2m28 0h2M4 19h2m28 0h2M4 20h2m28 0h2M4 21h2m28 0h2M4 22h2m28 0h2M4 23h2m28 0h2M4 24h2m28 0h2M4 25h2m6 0h2m12 0h2m6 0h2M4 26h2m6 0h2m12 0h2m6 0h2M6 27h2m2 0h2m2 0h2m8 0h2m2 0h2m2 0h2M6 28h2m2 0h2m2 0h2m8 0h2m2 0h2m2 0h2M8 29h2m2 0h4m8 0h2m4 0h2M8 30h2m2 0h4m8 0h2m4 0h2m-22 1h2m6 0h2m4 0h2m-16 1h2m6 0h2m4 0h2m-14 1h6m2 0h4m-12 1h6m2 0h4"/><path stroke="#f1ebdb" d="M8 5h6m12 0h2m2 0h2M8 6h6m12 0h2m2 0h2M6 7h2m4 0h2m18 0h2M6 8h2m4 0h2m18 0h2M6 9h2m-2 1h2m-2 1h2m-2 1h2m-2 1h2m24 0h2M6 14h2m24 0h2M6 15h2m24 0h2M6 16h2m24 0h2M6 17h2m-2 1h2m-2 1h2m24 0h2M6 20h2m24 0h2M6 21h2m24 0h2M6 22h2m24 0h2M6 23h2m24 0h2M6 24h2m24 0h2"/><path stroke="#fff089" d="M18 5h4m-4 1h4m-6 1h2m10 0h2M16 8h2m10 0h2M14 9h2m10 0h2m2 0h2m-18 1h2m10 0h2m2 0h2m-4 1h2m-2 1h2m-4 5h2m-2 1h2m-18 1h2m-2 1h2"/><path stroke="#594d4d" d="M28 5h2m-2 1h2m-4 1h2m2 0h2m-6 1h2m2 0h2m0 1h2m-2 1h2m-2 1h2m-2 1h2m-8 1h2m2 0h2m-6 1h2m2 0h2m-6 5h2m2 0h2m-6 1h2m2 0h2m-2 1h2m-2 1h2m-6 1h2m2 0h2m-6 1h2m2 0h2m-4 1h2m-2 1h2"/><path stroke="#ddcebf" d="M8 7h4M8 8h4M8 9h2m-2 1h2m0 1h2m-2 1h2m-4 1h2m-2 1h2m-2 9h2m-2 1h2m-4 1h2m24 0h2M6 26h2m24 0h2"/><path stroke="#f6d896" d="M18 7h2m2 0h2m-6 1h2m2 0h2m-8 1h2m-2 1h2m-4 3h2m-2 1h2"/><path stroke="#e2b27e" d="M20 7h2m-2 1h2m-4 1h2m-2 1h2m-4 1h2m-2 1h2m-2 1h2m-2 1h2m-2 1h2m-2 1h2"/><path stroke="#bda499" d="M10 9h2m-2 1h2m-4 1h2m-2 1h2m0 1h2m-2 1h2m-4 1h2m-2 1h2m-2 9h2m20 0h2M8 26h2m20 0h2"/><path stroke="#ecebe7" d="M20 9h2m-2 1h2m-2 1h2m-2 1h2m-10 3h4m8 0h2m-14 1h4m8 0h2m-8 1h4m-4 1h4m-10 3h2m-2 1h2"/><path stroke="#d6a851" d="M22 9h2m-2 1h2m-2 3h2m-2 1h2"/><path stroke="#323232" d="M24 9h2m-2 1h2m-2 1h2m-2 1h2m-14 1h2m10 0h2m-14 1h2m10 0h2m-16 1h2m-2 1h2m-4 1h2m-2 1h2m-2 1h2m-2 1h2m-2 1h2m14 0h4M8 22h2m14 0h4m-18 1h4m10 0h2m-16 1h4m10 0h2m-2 1h2m-2 1h2"/><path stroke="#f8c53a" d="M28 9h2m-2 1h2m-4 1h2m2 0h2m-6 1h2m2 0h2m-4 1h2m-2 1h2m-2 1h2m-2 1h2m-2 1h2m-2 1h2m-2 1h2m-2 1h2m-20 1h2m16 0h2m-20 1h2m16 0h2m-2 1h2m-2 1h2"/><path stroke="#f8e398" d="M14 11h2m-2 1h2m0 9h2m4 0h2m-8 1h2m4 0h2m-6 1h4m-4 1h4m-6 1h2m4 0h2m-8 1h2m4 0h2m-8 1h2m2 0h2m-6 1h2m2 0h2"/><path stroke="#97edca" d="M18 11h2m2 0h2m-6 1h2m2 0h2"/><path stroke="#cbc6c1" d="M18 13h4m-4 1h4m0 1h2m-2 1h2m-14 1h4m2 0h2m4 0h2m6 0h2m-22 1h4m2 0h2m4 0h2m6 0h2m-14 1h4m-4 1h4m0 9h2m-2 1h2m-8 1h2m4 0h2m-8 1h2m4 0h2"/><path stroke="#a69e9a" d="M18 15h4m-4 1h4m-8 1h2m8 0h2m-12 1h2m8 0h2m-10 1h2m4 0h2m-8 1h2m4 0h2m-6 1h4m-4 1h4m-8 9h2m4 0h2m-8 1h2m4 0h2"/><path stroke="#33272a" d="M26 15h2m2 0h2m-6 1h2m2 0h2m0 1h2m-2 1h2"/><path stroke="#595757" d="M12 19h2m10 0h2m-14 1h2m10 0h2m-12 1h2m-2 1h2"/><path stroke="#807b7a" d="M14 19h2m-2 1h2m2 9h2m-2 1h2m-8 1h2m-2 1h2"/><path stroke="#b29476" d="M14 23h2m-2 1h2m2 3h2m-2 1h2m-4 1h2m-2 1h2"/><path stroke="#e1bf89" d="M16 23h2m4 0h2m-8 1h2m4 0h2m-10 1h2m2 0h4m-8 1h2m2 0h4"/><path stroke="#886e6a" d="M10 25h2m-2 1h2m-4 1h2m12 0h2m6 0h2M8 28h2m12 0h2m6 0h2m-12 1h2m-2 1h2"/></svg>