<svg xmlns="http://www.w3.org/2000/svg" width="32" height="32" shape-rendering="crispEdges" viewBox="0 -0.5 36 37"><path stroke="#120a1a" d="M10 4h2m-2 1h2M8 6h2m2 0h2m2 0h2m4 0h2M8 7h2m2 0h2m2 0h2m4 0h2M8 8h2m4 0h2m2 0h4m2 0h2M8 9h2m4 0h2m2 0h4m2 0h2M6 10h4m4 0h4m2 0h2m2 0h4M6 11h4m4 0h4m2 0h2m2 0h4M4 12h2m2 0h2m4 0h2m4 0h2m2 0h2m2 0h2M4 13h2m2 0h2m4 0h2m4 0h2m2 0h2m2 0h2M4 14h2m2 0h2m2 0h2m8 0h4m2 0h2M4 15h2m2 0h2m2 0h2m8 0h4m2 0h2M4 16h2m2 0h2m2 0h2m8 0h4m2 0h2M4 17h2m2 0h2m2 0h2m8 0h4m2 0h2M4 18h2m6 0h2m8 0h2m4 0h2M4 19h2m6 0h2m8 0h2m4 0h2M4 20h2m8 0h2m4 0h2m6 0h2M4 21h2m8 0h2m4 0h2m6 0h2M4 22h2m10 0h4m8 0h2M4 23h2m10 0h4m8 0h2M4 24h2m4 0h2m12 0h2m2 0h2M4 25h2m4 0h2m12 0h2m2 0h2M4 26h2m4 0h2m12 0h2m2 0h2M4 27h2m4 0h2m12 0h2m2 0h2M4 28h2m2 0h4m12 0h4M4 29h2m2 0h4m12 0h4M6 30h2m2 0h2m6 0h2M6 31h2m2 0h2m6 0h2m-10 1h2m4 0h2m2 0h2m2 0h2m-16 1h2m4 0h2m2 0h2m2 0h2M8 34h2m8 0h2m6 0h2M8 35h2m8 0h2m6 0h2"/><path stroke="#926d3c" d="M10 6h2m-2 1h2m0 1h2m2 0h2m4 0h2M12 9h2m2 0h2m4 0h2m-6 1h2m-2 1h2M6 12h2m8 0h2m8 0h2M6 13h2m8 0h2m8 0h2m-14 1h2m4 0h2m-8 1h2m4 0h2M8 20h4m12 0h2M8 21h4m12 0h2M6 22h2m4 0h2m8 0h2M6 23h2m4 0h2m8 0h2m-10 1h8m-8 1h8"/><path stroke="#8b5b37" d="M10 8h2m-2 1h2m0 1h2m8 0h2m-12 1h2m8 0h2m-6 1h2m-2 1h2M6 14h2m8 0h4m6 0h2M6 15h2m8 0h4m6 0h2m-14 1h2m2 0h2m-6 1h2m2 0h2M8 22h2m16 0h2M8 23h2m16 0h2M6 24h2m18 0h2M6 25h2m18 0h2M6 26h2m4 0h2m8 0h2m2 0h2M6 27h2m4 0h2m8 0h2m2 0h2M6 28h2m-2 1h2"/><path stroke="#894835" d="M10 10h2m-2 1h2m0 1h2m8 0h2m-12 1h2m8 0h2M6 16h2m18 0h2M6 17h2m18 0h2M8 18h2m6 0h4m4 0h2M8 19h2m6 0h4m4 0h2m-14 1h2m8 0h2m-12 1h2m8 0h2m-10 1h2m4 0h2m-8 1h2m4 0h2m-8 5h8m-8 1h8m-10 1h2m8 0h2m-12 1h2m8 0h2"/><path stroke="#602631" d="M10 12h2m-2 1h2m-2 1h2m-2 1h2m-2 1h2m-2 1h2m-6 1h2m6 0h2m4 0h2m4 0h2M6 19h2m6 0h2m4 0h2m4 0h2m-18 3h2m12 0h2m-16 1h2m12 0h2M8 24h2m2 0h2m8 0h2M8 25h2m2 0h2m8 0h2M8 26h2m4 0h8M8 27h2m4 0h8m-10 1h2m8 0h2m-12 1h2m8 0h2m-10 1h2m-2 1h2m-4 1h2m-2 1h2m-4 1h6m6 0h4m-16 1h6m6 0h4"/><path stroke="#be5a1e" d="M16 16h2m2 0h2m-6 1h2m2 0h2"/><path stroke="#4b0c30" d="M10 18h2m-2 1h2m-6 1h2m8 0h4m6 0h2M6 21h2m8 0h4m6 0h2m-12 9h2m2 0h2m-6 1h2m2 0h2m-8 1h2m6 0h2m-10 1h2m6 0h2m-8 1h2m2 0h2m-6 1h2m2 0h2"/><path stroke="#000" d="M24 30h2m-2 1h2"/></svg>