<svg xmlns="http://www.w3.org/2000/svg" width="32" height="32" shape-rendering="crispEdges" viewBox="0 -0.5 36 36"><path stroke="#1c0b21" d="M8 2h6m4 0h6M8 3h6m4 0h6M6 4h2m6 0h4m6 0h2M6 5h2m6 0h4m6 0h2M4 6h2m20 0h2M4 7h2m20 0h2M4 8h2m20 0h2M4 9h2m20 0h2M2 10h2m22 0h2M2 11h2m22 0h2M0 12h2m24 0h2M0 13h2m24 0h2M0 14h2m26 0h2M0 15h2m26 0h2M0 16h2m26 0h2M0 17h2m26 0h2M0 18h2m26 0h2M0 19h2m26 0h2M0 20h2m26 0h2M0 21h2m26 0h2M0 22h2m26 0h2M0 23h2m26 0h2M0 24h2m26 0h2M0 25h2m26 0h2M2 26h4m18 0h4M2 27h4m18 0h4M6 28h2m16 0h2M6 29h2m16 0h2M6 30h2m4 0h2m2 0h4m4 0h2M6 31h2m4 0h2m2 0h4m4 0h2M6 32h2m6 0h2m2 0h2m6 0h2M6 33h2m6 0h2m2 0h2m6 0h2"/><path stroke="#e0b5bb" d="M8 4h6m4 0h6M8 5h6m4 0h6M6 6h2m6 0h2m8 0h2M6 7h2m6 0h2m8 0h2m-10 7h2m8 0h2m-12 1h2m8 0h2M12 32h2m-2 1h2"/><path stroke="#e09f9d" d="M8 6h6m4 0h6M8 7h6m4 0h6M6 8h2m4 0h2m8 0h2M6 9h2m4 0h2m8 0h2M6 10h2m-2 1h2m8 5h2m8 0h2m-12 1h2m8 0h2m-18 1h6m-6 1h6m8 3h4m-4 1h4m-4 9h2m-2 1h2"/><path stroke="#380b2a" d="M16 6h2m-2 1h2m-2 1h2m-2 1h2M4 10h2m10 0h2M4 11h2m10 0h2M6 12h2m8 0h2M6 13h2m8 0h2M8 14h2m4 0h2m2 0h2m4 0h2M8 15h2m4 0h2m2 0h2m4 0h2m-16 1h4m6 0h4m-14 1h4m6 0h4"/><path stroke="#da827a" d="M8 8h2m8 0h2M8 9h2m8 0h2M8 10h2m2 0h2m4 0h2m2 0h2M8 11h2m2 0h2m4 0h2m2 0h2m-6 5h2m4 0h2m-8 1h2m4 0h2m-2 1h2m-2 1h2m-16 1h12m4 0h2m-18 1h12m4 0h2M2 22h4m-4 1h4m-2 1h2m18 0h2M4 25h2m18 0h2m-4 3h2m-2 1h2m-14 1h2m10 0h2m-14 1h2m10 0h2m-14 1h2m10 0h2m-14 1h2m10 0h2"/><path stroke="#947e31" d="M10 8h2m2 0h2m4 0h2m2 0h2M10 9h2m2 0h2m4 0h2m2 0h2"/><path stroke="#ca614e" d="M10 10h2m2 0h2m4 0h2m2 0h2m-16 1h2m2 0h2m4 0h2m2 0h2m-16 3h4m6 0h4m-14 1h4m6 0h4m2 3h2m-2 1h2M8 20h2m12 0h4M8 21h2m12 0h4M2 24h2m22 0h2M2 25h2m22 0h2M8 28h2m-2 1h2m-2 1h2m10 0h2M8 31h2m10 0h2M8 32h2m10 0h2M8 33h2m10 0h2"/><path stroke="#afc8c8" d="M2 12h2m-2 1h2m10 9h4m-4 1h4"/><path stroke="#6f6f6e" d="M4 12h2m-2 1h2m0 1h2m-2 1h2m0 1h2m-2 1h2m-8 1h2m-2 1h2m0 1h2m-2 1h2m4 1h2m8 0h2m-12 1h2m8 0h2m-8 1h4m-4 1h4"/><path stroke="#efd28b" d="M8 12h2m4 0h2m2 0h2m4 0h2M8 13h2m4 0h2m2 0h2m4 0h2"/><path stroke="#414040" d="M10 12h4m6 0h4m-14 1h4m6 0h4M2 14h2m-2 1h2m0 1h2m-2 1h2m0 1h2m-2 1h2m-6 1h2m-2 1h2m6 3h4m4 0h4m-12 1h4m4 0h4m-8 1h4m-4 1h4"/><path stroke="#a9a9a9" d="M4 14h2m-2 1h2m-4 1h2m2 0h2m-6 1h2m2 0h2m-4 1h2m-2 1h2m6 3h2m4 0h2m-8 1h2m4 0h2"/><path stroke="#833e11" d="M14 16h2m-2 1h2m0 1h8m-8 1h8M8 22h2m12 0h2M8 23h2m12 0h2"/><path stroke="#331b1a" d="M8 18h2m-2 1h2m-4 1h2m-2 1h2m-2 1h2m-2 1h2m-2 1h2m-2 1h2m-2 1h4m12 0h2M6 27h4m12 0h2m-14 1h4m4 0h4m-12 1h4m4 0h4"/><path stroke="#532918" d="M8 24h2m12 0h2M8 25h2m12 0h2m-14 1h2m8 0h2m-12 1h2m8 0h2"/><path stroke="#1d1d1c" d="M12 26h2m4 0h2m-8 1h2m4 0h2m-6 1h4m-4 1h4m-4 1h2m-2 1h2"/></svg>