<svg xmlns="http://www.w3.org/2000/svg" width="32" height="32" shape-rendering="crispEdges" viewBox="0 -0.5 36 37"><path stroke="#120a1a" d="M14 4h2m2 0h4m2 0h2M14 5h2m2 0h4m2 0h2M12 6h2m2 0h2m4 0h2m2 0h2M12 7h2m2 0h2m4 0h2m2 0h2M10 8h2m2 0h2m8 0h2m2 0h2M10 9h2m2 0h2m8 0h2m2 0h2M8 10h4m16 0h2M8 11h4m16 0h2M6 12h2m2 0h2m6 0h2m2 0h2m6 0h2M6 13h2m2 0h2m6 0h2m2 0h2m6 0h2M6 14h2m12 0h2m8 0h2M6 15h2m12 0h2m8 0h2M6 16h2m22 0h2M6 17h2m22 0h2M6 18h2m22 0h2M6 19h2m22 0h2M6 20h2m2 0h2m14 0h2m2 0h2M6 21h2m2 0h2m14 0h2m2 0h2M6 22h2m2 0h4m10 0h4m2 0h2M6 23h2m2 0h4m10 0h4m2 0h2M6 24h2m2 0h2m2 0h2m8 0h2m2 0h2M6 25h2m2 0h2m2 0h2m8 0h2m2 0h2M8 26h2m4 0h2m8 0h2M8 27h2m4 0h2m8 0h2m-12 1h2m10 0h2m-14 1h2m10 0h2m-16 1h2m6 0h2m4 0h2m-16 1h2m6 0h2m4 0h2m-16 1h2m4 0h2m2 0h2m2 0h2m-16 1h2m4 0h2m2 0h2m2 0h2m-16 1h2m2 0h2m4 0h2m2 0h2m-16 1h2m2 0h2m4 0h2m2 0h2"/><path stroke="#f1934c" d="M14 6h2m8 0h2M14 7h2m8 0h2m-8 1h4m-4 1h4m-6 1h2m-2 1h2m-4 1h2m8 0h2m-12 1h2m8 0h2m-14 1h2m12 0h2m-16 1h2m12 0h2m-16 1h4m8 0h2m-14 1h4m8 0h2m-12 1h4m4 0h2m-10 1h4m4 0h2m-8 1h4m2 0h2m-8 1h4m2 0h2m-6 1h2m2 0h2m-6 1h2m2 0h2m-8 5h2m6 0h2m-10 1h2m6 0h2m-12 1h2m-2 1h2"/><path stroke="#cc1825" d="M18 6h4m-4 1h4M12 8h2m2 0h2m4 0h2m2 0h2M12 9h2m2 0h2m4 0h2m2 0h2m-16 1h4m8 0h4m-16 1h4m8 0h4M8 12h2m2 0h2m12 0h4M8 13h2m2 0h2m12 0h4M8 14h4m16 0h2M8 15h4m16 0h2M8 16h4m14 0h4M8 17h4m14 0h4M8 18h2m2 0h2m10 0h2M8 19h2m2 0h2m10 0h2m-12 1h2m-2 1h2m0 1h2m-2 1h2m0 5h2m2 0h2m-6 1h2m2 0h2m-8 1h2m6 0h2m-10 1h2m6 0h2m-12 1h2m8 0h2m-12 1h2m8 0h2"/><path stroke="#e4cd5a" d="M18 10h6m-6 1h6m-8 1h2m2 0h2m-6 1h2m2 0h2m-8 1h6m2 0h4m-12 1h6m2 0h4m-10 1h8m-8 1h8m-6 1h4m-4 1h4m-2 1h2m-2 1h2m-2 1h2m-2 1h2"/><path stroke="#81173f" d="M10 18h2m14 0h2m-18 1h2m14 0h2m-16 1h2m10 0h2m2 0h2m-18 1h2m10 0h2m2 0h2M8 22h2m4 0h2m-8 1h2m4 0h2m4 5h2m-2 1h2m-4 1h2m2 0h2m-6 1h2m2 0h2m-8 1h2m-2 1h2m-4 1h2m8 0h2m-12 1h2m8 0h2"/><path stroke="#787d8b" d="M28 18h2m-2 1h2m-10 5h2m-2 1h2m-4 1h2m-2 1h2"/><path stroke="#9da5ae" d="M8 20h2m-2 1h2m8 3h2m-2 1h2m-4 1h2m-2 1h2"/><path stroke="#4b0c30" d="M28 22h2m-2 1h2M8 24h2m-2 1h2"/><path stroke="#c8d6ac" d="M16 24h2m-2 1h2"/><path stroke="#59607a" d="M22 24h2m-2 1h2m-4 1h2m-2 1h2"/><path stroke="#404863" d="M22 26h2m-2 1h2"/></svg>