<svg xmlns="http://www.w3.org/2000/svg" width="32" height="32" shape-rendering="crispEdges" viewBox="0 -0.5 36 37"><path stroke="#120a1a" d="M16 4h8m-8 1h8M14 6h2m8 0h2M14 7h2m8 0h2M14 8h2m8 0h2M14 9h2m8 0h2m-12 1h2m2 0h2m2 0h4m-12 1h2m2 0h2m2 0h4m-12 1h2m8 0h2m-12 1h2m8 0h2m-14 1h6m4 0h4m-14 1h6m4 0h4m-16 1h2m6 0h4m4 0h2m-18 1h2m6 0h4m4 0h2M8 18h2m18 0h2M8 19h2m18 0h2M8 20h2m2 0h2m10 0h2m2 0h2M8 21h2m2 0h2m10 0h2m2 0h2M8 22h2m2 0h2m10 0h2m2 0h2M8 23h2m2 0h2m10 0h2m2 0h2M8 24h2m2 0h2m10 0h2m2 0h2M8 25h2m2 0h2m10 0h2m2 0h2M8 26h2m2 0h2m10 0h4M8 27h2m2 0h2m10 0h4m-18 1h4m10 0h2m-16 1h4m10 0h2m-14 1h2m4 0h2m4 0h2m-14 1h2m4 0h2m4 0h2m-14 1h2m4 0h2m4 0h2m-14 1h2m4 0h2m4 0h2m-14 1h2m6 0h2m4 0h2m-16 1h2m6 0h2m4 0h2"/><path stroke="#ff82a0" d="M16 6h2m-2 1h2m-2 1h2m-2 1h2m-6 7h4m-4 1h4m-6 1h4m-4 1h4m-4 1h2m-2 1h2"/><path stroke="#81173f" d="M18 6h2m-2 1h2m0 1h2m-2 1h2m-4 9h2m-2 1h2m-4 1h2m2 0h2m-6 1h2m2 0h2m-8 1h2m2 0h2m6 0h2m-14 1h2m2 0h2m6 0h2m-18 1h2m6 0h2m-10 1h2m6 0h2m2 5h2m-2 1h2m-8 1h2m-2 1h2m-4 1h2m-2 1h2"/><path stroke="#d16363" d="M20 6h2m-2 1h2m-4 1h2m-2 1h2m-4 1h2m-2 1h2m-2 1h2m4 0h2m-8 1h2m4 0h2m-8 3h2m4 0h4m-10 1h2m4 0h4m-10 1h2m2 0h2m2 0h4m-12 1h2m2 0h2m2 0h4m-14 1h2m2 0h2m6 0h2m-14 1h2m2 0h2m6 0h2m-18 1h2m4 0h2m2 0h2m-12 1h2m4 0h2m2 0h2m-8 1h2m4 0h2m4 0h2m-14 1h2m4 0h2m4 0h2m-18 1h2m-2 1h2m4 3h2m-2 1h2m-4 1h2m6 0h2m-10 1h2m6 0h2m-8 1h2m-2 1h2"/><path stroke="#ed9d7c" d="M22 6h2m-2 1h2m-4 3h2m-2 1h2m-8 7h2m6 0h2m-10 1h2m6 0h2m-6 15h2m4 0h2m-8 1h2m4 0h2"/><path stroke="#d68552" d="M22 8h2m-2 1h2m-6 3h4m-4 1h4m0 7h2m-2 1h2m-2 1h2m-2 1h2m-8 1h2m4 0h2m-8 1h2m4 0h2m-10 5h2m-2 1h2m6 3h2m-2 1h2"/><path stroke="#602631" d="M18 14h4m-4 1h4"/><path stroke="#404863" d="M14 26h10m-10 1h10"/><path stroke="#2a2a41" d="M14 28h10m-10 1h10m-4 1h2m-2 1h2m-2 1h2m-2 1h2"/></svg>