<svg xmlns="http://www.w3.org/2000/svg" width="32" height="32" shape-rendering="crispEdges" viewBox="0 -0.5 34 36"><path stroke="#1c0b21" d="M12 4h10M12 5h10M8 6h4m10 0h2M8 7h4m10 0h2M6 8h2m16 0h2M6 9h2m16 0h2M4 10h2m20 0h2M4 11h2m20 0h2M4 12h2m20 0h2M4 13h2m20 0h2M2 14h2m24 0h2M2 15h2m24 0h2M2 16h2m24 0h2M2 17h2m24 0h2M2 18h2m26 0h2M2 19h2m26 0h2M2 20h2m26 0h2M2 21h2m26 0h2M2 22h2m20 0h2m4 0h2M2 23h2m20 0h2m4 0h2M4 24h2m18 0h6M4 25h2m18 0h6M6 26h6m12 0h2M6 27h6m12 0h2m-16 1h2m12 0h2m-16 1h2m12 0h2m-16 1h2m4 0h2m6 0h2m-16 1h2m4 0h2m6 0h2m-16 1h2m6 0h4m4 0h2m-18 1h2m6 0h4m4 0h2"/><path stroke="#e8bfe2" d="M12 6h10M12 7h10M8 8h4m4 0h2m2 0h2M8 9h4m4 0h2m2 0h2M6 10h4m4 0h2m4 0h2M6 11h4m4 0h2m4 0h2M6 12h2m12 0h2M6 13h2m12 0h2M4 14h2m-2 1h2"/><path stroke="#c99acf" d="M12 8h2m4 0h2m2 0h2M12 9h2m4 0h2m2 0h2m-14 1h2m4 0h2m6 0h2m-16 1h2m4 0h2m6 0h2M8 12h2m8 0h2m2 0h2M8 13h2m8 0h2m2 0h2M6 14h2m18 0h2M6 15h2m18 0h2M4 16h2m-2 1h2m20 3h4m-4 1h4M6 22h4m-4 1h4m4 5h2m-2 1h2m-2 1h2m-2 1h2m0 1h2m-2 1h2"/><path stroke="#331b1a" d="M14 8h2m-2 1h2m-4 1h2m-2 1h2m0 1h2m8 0h2m-12 1h2m8 0h2m-12 1h2m8 0h2m-12 1h2m8 0h2m-10 1h2m4 0h2m-8 1h2m4 0h2M8 18h2m8 0h4M8 19h2m8 0h4M8 20h2m14 0h2M8 21h2m14 0h2m-16 1h2m-2 1h2"/><path stroke="#f7f688" d="M18 10h2m2 0h2m-6 1h2m2 0h2"/><path stroke="#9e79b3" d="M10 12h4m2 0h2m-8 1h4m2 0h2M8 14h6m-6 1h6m-8 1h2m4 0h4m8 0h4M6 17h2m4 0h4m8 0h4M4 18h2m8 0h4m4 0h2M4 19h2m8 0h4m4 0h2M4 22h2m20 0h2M4 23h2m20 0h2M8 24h2m-2 1h2m2 5h2m8 0h2m-12 1h2m8 0h2m-10 1h2m8 0h2m-12 1h2m8 0h2"/><path stroke="#80459e" d="M16 14h2m4 0h2m-8 1h2m4 0h2M8 16h4m6 0h4M8 17h4m6 0h4M6 18h2m2 0h4m10 0h2M6 19h2m2 0h4m10 0h2m-12 1h8m-8 1h8m6 1h2m-2 1h2M6 24h2m-2 1h2m12 3h2m-2 1h2m-2 1h2m-2 1h2m-10 1h2m8 0h2m-12 1h2m8 0h2"/><path stroke="#163d4a" d="M18 14h4m-4 1h4"/><path stroke="#414040" d="M26 18h2m-2 1h2M6 20h2m2 0h2m-6 1h2m2 0h2m0 1h2m8 0h2m-12 1h2m8 0h2m-10 3h2m4 0h2m-8 1h2m4 0h2m-10 1h2m8 0h2m-12 1h2m8 0h2"/><path stroke="#6f6f6e" d="M28 18h2m-2 1h2M4 20h2m6 0h2m8 0h2M4 21h2m6 0h2m8 0h2m-10 1h8m-8 1h8"/><path stroke="#1d1d1c" d="M10 24h6m4 0h4m-14 1h6m4 0h4m-12 1h2m2 0h4m2 0h2m-12 1h2m2 0h4m2 0h2m-8 1h4m-4 1h4m-2 1h2m-2 1h2"/><path stroke="#947e31" d="M16 24h2m-2 1h2"/><path stroke="#be8f44" d="M18 24h2m-2 1h2"/></svg>