<svg xmlns="http://www.w3.org/2000/svg" width="32" height="32" shape-rendering="crispEdges" viewBox="0 -0.5 36 37"><path stroke="#372840" d="M20 4h4m-4 1h4m-6 1h2m4 0h2m-8 1h2m4 0h2M16 8h2m8 0h2M16 9h2m8 0h2m-12 1h2m2 0h2m2 0h4m-12 1h2m2 0h2m2 0h4m-14 1h4m8 0h2m-14 1h4m8 0h2m-16 1h2m4 0h2m4 0h2m-14 1h2m4 0h2m4 0h2m-16 1h2m8 0h6m-16 1h2m8 0h6m-16 1h2m2 0h2m4 0h4m2 0h2m-18 1h2m2 0h2m4 0h4m2 0h2m-18 1h2m4 0h2m6 0h2m2 0h2m-20 1h2m4 0h2m6 0h2m2 0h2m-20 1h2m6 0h6m2 0h2m-18 1h2m6 0h6m2 0h2m-16 1h2m4 0h2m2 0h4m-14 1h2m4 0h2m2 0h4m-14 1h2m4 0h2m2 0h2m-12 1h2m4 0h2m2 0h2m-14 1h2m4 0h2m2 0h2m-12 1h2m4 0h2m2 0h2m-12 1h2m2 0h2m2 0h2m2 0h2m-14 1h2m2 0h2m2 0h2m2 0h2m-14 1h2m2 0h2m4 0h2m2 0h2m-16 1h2m2 0h2m4 0h2m2 0h2m-14 1h2m2 0h2m-6 1h2m2 0h2"/><path stroke="#dfd3c3" d="M20 6h4m-4 1h4m-6 1h2m4 0h2m-8 1h2m4 0h2m-12 5h4m-4 1h4m-6 1h2m4 0h2m-8 1h2m4 0h2m-6 3h2m-2 1h2m0 1h2m-2 1h2"/><path stroke="#c7b198" d="M20 8h4m-4 1h4m-6 1h2m2 0h2m-6 1h2m2 0h2m-2 1h2m-2 1h2m-10 3h4m-4 1h4m-6 1h2m4 0h2m-8 1h2m4 0h2m-8 1h2m6 0h4m-12 1h2m6 0h4m-10 1h2m8 0h2m-12 1h2m8 0h2m-10 1h2m-2 1h2"/><path stroke="#57404e" d="M18 12h2m-2 1h2m0 1h4m-4 1h4M14 26h2m4 0h2m-8 1h2m4 0h2m-10 1h4m2 0h2m-8 1h4m2 0h2m-8 1h2m-2 1h2"/><path stroke="#997d76" d="M20 12h2m2 0h2m-6 1h2m2 0h2m-10 5h2m6 0h2m-10 1h2m6 0h2m-8 1h2m6 0h2m-10 1h2m6 0h2m-16 1h2m-2 1h2m0 1h2m4 0h2m-8 1h2m4 0h2m-6 1h2m-2 1h2"/><path stroke="#524a63" d="M20 30h2m-2 1h2m-10 1h2m8 0h2m-12 1h2m8 0h2m-10 1h2m-2 1h2"/></svg>