<svg xmlns="http://www.w3.org/2000/svg" width="32" height="32" shape-rendering="crispEdges" viewBox="0 -0.5 36 35"><path stroke="#1a1c26" d="M14 0h2m2 0h2m10 0h2M14 1h2m2 0h2m10 0h2M10 2h4m2 0h2m2 0h2m4 0h4m2 0h2M10 3h4m2 0h2m2 0h2m4 0h4m2 0h2M8 4h2m4 0h2m6 0h4m2 0h2m2 0h2M8 5h2m4 0h2m6 0h4m2 0h2m2 0h2M6 6h2m6 0h2m12 0h2m2 0h2M6 7h2m6 0h2m12 0h2m2 0h2M6 8h2m6 0h2m12 0h2m2 0h2M6 9h2m6 0h2m12 0h2m2 0h2M6 10h2m6 0h2m12 0h2m2 0h2M6 11h2m6 0h2m12 0h2m2 0h2M6 12h2m18 0h4m2 0h2M6 13h2m18 0h4m2 0h2M4 14h2m18 0h2m2 0h2m2 0h2M4 15h2m18 0h2m2 0h2m2 0h2M4 16h2m18 0h6m2 0h2M4 17h2m18 0h6m2 0h2M4 18h2m22 0h2m2 0h2M4 19h2m22 0h2m2 0h2M4 20h2m22 0h2m2 0h2M4 21h2m22 0h2m2 0h2m-6 1h2m2 0h2m-6 1h2m2 0h2m-24 1h2m10 0h2m4 0h2m2 0h2m-24 1h2m10 0h2m4 0h2m2 0h2m-24 1h2m4 0h2m6 0h2m2 0h2m2 0h2m-24 1h2m4 0h2m6 0h2m2 0h2m2 0h2m-24 1h2m2 0h2m2 0h2m2 0h2m4 0h2m2 0h2m-24 1h2m2 0h2m2 0h2m2 0h2m4 0h2m2 0h2m-24 1h2m2 0h2m2 0h2m4 0h2m2 0h2m2 0h2m-24 1h2m2 0h2m2 0h2m4 0h2m2 0h2m2 0h2"/><path stroke="#f3e7a8" d="M14 2h2m2 0h2m-6 1h2m2 0h2m-4 1h2m-2 1h2m4 1h4m-4 1h4"/><path stroke="#fff" d="M30 2h2m-2 1h2"/><path stroke="#cbd2d9" d="M10 4h4m16 0h2M10 5h4m16 0h2M8 6h2M8 7h2m-2 9h2m-2 1h2"/><path stroke="#402830" d="M18 4h2m-2 1h2m-2 3h2m-2 1h2m-2 1h2m4 0h2m-8 1h2m4 0h2m-6 1h2m-2 1h2m-2 1h4m-4 1h4m-4 1h2m-2 1h2m-2 1h2m-2 1h2M8 20h6m6 0h2M8 21h6m6 0h2m-2 1h2m-2 1h2m-10 7h2m6 0h4m6 0h2m-20 1h2m6 0h4m6 0h2"/><path stroke="#de9e8c" d="M20 4h2m4 0h2m-8 1h2m4 0h2"/><path stroke="#99a5a7" d="M10 6h4m16 0h2M10 7h4m16 0h2M8 8h6M8 9h6m-4 7h2m-2 1h2m-4 1h2m-2 1h2m6 1h2m-2 1h2"/><path stroke="#dab580" d="M16 6h2m2 0h2m4 0h2M16 7h2m2 0h2m4 0h2m-8 1h2m2 0h2m-6 1h2m2 0h2m-10 1h2m-2 1h2m-4 13h2m4 0h2m-8 1h2m4 0h2m-8 1h2m6 0h2m-10 1h2m6 0h2"/><path stroke="#b3794d" d="M18 6h2m-2 1h2m-4 1h2m-2 1h2m-4 3h4m-4 1h4"/><path stroke="#810b0b" d="M22 8h2m2 0h2m-6 1h2m2 0h2"/><path stroke="#806352" d="M30 8h2m-2 1h2m-12 1h4m2 0h2m-8 1h4m2 0h2m-10 1h2m-2 1h2m-8 1h2m2 0h4m-8 1h2m2 0h4M6 16h2m4 0h2m2 0h2M6 17h2m4 0h2m2 0h2m6 1h4m-4 1h4m-10 3h2m-2 1h2m-8 1h2m4 0h2m-8 1h2m4 0h2m-8 3h2m6 0h2m-10 1h2m6 0h2"/><path stroke="#617077" d="M8 10h6m-6 1h6m-4 7h2m-2 1h2m4 3h2m-2 1h2"/><path stroke="#5e423c" d="M30 10h2m-2 1h2m-10 1h4m4 0h2m-10 1h4m4 0h2m-2 1h2m-2 1h2m-14 1h2m2 0h2m6 0h2m-14 1h2m2 0h2m6 0h2M6 18h2m4 0h2m16 0h2M6 19h2m4 0h2m16 0h2M6 20h2m22 0h2M6 21h2m22 0h2m-2 1h2m-2 1h2m-2 1h2m-2 1h2m-20 1h2m4 0h4m8 0h2m-20 1h2m4 0h4m8 0h2m-2 1h2m-2 1h2"/><path stroke="#24131d" d="M8 12h6m-6 1h6m0 1h2m-2 1h2m-2 1h2m-2 1h2m-2 1h2m6 0h2m-10 1h2m6 0h2m-10 1h2m8 0h4m-14 1h2m8 0h4M6 22h8m-8 1h8"/><path stroke="#a19477" d="M6 14h6m-6 1h6"/><path stroke="#3c4851" d="M16 18h4m-4 1h4m-2 1h2m-2 1h2m-6 1h2m-2 1h2m0 1h2m-2 1h2"/></svg>