<svg xmlns="http://www.w3.org/2000/svg" width="32" height="32" shape-rendering="crispEdges" viewBox="0 -0.5 36 35"><path stroke="#1a1c26" d="M14 0h2m2 0h2m-6 1h2m2 0h2m-8 1h2m2 0h2m2 0h2m4 0h2M12 3h2m2 0h2m2 0h2m4 0h2M10 4h2m10 0h4m2 0h2M10 5h2m10 0h4m2 0h2M8 6h2m18 0h2M8 7h2m18 0h2M6 8h2m20 0h2M6 9h2m20 0h2M4 10h2m22 0h2M4 11h2m22 0h2M4 12h2m20 0h2M4 13h2m20 0h2M4 14h2m18 0h2M4 15h2m18 0h2M4 16h2m18 0h2m6 0h2M4 17h2m18 0h2m6 0h2M4 18h2m18 0h8m2 0h2M4 19h2m18 0h8m2 0h2M4 20h2m28 0h2M4 21h2m28 0h2M6 22h4m14 0h2m8 0h2M6 23h4m14 0h2m8 0h2m-26 1h2m10 0h2m2 0h2m6 0h2m-26 1h2m10 0h2m2 0h2m6 0h2m-26 1h2m4 0h2m6 0h2m2 0h6m-24 1h2m4 0h2m6 0h2m2 0h6m-24 1h2m2 0h2m2 0h2m2 0h2m-14 1h2m2 0h2m2 0h2m2 0h2m-14 1h2m2 0h2m2 0h2m4 0h2m-16 1h2m2 0h2m2 0h2m4 0h2"/><path stroke="#cea65f" d="M14 2h2m2 0h2m-6 1h2m2 0h2m-8 1h2m2 0h2m-6 1h2m2 0h2m-8 1h2m10 0h4M10 7h2m10 0h4M8 8h2M8 9h2m-2 9h2m-2 1h2"/><path stroke="#b3794d" d="M14 4h2m-2 1h2m-4 1h2m2 0h2m2 0h2m4 0h2M12 7h2m2 0h2m2 0h2m4 0h2M10 8h2m2 0h2m4 0h2m2 0h2M10 9h2m2 0h2m4 0h2m2 0h2M6 10h4m6 0h2M6 11h4m6 0h2M6 12h2m-2 1h2m-2 1h2m-2 1h2m-2 1h2m-2 1h2m-2 1h2m-2 1h2m0 1h2m-2 1h2m2 1h2m-2 1h2m0 1h2m4 0h2m-8 1h2m4 0h2m-8 1h2m6 0h2m-10 1h2m6 0h2"/><path stroke="#402830" d="M18 4h2m-2 1h2m-2 3h2m-2 1h2m-2 1h2m4 0h2m-8 1h2m4 0h2m-16 1h2m8 0h2m-12 1h2m8 0h2M8 14h2m10 0h4M8 15h2m10 0h4M8 16h2m10 0h2M8 17h2m10 0h2m-2 1h2m-2 1h2m-2 1h2m-2 1h2m-2 1h4m-4 1h4m-12 7h2m6 0h4m-12 1h2m6 0h4"/><path stroke="#de9e8c" d="M20 4h2m4 0h2m-8 1h2m4 0h2"/><path stroke="#ab684c" d="M14 6h2m2 0h2m-6 1h2m2 0h2m-8 1h2m2 0h2m-6 1h2m2 0h2m-8 1h2m2 0h2m-6 1h2m2 0h2m-8 1h2m2 0h2m2 0h2M8 13h2m2 0h2m2 0h2m-4 1h2m-2 1h2M6 20h2m-2 1h2"/><path stroke="#810b0b" d="M22 8h2m2 0h2m-6 1h2m2 0h2M18 20h2m-2 1h2m-6 1h2m-2 1h2m0 1h2m-2 1h2"/><path stroke="#8a4028" d="M12 10h2m6 0h4m2 0h2m-16 1h2m6 0h4m2 0h2m-14 1h2m2 0h2m-6 1h2m2 0h2m-4 1h4m-4 1h4m-6 1h4m4 0h2m-10 1h4m4 0h2m-6 5h2m-2 1h2m-8 1h2m4 0h2m-8 1h2m4 0h2m-8 3h2m6 0h2m-10 1h2m6 0h2"/><path stroke="#5e423c" d="M22 12h4m-4 1h4m-14 1h2m-2 1h2m-2 1h2m4 0h2m-8 1h2m4 0h2m2 3h8m-8 1h8m-18 5h2m4 0h4m-10 1h2m4 0h4"/><path stroke="#24131d" d="M10 14h2m-2 1h2m-2 1h2m-2 1h2m-2 1h2m10 0h2m-14 1h2m10 0h2m-14 1h2m-2 1h2m-2 1h2m14 0h4m-20 1h2m14 0h4"/><path stroke="#617077" d="M12 18h2m4 0h2m-8 1h2m4 0h2"/><path stroke="#99a5a7" d="M14 18h2m-2 1h2m14 1h4m-4 1h4"/><path stroke="#cbd2d9" d="M16 18h2m14 0h2m-18 1h2m14 0h2m-4 3h4m-4 1h4"/><path stroke="#4c0717" d="M12 20h2m-2 1h2"/><path stroke="#a82b12" d="M14 20h2m-2 1h2m0 1h2m-2 1h2"/><path stroke="#d45c1d" d="M16 20h2m-2 1h2"/><path stroke="#fff" d="M28 24h6m-6 1h6"/></svg>