<svg xmlns="http://www.w3.org/2000/svg" width="32" height="32" shape-rendering="crispEdges" viewBox="0 -0.5 36 35"><path stroke="#1a1c26" d="M14 7h4m-4 1h4m-8 1h4m4 0h4m-12 1h4m4 0h4M8 11h2m12 0h2m2 0h4M8 12h2m12 0h2m2 0h4M8 13h2m10 0h2m2 0h2m4 0h2M8 14h2m10 0h2m2 0h2m4 0h2M6 15h2m12 0h4m8 0h2M6 16h2m12 0h4m8 0h2M4 17h2m26 0h2M4 18h2m26 0h2M4 19h2m16 0h2m8 0h2M4 20h2m16 0h2m8 0h2M6 21h2m12 0h2m2 0h2m6 0h2M6 22h2m12 0h2m2 0h2m6 0h2m-14 1h2m2 0h2m4 0h2m-12 1h2m2 0h2m4 0h2M8 25h2m10 0h2m4 0h4M8 26h2m10 0h2m4 0h4M8 27h2m4 0h2m4 0h2M8 28h2m4 0h2m4 0h2M8 29h2m2 0h2m2 0h2m4 0h2M8 30h2m2 0h2m2 0h2m4 0h2"/><path stroke="#6ae291" d="M14 9h4m-4 1h4m-8 1h2m8 0h2m-12 1h2m8 0h2"/><path stroke="#50cd90" d="M12 11h8m-8 1h8m-4 1h2m-2 1h2M8 15h2m6 0h4M8 16h2m6 0h4M6 17h2m-2 1h2"/><path stroke="#0f343f" d="M10 13h2m-2 1h2m-4 3h4m-4 1h4m0 1h6m2 0h2m-10 1h6m2 0h2M8 21h4m-4 1h4"/><path stroke="#30a387" d="M12 13h2m-2 1h2m-4 1h2m2 0h2m-6 1h2m2 0h2m6 1h2m4 0h2m-8 1h2m4 0h2M6 19h6m-6 1h6m2 1h4m-4 1h4"/><path stroke="#c3435c" d="M14 13h2m2 0h2m-6 1h2m2 0h2"/><path stroke="#806352" d="M26 13h4m-4 1h4"/><path stroke="#17756e" d="M12 15h2m-2 1h2m0 1h4m2 0h2m-8 1h4m2 0h2m-4 1h2m-2 1h2m-8 1h2m4 0h2m-8 1h2m4 0h2"/><path stroke="#24131d" d="M24 15h2m2 0h2m-6 1h2m2 0h2m-6 1h2m-2 1h2m-2 1h2m2 0h2m-6 1h2m2 0h2m-2 1h2m-2 1h2M8 23h2m-2 1h2"/><path stroke="#bdbb93" d="M26 15h2m-2 1h2m-2 1h2m-2 1h2m-2 1h2m-2 1h2m-2 1h2m-2 1h2"/><path stroke="#5e423c" d="M30 15h2m-2 1h2m-2 1h2m-2 1h2m-2 1h2m-2 1h2m-2 1h2m-2 1h2"/><path stroke="#1a5556" d="M12 17h2m-2 1h2"/><path stroke="#0b3b44" d="M18 17h2m-2 1h2"/><path stroke="#8a4028" d="M10 23h2m6 0h2m-10 1h2m6 0h2m-10 1h2m2 0h2m2 0h2m-10 1h2m2 0h2m2 0h2m-8 1h2m2 0h2m-6 1h2m2 0h2m0 1h2m-2 1h2"/><path stroke="#b3794d" d="M12 23h6m-6 1h6m-6 1h2m2 0h2m-6 1h2m2 0h2m-8 1h2m6 0h2m-10 1h2m6 0h2"/><path stroke="#402830" d="M26 23h4m-4 1h4"/><path stroke="#dab580" d="M10 29h2m8 0h2m-12 1h2m8 0h2"/></svg>