<svg xmlns="http://www.w3.org/2000/svg" width="32" height="32" shape-rendering="crispEdges" viewBox="0 -0.5 36 35"><path stroke="#1a1c26" d="M12 3h8m6 0h4M12 4h8m6 0h4M10 5h2m8 0h2m2 0h2m4 0h2M10 6h2m8 0h2m2 0h2m4 0h2M8 7h2m12 0h2m2 0h2m4 0h2M8 8h2m12 0h2m2 0h2m4 0h2M6 9h2m14 0h4m2 0h2m2 0h2M6 10h2m14 0h4m2 0h2m2 0h2M4 11h2m16 0h4m2 0h2m2 0h2M4 12h2m16 0h4m2 0h2m2 0h2M4 13h2m16 0h2m2 0h4m2 0h2M4 14h2m16 0h2m2 0h4m2 0h2M6 15h2m14 0h2m4 0h2m2 0h2M6 16h2m14 0h2m4 0h2m2 0h2M6 17h2m14 0h8m2 0h2M6 18h2m14 0h8m2 0h2M6 19h2m2 0h2m16 0h2m2 0h2M6 20h2m2 0h2m16 0h2m2 0h2M6 21h2m2 0h2m10 0h8m2 0h2M6 22h2m2 0h2m10 0h8m2 0h2M8 23h4m10 0h2m4 0h2m2 0h2M8 24h4m10 0h2m4 0h2m2 0h2m-24 1h2m10 0h2m4 0h2m2 0h2m-24 1h2m10 0h2m4 0h2m2 0h2m-24 1h2m10 0h2m4 0h2m2 0h2m-24 1h2m10 0h2m4 0h2m2 0h2M8 29h2m14 0h2m2 0h2m2 0h2M8 30h2m14 0h2m2 0h2m2 0h2"/><path stroke="#ac6ca2" d="M12 5h8m-8 1h8M10 7h2m8 0h2M10 8h2m8 0h2M8 9h2m-2 1h2m-4 1h2m-2 1h2m-2 1h2m2 0h2m-6 1h2m2 0h2m-4 1h2m-2 1h2m-2 1h2m-2 1h2m-2 1h2m-2 1h2"/><path stroke="#a19477" d="M26 5h4m-4 1h4m0 1h2m-2 1h2"/><path stroke="#884b93" d="M12 7h6m-6 1h6m-8 1h6m-6 1h6m-8 1h2m2 0h2m-6 1h2m2 0h2m-2 1h2m-2 1h2m-4 1h4m-4 1h4m-2 1h2m-2 1h2m0 1h2m8 0h4m-14 1h2m8 0h4m-14 1h6m-6 1h6m-4 3h2m-2 1h2"/><path stroke="#552d72" d="M18 7h2m-2 1h2m-4 1h2m2 0h2m-6 1h2m2 0h2m-8 1h2m-2 1h2m-2 1h2m-2 1h2m-2 1h2m-2 1h2m-6 1h2m-2 1h2m0 1h2m8 0h2m-12 1h2m8 0h2m-12 1h2m6 0h2m-10 1h2m6 0h2m-10 3h4m2 0h4m-10 1h4m2 0h4m-10 1h2m2 0h2m2 0h2m-10 1h2m2 0h2m2 0h2m-12 1h2m2 0h2m2 0h2m2 0h2m-14 1h2m2 0h2m2 0h2m2 0h2"/><path stroke="#806352" d="M24 7h2m2 0h2m-6 1h2m2 0h2m0 1h2m-2 1h2"/><path stroke="#1a5556" d="M18 9h2m-2 1h2m-4 1h2m2 0h2m-6 1h2m2 0h2m-4 5h4m-4 1h4"/><path stroke="#eaf257" d="M26 9h2m-2 1h2"/><path stroke="#461565" d="M10 11h2m-2 1h2m-4 1h2m-2 1h2m4 13h2m2 0h2m-6 1h2m2 0h2m-8 1h2m2 0h2m2 0h2m-10 1h2m2 0h2m2 0h2"/><path stroke="#30a387" d="M18 11h2m-2 1h2m-4 3h2m-2 1h2M8 21h2m-2 1h2"/><path stroke="#94cc47" d="M26 11h2m-2 1h2"/><path stroke="#5e423c" d="M30 11h2m-2 1h2m-2 1h2m-2 1h2m-2 1h2m-2 1h2m-2 1h2m-2 1h2m-2 1h2m-2 1h2m-2 1h2m-2 1h2m-2 1h2m-2 1h2m-2 1h2m-2 1h2m-2 1h2m-2 1h2"/><path stroke="#a82b12" d="M16 13h2m2 0h2m-6 1h2m2 0h2"/><path stroke="#6ae291" d="M18 13h2m-2 1h2m-2 1h4m-4 1h4"/><path stroke="#0f343f" d="M14 17h2m-2 1h2m0 1h6m-6 1h6"/><path stroke="#17756e" d="M16 17h2m-2 1h2"/><path stroke="#7b0d69" d="M12 23h2m6 0h2m-10 1h2m6 0h2"/><path stroke="#a41057" d="M14 23h2m2 0h2m-6 1h2m2 0h2"/><path stroke="#c3435c" d="M16 23h2m-2 1h2"/><path stroke="#402830" d="M30 29h2m-2 1h2"/></svg>