<svg xmlns="http://www.w3.org/2000/svg" width="32" height="32" shape-rendering="crispEdges" viewBox="0 -0.5 36 35"><path stroke="#1a1c26" d="M10 0h2m2 0h6M8 1h2m2 0h2m6 0h2M8 2h2m2 0h2m6 0h2M8 3h2m12 0h4m4 0h2M8 4h2m12 0h4m4 0h2M6 5h2m14 0h2m2 0h4m2 0h2M6 6h2m14 0h2m2 0h4m2 0h2M6 7h2m24 0h2M6 8h2m24 0h2M8 9h2m24 0h2M8 10h2m24 0h2M6 11h2m26 0h2M6 12h2m26 0h2M6 13h2m26 0h2M6 14h2m26 0h2M8 15h2m22 0h2M8 16h2m22 0h2M6 17h2m24 0h2M6 18h2m24 0h2M4 19h2m26 0h2M4 20h2m26 0h2M4 21h2m16 0h2m8 0h2M4 22h2m16 0h2m8 0h2M4 23h2m8 0h2m2 0h6m8 0h2M4 24h2m8 0h2m2 0h6m8 0h2M6 25h2m4 0h2m2 0h2m4 0h2m2 0h4m2 0h2M6 26h2m4 0h2m2 0h2m4 0h2m2 0h4m2 0h2M6 27h2m2 0h2m2 0h2m6 0h2m2 0h4m2 0h2M6 28h2m2 0h2m2 0h2m6 0h2m2 0h4m2 0h2M8 29h2m2 0h2m2 0h2m6 0h2m2 0h4m2 0h2M8 30h2m2 0h2m2 0h2m6 0h2m2 0h4m2 0h2"/><path stroke="#fff" d="M10 1h2m-2 1h2m12 3h2m4 0h2m-8 1h2m4 0h2m-6 7h2m2 0h2m-6 1h2m2 0h2m-6 1h2m2 0h2m-6 1h2m2 0h2"/><path stroke="#99a5a7" d="M14 1h6m-6 1h6m0 1h2m-2 1h2M10 5h2m-2 1h2m14 1h2m2 0h2m-6 1h2m2 0h2m-8 1h2m2 0h2m2 0h2m-10 1h2m2 0h2m2 0h2m-10 1h2m6 0h2m-10 1h2m6 0h2m-2 1h2m-2 1h2m-16 3h6m-6 1h6m2 1h4m-4 1h4M6 21h2m16 0h2m4 0h2M6 22h2m16 0h2m4 0h2M8 25h2m-2 1h2m-2 1h2m14 0h2m4 0h2M8 28h2m14 0h2m4 0h2m-22 1h2m14 0h2m4 0h2m-24 1h2m14 0h2m4 0h2"/><path stroke="#cbd2d9" d="M10 3h2m-2 1h2m12 3h2m-2 1h2m0 1h2m2 0h2m-6 1h2m2 0h2m-4 1h2m-2 1h2m-6 1h2m2 0h2m-6 1h2m2 0h2m-6 1h2m-2 1h2m0 1h4m-4 1h4M6 19h2m16 0h2m4 0h2M6 20h2m16 0h2m4 0h2m-6 1h4m-4 1h4m-6 1h2m4 0h2m-8 1h2m4 0h2m-8 1h2m4 0h2m-8 1h2m4 0h2"/><path stroke="#24131d" d="M12 3h2m-2 1h2m-2 1h2m-2 1h2m-2 1h2m-2 1h2m-2 1h2m-2 1h2m-6 1h2m2 0h2m-6 1h2m2 0h2m-2 1h2m-2 1h2m-2 1h2m-2 1h2m-6 1h2m2 0h2m-6 1h2m2 0h2m-6 1h2m2 0h2m-6 1h2m2 0h2m-6 1h2m2 0h2m-6 1h2m2 0h2m-6 1h2m2 0h2m-6 1h2m2 0h2m-4 1h2m-2 1h2"/><path stroke="#617077" d="M14 3h4m-4 1h4M8 5h2m4 0h2M8 6h2m4 0h2m6 1h2m4 0h2m-8 1h2m4 0h2m-8 1h2m-2 1h2m-2 1h2m-2 1h2m-2 1h2m-2 1h2m-8 5h8m-8 1h8m-8 1h2m-2 1h2M6 23h2m-2 1h2m4 3h2m-2 1h2m0 1h2m-2 1h2"/><path stroke="#1a5556" d="M18 3h2m-2 1h2m-4 1h2m2 0h2m-6 1h2m2 0h2m-8 1h2m-2 1h2m-2 1h2m-2 1h2m2 1h4m-4 1h4"/><path stroke="#4ba245" d="M18 5h2m-2 1h2m-4 3h2m-2 1h2"/><path stroke="#3c4851" d="M8 7h2M8 8h2m4 5h2m-2 1h2m2 1h6m4 0h2m-12 1h6m4 0h2m-6 1h2m4 0h2m-8 1h2m4 0h2m-14 3h4m-4 1h4m-6 1h2m8 0h4m-14 1h2m8 0h4m-16 1h2m-2 1h2"/><path stroke="#b3794d" d="M10 7h2m-2 1h2"/><path stroke="#a82b12" d="M16 7h2m2 0h2m-6 1h2m2 0h2m4 3h2m2 0h2m-6 1h2m2 0h2"/><path stroke="#94cc47" d="M18 7h2m-2 1h2m-2 1h4m-4 1h4"/><path stroke="#8a4028" d="M10 9h2m-2 1h2m-2 1h2m-2 1h2m-2 1h2m-2 1h2m-2 1h2m-2 1h2m-2 1h2m-2 1h2m-2 1h2m-2 1h2m-2 1h2m-2 1h2m-2 1h2m-2 1h2"/><path stroke="#0f343f" d="M14 11h2m-2 1h2m0 1h6m-6 1h6"/><path stroke="#2c7d63" d="M16 11h2m-2 1h2M8 13h2m-2 1h2"/><path stroke="#ab684c" d="M14 15h2m-2 1h2"/><path stroke="#cea65f" d="M16 15h2m-2 1h2"/><path stroke="#5e423c" d="M14 17h2m-2 1h2"/><path stroke="#402830" d="M16 17h2m-2 1h2m-4 1h2m-2 1h2"/><path stroke="#806352" d="M14 21h2m-2 1h2"/></svg>