<svg xmlns="http://www.w3.org/2000/svg" width="32" height="32" shape-rendering="crispEdges" viewBox="0 -0.5 36 35"><path stroke="#1a1c26" d="M14 5h6m-6 1h6M10 7h4m6 0h2M10 8h4m6 0h2M8 9h2m12 0h2M8 10h2m12 0h2M6 11h2m14 0h2m2 0h2M6 12h2m14 0h2m2 0h2M6 13h2m2 0h2m10 0h4m2 0h2M6 14h2m2 0h2m10 0h4m2 0h2M8 15h2m12 0h2m6 0h2M8 16h2m12 0h2m6 0h2M6 17h2m14 0h2m6 0h2M6 18h2m14 0h2m6 0h2M6 19h2m2 0h2m10 0h4m4 0h2M6 20h2m2 0h2m10 0h4m4 0h2M6 21h2m4 0h2m8 0h2m2 0h2m2 0h2M6 22h2m4 0h2m8 0h2m2 0h2m2 0h2M8 23h2m12 0h2m4 0h4M8 24h2m12 0h2m4 0h4m-22 1h2m10 0h2m2 0h2m4 0h2m-24 1h2m10 0h2m2 0h2m4 0h2m-24 1h2m4 0h2m4 0h2m2 0h2m4 0h2m-24 1h2m4 0h2m4 0h2m2 0h2m4 0h2m-24 1h2m2 0h2m2 0h2m4 0h2m2 0h4m-22 1h2m2 0h2m2 0h2m4 0h2m2 0h4"/><path stroke="#99a5a7" d="M14 7h6m-6 1h6M10 9h4m6 0h2m-12 1h4m6 0h2M8 11h2m-2 1h2m-2 1h2m-2 1h2m0 1h2m12 0h2m-16 1h2m12 0h2M8 17h2m18 0h2M8 18h2m18 0h2M8 19h2m-2 1h2m18 1h2m-2 1h2m0 3h2m-2 1h2"/><path stroke="#617077" d="M14 9h4m-4 1h4m-8 1h6m-6 1h6m-4 1h2m-2 1h2m-2 1h2m-2 1h2m-4 1h4m10 0h2m-16 1h4m10 0h2m-12 1h2m-2 1h2m0 1h4m-4 1h4m8 5h2m-2 1h2"/><path stroke="#1a5556" d="M18 9h2m-2 1h2m-4 1h2m2 0h2m-6 1h2m2 0h2m-8 1h2m-2 1h2m-2 1h2m-2 1h2m2 1h4m-4 1h4"/><path stroke="#4ba245" d="M18 11h2m-2 1h2m-4 3h2m-2 1h2m-8 5h2m-2 1h2"/><path stroke="#c3435c" d="M16 13h2m2 0h2m-6 1h2m2 0h2"/><path stroke="#94cc47" d="M18 13h2m-2 1h2m-2 1h4m-4 1h4"/><path stroke="#cbd2d9" d="M26 13h2m-2 1h2m0 1h2m-2 1h2m-2 3h2m-2 1h2m-2 5h2m-2 1h2"/><path stroke="#806352" d="M26 15h2m-2 1h2M12 29h2m8 0h2m-12 1h2m8 0h2"/><path stroke="#0f343f" d="M14 17h2m-2 1h2m0 1h6m-6 1h6"/><path stroke="#2c7d63" d="M16 17h2m-2 1h2M8 21h2m-2 1h2"/><path stroke="#5e423c" d="M26 17h2m-2 1h2m-16 7h4m2 0h4m-10 1h4m2 0h4m-10 1h2m6 0h2m-10 1h2m6 0h2"/><path stroke="#3c4851" d="M12 19h2m-2 1h2m0 1h2m4 0h2m-8 1h2m4 0h2m8 5h2m-2 1h2"/><path stroke="#24131d" d="M26 19h2m-2 1h2m-18 3h2m-2 1h2"/><path stroke="#402830" d="M12 23h2m-2 1h2m2 1h2m-2 1h2m-4 1h2m2 0h2m-6 1h2m2 0h2m0 1h2m-2 1h2"/><path stroke="#8a4028" d="M14 23h2m4 0h2m-8 1h2m4 0h2"/><path stroke="#ab684c" d="M16 23h2m-2 1h2"/><path stroke="#cea65f" d="M18 23h2m-2 1h2"/></svg>