<svg xmlns="http://www.w3.org/2000/svg" width="64" height="64" shape-rendering="crispEdges" viewBox="0 -0.5 32 32"><path stroke="#372840" d="M10 0h5M9 1h1m5 0h1M8 2h1m7 0h1M8 3h1m7 0h1M8 4h1m7 0h1M7 5h2m7 0h1M4 6h3m9 0h3M3 7h1m15 0h1M2 8h1m17 0h1m4 0h1M1 9h1m19 0h1m2 0h1m1 0h1M1 10h1m19 0h1m2 0h1m1 0h1M1 11h1m20 0h1m1 0h1m1 0h1M1 12h1m3 0h1m12 0h1m3 0h1m1 0h1m1 0h1M1 13h1m3 0h1m12 0h1m4 0h1m2 0h1M1 14h1m3 0h1m11 0h1m1 0h1m7 0h1M1 15h1m4 0h1m9 0h1m3 0h1m6 0h1M2 16h1m3 0h1m9 0h1m4 0h2m4 0h1M2 17h1m3 0h2m8 0h1m6 0h2m1 0h1M3 18h3m1 0h10m7 0h1m1 0h1M7 19h1m9 0h1m6 0h1m1 0h1M7 20h1m9 0h1m6 0h1m1 0h1M7 21h1m9 0h1m6 0h1m1 0h1M7 22h1m10 0h1m5 0h1m1 0h1M7 23h1m10 0h1m5 0h1m1 0h1M7 24h1m8 0h3m5 0h1m1 0h1M7 25h1m7 0h1m2 0h1m5 0h1m1 0h1M7 26h1m3 0h4m3 0h1m2 0h1m1 0h2m1 0h2m1 0h1M7 27h1m3 0h1m2 0h1m2 0h1m2 0h1m1 0h1m5 0h1m1 0h1M7 28h1m2 0h1m3 0h1m2 0h1m2 0h1m9 0h1M7 29h1m2 0h1m3 0h1m3 0h1m1 0h1m9 0h1M7 30h1m3 0h1m2 0h1m4 0h2m1 0h1m5 0h1m1 0h1M7 31h1m4 0h1m1 0h1m5 0h2m1 0h5m1 0h1"/><path stroke="#807b7a" d="M10 1h1m3 0h1M9 2h1m1 0h1m-2 1h1M9 4h1M9 5h1m11 25h1m1 0h5m1 0h1"/><path stroke="#a69e9a" d="M11 1h2m-3 1h1m4 0h1M9 3h1m5 0h1m-6 1h1m4 0h1m-6 1h1m4 0h1"/><path stroke="#dceaee" d="M13 1h1m-2 1h3m-4 1h1m1 0h1m-1 1h1M7 6h3M4 7h7m4 0h4M3 8h9m1 0h7M2 9h3m1 0h6m1 0h8M3 10h2m2 0h5m1 0h5m1 0h2M7 11h5m1 0h4m3 0h2m-1 1h1M9 13h3m1 0h2m7 0h1m1 0h2m-3 1h1m1 0h1M4 15h2m20 0h1m-1 1h1"/><path stroke="#886e6a" d="M12 3h1m1 0h1"/><path stroke="#b8ccd8" d="M11 4h2m1 0h1m-3 1h2m-4 1h1m1 0h2m1 0h1m-5 1h1m2 0h1m-3 1h1M5 9h1m6 0h1M2 10h1m3 0h1m5 0h1M2 11h3m7 0h1m4 0h1m1 0h1M3 12h2m2 0h10m3 0h1M2 13h1m5 0h1m3 0h1m2 0h1m5 0h1M3 14h2m7 0h1m9 0h1m1 0h1m1 0h1m-17 1h2m1 0h1m9 0h1M4 16h2m3 9h1m7 0h1m-8 1h1m6 0h1m-8 1h1m5 0h1m-8 1h1m6 0h1m-8 1h1m7 0h1m-8 1h1m7 0h1m-9 1h2m7 0h1"/><path stroke="#88a3bc" d="M11 5h1m2 0h1m-4 1h1m2 0h1m-3 1h2m-9 3h1m12 0h1M6 11h1m-5 1h1m14 0h1M3 13h2m2 0h1m8 0h1m3 0h1M2 14h1m5 0h4m1 0h3m5 0h1M2 15h2m5 0h1m2 0h1m1 0h1m7 0h1m1 0h1M3 16h1m19 0h2M4 17h2m10 8h1m-8 1h1m6 0h1m-8 1h1m6 2h1m-8 1h1m7 0h1m0 1h1"/><path stroke="#c5c7dd" d="M25 9h1m-16 7h4m7 11h1m1 0h5m1 0h1"/><path stroke="#696682" d="M25 10h1M8 16h1m6 0h1m-7 1h1m4 0h1m10 9h1m-2 3h3"/><path stroke="#5e718e" d="M5 11h1m12 0h1M6 12h1m12 0h1m-1 1h1M7 14h1m12 0h1M8 15h1m12 0h1M3 17h1m4 8h1m-1 1h1m-1 1h1m-1 1h1m-1 1h1m-1 1h1m7 0h1m-8 1h1m7 0h1"/><path stroke="#9a97b9" d="M25 11h1m-1 1h1m-1 3h1M9 16h1m4 0h1m10 0h1m-16 1h4m11 0h1m-1 1h1m-1 1h1m-1 1h1m-1 1h1m-1 1h1m-1 1h1m-1 1h1m-1 1h1m-5 3h1m1 0h1m3 0h1m1 0h1m-9 1h1m1 0h1m3 0h1m1 0h1"/><path stroke="#485262" d="M6 13h1m10 0h1M6 14h1m9 0h1M7 15h1m7 0h1m-1 11h1m-1 1h1m-1 1h1m-1 1h1m-1 1h1m-8 1h1m6 0h2"/><path stroke="#464762" d="M7 16h1m0 1h1m6 0h1m6 11h1m1 0h3m1 0h1m-7 1h1m5 0h1"/><path stroke="#673931" d="M8 19h1m-1 1h1m1 0h1m3 0h1m-7 1h1m2 0h1m1 0h1m-5 1h1m2 0h1m2 0h1m-7 1h1m2 0h1m3 0h1m-5 1h1m0 1h1"/><path stroke="#452a1b" d="M9 19h7m-5 1h3m-2 1h1"/><path stroke="#b05b2c" d="M16 19h1m-8 1h1m5 0h1m-6 1h1m3 0h2m-8 1h1m2 0h1m1 0h1m2 0h1m-9 1h1m2 0h1m1 0h1m1 0h1m1 0h1m-8 1h1m2 0h2m-3 1h1m1 0h1"/><path stroke="#e88a36" d="M16 20h1m-8 1h1m6 0h1m-7 1h1m3 0h1m2 0h1m-8 1h1m3 0h1m-4 1h1m3 0h1m-5 1h1"/><path stroke="#2a2a41" d="M8 24h2m0 1h1"/></svg>