<svg xmlns="http://www.w3.org/2000/svg" width="32" height="32" shape-rendering="crispEdges" viewBox="0 -0.5 36 36"><path stroke="#1c0b21" d="M10 6h14M10 7h14M8 8h2m14 0h2M8 9h2m14 0h2M6 10h2m18 0h2M6 11h2m18 0h2M4 12h2m8 0h6m6 0h2M4 13h2m8 0h6m6 0h2M4 14h2m6 0h2m6 0h2m4 0h2M4 15h2m6 0h2m6 0h2m4 0h2M4 16h2m8 0h6m2 0h4M4 17h2m8 0h6m2 0h4M4 18h2m14 0h2M4 19h2m14 0h2M4 20h2m16 0h4M4 21h2m16 0h4M2 22h2m22 0h2M2 23h2m22 0h2M0 24h2m24 0h2M0 25h2m24 0h2M0 26h2m26 0h2M0 27h2m26 0h2M0 28h2m26 0h2M0 29h2m26 0h2M0 30h2m26 0h2M0 31h2m26 0h2M2 32h2m22 0h2M2 33h2m22 0h2"/><path stroke="#0b5d40" d="M10 8h2m10 0h2M10 9h2m10 0h2M8 10h2m14 0h2M8 11h2m14 0h2M6 12h2m-2 1h2m4 3h2m-2 1h2m-6 3h2m-2 1h2m-6 1h2m4 0h2m12 0h2M4 23h2m4 0h2m12 0h2m-2 1h2m-2 1h2M2 26h2m22 0h2M2 27h2m22 0h2M2 28h2m22 0h2M2 29h2m22 0h2M4 30h2m18 0h2M4 31h2m18 0h2"/><path stroke="#1a946c" d="M12 8h10M12 9h10m-10 3h2m-2 1h2m-8 1h2m-2 1h2m-2 1h2m-2 1h2m-2 1h2m4 0h8M6 19h2m4 0h8m0 1h2m-2 1h2M8 22h2m12 0h2M8 23h2m12 0h2M4 24h2m-2 1h2m-2 1h2m18 0h2M4 27h2m18 0h2M4 28h2m18 0h2M4 29h2m18 0h2M6 30h18M6 31h18"/><path stroke="#3ab99d" d="M10 10h2m10 0h2m-14 1h2m10 0h2M8 12h2m10 0h2m2 0h2M8 13h2m10 0h2m2 0h2m-16 1h2m-2 1h2m-2 1h2m-2 1h2m-6 5h2m-2 1h2m14 1h2m-2 1h2M6 28h2m-2 1h2"/><path stroke="#6de6e7" d="M12 10h10m-10 1h10m-12 1h2m10 0h2m-14 1h2m10 0h2M8 14h2m12 0h4M8 15h2m12 0h4M8 16h2m-2 1h2m-2 1h4m-4 1h4m-2 1h10m-10 1h10m-8 1h2m2 0h2m2 0h2m-10 1h2m2 0h2m2 0h2M6 24h10m2 0h4M6 25h10m2 0h4M6 26h6m2 0h2m2 0h2m2 0h2M6 27h6m2 0h2m2 0h2m2 0h2m-14 1h2m2 0h2m2 0h2m2 0h2m-14 1h2m2 0h2m2 0h2m2 0h2"/><path stroke="#1d1d1c" d="M6 20h2m-2 1h2"/><path stroke="#676920" d="M14 22h2m2 0h2m-6 1h2m2 0h2"/><path stroke="#073a31" d="M2 24h2m-2 1h2m-2 5h2m22 0h2M2 31h2m22 0h2"/><path stroke="#395609" d="M16 24h2m-2 1h2m-6 1h2m2 0h2m2 0h2m-10 1h2m2 0h2m2 0h2M8 28h2m-2 1h2"/><path stroke="#164402" d="M12 28h2m6 0h2m-10 1h2m6 0h2"/><path stroke="#0a3001" d="M16 28h2m-2 1h2"/><path stroke="#083830" d="M4 32h2m18 0h2M4 33h2m18 0h2"/><path stroke="#0c5a3f" d="M6 32h18M6 33h18"/></svg>