<svg xmlns="http://www.w3.org/2000/svg" width="32" height="32" shape-rendering="crispEdges" viewBox="0 -0.5 35 36"><path stroke="#1d1d1c" d="M12 6h8m-8 1h8M8 8h4m8 0h4M8 9h4m8 0h4M6 10h2m16 0h2M6 11h2m16 0h2M4 12h2m20 0h2M4 13h2m20 0h2M2 14h2m22 0h2M2 15h2m22 0h2M2 16h2m22 0h2M2 17h2m22 0h2M2 18h2m22 0h2M2 19h2m22 0h2M4 20h2m20 0h2M4 21h2m20 0h2M6 22h2m14 0h4M6 23h2m14 0h4M8 24h2m10 0h2M8 25h2m10 0h2M8 26h2m10 0h2M8 27h2m10 0h2M8 28h2m4 0h2m4 0h2M8 29h2m4 0h2m4 0h2M8 30h2m2 0h2m2 0h2m2 0h2M8 31h2m2 0h2m2 0h2m2 0h2M8 32h2m2 0h2m4 0h2m2 0h2M8 33h2m2 0h2m4 0h2m2 0h2"/><path stroke="#897a71" d="M12 8h8m-8 1h8M4 16h2m-2 1h2m-2 1h2m6 0h2m4 0h2M4 19h2m6 0h2m4 0h2M8 20h2m4 0h4M8 21h2m4 0h4m-8 11h2m-2 1h2"/><path stroke="#cb804a" d="M8 10h4m8 0h4M8 11h4m8 0h4M6 12h2m16 0h2M6 13h2m16 0h2M6 14h6m10 0h4M6 15h6m10 0h4"/><path stroke="#625353" d="M12 10h8m-8 1h8m-8 1h2m2 0h2m-6 1h2m2 0h2m-2 1h2m-2 1h2M6 18h2m16 0h2M6 19h2m16 0h2m-14 1h2m4 0h2m2 0h2m-12 1h2m4 0h2m2 0h2m-10 1h4m-4 1h4m-6 1h2m4 0h2m-8 1h2m4 0h2m-8 1h2m4 0h2m-8 1h2m4 0h2m-8 1h2m4 0h2m-8 1h2m4 0h2m-2 1h2m-2 1h2m0 1h2m-2 1h2"/><path stroke="#682a19" d="M8 12h4m8 0h4M8 13h4m8 0h4"/><path stroke="#ffd569" d="M14 12h2m2 0h2m-6 1h2m2 0h2"/><path stroke="#371115" d="M4 14h2m8 0h2m2 0h2M4 15h2m8 0h2m2 0h2M6 16h8m6 0h6M6 17h8m6 0h6"/><path stroke="#f6c4a6" d="M12 14h2m6 0h2m-10 1h2m6 0h2"/><path stroke="#3e373d" d="M14 16h4m-4 1h4m-8 1h2m8 0h2m-12 1h2m8 0h2m-10 3h2m4 0h2m-8 1h2m4 0h2m-10 1h2m2 0h4m-8 1h2m2 0h4m-8 1h2m2 0h4m-8 1h2m2 0h4m-8 1h2m-2 1h2m-2 1h2m-2 1h2"/><path stroke="#1e2028" d="M18 16h2m-2 1h2M8 18h2m4 0h4m4 0h2M8 19h2m4 0h4m4 0h2m-14 1h2m8 0h2m-12 1h2m8 0h2M8 22h4m8 0h2M8 23h4m8 0h2m-6 5h2m-2 1h2"/><path stroke="#ffc02a" d="M6 20h2m16 0h2M6 21h2m16 0h2"/></svg>