<svg xmlns="http://www.w3.org/2000/svg" width="32" height="32" shape-rendering="crispEdges" viewBox="0 -0.5 36 37"><path stroke="#12173d" d="M14 12h2m4 0h2m-8 1h2m4 0h2m-10 1h2m2 0h4m2 0h2m-12 1h2m2 0h4m2 0h2m-12 1h2m8 0h2m-12 1h2m8 0h2m-12 1h2m8 0h2m-12 1h2m8 0h2m-14 1h2m12 0h4m-18 1h2m12 0h4M8 22h2m18 0h2M8 23h2m18 0h2M6 24h2m22 0h2M6 25h2m22 0h2M6 26h2m22 0h2M6 27h2m22 0h2M6 28h2m22 0h2M6 29h2m22 0h2M6 30h2m22 0h2M6 31h2m22 0h2M8 32h2m14 0h6M8 33h2m14 0h6M6 34h2m4 0h2m4 0h2m4 0h2M6 35h2m4 0h2m4 0h2m4 0h2"/><path stroke="#cdc599" d="M14 14h2m4 0h2m-8 1h2m4 0h2m-6 19h2m4 0h2m-8 1h2m4 0h2"/><path stroke="#42bc7f" d="M14 16h8m-8 1h8m-4 1h2m-2 1h2m-2 1h6m-6 1h6m-14 1h4m12 0h2m-18 1h4m12 0h2M8 24h2m18 0h2M8 25h2m18 0h2M8 26h2m4 0h2m6 0h2m4 0h2M8 27h2m4 0h2m6 0h2m4 0h2M8 28h2m2 0h2m10 0h2m2 0h2M8 29h2m2 0h2m10 0h2m2 0h2M8 30h2m18 0h2M8 31h2m18 0h2M8 34h2m-2 1h2"/><path stroke="#22896e" d="M14 18h2m-2 1h2m-2 1h4m-4 1h4m-2 1h2m2 0h2m-6 1h2m2 0h2m-12 1h4m2 0h2m6 0h4m-18 1h4m2 0h2m6 0h4m-18 9h2m-2 1h2"/><path stroke="#78fae6" d="M16 18h2m2 0h2m-6 1h2m2 0h2"/><path stroke="#0a2a33" d="M12 20h2m-2 1h2m0 1h2m8 0h2m-12 1h2m8 0h2m-12 1h2m2 0h6m-10 1h2m2 0h6m-12 1h2m10 0h2m-14 1h2m10 0h2m-16 1h2m2 0h2m10 0h2m-18 1h2m2 0h2m10 0h2m-16 1h2m8 0h4m-14 1h2m8 0h4m-16 1h4m2 0h2m4 0h2m-14 1h4m2 0h2m4 0h2"/><path stroke="#0f4a4c" d="M18 22h2m2 0h2m-6 1h2m2 0h2m-14 7h2m4 0h2m2 0h2m4 0h2m-18 1h2m4 0h2m2 0h2m4 0h2m-10 1h2m-2 1h2"/><path stroke="#14665b" d="M10 26h2m4 0h2m2 0h2m4 0h2m-18 1h2m4 0h2m2 0h2m4 0h2m-12 1h2m2 0h4m-8 1h2m2 0h4m-10 1h2m-2 1h2m-2 1h2m4 0h2m-8 1h2m4 0h2m-8 1h2m4 0h2m-8 1h2m4 0h2"/><path stroke="#e6904e" d="M18 26h2m-2 1h2m-2 3h2m-2 1h2"/><path stroke="#fbb954" d="M18 28h2m-2 1h2"/></svg>