<svg xmlns="http://www.w3.org/2000/svg" width="32" height="32" shape-rendering="crispEdges" viewBox="0 -0.5 36 37"><path stroke="#12173d" d="M12 4h2m2 0h2m6 0h2M12 5h2m2 0h2m6 0h2M8 6h4m2 0h2m2 0h2m2 0h2m2 0h4M8 7h4m2 0h2m2 0h2m2 0h2m2 0h4M6 8h2m12 0h2m8 0h2M6 9h2m12 0h2m8 0h2M4 10h2m24 0h2M4 11h2m24 0h2M2 12h2m28 0h2M2 13h2m28 0h2M2 14h2m28 0h2M2 15h2m28 0h2M2 16h2m28 0h2M2 17h2m28 0h2M2 18h2m28 0h2M2 19h2m28 0h2M4 20h2m24 0h2M4 21h2m24 0h2M4 22h2m2 0h2m18 0h2M4 23h2m2 0h2m18 0h2M6 24h2m2 0h2m16 0h2M6 25h2m2 0h2m16 0h2m-20 1h2m16 0h2m-20 1h2m16 0h2M8 28h2m18 0h2M8 29h2m18 0h2M6 30h2m20 0h2M6 31h2m20 0h2M4 32h2m22 0h2M4 33h2m22 0h2M4 34h2m6 0h2m4 0h2m10 0h2M4 35h2m6 0h2m4 0h2m10 0h2"/><path stroke="#42bc7f" d="M12 6h2m-2 1h2M8 8h4M8 9h4m-6 1h2m12 0h4M6 11h2m12 0h4M4 12h2m12 0h8M4 13h2m12 0h8M4 14h2m16 0h2M4 15h2m16 0h2M4 16h2m16 0h6M4 17h2m16 0h6M4 18h2m10 0h2m6 0h2M4 19h2m10 0h2m6 0h2M6 20h2m6 0h2M6 21h2m6 0h2M6 22h2m4 0h2m-8 1h2m4 0h2m-2 1h2m-2 1h2m-2 1h2m-2 1h2m-4 1h2m-2 1h2m-4 1h2m-2 1h2m-4 1h2m-2 1h2m-2 1h6m-6 1h6"/><path stroke="#cdc599" d="M16 6h2m6 0h2M16 7h2m6 0h2M16 34h2m2 0h2m2 0h2m2 0h2m-14 1h2m2 0h2m2 0h2m2 0h2"/><path stroke="#22896e" d="M12 8h2m14 0h2M12 9h2m14 0h2M8 10h2m2 0h2m14 0h2M8 11h2m2 0h2m14 0h2M6 12h2m2 0h2m18 0h2M6 13h2m2 0h2m18 0h2M6 14h2m2 0h2m6 0h2m10 0h2M6 15h2m2 0h2m6 0h2m10 0h2M6 16h2m4 0h2m6 0h2m8 0h2M6 17h2m4 0h2m6 0h2m8 0h2M6 18h2m6 0h2m14 0h2M6 19h2m6 0h2m14 0h2m-16 1h4m-4 1h4m-6 1h6m-6 1h6m-6 1h2m2 0h4m-8 1h2m2 0h4m-2 1h4m-4 1h4m-12 1h4m6 0h2m-12 1h4m6 0h2m-14 1h2m2 0h2m6 0h2m-14 1h2m2 0h2m6 0h2m-2 1h2m-2 1h2m-2 1h2m-2 1h2"/><path stroke="#0a2a33" d="M14 8h2m2 0h2m2 0h2m2 0h2M14 9h2m2 0h2m2 0h2m2 0h2m-14 1h2m2 0h2m6 0h2m-14 1h2m2 0h2m6 0h2m-16 1h2m2 0h2m8 0h2m-16 1h2m2 0h2m8 0h2m-16 1h2m2 0h2m8 0h2m-16 1h2m2 0h2m8 0h2m-14 1h4m10 0h2m-16 1h4m10 0h2m-12 1h2m8 0h2m-12 1h2m8 0h2m-10 1h2m6 0h2m-10 1h2m6 0h2m-8 1h6m-6 1h6M8 32h4m-4 1h4"/><path stroke="#988f64" d="M16 8h2m6 0h2M16 9h2m6 0h2"/><path stroke="#14665b" d="M10 10h2m-2 1h2m-4 1h2m-2 1h2m-2 1h2m-2 1h2m0 1h2m6 0h2m-10 1h2m6 0h2m-8 1h2m6 0h2m-10 1h2m6 0h2M8 20h2m12 0h6M8 21h2m12 0h6m-8 1h2m-2 1h2m-6 1h2m4 0h2m2 0h2m-12 1h2m4 0h2m2 0h2m-12 1h2m8 0h2m-12 1h2m8 0h2m-2 1h2m-2 1h2m-16 1h2m12 0h2m-16 1h2m12 0h2m-16 1h4m2 0h2m6 0h2m-16 1h4m2 0h2m6 0h2m-14 1h2m-2 1h2"/><path stroke="#5c5d41" d="M16 10h2m6 0h2m-10 1h2m6 0h2"/><path stroke="#0f4a4c" d="M28 12h2m-2 1h2m-2 1h2m-2 1h2M8 16h2m-2 1h2m-2 1h4m10 0h2m2 0h2M8 19h4m10 0h2m2 0h2m-18 1h4m-4 1h4m-4 1h2m-2 1h2m2 3h2m2 0h2m-6 1h2m2 0h2m-4 1h2m2 0h2m2 0h2m-10 1h2m2 0h2m2 0h2m-10 1h2m2 0h2m2 0h2m-10 1h2m2 0h2m2 0h2m-10 1h2m2 0h2m2 0h2m-10 1h2m2 0h2m2 0h2m0 1h2m-2 1h2"/><path stroke="#78fae6" d="M20 14h2m2 0h2m-6 1h2m2 0h2"/><path stroke="#e6904e" d="M24 24h2m-2 1h2m-8 3h2m-2 1h2"/><path stroke="#fbb954" d="M24 26h2m-2 1h2m-8 3h2m-2 1h2"/></svg>