<svg xmlns="http://www.w3.org/2000/svg" width="32" height="32" shape-rendering="crispEdges" viewBox="0 -0.5 35 36"><path stroke="#1d1d1c" d="M10 4h2m12 0h2M10 5h2m12 0h2M6 6h2m2 0h4m8 0h4M6 7h2m2 0h4m8 0h4M6 8h2m2 0h2m2 0h2m4 0h2m2 0h2M6 9h2m2 0h2m2 0h2m4 0h2m2 0h2M4 10h2m2 0h2m6 0h4m4 0h2M4 11h2m2 0h2m6 0h4m4 0h2M4 12h2m4 0h2m14 0h2M4 13h2m4 0h2m14 0h2M4 14h2m20 0h2M4 15h2m20 0h2M4 16h2m20 0h2M4 17h2m20 0h2M4 18h2m20 0h2M4 19h2m20 0h2M4 20h2m20 0h2M4 21h2m20 0h2M4 22h2m20 0h2M4 23h2m20 0h2M4 24h2m2 0h2m12 0h2m2 0h2M4 25h2m2 0h2m12 0h2m2 0h2M6 26h2m2 0h2m8 0h2m2 0h2M6 27h2m2 0h2m8 0h2m2 0h2m-14 1h2m6 0h2m-10 1h2m6 0h2m-10 1h2m6 0h2m-10 1h2m6 0h2m-10 1h2m8 0h2m-12 1h2m8 0h2"/><path stroke="#897a71" d="M12 8h2m8 0h2M12 9h2m8 0h2"/><path stroke="#f26e26" d="M6 10h2m-2 1h2m0 1h2m8 0h2M8 13h2m8 0h2m-10 1h2m-2 1h2m0 3h2m-2 1h2m0 1h2m-2 1h2m0 1h4m-4 1h4"/><path stroke="#4d0a1a" d="M12 10h2m8 0h2m-12 1h2m8 0h2m-12 1h2m8 0h2m-12 1h2m8 0h2m-12 1h2m8 0h2m-12 1h2m8 0h2m-12 1h2m8 0h2m-12 1h2m8 0h2m-14 1h2m2 0h2m4 0h2m-12 1h2m2 0h2m4 0h2M8 20h2m12 0h2M8 21h2m12 0h2M8 22h2m14 0h2M8 23h2m14 0h2m-14 1h2m-2 1h2m0 1h2m-2 1h2m0 3h2m-2 1h2"/><path stroke="#625353" d="M14 10h2m4 0h2m-8 1h2m4 0h2"/><path stroke="#e84444" d="M6 12h2m16 0h2M6 13h2m16 0h2m-8 1h2m4 0h2m-8 1h2m4 0h2m-16 5h4m6 0h2m-12 1h4m6 0h2m-8 1h2m4 0h2m-8 1h2m4 0h2m-6 1h4m-4 1h4m-8 1h2m-2 1h2"/><path stroke="#444443" d="M14 12h2m-2 1h2m-2 1h2m-2 1h2m-2 1h2m-2 1h2"/><path stroke="#c1f567" d="M16 12h2m2 0h2m-6 1h2m2 0h2m-4 3h2m-2 1h2"/><path stroke="#d31212" d="M6 14h2m8 0h2m2 0h2M6 15h2m8 0h2m2 0h2M6 16h2m16 0h2M6 17h2m16 0h2M6 18h2m16 0h2M6 19h2m16 0h2M6 20h2m16 0h2M6 21h2m16 0h2M6 22h2m2 0h2m10 0h2M6 23h2m2 0h2m10 0h2M6 24h2m2 0h2m12 0h2M6 25h2m2 0h2m12 0h2m-12 3h2m2 0h2m-6 1h2m2 0h2m-6 1h2m2 0h2m-6 1h2m2 0h2"/><path stroke="#6d1d51" d="M8 14h2m-2 1h2m-2 1h4m-4 1h4m-4 1h2m-2 1h2m6 1h4m-4 1h4"/><path stroke="#6ac81f" d="M16 16h2m2 0h2m-6 1h2m2 0h2"/><path stroke="#ac162d" d="M16 18h4m-4 1h4m-8 3h2m-2 1h2m0 1h2m4 0h2m-8 1h2m4 0h2m-6 1h4m-4 1h4"/><path stroke="#4d1446" d="M22 18h2m-2 1h2m-8 9h2m-2 1h2"/><path stroke="#3d3f4b" d="M14 32h2m2 0h2m-6 1h2m2 0h2"/><path stroke="#67656d" d="M16 32h2m2 0h2m-6 1h2m2 0h2"/></svg>