<svg xmlns="http://www.w3.org/2000/svg" width="32" height="32" shape-rendering="crispEdges" viewBox="0 -0.5 36 36"><path stroke="#120a1a" d="M10 6h6m-6 1h6M8 8h2m6 0h2M8 9h2m6 0h2M6 10h2m10 0h2M6 11h2m10 0h2M4 12h2m12 0h2M4 13h2m12 0h2M4 14h2m14 0h2M4 15h2m14 0h2M2 16h2m16 0h2M2 17h2m16 0h2M2 18h2m18 0h2M2 19h2m18 0h2M2 20h2m2 0h2m-6 1h2m2 0h2m-6 1h2m2 0h2m-6 1h2m2 0h2m-6 1h2m-2 1h2m0 1h2m14 0h2M4 27h2m14 0h2"/><path stroke="#4d858d" d="M10 8h2m-2 1h2m-4 1h2m-2 1h2m-4 1h2m-2 1h2"/><path stroke="#30626d" d="M12 8h4m-4 1h4m-6 1h2m4 0h2m-8 1h2m4 0h2M8 12h2m-2 1h2m-4 1h2m10 0h2M6 15h2m10 0h2"/><path stroke="#6f6f6e" d="M12 10h4m-4 1h4m-2 1h2m-2 1h2M4 16h2m-2 1h2m2 1h2m8 0h2M8 19h2m8 0h2m-10 1h2m4 0h2m4 0h2m-14 1h2m4 0h2m4 0h2m-12 1h4m-4 1h4"/><path stroke="#1d1d1c" d="M24 10h6m-6 1h6m-8 1h2m6 0h2m-10 1h2m6 0h2m-10 1h2m6 0h2m-10 1h2m6 0h2m-22 1h2m4 0h2m6 0h2m2 0h2m-20 1h2m4 0h2m6 0h2m2 0h2m-18 1h4m8 0h2m2 0h2m-18 1h4m8 0h2m2 0h2m-12 1h2m4 0h2m2 0h2m-12 1h2m4 0h2m2 0h2m-12 1h4m2 0h2m2 0h2m-12 1h4m2 0h2m2 0h2m-12 1h2m2 0h4m2 0h2m-12 1h2m2 0h4m2 0h2m-8 1h2m6 0h2m-10 1h2m6 0h2M8 28h2m6 0h2m6 0h6M8 29h2m6 0h2m6 0h6M8 32h2m6 0h2M8 33h2m6 0h2"/><path stroke="#2a2a41" d="M10 12h4m2 0h2m-8 1h4m2 0h2m-6 3h4m-4 1h4M4 20h2m14 0h2M4 21h2m14 0h2M4 22h2m-2 1h2m4 9h2m6 0h2m-10 1h2m6 0h2"/><path stroke="#d7bea7" d="M24 12h2m2 0h2m-6 1h2m2 0h2m-4 1h2m-2 1h2m-4 11h2m2 0h2m-6 1h2m2 0h2"/><path stroke="#af8568" d="M26 12h2m-2 1h2m-2 3h2m-2 1h2m-2 9h2m-2 1h2"/><path stroke="#163d4a" d="M8 14h2m-2 1h2m-4 1h4m8 0h2M6 17h4m8 0h2M6 18h2m12 0h2M6 19h2m12 0h2"/><path stroke="#414040" d="M10 14h8m-8 1h8M4 18h2m4 0h2m4 0h2M4 19h2m4 0h2m4 0h2M8 20h2m2 0h4m-8 1h2m2 0h4m-6 1h2m4 0h2m4 0h2m-14 1h2m4 0h2m4 0h2M4 24h2m6 0h4M4 25h2m6 0h4m2 1h2m-2 1h2m-10 1h2m6 0h2m-10 1h2m6 0h2M8 30h2m6 0h2M8 31h2m6 0h2"/><path stroke="#c3a389" d="M24 14h2m2 0h2m-6 1h2m2 0h2m-4 3h2m-2 1h2m-2 1h2m-2 1h2m-2 1h2m-2 1h2m-2 1h2m-2 1h2"/><path stroke="#331b1a" d="M8 22h2m-2 1h2m-2 1h2m-2 1h2m0 1h2m4 0h2m-8 1h2m4 0h2m-4 1h2m-2 1h2"/><path stroke="#1c0b21" d="M6 24h2m-2 1h2m-2 1h4m-4 1h4m-4 1h2m4 0h2m6 0h2M6 29h2m4 0h2m6 0h2M6 30h2m2 0h2m2 0h2m2 0h2M6 31h2m2 0h2m2 0h2m2 0h2M6 32h2m4 0h4m4 0h2M6 33h2m4 0h4m4 0h2"/><path stroke="#532918" d="M10 24h2m4 0h2m-8 1h2m4 0h2m-6 1h4m-4 1h4"/></svg>