<svg xmlns="http://www.w3.org/2000/svg" width="32" height="32" shape-rendering="crispEdges" viewBox="0 -0.5 18 18"><path stroke="#1a1c26" d="M8 2h2M7 3h1m2 0h1M5 4h2m4 0h2M4 5h1m8 0h1M4 6h1m8 0h1M4 7h1m7 0h1M3 8h1m9 0h1M2 9h1m11 0h1M2 10h1m9 0h1m1 0h1M2 11h1m8 0h1m2 0h1M2 12h1m2 0h1m5 0h1m2 0h1M3 13h3m5 0h3m-3 1h1m-7 1h1m2 0h1m2 0h1m-7 1h1m1 0h1m1 0h1m2 0h1"/><path stroke="#a19477" d="M8 3h2M7 4h1m2 0h1M6 5h1M4 8h1M3 9h1"/><path stroke="#806352" d="M8 4h2M7 5h1m2 0h2M5 8h1m6 0h1M4 9h3m4 0h1m1 0h1m-8 1h2m2 0h1m-4 1h3"/><path stroke="#e17676" d="M5 5h1m6 0h1m-9 6h1m7 0h1"/><path stroke="#5e423c" d="M8 5h2M6 6h2m3 0h1M7 7h1m4 2h1m-8 1h1m0 1h1m0 2h1m1 0h1m-4 1h1m3 0h1"/><path stroke="#a41057" d="M5 6h1m6 0h1M8 7h1m-6 3h1m9 0h1M4 12h1m8 0h1m-8 3h1m3 0h1"/><path stroke="#f1c256" d="M8 6h1m1 0h1"/><path stroke="#c3435c" d="M9 6h1M9 7h2m-8 4h1m9 0h1m-8 5h1m4 0h1"/><path stroke="#3c133b" d="M5 7h2M6 8h1m4 0h1M7 9h1m2 0h1m-3 1h2"/><path stroke="#4c0717" d="M11 7h1M8 8h3m-3 6h1m-2 1h1m1 0h1"/><path stroke="#810b0b" d="M7 8h1m0 1h2m-7 3h1m8 0h1m-3 4h1"/><path stroke="#402830" d="M4 10h1m6 0h1m-7 1h1m4 0h1m-5 2h1m1 0h1m1 0h1m-4 1h1m1 0h1"/><path stroke="#8a4028" d="M6 12h1m3 0h1"/><path stroke="#b3794d" d="M7 12h1m1 0h1"/><path stroke="#dab580" d="M8 12h1"/><path stroke="#24131d" d="M5 14h1"/></svg>