<svg xmlns="http://www.w3.org/2000/svg" width="32" height="32" shape-rendering="crispEdges" viewBox="0 -0.5 36 36"><path stroke="#1c0b21" d="M16 2h2m-2 1h2M2 4h4m8 0h2m2 0h4m6 0h2M2 5h4m8 0h2m2 0h4m6 0h2M0 6h2m4 0h4m4 0h2m6 0h2m2 0h2m2 0h2M0 7h2m4 0h4m4 0h2m6 0h2m2 0h2m2 0h2M0 8h2m8 0h2m2 0h2m8 0h2m4 0h2M0 9h2m8 0h2m2 0h2m8 0h2m4 0h2M0 10h2m10 0h2m16 0h2M0 11h2m10 0h2m16 0h2M0 12h2m28 0h2M0 13h2m28 0h2M2 14h2m24 0h2M2 15h2m24 0h2M4 16h2m16 0h2m2 0h2M4 17h2m16 0h2m2 0h2M6 18h2m16 0h4M6 19h2m16 0h4M6 20h2m14 0h2m4 0h2M6 21h2m14 0h2m4 0h2M6 22h2m12 0h2m2 0h4M6 23h2m12 0h2m2 0h4M8 24h2m10 0h2M8 25h2m10 0h2m-12 1h2m10 0h2m-14 1h2m10 0h2m-12 1h2m8 0h2m-12 1h2m8 0h2m-14 1h2m8 0h2m-12 1h2m8 0h2m-10 1h2m2 0h4m2 0h2m-12 1h2m2 0h4m2 0h2"/><path stroke="#c3a389" d="M16 4h2m-2 1h2m2 1h2m-2 1h2m0 1h2m-2 1h2"/><path stroke="#ebbf4a" d="M2 6h4m22 0h2M2 7h4m22 0h2M6 8h4m16 0h2M6 9h4m16 0h2m-2 11h2m-2 1h2M8 22h2m-2 1h2m4 9h2m4 0h2m-8 1h2m4 0h2"/><path stroke="#966949" d="M16 6h2m-2 1h2m-2 1h4m-4 1h4"/><path stroke="#af8568" d="M18 6h2m-2 1h2m0 1h2m-2 1h2"/><path stroke="#e38d18" d="M2 8h4m22 0h2M2 9h4m22 0h2M2 10h2m2 0h2m2 0h2m14 0h2M2 11h2m2 0h2m2 0h2m14 0h2M12 30h2m4 0h2m-8 1h2m4 0h2"/><path stroke="#b56303" d="M4 10h2m2 0h2m18 0h2M4 11h2m2 0h2m18 0h2M4 12h2m2 0h2m2 0h2m12 0h2M4 13h2m2 0h2m2 0h2m12 0h2"/><path stroke="#331b1a" d="M14 10h2m8 0h2m-12 1h2m8 0h2m-12 1h2m8 0h2m-12 1h2m8 0h2m-16 1h6m8 0h2m-16 1h6m8 0h2M6 16h4m6 0h2M6 17h4m6 0h2m-6 1h2m4 0h4m-10 1h2m4 0h4m-12 1h2m-2 1h2m-2 1h2m-2 1h2m-2 1h2m-2 1h2m4 1h2m-2 1h2m0 1h2m-2 1h2m-6 1h4m-4 1h4"/><path stroke="#e0b5bb" d="M16 10h6m-6 1h6m-2 1h2m-2 1h2m-12 3h6m-6 1h6m-8 1h2m4 0h4M8 19h2m4 0h4"/><path stroke="#e09f9d" d="M22 10h2m-2 1h2m-8 1h2m-2 1h2m-2 1h8m-8 1h8m-14 3h2m10 0h2m-14 1h2m10 0h2M8 20h2m4 0h4m6 0h2M8 21h2m4 0h4m6 0h2"/><path stroke="#833e11" d="M2 12h2m2 0h2m2 0h2m16 0h2M2 13h2m2 0h2m2 0h2m16 0h2M4 14h2m2 0h2m16 0h2M4 15h2m2 0h2m16 0h2m-16 9h2m4 0h2m-8 1h2m4 0h2m-6 1h2m4 0h2m-8 1h2m4 0h2m-6 1h2m2 0h2m-6 1h2m2 0h2"/><path stroke="#80459e" d="M18 12h2m2 0h2m-6 1h2m2 0h2M14 24h4m-4 1h4"/><path stroke="#532918" d="M6 14h2m-2 1h2m16 1h2m-2 1h2m-14 9h2m4 0h2m-8 1h2m4 0h2m-6 1h2m-2 1h2"/><path stroke="#da827a" d="M18 16h4m-4 1h4m-10 3h2m4 0h4m-10 1h2m4 0h4m-8 1h4m-4 1h4"/><path stroke="#7f65bb" d="M12 22h2m4 0h2m-8 1h2m4 0h2"/></svg>