<svg xmlns="http://www.w3.org/2000/svg" width="32" height="32" shape-rendering="crispEdges" viewBox="0 -0.5 36 37"><path stroke="#120a1a" d="M10 4h2m6 0h2M10 5h2m6 0h2M8 6h2m2 0h2m2 0h2m2 0h2m2 0h2M8 7h2m2 0h2m2 0h2m2 0h2m2 0h2M6 8h2m4 0h4m6 0h2m2 0h2M6 9h2m4 0h4m6 0h2m2 0h2M6 10h2m4 0h2m8 0h2m4 0h2M6 11h2m4 0h2m8 0h2m4 0h2M6 12h2m2 0h2m2 0h2m4 0h2m2 0h2m2 0h2M6 13h2m2 0h2m2 0h2m4 0h2m2 0h2m2 0h2M4 14h2m2 0h2m6 0h4m4 0h2m2 0h2M4 15h2m2 0h2m6 0h4m4 0h2m2 0h2M4 16h2m2 0h2m2 0h2m12 0h4M4 17h2m2 0h2m2 0h2m12 0h4M4 18h4m2 0h4m8 0h2m2 0h2M4 19h4m2 0h4m8 0h2m2 0h2M6 20h2m4 0h2m8 0h2m2 0h2M6 21h2m4 0h2m8 0h2m2 0h2M8 22h2m4 0h2m4 0h2m2 0h2M8 23h2m4 0h2m4 0h2m2 0h2m-16 1h6m6 0h2m-14 1h6m6 0h2m-12 1h2m8 0h2m-12 1h2m8 0h2m-12 1h2m10 0h2m-14 1h2m10 0h2m-14 1h2m2 0h4m4 0h2m-14 1h2m2 0h4m4 0h2m-14 1h2m2 0h2m2 0h2m2 0h2m-14 1h2m2 0h2m2 0h2m2 0h2m-16 1h2m4 0h2m2 0h2m4 0h2m-18 1h2m4 0h2m2 0h2m4 0h2"/><path stroke="#8bf5c6" d="M10 6h2m6 0h2M10 7h2m6 0h2M8 8h2m6 0h6m2 0h2M8 9h2m6 0h6m2 0h2m0 1h2m-2 1h2m-16 1h2m8 0h2m-12 1h2m8 0h2M6 14h2m2 0h2m2 0h2m4 0h4M6 15h2m2 0h2m2 0h2m4 0h4m-8 1h6m2 0h2m-10 1h6m2 0h2M8 18h2m8 0h2m4 0h2M8 19h2m8 0h2m4 0h2m-16 1h2m-2 1h2m4 3h2m-2 1h2m-4 1h2m4 0h2m-8 1h2m4 0h2m-8 1h2m6 0h2m-10 1h2m6 0h2"/><path stroke="#4cc5e4" d="M10 8h2m-2 1h2m-4 1h2m4 0h2m2 0h2m4 0h2M8 11h2m4 0h2m2 0h2m4 0h2m0 1h2m-2 1h2m-16 1h2m-2 1h2m-8 1h2m2 0h2m2 0h2m6 0h2M6 17h2m2 0h2m2 0h2m6 0h2m-8 1h2m2 0h2m-6 1h2m2 0h2M8 20h2m8 0h2m4 0h2M8 21h2m8 0h2m4 0h2m-16 1h4m8 0h2m-14 1h4m8 0h2m-10 7h2m6 0h2m-10 1h2m6 0h2m-12 3h2m10 0h2m-14 1h2m10 0h2"/><path stroke="#47f" d="M10 10h2m-2 1h2m-4 1h2m6 0h4M8 13h2m6 0h4m6 1h2m-2 1h2M14 32h2m6 0h2m-10 1h2m6 0h2"/><path stroke="#f1934c" d="M16 10h2m2 0h2m-6 1h2m2 0h2"/><path stroke="#2749d0" d="M14 18h2m-2 1h2m0 1h2m2 0h2m-6 1h2m2 0h2m-4 1h2m-2 1h2m-4 3h2m-2 1h2m2 1h2m-2 1h2m-8 5h2m6 0h2m-10 1h2m6 0h2"/><path stroke="#422490" d="M14 20h2m-2 1h2m0 1h2m-2 1h2m0 1h4m-4 1h4m-4 1h2m-2 1h2m-4 1h4m-4 1h4m0 1h2m-2 1h2"/></svg>