<svg xmlns="http://www.w3.org/2000/svg" width="32" height="32" shape-rendering="crispEdges" viewBox="0 -0.5 35 36"><path stroke="#1d1d1c" d="M9 6h2m8 0h2M9 7h2m8 0h2M3 8h2m2 0h2m2 0h8m2 0h4M3 9h2m2 0h2m2 0h8m2 0h4M1 10h2m2 0h2m14 0h2m2 0h2M1 11h2m2 0h2m14 0h2m2 0h2M1 12h2m22 0h2M1 13h2m22 0h2M1 14h2m22 0h2M1 15h2m22 0h2M1 16h2m22 0h2M1 17h2m22 0h2M1 18h2m22 0h2M1 19h2m22 0h2M1 20h2m22 0h2M1 21h2m22 0h2M3 22h2m18 0h2M3 23h2m18 0h2M5 24h2m14 0h2M5 25h2m14 0h2M7 26h2m10 0h2M7 27h2m10 0h2M9 28h2m6 0h2M9 29h2m6 0h2M9 30h2m8 0h2M9 31h2m8 0h2M9 32h2m10 0h2M9 33h2m10 0h2"/><path stroke="#897a71" d="M9 8h2m8 0h2M9 9h2m8 0h2"/><path stroke="#f26e26" d="M3 10h2m6 0h8M3 11h2m6 0h8M5 12h2m-2 1h2m0 1h2m-2 1h2m0 3h4m-4 1h4m-6 1h2m4 0h4M7 21h2m4 0h4"/><path stroke="#4d0a1a" d="M7 10h2m-2 1h2m-2 1h2m-2 1h2m0 1h2m2 0h4m2 0h2M9 15h2m2 0h4m2 0h2M9 22h2m6 0h2M9 23h2m6 0h2M9 24h2m6 0h2M9 25h2m6 0h2M9 26h2m6 0h2M9 27h2m6 0h2m-4 3h2m-2 1h2"/><path stroke="#625353" d="M9 10h2m8 0h2M9 11h2m8 0h2"/><path stroke="#e84444" d="M23 10h2m-2 1h2M3 12h2m6 0h2m2 0h2m4 0h4M3 13h2m6 0h2m2 0h2m4 0h4M3 14h2m18 0h2M3 15h2m18 0h2M3 16h2m18 0h2M3 17h2m18 0h2m-8 1h2m-2 1h2M9 20h4m4 0h4M9 21h4m4 0h4M7 22h2m4 0h4m2 0h2M7 23h2m4 0h4m2 0h2m-8 7h2m2 0h2m-6 1h2m2 0h2"/><path stroke="#3e373d" d="M9 12h2m8 0h2M9 13h2m8 0h2"/><path stroke="#c1f567" d="M13 12h2m2 0h2m-6 1h2m2 0h2"/><path stroke="#ac162d" d="M5 14h2m14 0h2M5 15h2m14 0h2M5 16h4m4 0h4m4 0h2M5 17h4m4 0h4m4 0h2M5 18h2m14 0h2M5 19h2m14 0h2M3 20h2m18 0h2M3 21h2m18 0h2m-12 3h4m-4 1h4m-4 1h2m-2 1h2"/><path stroke="#d31212" d="M11 14h2m4 0h2m-8 1h2m4 0h2M3 18h2m18 0h2M3 19h2m18 0h2m-14 3h2m-2 1h2m-6 1h2m10 0h2M7 25h2m10 0h2m-10 1h2m2 0h2m-6 1h2m2 0h2m-6 1h2m2 0h2m-6 1h2m2 0h2m-6 1h2m-2 1h2"/><path stroke="#8b1842" d="M9 16h2m8 0h2M9 17h2m8 0h2m-10 7h2m-2 1h2m0 3h2m-2 1h2"/><path stroke="#4d1446" d="M11 16h2m4 0h2m-8 1h2m4 0h2M7 18h2m10 0h2M7 19h2m10 0h2M5 20h2m14 0h2M5 21h2m14 0h2M5 22h2m14 0h2M5 23h2m14 0h2"/><path stroke="#6d1d51" d="M13 18h4m-4 1h4"/><path stroke="#3d3f4b" d="M11 32h2m-2 1h2"/><path stroke="#67656d" d="M13 32h2m2 0h2m-6 1h2m2 0h2"/><path stroke="#8f8685" d="M15 32h2m2 0h2m-6 1h2m2 0h2"/></svg>