<svg xmlns="http://www.w3.org/2000/svg" width="32" height="32" shape-rendering="crispEdges" viewBox="0 -0.5 34 36"><path stroke="#1c0b21" d="M14 10h8m-8 1h8m-12 1h4m8 0h2m-14 1h4m8 0h2M8 14h2m14 0h2M8 15h2m14 0h2M6 16h2m16 0h2M6 17h2m16 0h2M6 18h2m16 0h2M6 19h2m16 0h2M2 20h2m2 0h2m2 0h2m12 0h2M2 21h2m2 0h2m2 0h2m12 0h2M0 22h2m2 0h2m2 0h2m2 0h2m8 0h2m2 0h2M0 23h2m2 0h2m2 0h2m2 0h2m8 0h2m2 0h2M0 24h2m6 0h2m2 0h12m2 0h2M0 25h2m6 0h2m2 0h12m2 0h2M0 26h2m2 0h6m2 0h2m2 0h2m2 0h4m2 0h2M0 27h2m2 0h6m2 0h2m2 0h2m2 0h4m2 0h2M0 28h2m2 0h2m2 0h2m4 0h2m2 0h2m2 0h2m4 0h2M0 29h2m2 0h2m2 0h2m4 0h2m2 0h2m2 0h2m4 0h2M0 30h2m4 0h2m2 0h2m4 0h4m2 0h2m4 0h2M0 31h2m4 0h2m2 0h2m4 0h4m2 0h2m4 0h2M2 32h2m4 0h4m6 0h4m2 0h2m4 0h2M2 33h2m4 0h4m6 0h4m2 0h2m4 0h2"/><path stroke="#9e79b3" d="M14 12h2m2 0h2m-6 1h2m2 0h2m-8 1h2m2 0h2m4 0h2m-12 1h2m2 0h2m4 0h2M8 16h4m2 0h2m4 0h2M8 17h4m2 0h2m4 0h2m-12 1h4m2 0h4m2 0h2m-14 1h4m2 0h4m2 0h2m-10 1h8m-8 1h8"/><path stroke="#ebd2d4" d="M16 12h2m2 0h2m-6 1h2m2 0h2"/><path stroke="#e8bfe2" d="M10 14h2m2 0h2m2 0h4m-12 1h2m2 0h2m2 0h4m-6 1h4m-4 1h4"/><path stroke="#c99acf" d="M12 16h2m8 0h2m-12 1h2m8 0h2m-10 1h2m4 0h2m-8 1h2m4 0h2"/><path stroke="#80459e" d="M8 18h2m-2 1h2m-2 1h2m2 0h2m8 0h2M8 21h2m2 0h2m8 0h2m-10 1h8m-8 1h8"/><path stroke="#dfae65" d="M2 22h2m6 0h2m12 0h2M2 23h2m6 0h2m12 0h2m-14 5h2m12 0h2m-16 1h2m12 0h2M4 30h2m8 0h2M4 31h2m8 0h2M6 32h2m8 0h2m10 0h2M6 33h2m8 0h2m10 0h2"/><path stroke="#947e31" d="M6 22h2m-2 1h2m2 5h2m8 0h2m2 0h2m-16 1h2m8 0h2m2 0h2M2 30h2m8 0h2m6 0h2m2 0h2M2 31h2m8 0h2m6 0h2m2 0h2M4 32h2m6 0h2m12 0h2M4 33h2m6 0h2m12 0h2"/><path stroke="#be8f44" d="M2 24h4m4 0h2m12 0h2M2 25h4m4 0h2m12 0h2M2 26h2m6 0h2m12 0h2M2 27h2m6 0h2m12 0h2M2 28h2m-2 1h2m22 1h2m-2 1h2m-14 1h2m6 0h2m-10 1h2m6 0h2"/><path stroke="#676920" d="M6 24h2m-2 1h2m10 1h2m-2 1h2"/></svg>