<svg xmlns="http://www.w3.org/2000/svg" width="32" height="32" shape-rendering="crispEdges" viewBox="0 -0.5 36 37"><path stroke="#120a1a" d="M14 4h6m-6 1h6m-8 1h2m6 0h2M12 7h2m6 0h2M10 8h2m10 0h2M10 9h2m10 0h2M6 10h6m10 0h6M6 11h6m10 0h6M4 12h2m4 0h2m10 0h2m4 0h2M4 13h2m4 0h2m10 0h2m4 0h2M2 14h2m8 0h10m8 0h2M2 15h2m8 0h10m8 0h2M2 16h2m4 0h4m10 0h4m4 0h2M2 17h2m4 0h4m10 0h4m4 0h2M2 18h2m4 0h2m14 0h8M2 19h2m4 0h2m14 0h8M2 20h8m4 0h8m2 0h4m2 0h2M2 21h8m4 0h8m2 0h4m2 0h2M2 22h2m2 0h8m8 0h6m2 0h2M2 23h2m2 0h8m8 0h6m2 0h2M2 24h2m2 0h4m2 0h2m8 0h4m4 0h2M2 25h2m2 0h4m2 0h2m8 0h4m4 0h2M2 26h2m4 0h2m4 0h8m2 0h6M2 27h2m4 0h2m4 0h8m2 0h6M4 28h6m6 0h4m4 0h2M4 29h6m6 0h4m4 0h2M8 30h2m6 0h4m4 0h2M8 31h2m6 0h4m4 0h2m-16 1h6m4 0h4m-14 1h6m4 0h4M8 34h2m6 0h4m4 0h2M8 35h2m6 0h4m4 0h2"/><path stroke="#ed9d7c" d="M14 6h6m-6 1h6m-8 1h2m6 0h2M12 9h2m6 0h2M6 12h2m18 0h2M6 13h2m18 0h2M4 14h2m22 0h2M4 15h2m22 0h2"/><path stroke="#d16363" d="M14 8h6m-6 1h6m-8 1h2m-2 1h2m-6 1h2m14 0h2M8 13h2m14 0h2M6 14h2m18 0h2M6 15h2m18 0h2M4 16h2m6 0h10m6 0h2M4 17h2m6 0h10m6 0h2m-20 1h2m10 0h2m-14 1h2m10 0h2M10 34h2m10 0h2m-14 1h2m10 0h2"/><path stroke="#894835" d="M14 10h4m2 0h2m-8 1h4m2 0h2M8 14h2m14 0h2M8 15h2m14 0h2M6 16h2m-2 1h2m-4 1h2m6 0h10M4 19h2m6 0h10m-12 1h4m8 0h2m4 0h2m-20 1h4m8 0h2m4 0h2M4 22h2m22 0h2M4 23h2m22 0h2M4 24h2m4 0h2m16 0h2M4 25h2m4 0h2m16 0h2M4 26h2m4 0h4m8 0h2M4 27h2m4 0h4m8 0h2m-14 1h2m2 0h2m4 0h2m-12 1h2m2 0h2m4 0h2m-10 5h4m4 0h2m-10 1h4m4 0h2"/><path stroke="#f1934c" d="M18 10h2m-2 1h2"/><path stroke="#602631" d="M12 12h6m2 0h2m-10 1h6m2 0h2m-12 1h2m10 0h2m-14 1h2m10 0h2m2 1h2m-2 1h2M6 18h2m-2 1h2m6 3h8m-8 1h8m4 1h2m-2 1h2M6 26h2m-2 1h2m4 1h2m8 0h2m-12 1h2m8 0h2"/><path stroke="#dc4926" d="M18 12h2m-2 1h2"/><path stroke="#4b0c30" d="M14 24h8m-8 1h8m-12 5h6m4 0h4m-14 1h6m4 0h4"/></svg>