<svg xmlns="http://www.w3.org/2000/svg" width="32" height="32" shape-rendering="crispEdges" viewBox="0 -0.5 36 36"><path stroke="#1c0b21" d="M12 16h8m-8 1h8m-10 1h2m8 0h2m-12 1h2m8 0h2M8 20h2m12 0h2M8 21h2m12 0h2M6 22h2m16 0h2M6 23h2m16 0h2M6 24h2m16 0h2M6 25h2m16 0h2M4 26h2m20 0h2M4 27h2m20 0h2M4 28h2m20 0h2M4 29h2m20 0h2M4 30h2m20 0h2M4 31h2m20 0h2M6 32h2m16 0h2M6 33h2m16 0h2"/><path stroke="#be8f44" d="M12 18h8m-8 1h8m-10 1h2m8 0h2m-12 1h2m8 0h2M8 22h2m-2 1h2m-2 1h2m-2 1h2m-2 1h2m12 0h2M8 27h2m12 0h2M8 28h2m12 0h2M8 29h2m12 0h2M8 30h14M8 31h14"/><path stroke="#ffe7ad" d="M12 20h2m-2 1h2"/><path stroke="#dfae65" d="M14 20h6m-6 1h6m-8 1h2m2 0h2m2 0h2m-10 1h2m2 0h2m2 0h2m-10 1h10m-10 1h10m-12 1h2m2 0h2m2 0h2m-10 1h2m2 0h2m2 0h2m-10 1h2m2 0h2m2 0h2m-10 1h2m2 0h2m2 0h2"/><path stroke="#efd28b" d="M10 22h2m-2 1h2m-2 1h2m-2 1h2"/><path stroke="#676920" d="M14 22h2m2 0h2m-6 1h2m2 0h2m-8 3h2m2 0h2m2 0h2m-10 1h2m2 0h2m2 0h2m-12 5h12m-12 1h12"/><path stroke="#947e31" d="M22 22h2m-2 1h2m-2 1h2m-2 1h2M6 26h2m16 0h2M6 27h2m16 0h2M6 28h2m16 0h2M6 29h2m16 0h2M6 30h2m14 0h4M6 31h2m14 0h4"/><path stroke="#395609" d="M12 28h2m2 0h2m2 0h2m-10 1h2m2 0h2m2 0h2M8 32h2m12 0h2M8 33h2m12 0h2"/></svg>