<svg xmlns="http://www.w3.org/2000/svg" width="32" height="32" shape-rendering="crispEdges" viewBox="0 -0.5 36 35"><path stroke="#1a1c26" d="M14 0h2m-2 1h2m-4 1h2m2 0h6m4 0h2M12 3h2m2 0h6m4 0h2M10 4h2m10 0h4m2 0h2M10 5h2m10 0h4m2 0h2M8 6h2m14 0h2m2 0h2M8 7h2m14 0h2m2 0h2M8 8h2m16 0h2m2 0h2M8 9h2m16 0h2m2 0h2m-22 1h2m16 0h2m2 0h2m-24 1h2m16 0h2m2 0h2M8 12h2m20 0h2m2 0h2M8 13h2m20 0h2m2 0h2M6 14h2m22 0h2m2 0h2M6 15h2m22 0h2m2 0h2M6 16h2m22 0h2m2 0h2M6 17h2m22 0h2m2 0h2M6 18h2m20 0h2m2 0h2M6 19h2m20 0h2m2 0h2M8 20h2m16 0h2m2 0h2M8 21h2m16 0h2m2 0h2m-22 1h2m12 0h2m2 0h2m-20 1h2m12 0h2m2 0h2m-20 1h2m10 0h4m2 0h2m-20 1h2m10 0h4m2 0h2m-20 1h2m2 0h2m6 0h2m2 0h2m-18 1h2m2 0h2m6 0h2m2 0h2M8 28h2m2 0h2m2 0h2m2 0h2M8 29h2m2 0h2m2 0h2m2 0h2M8 30h2m2 0h2m2 0h2m4 0h2M8 31h2m2 0h2m2 0h2m4 0h2"/><path stroke="#f9f3c0" d="M14 2h2m-2 1h2"/><path stroke="#c9e8a1" d="M12 4h2m-2 1h2"/><path stroke="#0b3b44" d="M14 4h2m-2 1h2m-4 1h2m-2 1h2m-2 1h2m10 0h2M12 9h2m10 0h2m-12 1h2m2 0h2m2 0h4m-12 1h2m2 0h2m2 0h4m-10 1h2m6 0h2m-10 1h2m6 0h2m-8 1h6m4 0h2m-12 1h6m4 0h2m-20 1h2m-2 1h2m0 1h2m8 0h4m-14 1h2m8 0h4m-16 1h2m8 0h2m-12 1h2m8 0h2m-2 1h2m-2 1h2m-12 7h2m6 0h4m-12 1h2m6 0h4"/><path stroke="#50cd90" d="M16 4h6m-6 1h6m-8 1h2m4 0h2m-8 1h2m4 0h2M10 8h2m8 0h2M10 9h2m8 0h2m-10 1h2m-2 1h2m-4 1h2m-2 1h2m-4 1h2m-2 1h2m-2 1h2m-2 1h2m0 1h2m-2 1h2"/><path stroke="#a19477" d="M26 4h2m-2 1h2m-2 1h2m-2 1h2m0 1h2m-2 1h2m0 1h2m-2 1h2"/><path stroke="#6ae291" d="M10 6h2m-2 1h2"/><path stroke="#30a387" d="M16 6h2m-2 1h2m0 1h2m2 0h2m-6 1h2m2 0h2m-4 1h2m-2 1h2m-10 1h2m-2 1h2m-4 1h2m12 0h2m-16 1h2m12 0h2m-6 1h2m6 0h2m-10 1h2m6 0h2M8 18h2m-2 1h2m4 1h2m-2 1h2m-4 3h2m6 0h2m-10 1h2m6 0h2m-10 1h2m6 0h2m-10 1h2m6 0h2m-4 1h2m-2 1h2"/><path stroke="#eaf257" d="M18 6h2m2 0h2m-6 1h2m2 0h2"/><path stroke="#17756e" d="M14 8h2m-2 1h2m0 1h2m-2 1h2m0 1h6m-6 1h6m-12 1h2m-2 1h2m-2 1h2m-2 1h2m6 1h2m-2 1h2m-10 1h2m4 0h2m-8 1h2m4 0h2m-2 3h2m-2 1h2m-2 1h2m-2 1h2m-10 1h2m-2 1h2"/><path stroke="#2c7d63" d="M16 8h2m-2 1h2m4 7h4m-4 1h4"/><path stroke="#bdbb93" d="M26 10h2m-2 1h2m-2 1h2m-2 1h2m-2 1h2m-2 1h2m-2 1h2m-2 1h2m-2 1h2m-2 1h2"/><path stroke="#e7d494" d="M14 12h2m-2 1h2m-2 3h6m-6 1h6m-4 3h2m-2 1h2"/><path stroke="#806352" d="M32 12h2m-2 1h2m-2 1h2m-2 1h2m-2 1h2m-2 1h2m-4 1h2m-2 1h2m-4 1h2m-2 1h2"/><path stroke="#cea65f" d="M14 14h4m-4 1h4m-4 3h6m-6 1h6m-4 3h2m-2 1h2"/><path stroke="#6b5853" d="M12 22h2m-2 1h2m0 1h2m-2 1h2m0 1h2m-2 1h2"/><path stroke="#ab684c" d="M14 22h2m-2 1h2m0 1h2m-2 1h2"/><path stroke="#5e423c" d="M18 22h2m6 0h2m-10 1h2m6 0h2m-2 1h2m-2 1h2"/></svg>