<svg xmlns="http://www.w3.org/2000/svg" width="32" height="32" shape-rendering="crispEdges" viewBox="0 -0.5 36 35"><path stroke="#1a1c26" d="M30 0h2m-2 1h2M12 2h10m6 0h2m2 0h2M12 3h10m6 0h2m2 0h2M10 4h2m10 0h2m4 0h2m2 0h2M10 5h2m10 0h2m4 0h2m2 0h2M8 6h2m14 0h2m2 0h2m2 0h2M8 7h2m14 0h2m2 0h2m2 0h2M6 8h2m16 0h4m6 0h2M6 9h2m16 0h4m6 0h2M8 10h2m14 0h2m2 0h2m2 0h2M8 11h2m14 0h2m2 0h2m2 0h2M6 12h2m16 0h2m2 0h2m2 0h2M6 13h2m16 0h2m2 0h2m2 0h2M6 14h2m18 0h2m4 0h2M6 15h2m18 0h2m4 0h2M6 16h2m24 0h2M6 17h2m24 0h2M4 18h2m16 0h6m4 0h2M4 19h2m16 0h6m4 0h2M4 20h2m14 0h2m6 0h2m2 0h2M4 21h2m14 0h2m6 0h2m2 0h2M4 22h2m14 0h2m6 0h2m2 0h2M4 23h2m14 0h2m6 0h2m2 0h2M6 24h2m14 0h2m4 0h2m2 0h2M6 25h2m14 0h2m4 0h2m2 0h2M8 26h2m4 0h2m6 0h2m4 0h2m2 0h2M8 27h2m4 0h2m6 0h2m4 0h2m2 0h2M8 28h2m2 0h2m2 0h2m2 0h2m6 0h2m2 0h2M8 29h2m2 0h2m2 0h2m2 0h2m6 0h2m2 0h2M8 30h2m2 0h2m2 0h2m4 0h2m4 0h2m2 0h2M8 31h2m2 0h2m2 0h2m4 0h2m4 0h2m2 0h2"/><path stroke="#fff" d="M30 2h2m-2 1h2"/><path stroke="#d1fbf0" d="M12 4h2m-2 1h2"/><path stroke="#151556" d="M14 4h2m-2 1h2m-4 1h2m-2 1h2m-4 1h4m-4 1h4m0 1h2m-2 1h2m0 1h2m-2 1h2m0 1h6m-6 1h6M10 30h2m6 0h4m-12 1h2m6 0h4"/><path stroke="#9ee4ef" d="M16 4h6m-6 1h6M10 6h2m2 0h2m4 0h2M10 7h2m2 0h2m4 0h2M8 8h2m10 0h2M8 9h2m10 0h2m-12 1h2m-2 1h2m-4 1h2m-2 1h2m-2 1h2m-2 1h2"/><path stroke="#cbd2d9" d="M30 4h2m-2 1h2m-2 1h2m-2 1h2m-4 1h6m-6 1h6"/><path stroke="#71b5db" d="M16 6h2m-2 1h2m-2 1h4m2 0h2m-8 1h4m2 0h2m-12 1h2m6 0h2m-10 1h2m6 0h2m-12 1h2m-2 1h2m12 1h2m-2 1h2m-6 1h2m-2 1h2m-8 3h2m-2 1h2m-4 3h2m6 0h2m-10 1h2m6 0h2m-10 1h2m6 0h2m-10 1h2m6 0h2m-12 1h2m6 0h2m-10 1h2m6 0h2"/><path stroke="#f6dd7a" d="M18 6h2m2 0h2m-6 1h2m2 0h2"/><path stroke="#3466b0" d="M14 8h2m-2 1h2m0 1h2m-2 1h2m-6 1h2m4 0h6m-12 1h2m4 0h6m-14 1h2m-2 1h2m0 1h2m8 0h6m-16 1h2m8 0h6m-8 1h2m-2 1h2m-4 1h2m-2 1h2m-2 3h2m-2 1h2m-10 1h2m6 0h2m-10 1h2m6 0h2"/><path stroke="#113f82" d="M18 10h2m2 0h2m-6 1h2m2 0h2"/><path stroke="#99a5a7" d="M30 10h2m-2 1h2"/><path stroke="#f3e7a8" d="M14 12h2m-2 1h2m-2 3h6m-6 1h6m-4 3h2m-2 1h2"/><path stroke="#ab684c" d="M30 12h2m-2 1h2m-2 1h2m-2 1h2m-2 1h2m-2 1h2m-2 1h2m-2 1h2m-2 1h2m-2 1h2m-2 1h2m-2 1h2m-2 1h2m-2 1h2m-2 1h2m-2 1h2m-2 1h2m-2 1h2m-2 1h2m-2 1h2"/><path stroke="#dab580" d="M12 14h6m-6 1h6m-4 3h6m-6 1h6"/><path stroke="#24131d" d="M28 14h2m-2 1h2M8 16h4m16 0h2M8 17h4m16 0h2m-18 1h2m14 0h2m-18 1h2m14 0h2m-18 1h2m-2 1h2m-2 1h2m-2 1h2m-6 1h4m-4 1h4"/><path stroke="#5e423c" d="M6 18h2m2 0h2m-6 1h2m2 0h2m-6 3h2m2 0h2m6 0h2M6 23h2m2 0h2m6 0h2m-6 1h2m-2 1h2m0 1h2m-2 1h2"/><path stroke="#a19477" d="M8 18h2m-2 1h2m6 3h2m-2 1h2"/><path stroke="#806352" d="M6 20h2m2 0h2m-6 1h2m2 0h2m-4 1h2m4 0h2m-8 1h2m4 0h2m0 1h2m-2 1h2"/><path stroke="#402830" d="M8 20h2m-2 1h2"/></svg>