<svg xmlns="http://www.w3.org/2000/svg" width="32" height="32" shape-rendering="crispEdges" viewBox="0 -0.5 36 35"><path stroke="#1a1c26" d="M18 0h4m-4 1h4m-6 1h2m4 0h2m-8 1h2m4 0h2M14 4h2m6 0h2M14 5h2m6 0h2M12 6h2m10 0h2m4 0h2M12 7h2m10 0h2m4 0h2M10 8h2m12 0h2m2 0h2m2 0h2M10 9h2m12 0h2m2 0h2m2 0h2M8 10h2m14 0h2m2 0h2m2 0h2M8 11h2m14 0h2m2 0h2m2 0h2M6 12h2m16 0h2m2 0h2m2 0h2M6 13h2m16 0h2m2 0h2m2 0h2M4 14h2m20 0h4m2 0h2M4 15h2m20 0h4m2 0h2M4 16h2m4 0h12m6 0h2m2 0h2M4 17h2m4 0h12m6 0h2m2 0h2M4 18h2m16 0h8m2 0h2M4 19h2m16 0h8m2 0h2M6 20h16m8 0h2M6 21h16m8 0h2M8 22h2m10 0h2M8 23h2m10 0h2M8 24h2m12 0h2M8 25h2m12 0h2M8 26h2m4 0h2m6 0h2M8 27h2m4 0h2m6 0h2M8 28h2m2 0h2m2 0h2m2 0h2M8 29h2m2 0h2m2 0h2m2 0h2M8 30h2m2 0h2m2 0h2m4 0h2M8 31h2m2 0h2m2 0h2m4 0h2"/><path stroke="#eaf257" d="M18 2h4m-4 1h4m-2 1h2m-2 1h2m-2 1h2m-2 1h2"/><path stroke="#c9e8a1" d="M16 4h4m-4 1h4m-6 1h2m-2 1h2m4 1h2m-2 1h2m-12 1h2m-2 1h2m-4 1h2m-2 1h2m-4 1h2m-2 1h2"/><path stroke="#50cd90" d="M16 6h2m-2 1h2m-2 1h4m2 0h2m-8 1h4m2 0h2m-12 1h2m6 0h2m-10 1h2m6 0h2m-12 1h2m-2 1h2m-4 1h2m14 0h2M8 15h2m14 0h2M6 16h4m16 0h2M6 17h4m16 0h2M8 18h2m-2 1h2m0 5h2m8 0h2m-12 1h2m8 0h2m-10 1h2m6 0h2m-10 1h2m6 0h2m-4 1h2m-2 1h2"/><path stroke="#e38524" d="M18 6h2m2 0h2m-6 1h2m2 0h2"/><path stroke="#0b3b44" d="M12 8h2m-2 1h2m0 1h2m-2 1h2m0 1h2m-2 1h2m0 1h6m-6 1h6M10 30h2m6 0h4m-12 1h2m6 0h4"/><path stroke="#30a387" d="M14 8h2m-2 1h2m0 1h2m-2 1h2m-6 1h2m4 0h6m-12 1h2m4 0h6m-14 1h2m-2 1h2m10 1h4m-4 1h4M6 18h2m-2 1h2m2 7h2m6 0h2m-10 1h2m6 0h2m-10 1h2m-2 1h2"/><path stroke="#fff" d="M30 8h2m-2 1h2m-12 9h2m-2 1h2"/><path stroke="#1a5556" d="M18 10h2m2 0h2m-6 1h2m2 0h2"/><path stroke="#cbd2d9" d="M30 10h2m-2 1h2m-16 7h4m-4 1h4"/><path stroke="#f3e7a8" d="M14 12h2m-2 1h2"/><path stroke="#99a5a7" d="M30 12h2m-2 1h2m-2 1h2m-2 1h2m-18 3h2m-2 1h2"/><path stroke="#dab580" d="M12 14h4m-4 1h4"/><path stroke="#cea65f" d="M16 14h2m-2 1h2"/><path stroke="#617077" d="M30 16h2m-2 1h2m-20 1h2m-2 1h2"/><path stroke="#5e423c" d="M10 18h2m18 0h2m-22 1h2m18 0h2"/><path stroke="#4c0717" d="M10 22h2m-2 1h2"/><path stroke="#810b0b" d="M12 22h2m-2 1h2m-2 1h4m2 0h2m-8 1h4m2 0h2m-4 1h2m-2 1h2"/><path stroke="#a82b12" d="M14 22h2m2 0h2m-6 1h2m2 0h2m-4 1h2m-2 1h2"/><path stroke="#d45c1d" d="M16 22h2m-2 1h2"/></svg>