<svg xmlns="http://www.w3.org/2000/svg" width="32" height="32" shape-rendering="crispEdges" viewBox="0 -0.5 18 18"><path stroke="#1a1c26" d="M6 1h1m1 0h4m1 0h1m1 0h1M5 2h1m1 0h1m4 0h1m1 0h1m1 0h1M6 3h1m6 0h2m1 0h1M5 4h1m1 0h1m4 0h1m1 0h1m1 0h1M6 5h1m6 0h1m2 0h1M5 6h1m10 0h1M5 7h1m10 0h1M5 8h1m10 0h1M5 9h1m1 0h1m8 0h1M3 10h1m2 0h2m8 0h1M2 11h1m1 0h1m3 0h1m7 0h1M1 12h1m2 0h1m3 0h1m7 0h1M1 13h1m1 0h1m3 0h1m5 0h1m2 0h1M1 14h1m2 0h3m5 0h1m1 0h1m1 0h1M1 15h1m10 0h1m1 0h1m1 0h1M2 16h1m8 0h1m2 0h1m1 0h1"/><path stroke="#c9e8a1" d="M6 2h1m1 0h4m1 0h1"/><path stroke="#fff" d="M15 2h1"/><path stroke="#71b5db" d="M7 3h2m3 0h1M6 4h1m3 0h1m2 0h1M8 6h1m2 0h1M7 7h1m4 0h1m0 1h1M6 9h1m1 0h1m3 0h1m-4 2h1m-7 1h1m5 0h1m2 0h1M2 13h1m5 0h1m-7 1h2m3 0h1m3 0h1m-9 1h4m3 0h1"/><path stroke="#c58faa" d="M9 3h1m1 0h1"/><path stroke="#9ee4ef" d="M10 3h1M7 6h1m4 0h1M6 7h1m1 0h1m2 0h1m1 0h1M6 8h1m1 0h1m5 0h1M9 9h1m-8 3h1m7 0h1m-2 1h3m-4 1h3m-4 1h3"/><path stroke="#f9f3c0" d="M15 3h1"/><path stroke="#3466b0" d="M8 4h2m1 0h1M7 8h1m4 0h1m-1 5h1m-2 2h1m-6 1h4"/><path stroke="#f6dd7a" d="M15 4h1"/><path stroke="#d1fbf0" d="M7 5h1m4 0h1M6 6h1m6 0h1M9 7h2M9 8h3m-2 1h2m-9 2h1"/><path stroke="#151556" d="M8 5h1m2 0h1M9 6h2"/><path stroke="#113f82" d="M9 5h2m2 4h1M2 15h1m0 1h3m4 0h1"/><path stroke="#24131d" d="M14 5h1m-1 1h1m-1 1h1m-1 2h1m-2 1h2m-2 1h2m-2 1h2m-1 1h1"/><path stroke="#f1c256" d="M15 5h1"/><path stroke="#ebab4c" d="M15 6h1m-1 1h1m-1 1h1m-1 1h1m-1 1h1m-1 1h1m-1 1h1m-1 1h1m-1 1h1m-1 1h1"/><path stroke="#5e423c" d="M8 10h1"/><path stroke="#806352" d="M9 10h1m2 0h1m-3 1h1m1 0h1m-2 1h1"/><path stroke="#a19477" d="M10 10h1m0 1h1"/><path stroke="#bdbb93" d="M11 10h1"/><path stroke="#ab684c" d="M15 16h1"/></svg>