<svg xmlns="http://www.w3.org/2000/svg" width="32" height="32" shape-rendering="crispEdges" viewBox="0 -0.5 18 18"><path stroke="#1a1c26" d="M9 1h2M6 2h1m1 0h1m2 0h1m1 0h1M2 3h2m1 0h1m1 0h1m4 0h1m1 0h1M1 4h1m2 0h1m1 0h1m6 0h1M1 5h1m2 0h1m2 0h1m4 0h1m1 0h2M2 6h2m2 0h1m6 0h1m2 0h1M4 7h2m7 0h1m2 0h1M3 8h1m10 0h2M4 9h3m8 0h1M2 10h1m4 0h1m4 0h3M1 11h1m1 0h1m3 0h1m4 0h1M1 12h1m2 0h1m2 0h1m4 0h1M2 13h1m1 0h1m2 0h1m4 0h1M2 14h1m1 0h3m5 0h1M2 15h1m9 0h1M3 16h1m7 0h1"/><path stroke="#c9e8a1" d="M9 2h1M6 3h1m1 0h1m1 0h1m2 0h1M7 6h1m4 0h1M9 8h2m-1 1h2m-2 1h2M2 11h1m7 0h2m-2 1h2m-2 1h2m-3 1h2m-3 1h2"/><path stroke="#eaf257" d="M10 2h1"/><path stroke="#50cd90" d="M9 3h1m1 0h1M7 4h2m3 0h1m-3 1h1M7 7h1m4 0h1M6 8h1m6 1h1m-5 1h1m-1 1h1m-8 1h1m6 0h1m-7 1h1m4 0h1m-6 1h1m3 0h1m3 0h1m-8 1h3m3 0h1"/><path stroke="#d1fbf0" d="M2 4h1m11 2h1"/><path stroke="#9ee4ef" d="M3 4h1M2 5h1m12 1h1m-2 1h1"/><path stroke="#c58faa" d="M9 4h1m1 0h1"/><path stroke="#6ae291" d="M10 4h1M6 7h1m1 0h1m2 0h1M4 8h2m2 0h1m2 0h1m1 0h1M9 9h1m4 0h1M3 12h1m5 1h1m-2 1h1m-2 1h1"/><path stroke="#71b5db" d="M3 5h1m11 2h1"/><path stroke="#2c7d63" d="M8 5h2m1 0h1M7 8h1m4 0h1M8 9h1m-1 1h1m-1 1h1m-1 1h1m-6 3h1m7 0h1m-6 1h4"/><path stroke="#0b3b44" d="M8 6h1m2 0h1M9 7h2m-7 9h1"/><path stroke="#1a5556" d="M9 6h2M7 9h1m4 0h1m-8 7h1m4 0h1"/></svg>