<svg xmlns="http://www.w3.org/2000/svg" width="64" height="64" shape-rendering="crispEdges" viewBox="0 -0.5 32 32"><path stroke="#1a1c26" d="M13 1h1m2 0h1m1 0h1m-7 1h1m1 0h2m1 0h1m1 0h1m-8 1h1m6 0h1m-9 1h1m8 0h1M10 5h1m10 0h1M11 6h1m10 0h1M10 7h1m11 0h1M9 8h1m11 0h1M8 9h1m12 0h1M7 10h1m14 0h1M7 11h1m14 0h1M6 12h1m16 0h1M6 13h1m16 0h1M6 14h1m16 0h1m1 0h4M6 15h1m16 0h2m4 0h1M6 16h1m16 0h1m2 0h3M1 17h6m7 0h10m1 0h5M0 18h1m29 0h1M1 19h8m6 0h5m3 0h1m1 0h5M9 20h1m10 0h1m2 0h1m2 0h3m-19 1h1m10 0h2m1 0h1m4 0h1m-19 1h1m9 0h1m3 0h4m-17 1h1m9 0h1m-10 1h1m9 0h1M3 25h5m6 0h1m8 0h1M2 26h1m5 0h2m4 0h1m8 0h1M1 27h1m2 0h1m5 0h4m9 0h1M1 28h1m2 0h2m17 0h1M1 29h1m1 0h1m2 0h1m16 0h1M2 30h1m1 0h1m2 0h1m14 0h1M3 31h2m3 0h2m11 0h1"/><path stroke="#d1fbf0" d="M13 2h1m4 0h1m-5 1h1m0 1h1m-6 4h2M9 9h2m-3 1h2m-2 1h1m-2 1h2m-2 1h1m-1 1h1m7 11h1M3 26h5m7 0h1M2 27h1m5 0h2m5 0h1m-6 1h5"/><path stroke="#71b5db" d="M16 2h1m-1 1h1m0 1h1m-6 2h1m2 0h1m5 0h1m-9 1h1m0 1h1m-3 1h1m2 0h5m-8 1h1m-2 1h1m-1 1h1m9 0h1m-12 1h1m10 0h1m-12 1h1m9 0h2M7 15h1m2 0h1m9 0h1m1 0h1M8 16h1m2 0h1m8 0h1m1 0h1M9 17h1m0 1h1m0 1h2m7 0h3m-13 1h1m0 1h1m8 0h1m-9 1h1m0 1h1m7 0h1m-8 1h1m7 0h1m-1 1h1m-7 1h1m5 0h1M3 27h1m2 0h1m7 0h1m1 0h1m5 0h1M7 28h2m7 0h1m5 0h1M2 29h1m5 0h4m4 0h1m5 0h1m-13 1h6m5 0h1m-2 1h1"/><path stroke="#9ee4ef" d="M13 3h1m4 0h1m-5 1h1m1 0h1m2 0h1m-9 1h3m1 0h6m-8 1h2m2 0h3m-6 1h1m3 0h1m-4 1h1m2 0h1m-8 1h1m-2 1h2m9 0h1M9 11h2m10 0h1M9 12h2m11 0h1M8 13h2m12 0h1M8 14h2m12 0h1M8 15h2m11 0h1M9 16h2m10 0h1m-12 1h3m-2 1h3m6 0h3m-10 1h1m5 1h1m-8 1h2m5 0h1m-7 1h2m5 0h1m-7 1h1m0 1h1m-9 3h1m-6 1h1m6 0h1m5 0h1m-4 1h4"/><path stroke="#151556" d="M15 3h1m-4 1h1m-2 3h1m0 1h1m0 1h1m6 0h1m-7 1h1m4 0h1m-5 1h4M7 17h1m0 1h1m0 1h2m0 1h3"/><path stroke="#113f82" d="M17 3h1m-5 1h1m4 0h1m-5 1h1m1 1h1m3 0h1m-9 1h1m2 0h1m5 0h1m-9 1h1m2 0h2m1 0h2m-7 1h1m0 1h4m-7 1h1m-1 1h1m-2 1h1m-1 1h1m-1 1h1m-5 1h1m4 0h1m-5 1h1m4 0h1m-5 1h1m4 0h1m-1 1h1m6 1h2M5 27h1m-3 1h1m2 0h1m0 1h1m-5 1h1m4 0h2m0 1h2"/><path stroke="#c58faa" d="M16 7h2m1 0h2"/><path stroke="#2c7d63" d="M13 10h1m6 0h1m-8 1h1m6 0h1m-8 1h1m6 0h1m-9 1h1m7 0h1m-9 1h1m6 0h1m-8 1h1m6 0h1m-1 1h1m-6 4h1m3 0h1m-5 1h1m3 0h1m-4 1h1m3 0h1m-5 1h1m4 0h1m-5 1h1m4 0h1m-6 1h1m4 0h1m-5 1h1m3 0h1m-5 1h1m3 0h1m-5 1h1m3 0h1m-5 1h1m3 0h1m-6 1h1m3 0h1m-9 1h4m3 0h1"/><path stroke="#6ae291" d="M14 11h1m4 0h1m-1 1h1m-7 1h1m5 0h1m-7 1h6m-6 1h1m4 0h1m-6 1h1m4 0h1m-4 4h3m-3 1h1m0 1h3m-3 1h1m0 1h4m-3 2h3m-3 2h3m-4 2h3"/><path stroke="#c9e8a1" d="M14 12h5m-5 1h5m-5 2h4m-4 1h4m-2 5h2m-1 2h3m-3 2h4m-3 2h3m-3 2h3m-5 2h3"/><path stroke="#f1c256" d="M25 15h1m-2 1h1m-1 1h1m-1 2h1m-1 1h1m0 1h1"/><path stroke="#f6dd7a" d="M26 15h2m-3 1h1M2 18h6m7 0h5m3 0h6m-4 2h1m0 1h2"/><path stroke="#f9f3c0" d="M28 15h1M1 18h1m27 0h1m-2 3h1"/></svg>