<svg xmlns="http://www.w3.org/2000/svg" width="32" height="32" shape-rendering="crispEdges" viewBox="0 -0.5 18 18"><path stroke="#1a1c26" d="M6 1h1m4 0h1M5 2h1m1 0h4m1 0h1M5 3h1m6 0h1m1 0h1M4 4h1m1 0h1m4 0h1m1 0h1m1 0h1M5 5h1m6 0h1m3 0h1M6 6h1m4 0h2m3 0h1M5 7h1m6 0h1m3 0h1M4 8h1m8 0h1m1 0h1M3 9h1m11 0h1M4 10h1m7 0h2m1 0h1M3 11h1m1 0h2m4 0h1m2 0h1M2 12h1m1 0h1m1 0h1m4 0h1M1 13h1m1 0h1m2 0h1m4 0h1M1 14h1m1 0h3m5 0h1M1 15h1m9 0h1M2 16h1m7 0h1"/><path stroke="#eaf257" d="M6 2h1m4 0h1M6 3h2m1 0h1m1 0h1M7 8h1m2 0h1M8 9h2m-1 1h1m-7 2h1m5 0h1m-1 1h1m-2 1h2m-3 1h2"/><path stroke="#6ae291" d="M8 3h1m1 0h1M5 4h1m1 0h1m1 0h1m2 0h1"/><path stroke="#4ba245" d="M8 4h1m1 0h1M6 5h2m3 0h1M9 6h1M6 8h1m4 0h1M5 9h1m6 0h1m-3 3h1m-4 1h1m2 0h1m-9 1h1m3 0h1m3 0h1m-8 1h3m3 0h1"/><path stroke="#d1fbf0" d="M14 4h1m-2 1h1m1 0h1"/><path stroke="#aa557c" d="M8 5h1m1 0h1"/><path stroke="#94cc47" d="M9 5h1M6 7h1m4 0h1M5 8h1m6 0h1M4 9h1m2 0h1m2 0h1m2 0h1m-9 1h2m1 0h1m1 0h1m-3 2h1m-7 1h1m5 0h1m-2 1h1m-2 1h1"/><path stroke="#9ee4ef" d="M14 5h1m-2 1h1m1 0h1"/><path stroke="#2c7d63" d="M7 6h2m1 0h1M6 9h1m4 0h1m-5 1h1m-1 2h1m-6 3h1m7 0h1m-6 1h4"/><path stroke="#71b5db" d="M14 6h1m-1 1h1"/><path stroke="#0b3b44" d="M7 7h1m2 0h1M8 8h2m-7 8h1"/><path stroke="#1a5556" d="M8 7h2m1 3h1m-8 6h1m4 0h1"/><path stroke="#f6dd7a" d="M13 7h1m1 0h1"/><path stroke="#f1c256" d="M14 8h1"/><path stroke="#806352" d="M14 9h1m-1 1h1"/><path stroke="#617077" d="M7 11h1"/><path stroke="#99a5a7" d="M8 11h1m1 0h1"/><path stroke="#cbd2d9" d="M9 11h1"/></svg>