<svg xmlns="http://www.w3.org/2000/svg" width="32" height="32" shape-rendering="crispEdges" viewBox="0 -0.5 18 18"><path stroke="#1a1c26" d="M3 1h1m1 0h1m1 0h2m1 0h2m1 0h1M2 2h1m1 0h1m1 0h1m2 0h1m2 0h1m1 0h1M2 3h1m11 0h1M2 4h1m11 0h1M3 5h1m9 0h1M4 6h1m9 0h1M4 7h1m10 0h1M4 8h1m10 0h1M4 9h1m2 0h1m7 0h1M2 10h1m1 0h1m1 0h1m1 0h1m5 0h1M1 11h1m1 0h1m2 0h1m1 0h1m4 0h1M2 12h1m3 0h1m1 0h1m4 0h1M2 13h1m3 0h1m1 0h1m4 0h1M2 14h1m4 0h1m5 0h1M2 15h1m9 0h1M3 16h2m1 0h1m4 0h1"/><path stroke="#f9f3c0" d="M3 2h1m1 0h1m1 0h1"/><path stroke="#4c0717" d="M8 2h1M4 3h1m1 0h1m1 0h1M8 4h1M7 5h1M6 6h1M6 7h1M6 8h1"/><path stroke="#edd1d6" d="M10 2h2"/><path stroke="#dfb2c6" d="M13 2h1M9 3h4m-3 10h2m-2 1h1m-2 1h1"/><path stroke="#f6dd7a" d="M3 3h1m1 0h1m1 0h1M5 4h1"/><path stroke="#ac6ca2" d="M13 3h1M9 4h1m3 0h1m-3 1h1M7 8h1m6 0h1m-1 1h1M3 13h1m-1 1h1m4 0h1m3 0h1m-6 1h1m3 0h1"/><path stroke="#ebab4c" d="M3 4h1m3 0h1M4 5h1m1 0h1M5 6h1M5 7h1M5 8h1M5 9h1m-1 1h1m-1 1h1m-1 1h1m-1 1h1m-1 1h1m-1 1h1m-1 1h1"/><path stroke="#f1c256" d="M4 4h1m1 0h1M5 5h1"/><path stroke="#9ee4ef" d="M10 4h1m1 0h1"/><path stroke="#c58faa" d="M11 4h1M7 7h1m6 0h1M2 11h1m0 1h1m5 1h1m2 0h1m-4 1h1m1 0h1m-4 1h1m1 0h1"/><path stroke="#261646" d="M8 5h1M7 6h1m1 0h1m2 0h1m-3 1h2M6 9h1m6 1h1M4 11h1m-1 1h1m4 0h1m2 0h1m-9 1h1m-1 1h1m1 0h1m-3 1h1m1 0h1"/><path stroke="#884b93" d="M9 5h2m1 0h1M3 15h1m3 1h4"/><path stroke="#cbd2d9" d="M8 6h1m4 0h1M9 7h1m2 0h1m-3 1h2"/><path stroke="#552d72" d="M10 6h2M8 9h1m4 0h1"/><path stroke="#99a5a7" d="M8 7h1m4 0h1M9 8h1m2 0h1m-3 1h2m-2 1h2"/><path stroke="#617077" d="M8 8h1m4 0h1M9 9h1m2 0h1m-4 1h1m2 0h1m-3 1h2"/><path stroke="#3c4851" d="M9 11h1m2 0h1m-3 1h2"/></svg>