<svg xmlns="http://www.w3.org/2000/svg" width="32" height="32" shape-rendering="crispEdges" viewBox="0 -0.5 36 37"><path stroke="#120a1a" d="M6 4h22M6 5h22M4 6h2m22 0h2M4 7h2m22 0h2M2 8h2m26 0h2M2 9h2m26 0h2M2 10h2m28 0h2M2 11h2m28 0h2M2 12h2m26 0h2M2 13h2m26 0h2M2 14h2m24 0h2M2 15h2m24 0h2M2 16h2m22 0h2M2 17h2m22 0h2M2 18h4m22 0h6M2 19h4m22 0h6M2 20h2m28 0h2M2 21h2m28 0h2M2 22h2m28 0h2M2 23h2m28 0h2M2 24h2m28 0h2M2 25h2m28 0h2M2 26h2m28 0h2M2 27h2m28 0h2M2 28h2m28 0h2M2 29h2m28 0h2M2 30h2m28 0h2M2 31h2m28 0h2M2 32h2m28 0h2M2 33h2m28 0h2"/><path stroke="#e4cd5a" d="M6 6h4m16 0h2M6 7h4m16 0h2M4 8h2m4 0h2m16 0h2M4 9h2m4 0h2m16 0h2M4 10h2m6 0h4m14 0h2M4 11h2m6 0h4m14 0h2M4 12h2m4 0h2m-8 1h2m4 0h2m-8 1h2m2 0h2m-6 1h2m2 0h2m-6 1h4m-4 1h4m-4 3h2m6 0h2m14 0h4M4 21h2m6 0h2m14 0h4"/><path stroke="#894835" d="M10 6h16M10 7h16M6 8h4M6 9h4m-4 1h2m-2 1h2m6 11h16m-16 1h16m-16 3h16m-16 1h16"/><path stroke="#602631" d="M12 8h16M12 9h16M8 10h4m-4 1h4m-6 1h4m-4 1h4m-4 1h2m-2 1h2m6 9h16m-16 1h16m-20 3h2m2 0h16m-20 1h2m2 0h16"/><path stroke="#feffe5" d="M16 10h2m2 0h2m2 0h2m2 0h2m-14 1h2m2 0h2m2 0h2m2 0h2m-14 1h2m2 0h2m2 0h2m2 0h2m-14 1h2m2 0h2m2 0h2m2 0h2m-10 1h2m-2 1h2m0 1h2m-2 1h2m-10 1h2m2 0h2m2 0h2m2 0h2m-14 1h2m2 0h2m2 0h2m2 0h2m-14 1h2m2 0h2m2 0h2m2 0h2m-14 1h2m2 0h2m2 0h2m2 0h2"/><path stroke="#ed9d7c" d="M18 10h2m2 0h2m2 0h2m-10 1h2m2 0h2m2 0h2m-12 9h2m2 0h2m2 0h2m-10 1h2m2 0h2m2 0h2"/><path stroke="#4b0c30" d="M12 12h4m2 0h2m2 0h2m2 0h2m-16 1h4m2 0h2m2 0h2m2 0h2m-18 1h10m2 0h4m-16 1h10m2 0h4m-12 1h8m-8 1h8m-6 1h2m2 0h2m2 0h2m-10 1h2m2 0h2m2 0h2M6 30h6m2 0h16M6 31h6m2 0h16"/><path stroke="#d49733" d="M26 14h2m-2 1h2m-4 1h2m-2 1h2m-14 5h2m16 0h2m-20 1h2m16 0h2m-20 1h2m16 0h2m-20 1h2m16 0h2m-20 1h2m16 0h2m-20 1h2m16 0h2M4 28h2m6 0h2m16 0h2M4 29h2m6 0h2m16 0h2M4 30h2m6 0h2m16 0h2M4 31h2m6 0h2m16 0h2M4 32h28M4 33h28"/><path stroke="#ff82a0" d="M8 16h2m2 0h2m-6 1h2m2 0h2m-8 1h2m2 0h2m-6 1h2m2 0h2m-6 1h2m2 0h2m-6 1h2m2 0h2m-8 1h4m2 0h2m-8 1h4m2 0h2m-8 1h8m-8 1h8m-8 1h6m-6 1h6"/><path stroke="#ff26a8" d="M10 16h2m-2 1h2m-4 1h2m-2 1h2m-2 1h2m-2 1h2m-2 1h2m-2 1h2"/><path stroke="#d16363" d="M12 18h2m-2 1h2m-4 7h2m-2 1h2m-6 1h4m-4 1h4"/></svg>