<svg xmlns="http://www.w3.org/2000/svg" width="32" height="32" shape-rendering="crispEdges" viewBox="0 -0.5 36 37"><path stroke="#12173d" d="M8 8h6m12 0h4M8 9h6m12 0h4M6 10h2m6 0h12m4 0h2M6 11h2m6 0h12m4 0h2M4 12h2m26 0h2M4 13h2m26 0h2M4 14h2m6 0h2m18 0h2M4 15h2m6 0h2m18 0h2M4 16h2m2 0h4m2 0h2m10 0h4m2 0h2M4 17h2m2 0h4m2 0h2m10 0h4m2 0h2M6 18h2m6 0h2m8 0h2m4 0h2M6 19h2m6 0h2m8 0h2m4 0h2m-20 1h2m12 0h2m-16 1h2m12 0h2m-16 1h2m12 0h2m-16 1h2m12 0h2m-18 1h2m2 0h6m4 0h2m-16 1h2m2 0h6m4 0h2m-16 1h4m6 0h4m-14 1h4m6 0h4"/><path stroke="#cc817a" d="M8 10h6m-6 1h6m-8 1h2m10 0h8M6 13h2m10 0h8M6 14h2m-2 1h2m-2 1h2m-2 1h2"/><path stroke="#3f1f3c" d="M26 10h2m-2 1h2m-14 1h2m12 0h2m-16 1h2m12 0h2m-14 1h2m8 0h2m-12 1h2m8 0h2m-10 1h2m-2 1h2m0 1h4m-4 1h4m-2 3h2m-2 1h2m-4 1h2m-2 1h2"/><path stroke="#895654" d="M28 10h2m-2 1h2m0 1h2m-2 1h2m-10 1h2m6 0h2m-10 1h2m6 0h2m-16 1h2m4 0h4m4 0h2m-16 1h2m4 0h4m4 0h2m-16 1h2m-2 1h2m-4 1h2m-2 1h2m-2 1h2m-2 1h2"/><path stroke="#53a1ad" d="M8 12h6m-6 1h6m4 7h4m-4 1h4"/><path stroke="#ffd3ad" d="M16 12h2m8 0h2m-12 1h2m8 0h2"/><path stroke="#3b768f" d="M8 14h4m2 0h2m12 0h2M8 15h4m2 0h2m12 0h2m-12 3h2m-2 1h2m-4 3h4m-4 1h4"/><path stroke="#61393b" d="M18 14h2m-2 1h2m0 1h2m-2 1h2m-6 3h2m4 0h4m-10 1h2m4 0h4m-6 1h2m2 0h2m-6 1h2m2 0h2m-14 1h2m8 0h2m-12 1h2m8 0h2"/><path stroke="#78fae6" d="M20 14h2m2 0h2m-6 1h2m2 0h2"/></svg>