<svg xmlns="http://www.w3.org/2000/svg" width="32" height="32" shape-rendering="crispEdges" viewBox="0 -0.5 36 36"><path stroke="#1c0b21" d="M10 2h2m16 0h2M10 3h2m16 0h2M8 4h2m2 0h2m4 0h6m2 0h2m2 0h2M8 5h2m2 0h2m4 0h6m2 0h2m2 0h2M6 6h2m6 0h4m6 0h2m4 0h2M6 7h2m6 0h4m6 0h2m4 0h2M4 8h2m24 0h2M4 9h2m24 0h2M4 10h2m24 0h2M4 11h2m24 0h2M2 12h2m26 0h2M2 13h2m26 0h2M0 14h2m28 0h2M0 15h2m28 0h2M0 16h2m28 0h2M0 17h2m28 0h2M0 18h2m28 0h2M0 19h2m28 0h2M0 20h2m28 0h2M0 21h2m28 0h2M0 22h2m28 0h2M0 23h2m28 0h2M0 24h2m28 0h2M0 25h2m28 0h2M2 26h2m26 0h2M2 27h2m26 0h2M2 28h2m2 0h2m22 0h2M2 29h2m2 0h2m22 0h2M2 30h2m2 0h2m4 0h2m2 0h4m10 0h2M2 31h2m2 0h2m4 0h2m2 0h4m10 0h2M0 32h2m4 0h2m6 0h2m2 0h2m6 0h2m2 0h2M0 33h2m4 0h2m6 0h2m2 0h2m6 0h2m2 0h2"/><path stroke="#be8f44" d="M10 4h2m-2 1h2m-2 1h2m-2 1h2"/><path stroke="#6de6e7" d="M28 4h2m-2 1h2M14 22h4m-4 1h4"/><path stroke="#e0b5bb" d="M8 6h2m2 0h2M8 7h2m2 0h2M6 8h2m6 0h2M6 9h2m6 0h2m-4 23h2m-2 1h2"/><path stroke="#b56303" d="M18 6h6m-6 1h6m0 1h2m-2 1h2"/><path stroke="#331b1a" d="M26 6h2m-2 1h2m-2 1h2m-2 1h2m-2 1h2m-2 1h2m-2 1h2m-2 1h2m-2 1h2m-2 1h2m-2 1h2m-2 1h2m-2 1h2m-2 1h2M6 20h2m16 0h4M6 21h2m16 0h4M6 22h2m16 0h4M6 23h2m16 0h4M6 24h2m16 0h4M6 25h2m16 0h4M6 26h4m12 0h6M6 27h4m12 0h6m-18 1h4m4 0h4m2 0h4m-18 1h4m4 0h4m2 0h4m-4 1h4m-4 1h4"/><path stroke="#2e9adc" d="M28 6h2m-2 1h2"/><path stroke="#e09f9d" d="M8 8h6m6 0h4M8 9h6m6 0h4M6 10h2m4 0h2m8 0h2M6 11h2m4 0h2m8 0h2M6 12h2m-2 1h2m8 3h2m-2 1h2m-4 1h6m-6 1h6M2 22h4m-4 1h4m18 9h2m-2 1h2"/><path stroke="#380b2a" d="M16 8h2m-2 1h2m-2 1h2m-2 1h2M4 12h2m10 0h2M4 13h2m10 0h2M6 14h2m8 0h2M6 15h2m8 0h2M8 16h2m4 0h2m2 0h2m4 0h2M8 17h2m4 0h2m2 0h2m4 0h2m-16 1h4m6 0h4m-14 1h4m6 0h4"/><path stroke="#833e11" d="M18 8h2m-2 1h2M8 22h2m12 0h2M8 23h2m12 0h2"/><path stroke="#0443be" d="M28 8h2m-2 1h2"/><path stroke="#da827a" d="M8 10h2m8 0h2M8 11h2m8 0h2M8 12h2m2 0h2m4 0h2m2 0h2M8 13h2m2 0h2m4 0h2m2 0h2m-14 7h12m-12 1h12M4 24h2m-2 1h2m16 3h2m-2 1h2m-14 1h2m10 0h2m-14 1h2m10 0h2m-14 1h2m10 0h2m-14 1h2m10 0h2"/><path stroke="#947e31" d="M10 10h2m2 0h2m4 0h2m2 0h2m-16 1h2m2 0h2m4 0h2m2 0h2"/><path stroke="#1f088e" d="M28 10h2m-2 1h2"/><path stroke="#ca614e" d="M10 12h2m2 0h2m4 0h2m2 0h2m-16 1h2m2 0h2m4 0h2m2 0h2m-16 3h4m6 0h4m-14 1h4m6 0h4M8 18h2m14 0h2M8 19h2m14 0h2M4 20h2m2 0h2m12 0h2M4 21h2m2 0h2m12 0h2M2 24h2m-2 1h2m4 3h2m-2 1h2m-2 1h2m10 0h2M8 31h2m10 0h2M8 32h2m10 0h2M8 33h2m10 0h2"/><path stroke="#ebbf4a" d="M28 12h2m-2 1h2m-2 19h2m-2 1h2"/><path stroke="#d8180b" d="M2 14h4m-4 1h4"/><path stroke="#efd28b" d="M8 14h2m4 0h2m2 0h2m4 0h2M8 15h2m4 0h2m2 0h2m4 0h2"/><path stroke="#414040" d="M10 14h4m6 0h4m-14 1h4m6 0h4m-14 9h4m4 0h4m-12 1h4m4 0h4m-8 1h4m-4 1h4"/><path stroke="#966949" d="M28 14h2m-2 1h2m-2 1h2m-2 1h2m-2 1h2m-2 1h2m-2 1h2m-2 1h2m-2 1h2m-2 1h2m-2 1h2m-2 1h2m-2 1h2m-2 1h2m-2 1h2m-2 1h2m-2 1h2m-2 1h2"/><path stroke="#a91d18" d="M2 16h6m-6 1h6M2 32h2m-2 1h2"/><path stroke="#8d1123" d="M2 18h2m-2 1h2m0 9h2m-2 1h2m-2 1h2m-2 1h2"/><path stroke="#650c25" d="M4 18h4m-4 1h4m-6 1h2m-2 1h2m0 5h2m-2 1h2m-2 5h2m10 0h2M4 33h2m10 0h2"/><path stroke="#6f6f6e" d="M10 22h2m8 0h2m-12 1h2m8 0h2"/><path stroke="#3ab99d" d="M12 22h2m4 0h2m-8 1h2m4 0h2m-6 1h4m-4 1h4"/><path stroke="#532918" d="M8 24h2m12 0h2M8 25h2m12 0h2m-14 1h2m8 0h2m-12 1h2m8 0h2"/><path stroke="#1d1d1c" d="M12 26h2m4 0h2m-8 1h2m4 0h2m-6 1h4m-4 1h4m-4 1h2m-2 1h2"/></svg>