<svg xmlns="http://www.w3.org/2000/svg" width="32" height="32" shape-rendering="crispEdges" viewBox="0 -0.5 36 35"><path stroke="#1a1c26" d="M10 0h2m4 0h2m2 0h6m2 0h2M8 1h2m2 0h4m2 0h2m6 0h2m2 0h2M8 2h2m2 0h4m2 0h2m6 0h2m2 0h2M6 3h2m2 0h2m2 0h2m14 0h2M6 4h2m2 0h2m2 0h2m14 0h2M6 5h2m2 0h2m2 0h2m14 0h2M6 6h2m2 0h2m2 0h2m14 0h2M6 7h2m4 0h2m6 0h2m2 0h2m4 0h2M6 8h2m4 0h2m6 0h2m2 0h2m4 0h2M8 9h2m2 0h2m16 0h2M8 10h2m2 0h2m16 0h2M8 11h2m2 0h2m16 0h2M8 12h2m2 0h2m16 0h2M8 13h2m20 0h2M8 14h2m20 0h2M8 15h2m22 0h2M8 16h2m22 0h2M8 17h2m22 0h2M8 18h2m22 0h2M8 19h2m4 0h2m16 0h2M8 20h2m4 0h2m16 0h2M8 21h2m2 0h2m2 0h2m10 0h2m2 0h2M8 22h2m2 0h2m2 0h2m10 0h2m2 0h2M8 23h2m2 0h2m2 0h2m10 0h4M8 24h2m2 0h2m2 0h2m10 0h4M8 25h2m2 0h2m2 0h2m10 0h2M8 26h2m2 0h2m2 0h2m10 0h2M8 27h2m2 0h2m2 0h2m10 0h2M8 28h2m2 0h2m2 0h2m10 0h2M8 29h2m2 0h2m2 0h2m6 0h2m4 0h2M8 30h2m2 0h2m2 0h2m6 0h2m4 0h2"/><path stroke="#e7d494" d="M10 1h2m-2 1h2"/><path stroke="#fff" d="M16 1h2m2 0h6m2 0h2M16 2h2m2 0h6m2 0h2M18 3h2m6 0h2M18 4h2m6 0h2m-14 9h2m-2 1h2m6 7h2m-2 1h2"/><path stroke="#cea65f" d="M8 3h2M8 4h2M8 5h2M8 6h2m0 1h2m-2 1h2"/><path stroke="#617077" d="M16 3h2m10 0h2M16 4h2m10 0h2M20 5h2m2 0h2m-6 1h2m2 0h2"/><path stroke="#99a5a7" d="M20 3h2m2 0h2m-6 1h2m2 0h2m-8 1h2m2 0h2m2 0h4M18 6h2m2 0h2m2 0h4m-2 1h2m-2 1h2m-2 1h2m-2 1h2m-2 1h2m-2 1h2m-14 1h2m10 0h2m-14 1h2m10 0h2m-16 1h2m12 0h2m-16 1h2m12 0h2m0 1h2m-2 1h2m-14 3h2m6 0h2m-10 1h2m6 0h2"/><path stroke="#cbd2d9" d="M22 3h2m-2 1h2m-8 1h2m-2 1h2m-2 1h2m-2 1h2m-2 1h2m-2 1h2m-2 1h2m-2 1h2m12 3h2m-2 1h2m-12 5h2m2 0h2m-6 1h2m2 0h2"/><path stroke="#b3794d" d="M8 7h2M8 8h2"/><path stroke="#3c4851" d="M14 7h2m-2 1h2m-2 1h2m-2 1h2m-2 1h2m-2 1h2"/><path stroke="#a82b12" d="M18 7h2m6 0h2M18 8h2m6 0h2m-8 1h2m2 0h2m-6 1h2m2 0h2"/><path stroke="#30a387" d="M22 7h2m-2 1h2m-2 1h2m-2 1h2m-6 5h2m-2 1h2m0 1h2m4 0h2m-8 1h2m4 0h2m-6 1h4m-4 1h4m-4 9h2m-2 1h2"/><path stroke="#ab684c" d="M10 9h2m-2 1h2"/><path stroke="#17756e" d="M18 9h2m6 0h2m-10 1h2m6 0h2m-6 1h4m-4 1h4m-10 3h2m-2 1h2m0 1h2m8 0h2m-12 1h2m8 0h2m-10 1h2m4 0h2m2 0h2m-12 1h2m4 0h2m2 0h2m-12 5h2m-2 1h2m-2 1h2m-2 1h2m-2 1h2m6 0h2m-10 1h2m6 0h2"/><path stroke="#8a4028" d="M10 11h2m-2 1h2m-2 1h2m-2 1h2m-2 1h2m-2 1h2m-2 1h2m-2 1h2m-2 1h2m-2 1h2m-2 1h2m-2 1h2m-2 1h2m-2 1h2m-2 1h2m-2 1h2m-2 1h2m-2 1h2"/><path stroke="#1a5556" d="M18 11h2m-2 1h2m0 1h8m-8 1h8m-14 3h4m-4 1h4m0 1h2m8 0h2m-12 1h2m8 0h2m0 1h2m-2 1h2m-14 3h2m6 0h2m-10 1h2m6 0h2m-10 1h2m6 0h2m-10 1h2m6 0h2m-10 1h2m-2 1h2"/><path stroke="#faf8db" d="M20 11h2m4 0h2m-8 1h2m4 0h2"/><path stroke="#24131d" d="M12 13h2m-2 1h2m-2 1h2m-2 1h2m-2 1h2m-2 1h2m-2 1h2m-2 1h2m8 7h4m-4 1h4"/><path stroke="#0f343f" d="M18 13h2m-2 1h2m0 1h8m-8 1h8m-12 3h2m-2 1h2"/><path stroke="#50cd90" d="M22 17h4m-4 1h4"/><path stroke="#402830" d="M18 23h2m6 0h2m-10 1h2m6 0h2m-4 1h2m-2 1h2"/><path stroke="#5e423c" d="M20 23h2m2 0h2m-6 1h2m2 0h2m-4 1h2m-2 1h2m-14 3h2m-2 1h2"/><path stroke="#806352" d="M22 23h2m-2 1h2"/><path stroke="#0b3b44" d="M26 29h2m-2 1h2"/></svg>