<svg xmlns="http://www.w3.org/2000/svg" width="64" height="64" shape-rendering="crispEdges" viewBox="0 -0.5 32 32"><path stroke="#1a1c26" d="M6 0h1m16 0h1M5 1h1m1 0h1m6 0h2m6 0h1m1 0h1M5 2h1m2 0h1m3 0h2m2 0h1m4 0h1m2 0h1M5 3h1m3 0h3m5 0h4m3 0h1M3 4h2m1 0h1m16 0h1M2 5h1m1 0h1m2 0h1m14 0h1M1 6h1m2 0h1m3 0h2m9 0h3m1 0h1M1 7h1m3 0h1m4 0h1m7 0h1m2 0h1m2 0h1M0 8h1m1 0h1m2 0h1m3 0h2m7 0h1m1 0h1m2 0h2M0 9h1m2 0h7m1 0h1m5 0h1m1 0h4m2 0h1M0 10h1m3 0h4m3 0h1m5 0h1m2 0h2m3 0h1M0 11h1m3 0h2m6 0h5m3 0h6M0 12h6m14 0h2m3 0h1M0 13h1m3 0h2m14 0h2m3 0h1M0 14h1m3 0h1m1 0h1m12 0h1m1 0h2m2 0h1M0 15h1m2 0h2m2 0h1m10 0h1m2 0h1m1 0h3M0 16h3m1 0h18m3 0h1M0 17h1m2 0h1m18 0h1m2 0h1M0 18h1m2 0h1m18 0h1m2 0h1M0 19h1m2 0h12m6 0h1m3 0h1M0 20h1m3 0h1m1 0h1m1 0h1m4 0h2m6 0h4M1 21h3m2 0h1m2 0h1m2 0h1m10 0h1M6 22h1m2 0h1m3 0h1m8 0h1M5 23h1m3 0h1m4 0h1m6 0h1M5 24h1m4 0h1m4 0h7M5 25h1m4 0h1m5 0h1m4 0h1M5 26h1m4 0h1m1 0h2m2 0h1m4 0h1M6 27h1m3 0h2m2 0h2m4 0h1M7 28h1m2 0h1m4 0h1m3 0h1M7 29h1m2 0h1m4 0h1m2 0h1M6 30h1m3 0h1m3 0h1m4 0h2M5 31h1m5 0h1m2 0h1m6 0h1"/><path stroke="#e7d494" d="M6 1h1m16 0h1M7 2h1m14 0h1M8 3h1m12 0h1M9 4h2m1 5h1m3 0h1"/><path stroke="#cea65f" d="M6 2h1m16 0h1M7 3h1m14 0h1M8 4h1m10 0h3M11 17h3m7 0h1"/><path stroke="#fff" d="M14 2h2m-4 1h2M5 4h1m5 0h1m6 0h1M3 5h1M2 6h1M1 8h1m11 13h1m8 0h1m-9 1h1m6 0h1m-7 1h6"/><path stroke="#ab684c" d="M6 3h1m16 0h1M7 4h1m14 0h1M8 5h3m8 0h3M11 18h3m7 0h1"/><path stroke="#cbd2d9" d="M14 3h3m-5 1h1m2 0h1m1 0h1M5 5h2m4 0h1m1 0h4m1 0h1M3 6h1m11 0h1m6 0h1M2 7h1m12 0h1m7 0h1M1 9h1m22 0h1M15 22h6"/><path stroke="#99a5a7" d="M13 4h2m1 0h1m-5 1h1m4 0h1M5 6h3m4 0h1m4 0h1M3 7h1m9 0h2m1 0h1m5 0h1M3 8h1M2 9h1m20 0h1M1 10h1m22 0h1M1 11h1m22 1h1M1 13h1m22 0h1M1 14h1m22 0h1M1 15h1m12 2h7m-7 4h8"/><path stroke="#3c4851" d="M10 6h1m7 0h1M9 7h1m1 0h2m4 0h1M4 8h1m1 0h3m4 0h3m3 0h1M3 10h1m18 0h1M3 11h1m18 1h1M3 13h1m18 0h1M3 14h1m11 5h1m4 0h1m-6 1h1m4 0h1"/><path stroke="#617077" d="M11 6h1M4 7h1m1 0h3m10 0h2m0 1h2M2 10h1m20 0h1M2 11h1m20 1h1M2 13h1m20 0h1M2 14h1m20 0h1M2 15h1m11 3h7m-5 1h4m-4 1h4"/><path stroke="#810b0b" d="M13 6h2m1 0h1m-7 16h1m1 0h1m-3 1h1m1 0h2m0 1h1"/><path stroke="#2c7d63" d="M11 8h1m5 0h1m-5 2h3m6 5h1M3 16h1m18 0h1m-1 3h1M3 20h1m3 1h1m0 1h1m-1 1h1m-1 1h1m-1 1h1m9 0h1M6 26h1m1 0h2m-3 1h1m1 0h1m9 0h1M9 28h1m6 0h1m1 0h1M9 29h1m6 0h1m-9 1h1m6 0h1m1 0h1M7 31h1m1 0h1m5 0h1m1 0h1m1 0h1"/><path stroke="#f9f3c0" d="M12 8h1m3 0h1"/><path stroke="#1a5556" d="M10 9h1m7 0h1m0 1h1M6 11h1m12 0h1M6 12h1m-1 1h1m1 1h1m0 1h5m1 0h3M7 20h1m0 1h1m0 3h1m-1 1h1m7 0h1m-1 1h1m-2 1h1"/><path stroke="#94cc47" d="M13 9h3m-9 2h1m2 0h1m7 0h1M7 12h2m3 0h2m1 0h4M8 13h3m-2 1h5m1 0h3m5 2h2M1 17h2m20 0h2M1 18h2m20 0h2M1 19h2m3 5h1m-1 1h1m13 0h1m-1 1h1M6 31h1m1 0h1m1 0h1m5 0h1m1 0h1m1 0h1"/><path stroke="#5e423c" d="M8 10h1m10 2h1m-1 1h1M5 18h1m1 0h1m1 0h1"/><path stroke="#4ba245" d="M9 10h2m1 0h1m3 0h1m1 0h1m-8 1h1m5 0h1M7 14h1m0 1h1m5 0h1m8 4h2M1 20h2m4 2h1m-2 1h2m-1 1h1m-1 1h1m11 0h1M7 26h1m10 0h2M8 27h1m8 0h2M8 28h1m8 0h1M8 29h1m8 0h1M7 30h1m1 0h1m6 0h1m1 0h1"/><path stroke="#806352" d="M8 11h2m-1 1h3m-1 1h8M5 17h1m1 0h1m1 0h1m-6 1h1m1 0h1m1 0h1m1 0h1"/><path stroke="#0b3b44" d="M14 12h1m-8 1h1m6 1h1m3 0h1"/><path stroke="#a19477" d="M4 17h1m1 0h1m1 0h1m1 0h1"/><path stroke="#4c0717" d="M9 20h1m0 1h2m-1 1h1m-1 1h1m0 1h1m-1 1h1m1 0h1m-1 1h1"/><path stroke="#3c133b" d="M10 20h3"/><path stroke="#a82b12" d="M11 24h1m1 0h1m-3 1h1m1 0h1m1 0h1m-5 1h1m3 0h1"/></svg>