<svg xmlns="http://www.w3.org/2000/svg" width="32" height="32" shape-rendering="crispEdges" viewBox="0 -0.5 36 36"><path stroke="#1c0b21" d="M14 2h6m-6 1h6m-8 1h2m6 0h2M12 5h2m6 0h2M10 6h2m10 0h2M10 7h2m10 0h2M6 8h4m14 0h2M6 9h4m14 0h2M4 10h2m20 0h2M4 11h2m20 0h2M2 12h2m24 0h2M2 13h2m24 0h2M2 14h2m24 0h2M2 15h2m24 0h2M2 16h2m24 0h2M2 17h2m24 0h2M2 18h2m24 0h2M2 19h2m24 0h2M2 20h2m24 0h2M2 21h2m24 0h2M2 22h2m24 0h2M2 23h2m24 0h2M2 24h2m24 0h2M2 25h2m24 0h2M4 26h4m16 0h4M4 27h4m16 0h4M8 28h2m14 0h2M8 29h2m14 0h2M8 30h2m6 0h2m6 0h2M8 31h2m6 0h2m6 0h2M8 32h2m4 0h2m2 0h2m6 0h2M8 33h2m4 0h2m2 0h2m6 0h2"/><path stroke="#e0b5bb" d="M14 4h6m-6 1h6m-8 1h2m6 0h2M12 7h2m6 0h2M6 10h4m14 0h2M6 11h4m14 0h2M4 12h4m18 0h2M4 13h4m18 0h2M4 14h2m20 0h2M4 15h2m20 0h2M12 32h2m-2 1h2"/><path stroke="#e09f9d" d="M14 6h6m-6 1h6m-8 1h2m4 0h2m-8 1h2m4 0h2m-8 1h2m-2 1h2m-6 1h4m12 0h2M8 13h4m12 0h2M6 14h8m8 0h4M6 15h8m8 0h4M6 16h2m2 0h6m4 0h6M6 17h2m2 0h6m4 0h6m-14 1h10m-10 1h10M12 30h2m-2 1h2m10 1h2m-2 1h2"/><path stroke="#380b2a" d="M10 8h2m10 0h2M10 9h2m10 0h2m-14 1h2m10 0h2m-14 1h2m10 0h2m-12 1h2m8 0h2m-12 1h2m8 0h2m-10 1h2m4 0h2m-8 1h2m4 0h2m-6 1h4m-4 1h4"/><path stroke="#da827a" d="M14 8h2m-2 1h2m-2 1h2m2 0h2m-6 1h2m2 0h2M4 16h2m2 0h2m16 0h2M4 17h2m2 0h2m16 0h2M6 18h2m2 0h2m10 0h2M6 19h2m2 0h2m10 0h2m-12 1h10m-10 1h10M4 22h4m16 0h4M4 23h4m16 0h4M6 24h2m16 0h2M6 25h2m16 0h2m-16 3h2m10 0h2m-14 1h2m10 0h2m-14 1h2m10 0h2m-14 1h2m10 0h2m-2 1h2m-2 1h2"/><path stroke="#947e31" d="M16 8h2m2 0h2m-6 1h2m2 0h2"/><path stroke="#ca614e" d="M16 10h2m2 0h2m-6 1h2m2 0h2m-6 3h4m-4 1h4M8 18h2m14 0h2M8 19h2m14 0h2m-16 1h2m10 0h2m-14 1h2m10 0h2M4 24h2m20 0h2M4 25h2m20 0h2m-8 5h2m-2 1h2m-12 1h2m8 0h2m-12 1h2m8 0h2"/><path stroke="#efd28b" d="M14 12h2m4 0h2m-8 1h2m4 0h2"/><path stroke="#414040" d="M16 12h4m-4 1h4M4 20h2m20 0h2M4 21h2m20 0h2m-18 1h2m10 0h2m-14 1h2m10 0h2m-12 1h4m2 0h4m-10 1h4m2 0h4m-6 1h2m-2 1h2"/><path stroke="#a9a9a9" d="M4 18h2m20 0h2M4 19h2m20 0h2m-14 3h2m2 0h2m-6 1h2m2 0h2"/><path stroke="#6f6f6e" d="M6 20h2m16 0h2M6 21h2m16 0h2m-14 1h2m6 0h2m-10 1h2m6 0h2m-6 1h2m-2 1h2"/><path stroke="#331b1a" d="M8 20h2m-2 1h2m-2 1h2m-2 1h2m0 3h2m10 0h2m-14 1h2m10 0h2m-12 1h4m2 0h4m-10 1h4m2 0h4m-8 1h2m2 0h2m-6 1h2m2 0h2"/><path stroke="#afc8c8" d="M16 22h2m-2 1h2"/><path stroke="#041623" d="M8 24h2m-2 1h2m-2 1h2m-2 1h2"/><path stroke="#532918" d="M10 24h2m10 0h2m-14 1h2m10 0h2m-12 1h2m6 0h2m-10 1h2m6 0h2"/><path stroke="#1d1d1c" d="M14 26h2m2 0h2m-6 1h2m2 0h2m-4 1h2m-2 1h2"/></svg>