<svg xmlns="http://www.w3.org/2000/svg" width="64" height="64" shape-rendering="crispEdges" viewBox="0 -0.5 32 32"><path stroke="#372840" d="M15 0h4M4 1h5m5 0h1m4 0h1M3 2h1m5 0h1m3 0h1m6 0h1m2 0h4M2 3h1m5 0h1m3 0h1m7 0h1m1 0h1m4 0h1M1 4h1m6 0h1m2 0h1m8 0h1m2 0h1m4 0h1M1 5h1m7 0h2m10 0h1m1 0h1m5 0h1M1 6h1m20 0h1m6 0h1M1 7h1m27 0h1M1 8h1m27 0h1M1 9h1m27 0h1M1 10h1m27 0h1M1 11h1m27 0h1M1 12h1m27 0h1M1 13h1m27 0h1M1 14h1m8 0h1m18 0h1M1 15h1m8 0h1m19 0h1M1 16h1m8 0h1m20 0h1M1 17h1m8 0h1m19 0h1M1 18h1m8 0h1m1 0h18M1 19h1m9 0h1m17 0h1M1 20h1m27 0h1M1 21h1m27 0h1M1 22h1m7 0h1m18 0h1M2 23h1m5 0h1m1 0h1m17 0h1M2 24h1m4 0h1m3 0h1m5 0h1m9 0h1M2 25h1m3 0h1m5 0h1m3 0h1m1 0h1m3 0h1m3 0h1M3 26h1m1 0h1m5 0h1m3 0h1m1 0h1m3 0h1m1 0h1m1 0h1M4 27h1m6 0h1m2 0h1m2 0h1m2 0h1m3 0h1m-14 1h1m2 0h1m2 0h1m2 0h1m-10 1h1m2 0h1m2 0h1m2 0h1m-10 1h1m2 0h1m2 0h1m2 0h1m-9 1h2m4 0h2"/><path stroke="#c68556" d="M15 1h1m-2 1h1m-2 1h1m5 1h1m-1 1h1m-9 1h1m9 0h1M10 7h1"/><path stroke="#d6a851" d="M16 1h3m-4 1h1m3 0h1m-6 1h1m4 0h1m-7 1h1m-1 1h1m-2 1h1m5 0h1m-6 1h1m3 0h1"/><path stroke="#f1f2ff" d="M4 2h5M3 3h1m19 0h4M2 4h2m23 0h1M2 5h1m25 0h1M2 6h1m25 0h1M2 7h1m25 0h1M2 8h1m25 0h1M2 9h1m25 0h1M2 10h1m25 0h1M2 11h1m25 0h1M2 12h1m25 0h1M2 13h1m25 0h1M2 14h1"/><path stroke="#ffe9e3" d="M16 2h3m-4 1h1m1 0h1m-1 1h1M8 16h2"/><path stroke="#ecebe7" d="M4 3h1m1 3h1M5 8h1M4 9h1m8 11h1m5 0h1m1 0h1m-11 1h1m1 0h2m4 0h1m1 0h1m-11 1h1m2 0h2m2 0h1m1 0h1m1 0h1m-11 1h1m5 0h1"/><path stroke="#f1ebdb" d="M5 3h1M4 4h1m21 0h1M3 5h1m3 0h2m15 0h1m2 0h1M3 6h1m1 0h1m19 0h1m0 1h1m-2 1h1m0 1h1M6 10h1m-2 1h1m20 0h1M4 14h1m-3 4h1m1 0h1m1 0h1m-5 1h1m2 0h1m18 0h1m1 0h1m1 0h1M2 20h1m25 0h1M2 21h1m25 0h1M2 22h1m24 0h1M3 23h1m23 0h1M3 24h1m22 0h1M3 25h1"/><path stroke="#bda499" d="M6 3h2M5 4h1m18 0h2M4 5h1m21 0h1M4 6h1m2 0h2m14 0h1m3 0h1M3 7h1m1 0h2m1 0h1m15 0h1m2 0h1M3 8h2m2 0h1m19 0h1M3 9h1m2 0h2m17 0h1m1 0h1M3 10h1m1 0h1m21 0h1M3 11h2m1 0h1m20 0h1M3 12h1m1 0h1m21 0h1M3 13h2m22 0h1M5 14h1m-1 4h1m-3 1h2m1 0h1m16 0h1m1 0h1m1 0h1M3 20h1m1 0h1m1 0h2m15 0h1m1 0h2M3 21h1m1 0h1m1 0h2m16 0h1m1 0h1M3 22h2m1 0h2m16 0h1m1 0h1M4 23h3m17 0h1m1 0h1M4 24h2m18 0h2"/><path stroke="#86c69a" d="M16 3h1m1 0h1"/><path stroke="#ddcebf" d="M6 4h2M5 5h2m18 0h1m-2 1h1m1 0h1M4 7h1m2 0h1m17 0h1M6 8h1m19 0h1M5 9h1m-2 1h1m21 0h1M4 12h1m21 0h1M5 13h1m1 6h1m-4 1h1m1 0h1m18 0h1M4 21h1m1 0h1m17 0h1m1 0h1M5 22h1m19 0h1m-1 1h1m-1 2h1M4 26h1"/><path stroke="#b47538" d="M12 4h1m1 0h1m-3 1h1m0 1h1"/><path stroke="#fad6ff" d="M15 4h2m1 0h1m-3 1h2M8 17h2"/><path stroke="#8c5b3e" d="M11 5h1m2 0h1m5 0h1m-2 1h1m-2 1h1"/><path stroke="#e3cddf" d="M15 5h1m2 0h1m-3 1h2"/><path stroke="#886e6a" d="M9 6h1m13 1h1M8 8h1m15 0h1M7 10h1m17 0h1M6 12h1m-1 1h1m19 0h1M6 14h1m-3 2h3m0 2h1m0 1h2m12 0h1M9 20h1m13 0h1M9 21h1m13 0h1M8 22h1m-2 1h1m-2 1h1m16 0h1M4 25h2m17 0h2m-1 1h1m-13 1h1m5 0h1m-7 1h1m5 0h1m-7 1h1m5 0h1"/><path stroke="#373334" d="M10 6h1M9 7h1m12 0h1M9 8h1m13 0h1M8 9h1m15 0h1M8 10h1m15 0h1M7 11h1m4 0h1m8 0h1m3 0h1M7 12h1m3 0h2m7 0h1m1 0h1m2 0h1M7 13h1m2 0h1m1 0h1m7 0h1m1 0h1m2 0h1M3 14h1m3 0h1m-6 1h1m1 0h4m-1 1h1m-6 1h1m1 0h4m-5 1h1m4 0h2m0 1h1m10 0h1m-12 1h1m11 0h1m-13 1h1m11 0h1m-13 1h1m12 0h1m-1 1h1m-2 1h1"/><path stroke="#e2b27e" d="M14 6h1m5 0h1m-9 4h1m9 0h1m-13 1h1m2 0h1m3 0h1m1 0h1m-6 1h5M3 17h1m10 7h1m5 0h1m-7 1h1m5 0h1m-8 1h1m5 0h1m-7 3h1m5 0h1"/><path stroke="#cbc6c1" d="M15 6h1m-3 13h1m5 0h1m-8 1h1m1 0h1m5 0h1m-9 1h1m2 0h1m2 0h1m1 0h1m-9 1h2m5 0h1m1 0h1m0 1h1"/><path stroke="#f8c53a" d="M11 7h1m3 0h2m2 0h2M11 8h1m5 0h1m3 0h1M11 9h2m4 0h1m4 0h1m-13 1h1m2 0h1m3 0h1m2 0h1m-7 1h3m1 0h1m4 0h1M9 12h1m13 0h1M9 13h1m13 0h1M9 14h1m-8 2h1m11 10h1m5 0h1m-8 4h1m5 0h1"/><path stroke="#fff089" d="M12 7h1m1 0h1m6 0h1M10 8h1m1 0h5m1 0h3m1 0h1M9 9h2m2 0h4m1 0h3m2 0h1M9 10h1m4 0h3m1 0h2M8 11h1m15 0h1M8 12h1m15 0h1M8 13h1m15 0h1M8 14h1m-6 1h1m11 9h1m5 0h1m-7 1h1m5 0h1"/><path stroke="#b29476" d="M21 9h1m-11 1h1m11 0h1M9 11h1m10 0h1m-8 1h1m5 0h1m-6 1h5m-6 11h1m5 0h1m-7 1h1m5 0h1"/><path stroke="#855f39" d="M21 10h1m-11 1h1m10 0h1m-13 1h1m2 1h1m5 0h1"/><path stroke="#464762" d="M11 13h1m0 1h17"/><path stroke="#696682" d="M11 14h1m-1 1h1m-1 2h1m-1 1h1"/><path stroke="#594d4d" d="M8 15h2m6 4h2m-1 1h1m-1 1h1m-2 1h1m-4 1h3m1 0h1m1 0h3m-10 1h1m3 0h1m1 0h1m-7 2h1m5 0h1m0 1h1"/><path stroke="#c5c7dd" d="M12 15h17"/><path stroke="#fff" d="M29 15h1m0 1h1"/><path stroke="#59cf93" d="M3 16h1"/><path stroke="#8ac4c3" d="M11 16h1"/><path stroke="#e6e7f0" d="M12 16h18"/><path stroke="#9a97b9" d="M12 17h18"/><path stroke="#807b7a" d="M12 19h1m1 0h2m2 0h1m1 0h1m-10 1h1m3 0h2m1 0h1m-3 1h1m0 1h1m-7 1h1m4 0h1"/><path stroke="#695b59" d="M13 27h1"/><path stroke="#b28b78" d="M13 28h1m5 0h1m-8 2h1m5 0h1"/></svg>