<svg xmlns="http://www.w3.org/2000/svg" width="32" height="32" shape-rendering="crispEdges" viewBox="0 -0.5 36 37"><path stroke="#372840" d="M8 3h4m6 0h4m6 0h4M8 4h4m6 0h4m6 0h4M6 5h2m4 0h2m2 0h2m4 0h2m2 0h2m4 0h2M6 6h2m4 0h2m2 0h2m4 0h2m2 0h2m4 0h2M4 7h2m8 0h2m8 0h2m8 0h2M4 8h2m8 0h2m8 0h2m8 0h2M4 9h2m28 0h2M4 10h2m28 0h2M4 11h2m28 0h2M4 12h2m28 0h2M4 13h2m28 0h2M4 14h2m28 0h2M4 15h2m28 0h2M4 16h2m28 0h2M4 17h2m28 0h2M4 18h2m28 0h2M4 19h2m28 0h2M4 20h2m28 0h2M4 21h4m2 0h2m22 0h2M4 22h4m2 0h2m22 0h2M4 23h4m2 0h2m22 0h2M4 24h4m2 0h2m22 0h2M4 25h4m2 0h2m14 0h2m6 0h2M4 26h4m2 0h2m14 0h2m6 0h2M4 27h4m2 0h2m12 0h2m2 0h2m4 0h2M4 28h4m2 0h2m12 0h2m2 0h2m4 0h2M6 29h2m2 0h2m12 0h2m2 0h2m2 0h2M6 30h2m2 0h2m12 0h2m2 0h2m2 0h2M6 31h2m2 0h2m6 0h2m2 0h2m6 0h2M6 32h2m2 0h2m6 0h2m2 0h2m6 0h2M8 33h2m2 0h6m2 0h2M8 34h2m2 0h6m2 0h2"/><path stroke="#eae0dd" d="M8 5h4m16 0h4M8 6h4m16 0h4M6 7h2m4 0h2m12 0h2m4 0h2M6 8h2m4 0h2m12 0h2m4 0h2M6 9h2m-2 1h2m-2 1h2m-2 1h2m24 1h2m-2 1h2m-2 1h2m-2 1h2m-2 1h2m-2 1h2m-2 1h2m-2 1h2m-2 1h2m-2 1h2m-2 1h2m-2 1h2m-2 1h2m-2 1h2m-2 1h2m-2 1h2m-4 1h2m-2 1h2"/><path stroke="#b5e7cb" d="M18 5h4m-4 1h4m-2 1h2m-2 1h2m-2 1h2m8 0h2m-12 1h2m8 0h2m-18 3h2m8 0h2m-12 1h2m8 0h2M6 15h2m8 0h2m4 0h2M6 16h2m8 0h2m4 0h2m-6 1h4m-4 1h4M8 25h2m-2 1h2m-2 1h2m-2 1h2m-2 1h2m-2 1h2"/><path stroke="#d4b8b8" d="M8 7h4m16 0h2M8 8h4m16 0h2M12 9h2m12 0h2m-16 1h2m12 0h2m-16 1h2m-2 1h2m16 3h2m-2 1h2m-4 1h2m-2 1h2m-4 1h2m2 0h2m-6 1h2m2 0h2m-4 1h2m-2 1h2m0 1h2m-2 1h2m-2 3h2m-2 1h2"/><path stroke="#86c69a" d="M16 7h2m-2 1h2m0 1h2m-2 1h2m6 3h2m-2 1h2m-16 1h4m8 0h2m-14 1h4m8 0h2m-10 1h2m4 0h2m-8 1h2m4 0h2m-6 1h4m-4 1h4m0 9h2m-2 1h2m-8 1h2m-2 1h2"/><path stroke="#ecebe7" d="M18 7h2m2 0h2m-6 1h2m2 0h2"/><path stroke="#2c3438" d="M30 7h2m-2 1h2M14 9h2m8 0h2m2 0h2m2 0h2m-20 1h2m8 0h2m2 0h2m2 0h2m-20 1h2m8 0h4m4 0h2m-20 1h2m8 0h4m4 0h2M6 13h2m4 0h2m16 0h2M6 14h2m4 0h2m16 0h2m-4 1h2m-2 1h2M6 17h2m18 0h2M6 18h2m18 0h2m-16 1h2m-2 1h2"/><path stroke="#c090a9" d="M8 9h4m-4 1h4m-2 1h2m-2 1h2m18 5h2m-2 1h2m-4 1h2m-2 1h2m0 1h2m-2 1h2m-20 1h2m12 0h2m-16 1h2m12 0h2m0 1h4m-4 1h4"/><path stroke="#5d9b79" d="M16 9h2m4 0h2m-8 1h2m4 0h2m-6 1h4m8 0h2m-14 1h4m8 0h2m-16 1h2m4 0h2m-8 1h2m4 0h2m-6 1h4m-4 1h4m-8 1h2m8 0h2m-12 1h2m8 0h2m-10 1h2m4 0h2m-8 1h2m4 0h2m-6 1h4m-4 1h4m-8 9h2m4 0h2m-8 1h2m4 0h2"/><path stroke="#33272a" d="M8 11h2m-2 1h2m0 1h2m-2 1h2m-2 1h2m-2 1h2m-2 1h2m-2 1h2m2 3h2m8 0h2m-12 1h2m8 0h2m-12 1h2m8 0h2m-12 1h2m8 0h2m-14 1h2m10 0h2m-14 1h2m10 0h2m-12 1h2m-2 1h2m-4 1h2m-2 1h2"/><path stroke="#486859" d="M16 11h2m4 0h2m-8 1h2m4 0h2m-6 1h4m-4 1h4m4 1h2m-2 1h2m-16 1h2m-2 1h2m0 1h2m8 0h2m-12 1h2m8 0h2m-8 9h2m-2 1h2m-8 1h2m-2 1h2"/><path stroke="#fcf7be" d="M28 11h2m-2 1h2"/><path stroke="#f8e398" d="M8 13h2m-2 1h2"/><path stroke="#f6d896" d="M28 13h2m-2 1h2"/><path stroke="#695b59" d="M8 15h2m-2 1h2m-2 1h2m-2 1h2"/><path stroke="#e1bf89" d="M6 19h6m-6 1h6"/><path stroke="#8ac4c3" d="M8 21h2m-2 1h2m-2 1h2m-2 1h2"/><path stroke="#966888" d="M12 21h2m12 0h2m-16 1h2m12 0h2m0 1h2m-2 1h2"/><path stroke="#bda499" d="M16 21h2m4 0h2m-8 1h2m4 0h2m-6 1h4m-4 1h4m-6 1h2m-2 1h2m4 1h2m-2 1h2m-10 1h2m4 0h2m-8 1h2m4 0h2"/><path stroke="#ddcebf" d="M16 23h2m4 0h2m-8 1h2m4 0h2m-6 1h4m-4 1h4m-6 1h2m-2 1h2"/><path stroke="#886e6a" d="M14 25h2m6 0h2m-10 1h2m6 0h2m-6 1h4m-4 1h4m-6 1h2m-2 1h2"/><path stroke="#dceaee" d="M8 31h2m-2 1h2"/></svg>