<svg xmlns="http://www.w3.org/2000/svg" width="64" height="64" shape-rendering="crispEdges" viewBox="0 -0.5 34 34"><path stroke="#1a1c26" d="M22 1h1m1 0h4m-9 1h3m1 0h1m4 0h1M16 3h3m2 0h1m2 0h1m2 0h1M15 4h1m5 0h1m3 0h2M16 5h1m3 0h1m6 0h1M15 6h1m3 0h1m8 0h1M15 7h1m3 0h1m9 0h1M14 8h1m4 0h1m2 0h1m3 0h1m1 0h2M15 9h1m2 0h1m3 0h2m5 0h1m-15 1h1m2 0h1m4 0h6m-15 1h1m3 0h1m5 0h1m-10 1h2m1 0h1m6 0h1m-9 1h1m7 0h1m-9 1h1m2 0h2m4 0h1m-11 1h1m5 0h1m4 0h1M6 16h5m3 0h2m7 0h1m3 0h1M4 17h2m5 0h3m10 0h2m2 0h1M2 18h2m6 0h1m15 0h1m2 0h1M1 19h1m7 0h1m17 0h1m2 0h1M2 20h1m5 0h1m5 0h1m13 0h1m2 0h1M2 21h1m5 0h1m6 0h1m8 0h1m4 0h1m1 0h1M1 22h1m4 0h3m7 0h1m2 0h1m4 0h2m5 0h1M2 23h4m2 0h1m7 0h1m1 0h1m5 0h4m3 0h1M9 24h1m6 0h1m7 0h2m1 0h1m3 0h1M9 25h1m5 0h1m11 0h4M8 26h1m5 0h1m12 0h2M7 27h1m3 0h2m-6 1h1m2 0h1m-5 1h1m-1 1h1m0 1h1m6 0h1m-8 1h3m2 0h1m1 0h1"/><path stroke="#6f6f6e" d="M22 2h1m-1 1h2m-2 1h1m1 0h1m-4 1h1m3 0h1m-6 1h1m4 0h3m-8 1h1m5 0h3m-9 1h1m6 0h1m-9 1h1m-1 1h1m-1 1h1m-1 1h1m4 0h1m-7 1h1m5 0h1m-7 1h1m6 0h1m-9 1h1m2 0h2m4 0h1m-11 1h1m5 0h1m3 0h1m-13 1h2m7 0h1m3 0h1m-17 1h3m11 0h1m2 0h1m-19 1h1m15 0h1m2 0h1M9 20h1m17 0h1m2 0h1M9 21h1m4 0h1m-6 1h1m5 0h1m-7 1h1m5 0h1m-6 1h1m4 0h1m-6 1h1m3 0h1m-6 1h1m3 0h1m-6 1h1m-1 1h1"/><path stroke="#e38d18" d="M24 2h1m2 0h1m-9 1h1m6 0h1M16 4h2m-1 1h1m-2 1h1m-1 1h1m-2 1h1m0 1h1m-2 2h1m1 0h1m-1 1h1M7 17h4m-7 1h1m2 0h1m16 0h1M3 19h1m21 0h1m-2 1h1M3 21h2m1 0h2m-4 1h1m23 0h2m-20 7h2m-4 1h1"/><path stroke="#f7f688" d="M25 2h1m-7 2h2m-3 1h1m-2 1h1m0 1h1m-2 1h1m-1 2h1m-2 1h1M5 18h1m3 0h1m-4 1h1m1 0h1m-4 1h1m1 0h1m18 1h1m2 3h1M7 30h1m4 0h1m-4 1h1"/><path stroke="#ebbf4a" d="M26 2h1m-7 1h1m-3 1h1m0 1h1m-2 1h1m-1 2h1m-2 1h1m-2 1h1M6 18h1m1 0h1m-4 1h1m1 0h1m-4 1h1m1 0h1m18 0h1M5 21h1m19 0h1m2 2h2m-2 1h1M9 30h1m1 0h1m-4 1h1m3 0h1"/><path stroke="#b56303" d="M25 3h1m-9 4h1m-2 1h1M6 17h1m-5 2h1m1 0h1m19 0h1M3 20h1m24 1h1M2 22h2m1 0h1m1 7h1m3 2h1m1 0h1"/><path stroke="#414040" d="M23 4h1m-2 1h2m-3 1h4m-4 1h2m1 0h2m-5 1h1m3 0h1m-6 1h2m-2 1h3m-3 1h4m-4 1h4m-5 1h5m-5 1h1m2 0h3m-7 1h2m3 0h3m-9 1h5m2 0h2m-10 1h7m3 0h1m-13 1h4m1 0h5m3 0h1m-17 1h8m1 0h4m4 0h1m-19 1h4m1 0h5m6 0h1m2 0h1m-20 1h4m2 0h3m8 0h1m2 0h1m-21 1h5m2 0h1m8 0h2m2 0h1m-21 1h5m15 0h1m-20 1h4m15 0h1m-20 1h3m-4 1h3m-4 1h2m-2 1h1m-2 1h2m0 1h1"/><path stroke="#d8180b" d="M24 5h1m1 0h1m-1 4h3"/><path stroke="#650c25" d="M23 7h1m-1 1h1m0 1h1"/><path stroke="#8d1123" d="M24 8h1m0 1h1"/><path stroke="#1d1d1c" d="M18 18h1m0 1h1m0 1h4m-5 1h5m-6 1h1m1 0h1m-4 1h1m1 0h1m-3 1h2m-3 1h2m-3 1h2m-4 1h3m-5 1h3m-2 1h2m-1 1h1m-4 1h1m-1 1h2m1 0h1m1 0h1"/></svg>