<svg xmlns="http://www.w3.org/2000/svg" width="32" height="32" shape-rendering="crispEdges" viewBox="0 -0.5 36 37"><path stroke="#12173d" d="M10 6h4m8 0h4M10 7h4m8 0h4M8 8h2m4 0h2m4 0h2m4 0h2M8 9h2m4 0h2m4 0h2m4 0h2M6 10h2m4 0h2m8 0h2m4 0h2M6 11h2m4 0h2m8 0h2m4 0h2M4 12h2m4 0h2m2 0h2m4 0h2m2 0h2m4 0h2M4 13h2m4 0h2m2 0h2m4 0h2m2 0h2m4 0h2M2 14h2m4 0h2m2 0h2m8 0h2m2 0h2m4 0h2M2 15h2m4 0h2m2 0h2m8 0h2m2 0h2m4 0h2M2 16h2m4 0h2m2 0h12m2 0h2m4 0h2M2 17h2m4 0h2m2 0h12m2 0h2m4 0h2M2 18h2m6 0h2m12 0h2m6 0h2M2 19h2m6 0h2m12 0h2m6 0h2M2 20h2m8 0h2m8 0h2m8 0h2M2 21h2m8 0h2m8 0h2m8 0h2M2 22h2m2 0h2m4 0h2m10 0h2m2 0h2m2 0h2M2 23h2m2 0h2m4 0h2m10 0h2m2 0h2m2 0h2M2 24h4m2 0h2m4 0h2m8 0h4m2 0h4M2 25h4m2 0h2m4 0h2m8 0h4m2 0h4M2 26h2m2 0h2m2 0h2m4 0h2m6 0h2m6 0h2M2 27h2m2 0h2m2 0h2m4 0h2m6 0h2m6 0h2M4 28h2m2 0h2m8 0h6m2 0h2M4 29h2m2 0h2m8 0h6m2 0h2M2 30h2m4 0h2m16 0h2M2 31h2m4 0h2m16 0h2M2 32h2m2 0h2m2 0h2m12 0h2m2 0h2M2 33h2m2 0h2m2 0h2m12 0h2m2 0h2M4 34h2m2 0h2m6 0h4m6 0h2m2 0h2M4 35h2m2 0h2m6 0h4m6 0h2m2 0h2"/><path stroke="#ff6675" d="M10 8h4m8 0h4M10 9h4m8 0h4M8 10h2m-2 1h2m-4 1h2m-2 1h2m-4 1h2m-2 1h2m8 3h8m-8 1h8m-4 1h2m-2 1h2m-2 1h6m-6 1h6"/><path stroke="#a52639" d="M10 10h2m12 0h2m-16 1h2m12 0h2M8 12h2m16 0h2M8 13h2m16 0h2M6 14h2m20 0h2M6 15h2m20 0h2M6 16h2m20 0h2M6 17h2m20 0h2M6 18h2m20 0h2M6 19h2m20 0h2M8 20h2m16 0h2M8 21h2m16 0h2M4 22h2m4 0h2m2 0h2m14 0h2M4 23h2m4 0h2m2 0h2m14 0h2m-16 1h2m-2 1h2m0 1h6m-6 1h6m-10 1h2m-2 1h2M6 30h2m6 0h2m6 0h2M6 31h2m6 0h2m6 0h2M4 32h2m2 0h2m4 0h2m4 0h2m4 0h2M4 33h2m2 0h2m4 0h2m4 0h2m4 0h2m-16 1h2m8 0h2m-12 1h2m8 0h2"/><path stroke="#dd3745" d="M26 10h2m-2 1h2m0 1h2m-2 1h2m0 1h2m-2 1h2M4 16h2m24 0h2M4 17h2m24 0h2M4 18h2m2 0h2m16 0h2m2 0h2M4 19h2m2 0h2m16 0h2m2 0h2M4 20h2m4 0h2m2 0h2m8 0h2m4 0h2M4 21h2m4 0h2m2 0h2m8 0h2m4 0h2m-16 1h2m-2 1h2m-6 1h2m6 0h2m-10 1h2m6 0h2M8 26h2m2 0h2m-6 1h2m2 0h2m-8 1h2m4 0h2m-8 1h2m4 0h2M4 30h2m6 0h2M4 31h2m6 0h2m-2 1h2m8 0h2m-12 1h2m8 0h2"/><path stroke="#ffccd0" d="M12 12h2m8 0h2m-12 1h2m8 0h2"/><path stroke="#f29faa" d="M10 14h2m12 0h2m-16 1h2m12 0h2M10 34h2m2 0h2m4 0h2m2 0h2m-16 1h2m2 0h2m4 0h2m2 0h2"/><path stroke="#c37289" d="M10 16h2m12 0h2m-16 1h2m12 0h2M6 34h2m20 0h2M6 35h2m20 0h2"/><path stroke="#994c69" d="M12 18h2m8 0h2m-12 1h2m8 0h2"/><path stroke="#721c2f" d="M6 20h2m20 0h2M6 21h2m20 0h2M8 22h2m16 0h2M8 23h2m16 0h2m-18 1h2m6 0h2m2 0h2m-14 1h2m6 0h2m2 0h2m-10 1h2m-2 1h2m-6 1h2m12 0h2m-16 1h2m12 0h2m-16 1h2m8 0h2m2 0h2m-16 1h2m8 0h2m2 0h2"/><path stroke="#f9c22b" d="M16 20h2m2 0h2m-6 1h2m2 0h2"/><path stroke="#723352" d="M16 28h2m-2 1h2m-2 3h4m-4 1h4"/><path stroke="#cc817a" d="M16 30h4m-4 1h4"/></svg>