<svg xmlns="http://www.w3.org/2000/svg" width="32" height="32" shape-rendering="crispEdges" viewBox="0 -0.5 36 37"><path stroke="#12173d" d="M14 8h2m6 0h2M14 9h2m6 0h2M8 10h2m2 0h2m2 0h6m2 0h2m2 0h2M8 11h2m2 0h2m2 0h6m2 0h2m2 0h2M6 12h2m2 0h4m10 0h4m2 0h2M6 13h2m2 0h4m10 0h4m2 0h2M4 14h2m6 0h2m10 0h2m6 0h2M4 15h2m6 0h2m10 0h2m6 0h2M4 16h2m8 0h2m10 0h2m4 0h2M4 17h2m8 0h2m10 0h2m4 0h2M4 18h2m10 0h2m8 0h2m4 0h2M4 19h2m10 0h2m8 0h2m4 0h2M4 20h2m8 0h2m2 0h8m6 0h2M4 21h2m8 0h2m2 0h8m6 0h2M4 22h2m2 0h2m2 0h2m10 0h2m2 0h2m2 0h2M4 23h2m2 0h2m2 0h2m10 0h2m2 0h2m2 0h2M6 24h2m2 0h4m10 0h4m2 0h2M6 25h2m2 0h4m10 0h4m2 0h2m-20 1h2m10 0h2m-14 1h2m10 0h2m-14 1h2m10 0h2m-14 1h2m10 0h2M8 30h4m14 0h2M8 31h4m14 0h2M4 32h4m2 0h2m2 0h2m6 0h2m2 0h2M4 33h4m2 0h2m2 0h2m6 0h2m2 0h2M2 34h2m4 0h4m4 0h8m4 0h2M2 35h2m4 0h4m4 0h8m4 0h2"/><path stroke="#ffccd0" d="M14 10h2m6 0h2m-10 1h2m6 0h2"/><path stroke="#ff6675" d="M8 12h2m6 0h8m4 0h2M8 13h2m6 0h8m4 0h2M6 14h2m2 0h2m8 0h2m4 0h2m2 0h2M6 15h2m2 0h2m8 0h2m4 0h2m2 0h2m-20 1h2m-2 1h2M4 34h2m-2 1h2"/><path stroke="#f29faa" d="M14 12h2m-2 1h2m-2 21h2m10 0h2m-14 1h2m10 0h2"/><path stroke="#dd3745" d="M8 14h2m6 0h2m10 0h2M8 15h2m6 0h2m10 0h2M6 16h2m2 0h2m6 0h8m4 0h2M6 17h2m2 0h2m6 0h8m4 0h2M6 18h2m2 0h2m10 0h2m6 0h2M6 19h2m2 0h2m10 0h2m6 0h2M6 20h2m2 0h2m4 0h2m8 0h2m2 0h2M6 21h2m2 0h2m4 0h2m8 0h2m2 0h2M6 22h2m2 0h2m2 0h2m6 0h2m2 0h2m2 0h2M6 23h2m2 0h2m2 0h2m6 0h2m2 0h2m2 0h2m-18 1h4m2 0h4m-10 1h4m2 0h4m-8 1h2m2 0h2m-6 1h2m2 0h2m-10 3h2m10 0h2m-14 1h2m10 0h2M8 32h2m-2 1h2m-4 1h2m-2 1h2"/><path stroke="#c37289" d="M14 14h2m-2 1h2"/><path stroke="#f9c22b" d="M18 14h2m2 0h2m-6 1h2m2 0h2"/><path stroke="#a52639" d="M8 16h2m6 0h2m10 0h2M8 17h2m6 0h2m10 0h2M8 18h2m2 0h2m4 0h2m8 0h2M8 19h2m2 0h2m4 0h2m8 0h2m-14 3h2m2 0h2m-6 1h2m2 0h2m-6 5h2m2 0h2m-6 1h2m2 0h2m-8 1h2m6 0h2m-10 1h2m6 0h2m-12 1h2m10 0h2m-14 1h2m10 0h2"/><path stroke="#721c2f" d="M14 18h2m4 0h2m2 0h2m-12 1h2m4 0h2m2 0h2M8 20h2m2 0h2m14 0h2M8 21h2m2 0h2m14 0h2m-16 5h2m6 0h2m-10 1h2m6 0h2m-10 1h2m6 0h2m-10 1h2m6 0h2m-8 3h2m2 0h2m-6 1h2m2 0h2m-10 1h2m10 0h2m-14 1h2m10 0h2"/><path stroke="#ffaa6e" d="M18 22h2m-2 1h2m-2 3h2m-2 1h2m-4 3h6m-6 1h6"/><path stroke="#cc817a" d="M18 24h2m-2 1h2m-2 3h2m-2 1h2m-2 3h2m-2 1h2"/></svg>