<svg xmlns="http://www.w3.org/2000/svg" width="32" height="32" shape-rendering="crispEdges" viewBox="0 -0.5 36 37"><path stroke="#372840" d="M14 3h8m-8 1h8M12 5h2m8 0h2M12 6h2m8 0h2M12 7h2m8 0h2M12 8h2m8 0h2M12 9h2m8 0h2m-12 1h2m8 0h2m-12 1h2m4 0h2m2 0h2m-12 1h2m4 0h2m2 0h2m-12 1h2m2 0h2m2 0h2m2 0h2m-14 1h2m2 0h2m2 0h2m2 0h2m-16 1h2m4 0h8m2 0h2m-18 1h2m4 0h8m2 0h2M8 17h2m4 0h10m2 0h2M8 18h2m4 0h10m2 0h2M8 19h2m4 0h10m2 0h2M8 20h2m4 0h10m2 0h2M8 21h2m4 0h8m4 0h2M8 22h2m4 0h8m4 0h2M8 23h2m2 0h2m2 0h4m2 0h2m2 0h2M8 24h2m2 0h2m2 0h4m2 0h2m2 0h2M8 25h2m2 0h4m2 0h6m2 0h2M8 26h2m2 0h4m2 0h6m2 0h2M8 27h2m2 0h12m2 0h2M8 28h2m2 0h12m2 0h2M8 29h16m2 0h2M8 30h16m2 0h2M8 31h2m2 0h4m2 0h2m2 0h4M8 32h2m2 0h4m2 0h2m2 0h4"/><path stroke="#524a63" d="M14 5h8m-8 1h8m-8 1h4m-4 1h4m-4 1h2m-2 1h2m-2 1h2m-2 1h2m-2 1h2m-2 1h2m-4 1h4m-4 1h4m-6 1h4m-4 1h4m-4 1h2m-2 1h2m-2 1h2m-2 1h2m-2 1h2m-2 1h2m-2 1h2m-2 1h2m-2 1h2m-2 1h2"/><path stroke="#3d3957" d="M18 7h4m-4 1h4m0 5h2m-2 1h2m0 1h2m-2 1h2m-2 1h2m-2 1h2m-14 1h2m10 0h2m-14 1h2m10 0h2m-2 1h2m-2 1h2m-2 1h2m-2 1h2m-2 1h2m-2 1h2m-2 1h2m-2 1h2m-2 1h2m-2 1h2"/><path stroke="#911d55" d="M16 9h2m2 0h2m-6 1h2m2 0h2"/><path stroke="#c7b198" d="M18 9h2m-2 1h2m2 11h2m-2 1h2m-10 1h2m4 0h2m-8 1h2m4 0h2m-6 1h2m-2 1h2"/><path stroke="#997d76" d="M16 11h2m2 0h2m-6 1h2m2 0h2m-10 9h2m-2 1h2"/><path stroke="#57404e" d="M18 13h2m-2 1h2"/></svg>