<svg xmlns="http://www.w3.org/2000/svg" width="32" height="32" shape-rendering="crispEdges" viewBox="0 -0.5 34 36"><path stroke="#1d1d1c" d="M12 2h4m8 0h4M12 3h4m8 0h4M12 4h2m2 0h2m2 0h4m2 0h2M12 5h2m2 0h2m2 0h4m2 0h2M12 6h2m4 0h2m4 0h2M12 7h2m4 0h2m4 0h2M12 8h2m8 0h2M12 9h2m8 0h2m-12 1h2m8 0h2m-12 1h2m8 0h2m-10 1h2m6 0h2m-10 1h2m6 0h2m-12 1h2m6 0h2m-10 1h2m6 0h2M4 16h4m2 0h2m10 0h2m4 0h4M4 17h4m2 0h2m10 0h2m4 0h4M4 18h2m2 0h2m14 0h4m2 0h2M4 19h2m2 0h2m14 0h4m2 0h2M6 20h2m20 0h2M6 21h2m20 0h2M8 22h2m16 0h2M8 23h2m16 0h2m-18 1h2m12 0h2m-16 1h2m12 0h2m-14 1h2m8 0h2m-12 1h2m8 0h2m-12 1h2m4 0h2m2 0h2m-12 1h2m4 0h2m2 0h2m-12 1h2m2 0h2m2 0h4m-12 1h2m2 0h2m2 0h4m-12 1h2m2 0h2m2 0h2m2 0h2m-14 1h2m2 0h2m2 0h2m2 0h2"/><path stroke="#897a71" d="M14 4h2m8 0h2M14 5h2m8 0h2"/><path stroke="#625353" d="M14 6h2m6 0h2M14 7h2m6 0h2"/><path stroke="#3e373d" d="M16 6h2m2 0h2m-6 1h2m2 0h2m-8 1h2m-2 1h2"/><path stroke="#4d0a1a" d="M16 8h2m2 0h2m-6 1h2m2 0h2"/><path stroke="#f26e26" d="M18 8h2m-2 1h2m-6 1h2m-2 1h2m-2 3h2m-2 1h2m-4 1h2m-2 1h2m-4 1h2m-2 1h2"/><path stroke="#c1f567" d="M16 10h2m2 0h2m-6 1h2m2 0h2"/><path stroke="#e84444" d="M18 10h2m-2 1h2m-6 5h2m-2 1h2m0 1h2m2 0h2m-6 1h2m2 0h2m-4 1h2m-2 1h2"/><path stroke="#ac162d" d="M16 12h2m2 0h2m-6 1h2m2 0h2m-4 1h2m-2 1h2m-8 3h2m-2 1h2m0 1h2m-2 1h2m-2 5h2m2 0h2m-6 1h2m2 0h2m-6 1h4m2 0h2m-8 1h4m2 0h2m-8 1h2m-2 1h2"/><path stroke="#d31212" d="M18 12h2m-2 1h2m-4 3h2m2 0h2m-6 1h2m2 0h2m-8 1h2m2 0h2m2 0h2m-10 1h2m2 0h2m2 0h2m-14 1h2m4 0h2m2 0h2m2 0h2m-16 1h2m4 0h2m2 0h2m2 0h2m-10 5h2m2 0h2m-6 1h2m2 0h2"/><path stroke="#4d1446" d="M16 14h2m-2 1h2"/><path stroke="#6d1d51" d="M18 16h2m-2 1h2m-8 3h2m8 0h2m-12 1h2m8 0h2m-10 1h8m-8 1h8"/><path stroke="#d8ceeb" d="M6 18h2m20 0h2M6 19h2m20 0h2"/><path stroke="#a5a4d0" d="M8 20h2m16 0h2M8 21h2m16 0h2"/><path stroke="#888cbc" d="M10 22h2m12 0h2m-16 1h2m12 0h2"/><path stroke="#444443" d="M12 22h2m8 0h2m-12 1h2m8 0h2m-12 1h2m8 0h2m-12 1h2m8 0h2"/><path stroke="#6e6e6e" d="M14 24h2m4 0h2m-8 1h2m4 0h2"/><path stroke="#9b9c9b" d="M16 24h2m-2 1h2"/><path stroke="#c4c4c5" d="M18 24h2m-2 1h2"/><path stroke="#67656d" d="M14 32h2m6 0h2m-10 1h2m6 0h2"/></svg>