<svg xmlns="http://www.w3.org/2000/svg" width="32" height="32" shape-rendering="crispEdges" viewBox="0 -0.5 36 37"><path stroke="#372840" d="M8 3h4m6 0h4m6 0h4M8 4h4m6 0h4m6 0h4M6 5h2m4 0h2m2 0h2m4 0h2m2 0h2m4 0h2M6 6h2m4 0h2m2 0h2m4 0h2m2 0h2m4 0h2M4 7h2m8 0h2m8 0h2m8 0h2M4 8h2m8 0h2m8 0h2m8 0h2M4 9h2m28 0h2M4 10h2m28 0h2M4 11h2m28 0h2M4 12h2m28 0h2M4 13h2m28 0h2M4 14h2m28 0h2M4 15h2m28 0h2M4 16h2m28 0h2M6 17h2m24 0h2M6 18h2m24 0h2M8 19h2m20 0h2M8 20h2m20 0h2M6 21h2m20 0h2M6 22h2m20 0h2M4 23h2m24 0h2M4 24h2m24 0h2M6 25h2m24 0h2M6 26h2m24 0h2M6 27h2m24 0h2M6 28h2m24 0h2M4 29h2m26 0h2M4 30h2m26 0h2M4 31h2m2 0h2m6 0h2m4 0h2m6 0h2M4 32h2m2 0h2m6 0h2m4 0h2m6 0h2M6 33h2m2 0h6m2 0h4m2 0h6M6 34h2m2 0h6m2 0h4m2 0h6"/><path stroke="#eae0dd" d="M8 5h4m16 0h4M8 6h4m16 0h4M6 7h4m2 0h2m12 0h2m2 0h4M6 8h4m2 0h2m12 0h2m2 0h4M6 9h2m24 0h2M6 10h2m24 0h2M6 11h2m24 0h2M6 12h2m24 0h2M6 13h2m24 0h2M6 14h2m24 0h2M6 15h2m24 0h2M6 16h2m24 0h2m-4 9h2m-2 1h2m-2 1h2m-2 1h2M6 29h2m22 0h2M6 30h2m22 0h2M6 31h2m20 0h2M6 32h2m20 0h2"/><path stroke="#f1ebdb" d="M18 5h4m-4 1h4m-6 1h6m-6 1h6m-6 1h4m2 0h2m-8 1h4m2 0h2"/><path stroke="#cbc6c1" d="M10 7h2m16 0h2M10 8h2m16 0h2M8 9h2m2 0h2m16 0h2M8 10h2m2 0h2m16 0h2m-22 1h2m16 0h2m-20 1h2m16 0h2M8 13h2m20 0h2M8 14h2m20 0h2M8 17h2m20 0h2M8 18h2m20 0h2M8 27h2m18 0h2M8 28h2m18 0h2m-20 1h2m14 0h2m-18 1h2m14 0h2m-4 1h2m-2 1h2"/><path stroke="#ddcebf" d="M22 7h2m-2 1h2m0 1h2m-2 1h2m-10 1h2m6 0h2m-10 1h2m6 0h2m-10 1h2m6 0h2m-10 1h2m6 0h2"/><path stroke="#a69e9a" d="M10 9h2m16 0h2m-20 1h2m16 0h2M8 11h2m20 0h2M8 12h2m20 0h2M8 15h2m20 0h2M8 16h2m20 0h2M10 27h2m14 0h2m-18 1h2m14 0h2M8 29h2m18 0h2M8 30h2m18 0h2m-4 1h2m-2 1h2"/><path stroke="#464762" d="M14 9h2m4 0h2m4 0h2m-14 1h2m4 0h2m4 0h2m-16 1h2m4 0h6m2 0h2m-16 1h2m4 0h6m2 0h2m-18 1h2m6 0h6m4 0h2m-20 1h2m6 0h6m4 0h2m-20 1h2m8 0h2m6 0h2m-20 1h2m8 0h2m6 0h2m-20 1h2m16 0h2m-20 1h2m16 0h2m-20 1h2m12 0h2m2 0h2m-20 1h2m12 0h2m2 0h2m-18 5h2m2 0h14m-18 1h2m2 0h14m-18 1h4m8 0h2m-14 1h4m8 0h2m-14 1h2m4 0h2m4 0h2m-14 1h2m4 0h2m4 0h2m-16 1h2m-2 1h2"/><path stroke="#e6e7f0" d="M14 11h2m-2 1h2m-4 1h4m10 0h2m-16 1h4m10 0h2m-16 1h2m2 0h2m6 0h2m-14 1h2m2 0h2m6 0h2m-8 1h2m2 0h2m-6 1h2m2 0h2m-4 1h2m-2 1h2"/><path stroke="#c5c7dd" d="M14 15h2m10 0h2m-14 1h2m10 0h2m-12 1h2m-2 1h2m-6 1h2m4 0h2m2 0h2m-12 1h2m4 0h2m2 0h2m-12 1h2m-2 1h2m2 7h2m4 0h2m-8 1h2m4 0h2m-12 1h4m2 0h4m-10 1h4m2 0h4"/><path stroke="#9a97b9" d="M18 15h2m2 0h2m-6 1h2m2 0h2m-10 1h2m4 0h2m2 0h2m-12 1h2m4 0h2m2 0h2m-10 1h2m8 0h2m-12 1h2m8 0h2m-16 3h2m-2 1h2m2 3h2m4 0h2m-8 1h2m4 0h2m-10 1h2m4 0h2m-8 1h2m4 0h2"/><path stroke="#696682" d="M12 17h2m12 0h2m-16 1h2m12 0h2m-14 1h2m-2 1h2m0 1h12m-12 1h12m-10 5h4m-4 1h4"/><path stroke="#594d4d" d="M8 21h4m-4 1h4m-4 3h4m-4 1h4"/><path stroke="#f8e398" d="M14 21h2m-2 1h2"/><path stroke="#f8c53a" d="M6 23h2m6 0h2M6 24h2m6 0h2m-2 1h2m-2 1h2"/><path stroke="#b28b78" d="M8 23h4m-4 1h4"/><path stroke="#5e718e" d="M16 23h2m-2 1h2"/><path stroke="#8ac4c3" d="M18 23h4m-4 1h4"/><path stroke="#b5e7cb" d="M22 23h6m-6 1h6"/><path stroke="#dceaee" d="M28 23h2m-2 1h2"/></svg>