<svg xmlns="http://www.w3.org/2000/svg" width="32" height="32" shape-rendering="crispEdges" viewBox="0 -0.5 36 37"><path stroke="#372840" d="M14 4h8m-8 1h8M12 6h2m8 0h2M12 7h2m8 0h2M12 8h2m8 0h2M12 9h2m8 0h2m-14 1h2m4 0h2m2 0h4m-14 1h2m4 0h2m2 0h4M8 12h2m2 0h2m8 0h2M8 13h2m2 0h2m8 0h2m-14 1h4m8 0h2m-14 1h4m8 0h2m-10 1h18m-18 1h18m-20 1h2m12 0h2m2 0h2m-20 1h2m12 0h2m2 0h2m-20 1h2m6 0h2m2 0h2m2 0h2m-18 1h2m6 0h2m2 0h2m2 0h2m-20 1h2m6 0h2m2 0h6m-18 1h2m6 0h2m2 0h6M8 24h2m2 0h2m2 0h2m2 0h4M8 25h2m2 0h2m2 0h2m2 0h4m-14 1h2m6 0h2m2 0h2m-14 1h2m6 0h2m2 0h2M8 28h2m2 0h2m4 0h2m2 0h2M8 29h2m2 0h2m4 0h2m2 0h2M6 30h2m2 0h4m4 0h2m2 0h2M6 31h2m2 0h4m4 0h2m2 0h2M8 32h2m2 0h2m4 0h2m2 0h2M8 33h2m2 0h2m4 0h2m2 0h2m-12 1h2m6 0h2m2 0h2m-14 1h2m6 0h2m2 0h2"/><path stroke="#f0ece2" d="M14 6h4m-4 1h4m-4 11h4m4 0h4m2 0h2m-16 1h4m4 0h4m2 0h2"/><path stroke="#dfd3c3" d="M18 6h4m-4 1h4m-6 1h2m2 0h2m-6 1h2m2 0h2m-10 1h4m-4 1h4m-2 1h4m-4 1h4m0 5h4m-4 1h4m-8 1h2m6 0h2m-10 1h2m6 0h2m-4 1h2m-2 1h2m-12 1h2m2 0h2m-6 1h2m2 0h2m-4 1h2m-2 1h2m0 1h4m-4 1h4M8 30h2m-2 1h2m8 3h2m-2 1h2"/><path stroke="#c7b198" d="M14 8h2m2 0h2m-6 1h2m2 0h2m-10 3h2m6 0h4m-12 1h2m6 0h4m-8 1h2m4 0h2m-8 1h2m4 0h2m-6 5h4m-4 1h4m-8 1h4m-4 1h4m2 1h2m-2 1h2m-6 1h4m-4 1h4m-8 1h2m8 0h2m-12 1h2m8 0h2m-8 1h2m-2 1h2m-2 1h4m2 0h2m-8 1h4m2 0h2m-6 1h2m-2 1h2"/><path stroke="#997d76" d="M18 10h2m-2 1h2m6 9h2m-2 1h2m-12 1h2m-2 1h2m2 3h2m-2 1h2m-6 3h2m2 0h2m-6 1h2m2 0h2m-8 3h2m6 0h2m-10 1h2m6 0h2"/><path stroke="#57404e" d="M16 14h4m-4 1h4"/></svg>