<svg xmlns="http://www.w3.org/2000/svg" width="32" height="32" shape-rendering="crispEdges" viewBox="0 -0.5 36 37"><path stroke="#372840" d="M16 3h4m-4 1h4m-6 1h2m4 0h2m-8 1h2m4 0h2M12 7h2m8 0h2M12 8h2m8 0h2M12 9h2m2 0h2m2 0h4m-12 1h2m2 0h2m2 0h4m-12 1h2m4 0h2m2 0h2m-12 1h2m4 0h2m2 0h2m-10 1h2m4 0h2m-8 1h2m4 0h2m-6 1h4m-4 1h4m-6 1h2m2 0h4m-8 1h2m2 0h4m-10 1h2m8 0h2m-12 1h2m8 0h2m-14 1h4m8 0h2m4 0h2m-20 1h4m8 0h2m4 0h2M8 23h2m4 0h8m2 0h4M8 24h2m4 0h8m2 0h4M8 25h2m6 0h2M8 26h2m6 0h2m-8 1h2m2 0h6m-10 1h2m2 0h6m-8 1h2m2 0h2m2 0h2m-10 1h2m2 0h2m2 0h2m-10 1h2m2 0h2m2 0h2m-10 1h2m2 0h2m2 0h2m-10 1h2m4 0h2m2 0h2m-12 1h2m4 0h2m2 0h2"/><path stroke="#f0ece2" d="M16 5h4m-4 1h4m-6 1h2m-2 1h2"/><path stroke="#dfd3c3" d="M16 7h2m2 0h2m-6 1h2m2 0h2m-8 1h2m-2 1h2m0 1h2m-2 1h2m-2 7h4m-4 1h4"/><path stroke="#c7b198" d="M18 7h2m-2 1h2m-6 3h2m4 0h2m-8 1h2m4 0h2m-8 7h2m4 0h2m-8 1h2m4 0h2m-8 9h2m-2 1h2m-2 1h2m-2 1h2"/><path stroke="#997d76" d="M18 9h2m-2 1h2m-4 3h4m-4 1h4m-4 7h4m-4 1h4m-6 11h4m-4 1h4"/><path stroke="#57404e" d="M16 17h2m-2 1h2m-4 3h2m4 0h2m-8 1h2m4 0h2m-4 7h2m-2 1h2m-2 1h2m-2 1h2m0 1h2m-2 1h2"/></svg>