<svg xmlns="http://www.w3.org/2000/svg" width="32" height="32" shape-rendering="crispEdges" viewBox="0 -0.5 36 36"><path stroke="#1c0b21" d="M4 6h2m6 0h10m2 0h2M4 7h2m6 0h10m2 0h2M2 8h2m2 0h6m10 0h2m2 0h2M2 9h2m2 0h6m10 0h2m2 0h2M2 10h2m22 0h2M2 11h2m22 0h2M2 12h2m22 0h2M2 13h2m22 0h2M2 14h2m22 0h2M2 15h2m22 0h2M2 16h2m22 0h2M2 17h2m22 0h2M2 18h2m22 0h2M2 19h2m22 0h2M2 20h2m22 0h2M2 21h2m22 0h2M2 22h2m22 0h2M2 23h2m22 0h2M2 24h2m4 0h4m8 0h2m4 0h2M2 25h2m4 0h4m8 0h2m4 0h2M4 26h2m4 0h12m2 0h2M4 27h2m4 0h12m2 0h2M4 28h2m2 0h2m2 0h8m4 0h2M4 29h2m2 0h2m2 0h8m4 0h2M4 30h2m2 0h2m2 0h2m4 0h2m4 0h2M4 31h2m2 0h2m2 0h2m4 0h2m4 0h2M2 32h2m2 0h2m2 0h4m4 0h2m2 0h2m2 0h2M2 33h2m2 0h2m2 0h4m4 0h2m2 0h2m2 0h2"/><path stroke="#a9a9a9" d="M4 8h2m18 0h2M4 9h2m18 0h2"/><path stroke="#afc8c8" d="M12 8h10M12 9h10M8 10h6m6 0h4M8 11h6m6 0h4M6 12h4m14 0h2M6 13h4m14 0h2M4 14h4m-4 1h4m-4 1h2m-2 1h2M4 32h2m18 0h2M4 33h2m18 0h2"/><path stroke="#6f6f6e" d="M4 10h2m18 0h2M4 11h2m18 0h2"/><path stroke="#414040" d="M6 10h2m-2 1h2m-4 1h2m-2 1h2m8 3h2m2 0h2m-6 1h2m2 0h2m-4 1h2m-2 1h2"/><path stroke="#75a3a8" d="M14 10h6m-6 1h6m-10 1h4m2 0h2m2 0h4m-14 1h4m2 0h2m2 0h4M8 14h2m14 0h2M8 15h2m14 0h2M6 16h2m16 0h2M6 17h2m16 0h2M4 18h2m18 0h2M4 19h2m18 0h2M4 20h2m18 0h2M4 21h2m18 0h2M4 22h2m18 0h2M4 23h2m18 0h2M4 24h2m18 0h2M4 25h2m18 0h2M6 26h2m14 0h2M6 27h2m14 0h2M6 28h2m14 0h2M6 29h2m14 0h2M6 30h2m14 0h2M6 31h2m14 0h2M8 32h2m10 0h2M8 33h2m10 0h2"/><path stroke="#d8180b" d="M14 12h2m2 0h2m-6 1h2m2 0h2"/><path stroke="#4d858d" d="M10 14h2m2 0h6m2 0h2m-14 1h2m2 0h6m2 0h2M8 16h2m-2 1h2m-4 1h2m-2 1h2m-2 1h2m-2 1h2m-2 3h2m14 0h2M6 25h2m14 0h2"/><path stroke="#163d4a" d="M12 14h2m6 0h2m-10 1h2m6 0h2M8 18h2m2 0h2m-6 1h2m2 0h2m-6 1h2m10 0h2M8 21h2m10 0h2M6 22h6m8 0h4M6 23h6m8 0h4m-12 1h8m-8 1h8M8 26h2m-2 1h2m0 1h2m8 0h2m-12 1h2m8 0h2"/><path stroke="#30626d" d="M10 16h2m10 0h2m-14 1h2m10 0h2m-14 1h2m8 0h4m-14 1h2m8 0h4m-14 1h10m2 0h2m-14 1h10m2 0h2m-12 1h8m-8 1h8m-10 7h2m8 0h2m-12 1h2m8 0h2"/><path stroke="#041623" d="M12 16h2m2 0h2m2 0h2m-10 1h2m2 0h2m2 0h2m-8 1h2m2 0h2m-6 1h2m2 0h2"/></svg>