<svg xmlns="http://www.w3.org/2000/svg" width="32" height="32" shape-rendering="crispEdges" viewBox="0 -0.5 36 37"><path stroke="#120a1a" d="M4 4h22M4 5h22M2 6h2m22 0h2M2 7h2m22 0h2M2 8h2m24 0h2M2 9h2m24 0h2M2 10h2m26 0h2M2 11h2m26 0h2M2 12h2m28 0h2M2 13h2m28 0h2M2 14h2m28 0h2M2 15h2m28 0h2M2 16h2m28 0h2M2 17h2m28 0h2M2 18h2m28 0h2M2 19h2m28 0h2M2 20h2m28 0h2M2 21h2m28 0h2M2 22h2m28 0h2M2 23h2m28 0h2M2 24h2m28 0h2M2 25h2m28 0h2M4 26h2m26 0h2M4 27h2m26 0h2M6 28h2m24 0h2M6 29h2m24 0h2M8 30h2m22 0h2M8 31h2m22 0h2m-24 1h22m-22 1h22"/><path stroke="#c8d6ac" d="M4 6h2m18 0h2M4 7h2m18 0h2m-16 5h2m18 0h2m-22 1h2m18 0h2"/><path stroke="#85c448" d="M6 6h18M6 7h18M4 8h4m10 0h2m4 0h4M4 9h4m10 0h2m4 0h4M4 10h2m2 0h2m14 0h2m2 0h2M4 11h2m2 0h2m14 0h2m2 0h2M4 12h2m6 0h18M4 13h2m6 0h18M4 14h2m4 0h2m12 0h2m4 0h2M4 15h2m4 0h2m12 0h2m4 0h2M4 16h2m4 0h2m8 0h2m2 0h2m4 0h2M4 17h2m4 0h2m8 0h2m2 0h2m4 0h2M4 18h4m2 0h2m12 0h2m2 0h4M4 19h4m2 0h2m12 0h2m2 0h4M4 20h2m4 0h2m4 0h2m6 0h2m4 0h2M4 21h2m4 0h2m4 0h2m6 0h2m4 0h2M4 22h2m4 0h2m18 0h2M4 23h2m4 0h2m18 0h2M4 24h2m4 0h2m2 0h2m8 0h2m4 0h2M4 25h2m4 0h2m2 0h2m8 0h2m4 0h2M6 26h2m2 0h2m14 0h2m2 0h2M6 27h2m2 0h2m14 0h2m2 0h2M8 28h4m16 0h4M8 29h4m16 0h4m-22 1h22m-22 1h22"/><path stroke="#439d40" d="M8 8h10m2 0h4M8 9h10m2 0h4M6 10h2m8 0h6m4 0h2M6 11h2m8 0h6m4 0h2M6 12h2m-2 1h2m-2 1h2m10 0h4m4 0h4M6 15h2m10 0h4m4 0h4M6 16h2m10 0h2m6 0h4M6 17h2m10 0h2m6 0h4M8 18h2m6 0h6m4 0h2M8 19h2m6 0h6m4 0h2M6 20h4m2 0h4m2 0h4m4 0h4M6 21h4m2 0h4m2 0h4m4 0h4M6 22h4m2 0h8m6 0h4M6 23h4m2 0h8m6 0h4m-4 1h4m-4 1h4m-2 1h2m-2 1h2"/><path stroke="#787d8b" d="M10 10h4m8 0h2m-14 1h4m8 0h2M8 12h2m-2 1h2m12 1h2m-2 1h2"/><path stroke="#59607a" d="M14 10h2m-2 1h2m-8 3h2m-2 1h2m12 1h2m-2 1h2m-2 1h2m-2 1h2"/><path stroke="#894835" d="M12 14h2m-2 1h2"/><path stroke="#926d3c" d="M14 14h2m-2 1h2"/><path stroke="#2a2a41" d="M16 14h2m-2 1h2m-2 1h2m-2 1h2m-6 1h4m-4 1h4m4 3h6m-6 1h6"/><path stroke="#404863" d="M8 16h2m-2 1h2m12 3h2m-2 1h2"/><path stroke="#8b5b37" d="M12 16h2m-2 1h2"/><path stroke="#602631" d="M14 16h2m-2 1h2"/><path stroke="#29694e" d="M6 24h4m2 0h2m2 0h6M6 25h4m2 0h2m2 0h6M8 26h2m2 0h10m2 0h2M8 27h2m2 0h10m2 0h2m-14 1h16m-16 1h16"/><path stroke="#4b0c30" d="M22 24h2m-2 1h2m-2 1h2m-2 1h2"/></svg>