<svg xmlns="http://www.w3.org/2000/svg" width="32" height="32" shape-rendering="crispEdges" viewBox="0 -0.5 18 18"><path stroke="#1a1c26" d="M7 1h3M6 2h1m3 0h1M5 3h1m5 0h1M5 4h1m5 0h1M5 5h1m5 0h1M5 6h1m5 0h1M3 7h1m1 0h1m5 0h1m1 0h1M2 8h1m1 0h1m7 0h1m1 0h1M1 9h1m13 0h1M2 10h1m11 0h1M3 11h3m6 0h2m-8 1h1m4 0h1m-6 1h1m4 0h1m-7 1h1m5 0h1m-7 1h1m6 0h1m-8 1h1m6 0h1"/><path stroke="#e17676" d="M7 2h3M7 3h1"/><path stroke="#dfb2c6" d="M6 3h1"/><path stroke="#a41057" d="M8 3h2M7 4h1M6 8h1m4 0h1M5 9h3m2 0h2m-6 1h5m-4 1h3m-3 2h1m-1 1h3m-3 1h4m-4 1h5"/><path stroke="#c3435c" d="M10 3h1M6 5h1M6 6h1M6 7h1M5 8h1m1 0h1m2 0h1M8 9h2m-4 5h1m-1 1h1m-1 1h1"/><path stroke="#c58faa" d="M6 4h1m2 0h1M9 5h1"/><path stroke="#c9e8a1" d="M8 4h1m1 0h1"/><path stroke="#ac6ca2" d="M7 5h2m1 0h1"/><path stroke="#7b0d69" d="M7 6h1m2 0h1m-7 4h2m5 0h2m-7 1h1m3 0h1m-3 2h2m0 1h1m0 1h1"/><path stroke="#884b93" d="M8 6h2"/><path stroke="#1a5556" d="M7 7h1m2 0h1"/><path stroke="#17756e" d="M8 7h2"/><path stroke="#eaf257" d="M3 8h1m9 0h1M2 9h1m11 0h1"/><path stroke="#30a387" d="M8 8h2"/><path stroke="#94cc47" d="M3 9h1m9 0h1"/><path stroke="#4ba245" d="M4 9h1m7 0h1"/><path stroke="#2c7d63" d="M3 10h1m9 0h1"/><path stroke="#552d72" d="M11 11h1m-2 2h1"/><path stroke="#5e423c" d="M7 12h1m2 0h1"/><path stroke="#806352" d="M8 12h1"/><path stroke="#a19477" d="M9 12h1"/></svg>