<svg xmlns="http://www.w3.org/2000/svg" width="32" height="32" shape-rendering="crispEdges" viewBox="0 -0.5 34 36"><path stroke="#1c0b21" d="M14 2h2m4 0h2m-8 1h2m4 0h2M12 4h2m2 0h4m2 0h2M12 5h2m2 0h4m2 0h2M12 6h2m8 0h2M12 7h2m8 0h2M6 8h6m12 0h2M6 9h6m12 0h2M4 10h2m-2 1h2m-4 1h2m22 0h2M2 13h2m22 0h2M0 14h2m26 0h2M0 15h2m26 0h2M0 16h2m26 0h2M0 17h2m26 0h2M0 18h2m26 0h2M0 19h2m26 0h2M0 20h2m26 0h2M0 21h2m26 0h2M2 22h2m24 0h2M2 23h2m24 0h2M4 24h4m16 0h4M4 25h4m16 0h4M8 26h2m12 0h2M8 27h2m12 0h2M8 28h2m12 0h2M8 29h2m12 0h2M8 30h2m4 0h2m4 0h2M8 31h2m4 0h2m4 0h2M8 32h2m2 0h2m2 0h2m4 0h2M8 33h2m2 0h2m2 0h2m4 0h2"/><path stroke="#75a3a8" d="M14 4h2m4 0h2m-8 1h2m4 0h2m-6 3h2m2 0h2m-6 1h2m2 0h2M6 10h4m4 0h2M6 11h4m4 0h2M4 12h2m10 0h2m2 0h2m2 0h2M4 13h2m10 0h2m2 0h2m2 0h2M2 14h2m22 0h2M2 15h2m22 0h2M6 20h2m16 0h2M6 21h2m16 0h2m-16 3h2m6 0h2m-10 1h2m6 0h2m-8 1h2m6 0h2m-10 1h2m6 0h2m-8 1h2m-2 1h2"/><path stroke="#30626d" d="M14 6h8m-8 1h8M12 8h4m2 0h2m2 0h2M12 9h4m2 0h2m2 0h2m-12 1h2m8 0h2m-12 1h2m8 0h2M6 12h4m4 0h2M6 13h4m4 0h2M4 14h2m2 0h4m12 0h2M4 15h2m2 0h4m12 0h2M2 16h2m4 0h6m8 0h2m2 0h2M2 17h2m4 0h6m8 0h2m2 0h2M2 18h2m6 0h6m4 0h2m4 0h2M2 19h2m6 0h6m4 0h2m4 0h2M4 20h2m6 0h8m6 0h2M4 21h2m6 0h8m6 0h2M6 22h2m16 0h2M6 23h2m16 0h2m-16 3h2m6 0h2m-10 1h2m6 0h2m-8 1h2m6 0h2m-10 1h2m6 0h2m-10 1h2m4 0h2m-8 1h2m4 0h2"/><path stroke="#1d1d1c" d="M10 10h2m12 0h2m-16 1h2m12 0h2m-16 1h2m-2 1h2m0 1h2m4 0h2m2 0h2m-12 1h2m4 0h2m2 0h2M6 16h2m6 0h2m4 0h2M6 17h2m6 0h2m4 0h2M6 18h2m8 0h4m4 0h2M6 19h2m8 0h4m4 0h2M8 20h2m12 0h2M8 21h2m12 0h2M8 22h4m8 0h4M8 23h4m8 0h4M8 24h2m2 0h2m6 0h2M8 25h2m2 0h2m6 0h2m-8 1h2m-2 1h2m0 1h2m-2 1h2"/><path stroke="#d8180b" d="M16 10h2m2 0h2m-6 1h2m2 0h2"/><path stroke="#afc8c8" d="M18 10h2m-2 1h2m-2 1h2m-2 1h2m-4 1h2m2 0h2m-6 1h2m2 0h2"/><path stroke="#331b1a" d="M12 12h2m8 0h2m-12 1h2m8 0h2m-10 1h2m-2 1h2m0 1h4m-4 1h4m-8 5h2m4 0h2m-8 1h2m4 0h2m-6 1h4m-4 1h4m-2 1h2m-2 1h2m-8 1h2m-2 1h2m-2 3h2m6 0h4m-12 1h2m6 0h4"/><path stroke="#414040" d="M6 14h2m-2 1h2m-4 1h2m18 0h2M4 17h2m18 0h2M4 18h2m2 0h2m12 0h2M4 19h2m2 0h2m12 0h2M2 20h2m6 0h2m8 0h2M2 21h2m6 0h2m8 0h2M4 22h2m8 0h4m8 0h2M4 23h2m8 0h4m8 0h2m-10 5h2m-2 1h2m-10 1h2m4 0h2m-8 1h2m4 0h2"/></svg>