<svg xmlns="http://www.w3.org/2000/svg" width="64" height="64" shape-rendering="crispEdges" viewBox="0 -0.5 34 34"><path stroke="#1d1d1c" d="M15 1h4m-5 1h1m4 0h1m-7 1h1m5 0h1m-8 1h1m6 0h1m-9 1h1m7 0h1m-9 1h1m8 0h1m-9 1h1m8 0h1m-9 1h1m7 0h1m-9 1h1m7 0h1M7 10h1m2 0h4m8 0h3M4 11h1m1 0h1m1 0h2m3 0h1m11 0h1M3 12h1m1 0h2m2 0h1m3 0h1m11 0h1M3 13h1m1 0h1m3 0h1m3 0h1m11 0h1M2 14h1m1 0h1m1 0h1m2 0h1m1 0h1m1 0h1m9 0h1m1 0h1M2 15h1m1 0h2m3 0h1m1 0h2m9 0h2m1 0h1M3 16h1m1 0h1m4 0h1m2 0h1m10 0h1M3 17h1m7 0h2m9 0h2m1 0h1M3 18h1m6 0h1m13 0h1M3 19h1m3 0h1m1 0h1m1 0h1m11 0h1M3 20h1m4 0h1m3 0h1m9 0h1M3 21h1m3 0h1m5 0h10M3 22h1m3 0h1m4 0h2m8 0h2M4 23h1m2 0h1m3 0h1m1 0h10m1 0h1M4 24h1m1 0h1m3 0h1m2 0h1m8 0h1m2 0h1M3 25h1m2 0h1m2 0h2m3 0h2m2 0h1m2 0h1m4 0h1M2 26h1m1 0h1m2 0h1m1 0h1m1 0h1m3 0h1m2 0h1m1 0h2m3 0h1m1 0h1M3 27h1m1 0h1m2 0h2m1 0h1m2 0h3m1 0h3m1 0h1m2 0h1m1 0h1M3 28h1m1 0h2m1 0h2m1 0h1m1 0h1m2 0h4m3 0h1m1 0h1m1 0h1M2 29h1m1 0h1m1 0h1m1 0h2m1 0h2m3 0h3m4 0h2m1 0h1M3 30h1m3 0h1m1 0h1m1 0h2m4 0h1m5 0h2m1 0h1M8 31h1m1 0h1m2 0h1m8 0h1m2 0h1m1 0h1M7 32h1m1 0h1m3 0h1m8 0h1m3 0h1m1 0h1"/><path stroke="#e09f9d" d="M15 2h1m1 0h2m-5 1h1m-2 1h1m-2 1h1"/><path stroke="#da827a" d="M16 2h1m-2 1h1m1 0h2m-5 1h1m-2 1h1m-2 1h1"/><path stroke="#ca614e" d="M16 3h1m-2 1h1m1 0h2m-5 1h1m-2 1h1"/><path stroke="#a91d18" d="M16 4h1m-2 1h1m-2 1h1m-2 1h1"/><path stroke="#a9a9a9" d="M16 5h3m-4 1h2m-3 1h2m-2 1h1m-1 1h1m-1 1h1m-1 1h1m-1 1h1"/><path stroke="#6f6f6e" d="M17 6h3m-4 1h1m-2 1h1m-1 4h1m-2 12h1m1 0h1m1 0h1m1 0h1m-4 1h1m1 0h1m-3 1h1m-7 5h1m12 0h1m-15 1h1m14 0h1"/><path stroke="#414040" d="M17 7h4m-5 1h1m-2 1h1m-1 1h1m5 0h1m-11 1h1m3 0h1m5 0h1m1 0h1m-13 1h1m4 0h1m6 0h1m-13 1h1m2 0h2m7 0h1m-9 11h1m1 0h1m1 0h1m1 0h1m-6 1h1m3 0h1m-5 1h1m2 0h1m-3 1h1m-6 4h1m10 0h1m-13 1h2m10 0h2"/><path stroke="#d6e0f9" d="M17 8h2m1 0h1m-2 1h1m-4 1h2m1 0h1"/><path stroke="#b5c8ea" d="M19 8h1m-4 1h1m1 1h1M8 12h1m-1 1h1m17 0h1m0 1h1M6 15h1m20 0h2M6 16h1m21 0h1M5 17h1m-2 1h1m-1 1h1m-1 1h1m0 1h2m5 2h1m-2 1h1"/><path stroke="#6de6e7" d="M17 9h2m1 0h1M7 11h1m-4 1h1m2 0h1m-4 1h1m1 0h2m-5 1h1m3 0h1m-5 1h1m3 0h1m-4 1h1m2 0h1m-4 1h1m3 0h1m-4 1h1m2 0h1m-4 1h1m2 0h1m-4 1h3m-3 4h1m-2 1h2m-3 1h1m1 0h2m-3 1h1m1 0h2m-4 1h1m2 0h1m-5 1h1m3 0h1"/><path stroke="#94aada" d="M20 10h1m-5 1h1m-9 3h1m17 0h1M8 15h1m17 0h1m0 1h1M6 17h2m5 0h1m14 0h1M6 18h1m6 0h2m13 0h1m-15 1h2m11 0h2m-14 1h3m8 0h3M4 21h1m20 0h1m2 0h1M5 22h2m21 0h1m-6 1h1m3 0h1m-16 1h1m10 0h2m-14 1h2m11 0h2"/><path stroke="#dfae65" d="M10 11h1m1 0h1m9 0h1m1 0h1m-15 1h1m1 0h1m9 0h1m1 0h1m-15 1h1m1 0h1m9 0h1m1 0h1m-9 9h1m-7 4h1m-1 1h1m-1 1h1m-1 1h1m-3 3h1"/><path stroke="#afc8c8" d="M17 11h1m2 0h1m0 1h1m-5 1h1m2 0h1m-6 1h1m1 0h1m2 0h1m-6 1h1m1 0h1m2 0h1m-3 1h2m-3 1h1m2 0h1"/><path stroke="#fffeff" d="M18 11h2m-3 1h1m2 0h1m-5 1h1m1 0h2m1 0h1m-6 1h1m1 0h2m1 0h1m-6 1h1m1 0h2m1 0h1m-6 1h1m4 0h1"/><path stroke="#9e79b3" d="M18 12h2"/><path stroke="#1a1c26" d="M26 12h1m0 1h1m0 1h1m0 1h1m-1 1h1m-1 1h1m-1 1h1m-1 1h1m-1 1h1m-4 1h1m2 0h1m-5 1h1m1 0h1m1 0h1m-4 1h1m1 0h1m-2 1h1"/><path stroke="#be8f44" d="M10 14h1m1 0h1m9 0h1m1 0h1m-15 1h1m13 0h1m1 11h1m-1 1h1m-1 1h1m-2 1h1m-16 1h1m14 0h1M9 31h1m16 0h1m0 1h1"/><path stroke="#75a3a8" d="M14 14h1m-1 1h1m0 1h1m1 0h1m2 0h1m-5 1h1m1 0h2m-3 1h3"/><path stroke="#947e31" d="M13 15h1m-3 1h2m9 0h2"/><path stroke="#7c85c5" d="M8 16h2m16 0h1M9 17h1m4 0h1m12 0h1M7 18h1m4 0h1m2 0h1m6 0h1m4 0h1M6 19h1m6 0h1m2 0h1m4 0h1m-8 1h1m3 0h3m6 1h1M4 22h1m0 1h2m6 2h1m8 0h2m-12 1h2m9 0h2m-13 1h1m11 0h1"/><path stroke="#4d858d" d="M14 16h1m0 1h1m5 0h1m-6 1h1m3 0h1m-4 1h3"/><path stroke="#7f65bb" d="M25 16h1m-16 1h1m13 0h1m1 0h1M9 18h1m1 0h1m9 0h1m1 0h1m-12 1h1m7 0h1m1 0h1m-10 1h1m7 0h1m-8 6h1m7 0h1m-10 1h1m9 0h1m-12 1h1m11 0h1"/><path stroke="#0a0b11" d="M26 18h1m-1 1h1m-2 1h1"/><path stroke="#13161b" d="M24 21h1"/><path stroke="#b56303" d="M14 22h1m5 0h1"/><path stroke="#e38d18" d="M15 22h1m3 0h1"/><path stroke="#efd28b" d="M17 22h2"/><path stroke="#532918" d="M21 22h1"/></svg>