<svg xmlns="http://www.w3.org/2000/svg" width="32" height="32" shape-rendering="crispEdges" viewBox="0 -0.5 36 37"><path stroke="#372840" d="M18 10h2m2 0h2m-6 1h2m2 0h2m-10 1h4m2 0h2m2 0h2m-12 1h4m2 0h2m2 0h2m-14 1h2m12 0h2m-16 1h2m12 0h2m-18 1h2m10 0h2m4 0h2m-20 1h2m10 0h2m4 0h2M8 18h2m10 0h2m2 0h4m2 0h2M8 19h2m10 0h2m2 0h4m2 0h2M6 20h2m12 0h2m8 0h2M6 21h2m12 0h2m8 0h2M4 22h2m10 0h2m2 0h2m8 0h2M4 23h2m10 0h2m2 0h2m8 0h2M4 24h2m2 0h2m4 0h2m4 0h2m8 0h2M4 25h2m2 0h2m4 0h2m4 0h2m8 0h2M4 26h2m4 0h2m2 0h2m2 0h2m2 0h2m2 0h2m2 0h2M4 27h2m4 0h2m2 0h2m2 0h2m2 0h2m2 0h2m2 0h2M4 28h4m2 0h6m2 0h2m4 0h6M4 29h4m2 0h6m2 0h2m4 0h6M4 30h2m2 0h2m2 0h4m2 0h2m4 0h2m2 0h2M4 31h2m2 0h2m2 0h4m2 0h2m4 0h2m2 0h2M6 32h2m2 0h2m2 0h4m2 0h2m4 0h2m2 0h2M6 33h2m2 0h2m2 0h4m2 0h2m4 0h2m2 0h2"/><path stroke="#b5e0ba" d="M18 12h2m2 0h2m-6 1h2m2 0h2m-10 1h4m2 0h2m2 0h2m-12 1h4m2 0h2m2 0h2m-14 1h2m12 0h2m-16 1h2m12 0h2m-18 1h2m10 0h2m4 0h2m-20 1h2m10 0h2m4 0h2M8 20h2m-2 1h2m-4 1h2m10 0h2M6 23h2m10 0h2M6 24h2m8 0h2M6 25h2m8 0h2"/><path stroke="#78b392" d="M18 14h2m2 0h2m-6 1h2m2 0h2m-10 1h2m2 0h2m4 0h2m-12 1h2m2 0h2m4 0h2m-14 1h2m2 0h2m-6 1h2m2 0h2m-8 1h2m2 0h2m6 0h8m-20 1h2m2 0h2m6 0h8M8 22h2m2 0h2m8 0h2m2 0h2M8 23h2m2 0h2m8 0h2m2 0h2m-10 1h2m6 0h2m-10 1h2m6 0h2M6 26h4m6 0h2M6 27h4m6 0h2M8 28h2m6 0h2M8 29h2m6 0h2m-2 1h2m-2 1h2"/><path stroke="#4c8f82" d="M16 16h2m2 0h2m-6 1h2m2 0h2m-8 1h2m2 0h2m-6 1h2m2 0h2m-8 1h2m2 0h4m-8 1h2m2 0h4m-10 1h2m-2 1h2m-2 1h2m12 0h2m2 0h2m-20 1h2m12 0h2m2 0h2m-6 1h2m2 0h2m-6 1h2m2 0h2M6 30h2m-2 1h2m0 1h2m8 0h2M8 33h2m8 0h2"/><path stroke="#357985" d="M14 22h2m-2 1h2m-4 1h2m8 0h2m-12 1h2m8 0h2"/><path stroke="#3d3957" d="M24 22h2m2 0h2m-6 1h2m2 0h2"/><path stroke="#524a63" d="M12 26h2m-2 1h2"/><path stroke="#405578" d="M10 30h2m14 0h2m-18 1h2m14 0h2m-16 1h2m14 0h2m-18 1h2m14 0h2"/></svg>