<svg xmlns="http://www.w3.org/2000/svg" width="32" height="32" shape-rendering="crispEdges" viewBox="0 -0.5 36 37"><path stroke="#120a1a" d="M10 2h16M10 3h16M8 4h2m16 0h2M8 5h2m16 0h2M6 6h2m20 0h2M6 7h2m20 0h2M6 8h2m20 0h2M6 9h2m20 0h2M6 10h2m20 0h2M6 11h2m20 0h2M6 12h2m20 0h2M6 13h2m20 0h2M8 14h2m16 0h2M8 15h2m16 0h2m-18 1h2m12 0h2m2 0h2m-20 1h2m12 0h2m2 0h2M8 18h2m16 0h2m2 0h2M8 19h2m16 0h2m2 0h2M6 20h2m16 0h2m2 0h2M6 21h2m16 0h2m2 0h2M6 22h2m2 0h4m8 0h2m2 0h2m2 0h2M6 23h2m2 0h4m8 0h2m2 0h2m2 0h2M4 24h2m2 0h2m2 0h2m8 0h2m4 0h2M4 25h2m2 0h2m2 0h2m8 0h2m4 0h2M2 26h2m2 0h2m2 0h4m8 0h2M2 27h2m2 0h2m2 0h4m8 0h2M4 28h2m2 0h2m2 0h2m4 0h2m4 0h2M4 29h2m2 0h2m2 0h2m4 0h2m4 0h2m-16 1h2m6 0h2m4 0h2m-16 1h2m6 0h2m4 0h2m-16 1h2m4 0h2m2 0h2m2 0h2m-16 1h2m4 0h2m2 0h2m2 0h2"/><path stroke="#c8d6ac" d="M10 4h2m2 0h2m4 0h2m2 0h2M10 5h2m2 0h2m4 0h2m2 0h2"/><path stroke="#439d40" d="M12 4h2m2 0h4m2 0h2M12 5h2m2 0h4m2 0h2M10 6h2m2 0h2m4 0h2m2 0h2M10 7h2m2 0h2m4 0h2m2 0h2M16 8h4m-4 1h4m-10 1h2m2 0h2m4 0h2m2 0h2m-16 1h2m2 0h2m4 0h2m2 0h2m-14 1h2m8 0h2m-12 1h2m8 0h2"/><path stroke="#85c448" d="M8 6h2m2 0h2m2 0h4m2 0h2m2 0h2M8 7h2m2 0h2m2 0h4m2 0h2m2 0h2M8 8h2m2 0h2m8 0h2m2 0h2M8 9h2m2 0h2m8 0h2m2 0h2"/><path stroke="#29694e" d="M10 8h2m2 0h2m4 0h2m2 0h2M10 9h2m2 0h2m4 0h2m2 0h2M8 10h2m2 0h2m2 0h4m2 0h2m2 0h2M8 11h2m2 0h2m2 0h4m2 0h2m2 0h2M8 12h4m2 0h2m4 0h2m2 0h4M8 13h4m2 0h2m4 0h2m2 0h4m-18 1h4m8 0h4m-16 1h4m8 0h4"/><path stroke="#602631" d="M16 12h4m-4 1h4m-6 1h2m4 0h2m-8 1h2m4 0h2m-10 1h2m8 0h2m-12 1h2m8 0h2m-14 3h4m8 0h2m-14 1h4m8 0h2m-6 5h2m-2 1h2m-4 1h2m2 0h2m-6 1h2m2 0h2m-6 1h2m2 0h2m-6 1h2m2 0h2m-8 1h2m-2 1h2"/><path stroke="#894835" d="M16 14h4m-4 1h4m-6 1h2m4 0h2m-8 1h2m4 0h2m-10 1h2m8 0h2m-12 1h2m8 0h2m-8 1h2m2 0h2m-6 1h2m2 0h2m-6 3h6m-6 1h6m-6 1h2m2 0h2m-6 1h2m2 0h2m0 1h2m-2 1h2m-10 1h2m6 0h2m-10 1h2m6 0h2m-12 1h2m8 0h2m-12 1h2m8 0h2"/><path stroke="#8b5b37" d="M16 16h4m-4 1h4m-10 1h2m2 0h2m2 0h2m4 0h2m2 0h2m-20 1h2m2 0h2m2 0h2m4 0h2m2 0h2M8 20h2m4 0h2m2 0h2m6 0h2M8 21h2m4 0h2m2 0h2m6 0h2M8 22h2m18 0h2M8 23h2m18 0h2M6 24h2m6 0h2M6 25h2m6 0h2M4 26h2m2 0h2m4 0h2M4 27h2m2 0h2m4 0h2m-2 1h2m-2 1h2m-4 1h2m-2 1h2"/><path stroke="#4b0c30" d="M16 18h2m2 0h2m-6 1h2m2 0h2m-8 3h8m-8 1h8"/></svg>