<svg xmlns="http://www.w3.org/2000/svg" width="32" height="32" shape-rendering="crispEdges" viewBox="0 -0.5 36 36"><path stroke="#1c0b21" d="M14 4h8m-8 1h8M12 6h2m8 0h2M12 7h2m8 0h2M10 8h2m12 0h2M10 9h2m12 0h2M6 10h4m14 0h2M6 11h4m14 0h2M4 12h2m20 0h2M4 13h2m20 0h2M2 14h2m24 0h2M2 15h2m24 0h2M2 16h2m24 0h2M2 17h2m24 0h2M2 18h2m24 0h2M2 19h2m24 0h2M2 20h2m24 0h2M2 21h2m24 0h2M2 22h2m4 0h2m18 0h2M2 23h2m4 0h2m18 0h2M4 24h4m2 0h2m14 0h2M4 25h4m2 0h2m14 0h2m-18 1h2m12 0h2m-16 1h2m12 0h2m-16 1h2m12 0h2m-16 1h2m12 0h2M8 30h2m6 0h2m4 0h2M8 31h2m6 0h2m4 0h2M8 32h2m4 0h2m2 0h2m4 0h2M8 33h2m4 0h2m2 0h2m4 0h2"/><path stroke="#75a3a8" d="M14 6h2m-2 1h2m-4 1h2m-2 1h2m-4 1h2m-2 1h2m-2 1h2m-2 1h2m-2 1h2m-2 1h2"/><path stroke="#4d858d" d="M16 6h2m2 0h2m-6 1h2m2 0h2m0 1h2m-2 1h2m0 3h2m-2 1h2m-12 1h2m4 0h2m2 0h2m-12 1h2m4 0h2m2 0h2"/><path stroke="#30626d" d="M18 6h2m-2 1h2m-6 1h2m4 0h2m-8 1h2m4 0h2m-10 1h4m6 0h2m-12 1h4m6 0h2m-12 1h2m8 0h2m-12 1h2m8 0h2m-8 3h4m-4 1h4m2 7h2m-2 1h2m-12 1h2m6 0h2m-10 1h2m6 0h2m-10 1h2m6 0h2m-10 1h2m6 0h2m-12 1h2m6 0h2m-10 1h2m6 0h2"/><path stroke="#3ab99d" d="M16 8h4m-4 1h4m-2 1h2m-2 1h2M6 12h4m8 0h2M6 13h4m8 0h2M4 14h2m-2 1h2m-2 1h2m-2 1h2m-2 1h2m-2 1h2m-2 1h4m-4 1h4m-4 1h2m-2 1h2"/><path stroke="#f7f688" d="M16 10h2m2 0h2m-6 1h2m2 0h2"/><path stroke="#1a946c" d="M14 12h4m2 0h2m-8 1h4m2 0h2M6 14h4m16 0h2M6 15h4m16 0h2M6 16h2m2 0h4m8 0h6M6 17h2m2 0h4m8 0h6m-16 1h4m4 0h2m4 0h2m-16 1h4m4 0h2m4 0h2m-14 1h6m4 0h4m-14 1h6m4 0h4m-2 1h2m-2 1h2m-16 1h2m6 0h2m-10 1h2m6 0h2m-8 1h2m6 0h2m-10 1h2m6 0h2m-10 1h2m6 0h2m-10 1h2m6 0h2"/><path stroke="#0b5d40" d="M12 14h2m8 0h2m-12 1h2m8 0h2M8 16h2m4 0h2m4 0h2M8 17h2m4 0h2m4 0h2M6 18h2m2 0h2m4 0h4m2 0h4M6 19h2m2 0h2m4 0h4m2 0h4m-14 1h2m6 0h2m-10 1h2m6 0h2M6 22h2m16 0h2M6 23h2m16 0h2m-14 7h4m4 0h2m-10 1h4m4 0h2"/><path stroke="#0a3001" d="M16 14h4m-4 1h4"/><path stroke="#163d4a" d="M8 18h2m-2 1h2m-2 1h4m10 0h2M8 21h4m10 0h2m-2 1h2m-2 1h2m0 1h2m-2 1h2m-16 7h4m6 0h4m-14 1h4m6 0h4"/><path stroke="#331b1a" d="M10 22h2m-2 1h2m4 5h4m-4 1h4"/><path stroke="#966949" d="M12 22h2m6 0h2m-10 1h2m6 0h2"/><path stroke="#af8568" d="M14 22h2m2 0h2m-6 1h2m2 0h2"/><path stroke="#c3a389" d="M16 22h2m-2 1h2"/><path stroke="#833e11" d="M14 24h6m-6 1h6"/><path stroke="#532918" d="M16 26h4m-4 1h4"/></svg>