<svg xmlns="http://www.w3.org/2000/svg" width="32" height="32" shape-rendering="crispEdges" viewBox="0 -0.5 36 37"><path stroke="#12173d" d="M6 6h6m4 0h2m2 0h2m4 0h4M6 7h6m4 0h2m2 0h2m4 0h4M4 8h2m6 0h4m2 0h2m2 0h4m4 0h2M4 9h2m6 0h4m2 0h2m2 0h4m4 0h2M2 10h2m26 0h2M2 11h2m26 0h2M2 12h2m26 0h2M2 13h2m26 0h2M2 14h2m26 0h2M2 15h2m26 0h2M2 16h2m22 0h2m2 0h2M2 17h2m22 0h2m2 0h2M2 18h2m2 0h4m14 0h2m2 0h2M2 19h2m2 0h4m14 0h2m2 0h2M4 20h2m4 0h2m12 0h2M4 21h2m4 0h2m12 0h2m-16 1h2m12 0h2m-16 1h2m12 0h2m-16 1h2m8 0h2m2 0h2m-16 1h2m8 0h2m2 0h2m-14 1h4m2 0h2m2 0h2m-12 1h4m2 0h2m2 0h2m-8 1h2m-2 1h2"/><path stroke="#8cff9b" d="M6 8h6M6 9h6m-8 1h2m10 0h8M4 11h2m10 0h8M4 12h2m-2 1h2m-2 1h2m-2 1h2m-2 1h2m-2 1h2"/><path stroke="#ffd3ad" d="M16 8h2m2 0h2m-6 1h2m2 0h2"/><path stroke="#42bc7f" d="M26 8h4m-4 1h4m-18 1h4m12 0h2m-18 1h4m12 0h2m-14 1h2m2 0h2m6 0h2m-14 1h2m2 0h2m6 0h2m-12 1h6m4 0h2m-12 1h6m4 0h2m-18 1h2m-2 1h2M4 18h2m6 0h2M4 19h2m6 0h2m0 1h2m-2 1h2m-4 1h2m-2 1h2m-2 1h2m-2 1h2"/><path stroke="#ffccd0" d="M6 10h2m-2 1h2m8 9h4m-4 1h4"/><path stroke="#f29faa" d="M8 10h4m14 0h2M8 11h4m14 0h2M6 12h2m-2 1h2m-2 1h2m-2 1h2m-2 1h2m-2 1h2m8 1h4m-4 1h4"/><path stroke="#0f4a4c" d="M24 10h2m-2 1h2m-14 1h2m10 0h2m-14 1h2m10 0h2m-12 1h2m8 0h2m-12 1h2m8 0h2m-16 1h2m4 0h8m-14 1h2m4 0h8m-14 1h2m2 0h2m4 0h2m-12 1h2m2 0h2m4 0h2m-10 1h2m8 0h2m-12 1h2m8 0h2m-10 1h2m4 0h2m-8 1h2m4 0h2m-8 1h2m2 0h2m-6 1h2m2 0h2"/><path stroke="#cc817a" d="M8 12h4m14 0h2M8 13h4m14 0h2M8 14h4m14 0h2M8 15h4m14 0h2M8 16h2m14 0h2M8 17h2m14 0h2m-10 5h4m-4 1h4"/><path stroke="#22896e" d="M14 12h2m-2 1h2m-4 1h2m2 0h2m-6 1h2m2 0h2m-4 1h2m12 0h2m-16 1h2m12 0h2m-8 1h2m-2 1h2m-4 1h2m-2 1h2m0 1h2m-2 1h2m-8 1h2m4 0h2m-8 1h2m4 0h2m-8 1h2m-2 1h2"/><path stroke="#dd3745" d="M18 12h2m2 0h2m-6 1h2m2 0h2"/></svg>