<svg xmlns="http://www.w3.org/2000/svg" width="32" height="32" shape-rendering="crispEdges" viewBox="0 -0.5 36 36"><path stroke="#1c0b21" d="M12 6h6m-6 1h6m-8 1h2m6 0h2M10 9h2m6 0h2M8 10h2m10 0h2M8 11h2m10 0h2M6 12h2m14 0h2M6 13h2m14 0h2M6 14h2m14 0h2M6 15h2m14 0h2M6 16h2m14 0h2M6 17h2m14 0h2M6 18h2m14 0h2M6 19h2m14 0h2M6 20h2m16 0h2M6 21h2m16 0h2M4 22h2m20 0h2M4 23h2m20 0h2M4 24h2m18 0h2M4 25h2m18 0h2M6 26h2m8 0h2m4 0h2M6 27h2m8 0h2m4 0h2M8 28h2m2 0h4m2 0h4M8 29h2m2 0h4m2 0h4m-12 1h2m-2 1h2"/><path stroke="#ffe7ad" d="M12 8h6m-6 1h6m-8 1h2m6 0h2m-10 1h2m6 0h2M8 12h2m-2 1h2m-2 1h2m-2 1h2"/><path stroke="#efd28b" d="M12 10h6m-6 1h6m-8 1h2m8 0h2m-12 1h2m8 0h2"/><path stroke="#dfae65" d="M12 12h2m4 0h2m-8 1h2m4 0h2m-10 1h2m8 0h2m-12 1h2m8 0h2M8 16h2m-2 1h2"/><path stroke="#30626d" d="M14 12h4m-4 1h4m-6 1h2m-2 1h2m-2 1h2m-2 1h2"/><path stroke="#75a3a8" d="M14 14h4m-4 1h4m-4 1h2m-2 1h2"/><path stroke="#163d4a" d="M18 14h2m-2 1h2m-2 1h2m-2 1h2m-6 1h4m-4 1h4"/><path stroke="#be8f44" d="M10 16h2m8 0h2m-12 1h2m8 0h2m-12 1h4m-4 1h4"/><path stroke="#afc8c8" d="M16 16h2m-2 1h2"/><path stroke="#a91d18" d="M8 18h2m-2 1h2m0 1h2m-2 1h2m10 1h2m-2 1h2m-14 3h2m6 0h2m-10 1h2m6 0h2"/><path stroke="#947e31" d="M18 18h2m-2 1h2m-8 1h6m-6 1h6"/><path stroke="#676920" d="M20 18h2m-2 1h2m-4 1h2m-2 1h2m-6 1h2m-2 1h2"/><path stroke="#8d1123" d="M8 20h2m-2 1h2m2 1h2m2 0h2m-6 1h2m2 0h2m-6 1h2m2 0h2m-6 1h2m2 0h2"/><path stroke="#650c25" d="M20 20h2m-2 1h2m-12 1h2m6 0h2m-10 1h2m6 0h2m-6 3h2m-2 1h2"/><path stroke="#380b2a" d="M22 20h2m-2 1h2M8 22h2m10 0h2M8 23h2m10 0h2M8 24h4m2 0h2m2 0h6M8 25h4m2 0h2m2 0h6M8 26h2m2 0h2m-6 1h2m2 0h2"/><path stroke="#ca614e" d="M6 22h2m16 0h2M6 23h2m16 0h2M6 24h2m-2 1h2m12 1h2m-2 1h2m-12 1h2m-2 1h2"/></svg>