<svg xmlns="http://www.w3.org/2000/svg" width="32" height="32" shape-rendering="crispEdges" viewBox="0 -0.5 36 37"><path stroke="#120a1a" d="M16 4h4m-4 1h4m-6 1h2m4 0h2m-8 1h2m4 0h2M12 8h2m8 0h2M12 9h2m8 0h2m-14 1h2m12 0h2m-16 1h2m12 0h2M8 12h2m16 0h2M8 13h2m16 0h2M6 14h2m20 0h2M6 15h2m20 0h2M4 16h2m22 0h2M4 17h2m22 0h2M4 18h2m4 0h2m12 0h2m2 0h2M4 19h2m4 0h2m12 0h2m2 0h2M4 20h2m2 0h2m2 0h2m8 0h2m4 0h2M4 21h2m2 0h2m2 0h2m8 0h2m4 0h2M4 22h2m4 0h4m8 0h6M4 23h2m4 0h4m8 0h6M6 24h4m2 0h2m8 0h2M6 25h4m2 0h2m8 0h2m-12 1h2m8 0h2m-12 1h2m8 0h2m-12 1h2m8 0h2m-12 1h2m8 0h2m-14 1h2m12 0h2m-16 1h2m12 0h2m-16 1h2m12 0h2m-16 1h2m12 0h2M8 34h2m16 0h2M8 35h2m16 0h2"/><path stroke="#8bf5c6" d="M16 6h4m-4 1h4m-8 3h2m-2 1h2m-4 1h2m-2 1h2m-4 1h2m-2 1h2m-4 1h2m-2 1h2"/><path stroke="#4cc5e4" d="M14 8h8m-8 1h8m0 1h2m-2 1h2m-12 1h2m8 0h4m-14 1h2m8 0h4m-14 1h4m4 0h4m2 0h2m-16 1h4m4 0h4m2 0h2m-14 1h8m4 0h2m-14 1h8m4 0h2M6 18h2m18 0h2M6 19h2m18 0h2M6 20h2m16 0h4M6 21h2m16 0h4M6 22h4m6 0h6M6 23h4m6 0h6m-8 1h2m-2 1h2m0 1h6m-6 1h6m-8 1h2m-2 1h2m0 1h8m-8 1h8m-12 1h4m-4 1h4"/><path stroke="#47f" d="M14 10h2m2 0h2m-6 1h2m2 0h2m-4 1h4m-4 1h4m-10 1h2m12 0h2m-16 1h2m12 0h2M8 16h2m2 0h2m8 0h2M8 17h2m2 0h2m8 0h2m-10 1h8m-8 1h8m-8 3h2m-2 1h2m0 1h2m-2 1h2m-4 1h2m-2 1h2m0 1h2m-2 1h2m-6 1h4m-4 1h4m0 1h8m-8 1h8m-14 1h8m-8 1h8"/><path stroke="#cc1825" d="M16 10h2m2 0h2m-6 1h2m2 0h2"/><path stroke="#422490" d="M14 12h2m4 0h2m-8 1h2m4 0h2m-6 1h4m-4 1h4m-10 1h2m12 0h2m-16 1h2m12 0h2M8 18h2m2 0h2m8 0h2M8 19h2m2 0h2m8 0h2m-10 1h8m-8 1h8m-4 3h4m-4 1h4m-4 3h4m-4 1h4m-4 5h8m-8 1h8"/></svg>