<svg xmlns="http://www.w3.org/2000/svg" width="32" height="32" shape-rendering="crispEdges" viewBox="0 -0.5 36 37"><path stroke="#12173d" d="M18 6h2m6 0h2M18 7h2m6 0h2M16 8h2m2 0h2m2 0h2m2 0h2M16 9h2m2 0h2m2 0h2m2 0h2M6 10h10m4 0h4m4 0h4M6 11h10m4 0h4m4 0h4M4 12h2m20 0h2m4 0h2M4 13h2m20 0h2m4 0h2M2 14h2m22 0h2m4 0h2M2 15h2m22 0h2m4 0h2M4 16h2m20 0h2m2 0h2M4 17h2m20 0h2m2 0h2M6 18h2m20 0h2M6 19h2m20 0h2M8 20h2m18 0h2M8 21h2m18 0h2m-20 1h2m16 0h2m-20 1h2m16 0h2m-20 1h2m16 0h2m-20 1h2m16 0h2m-20 1h2m16 0h2m-20 1h2m16 0h2M8 28h2m18 0h2M8 29h2m18 0h2M6 30h2m20 0h2M6 31h2m20 0h2M4 32h2m22 0h2M4 33h2m22 0h2M4 34h2m8 0h2m2 0h2m6 0h2m2 0h2M4 35h2m8 0h2m2 0h2m6 0h2m2 0h2"/><path stroke="#fff" d="M18 8h2m6 0h2M18 9h2m6 0h2M6 12h10m2 0h8m2 0h4M6 13h10m2 0h8m2 0h4M4 14h4m12 0h6M4 15h4m12 0h6m-12 1h2m6 0h2m-10 1h2m6 0h2m-10 1h2m6 0h6m-14 1h2m6 0h6m-16 1h4m-4 1h4m-4 1h4m-4 1h4m-4 1h4m-4 1h4m-4 1h2m-2 1h2m-4 1h4m-4 1h4m-6 1h4m-4 1h4m-6 1h4m-4 1h4m-4 1h8m2 0h2m2 0h2m2 0h2M6 35h8m2 0h2m2 0h2m2 0h2"/><path stroke="#c1d9f2" d="M16 10h4m4 0h4m-12 1h4m4 0h4M8 14h8m2 0h2m8 0h4M8 15h8m2 0h2m8 0h4M6 16h4m8 0h2M6 17h4m8 0h2m0 1h2m-2 1h2m-6 1h2m6 0h2m-10 1h2m6 0h2m-10 1h2m-2 1h2m-2 1h4m-4 1h4m-6 1h2m2 0h6m-10 1h2m2 0h6m-4 1h4m-4 1h4m-12 1h2m8 0h2m-12 1h2m8 0h2m-2 1h2m-2 1h2m-2 1h2m4 0h2m-8 1h2m4 0h2"/><path stroke="#8cdaff" d="M16 12h2m-2 1h2m-8 3h4m14 0h2m-20 1h4m14 0h2M8 18h6m4 0h2M8 19h6m4 0h2m-10 1h2m8 0h2m-12 1h2m8 0h2m-2 1h8m-8 1h8m-12 3h2m8 0h2m-12 1h2m8 0h2m-12 1h2m8 0h2m-12 1h2m8 0h2m-14 1h2m10 0h2m-14 1h2m10 0h2m-14 1h2m10 0h2m-14 1h2m10 0h2"/><path stroke="#3e83d1" d="M16 14h2m-2 1h2m-2 1h2m-2 1h2m-2 1h2m-2 1h2m0 1h2m2 0h2m2 0h2m-10 1h2m2 0h2m2 0h2m-10 1h2m-2 1h2m0 1h8m-8 1h8m-14 3h2m2 0h2m-6 1h2m2 0h2m-4 1h2m2 0h2m2 0h2m-10 1h2m2 0h2m2 0h2m-16 1h4m2 0h2m2 0h2m2 0h2m-16 1h4m2 0h2m2 0h2m2 0h2"/><path stroke="#c37289" d="M20 16h2m2 0h2m-6 1h2m2 0h2"/><path stroke="#f29faa" d="M24 26h2m-2 1h2"/><path stroke="#ffccd0" d="M24 28h2m-2 1h2m-8 1h2m-2 1h2"/><path stroke="#50b9eb" d="M18 32h2m-2 1h2"/></svg>