<svg xmlns="http://www.w3.org/2000/svg" width="32" height="32" shape-rendering="crispEdges" viewBox="0 -0.5 36 37"><path stroke="#12173d" d="M14 10h2m4 0h2m-8 1h2m4 0h2m-10 1h2m2 0h4m2 0h2m-12 1h2m2 0h4m2 0h2m-12 1h2m8 0h2m-12 1h2m8 0h2m-12 1h2m8 0h2m-12 1h2m8 0h2m-12 1h2m8 0h2m-12 1h2m8 0h2M6 20h6m2 0h2m8 0h6M6 21h6m2 0h2m8 0h6M4 22h2m6 0h2m16 0h2M4 23h2m6 0h2m16 0h2M6 24h2m20 0h2M6 25h2m20 0h2M8 26h2m16 0h2M8 27h2m16 0h2m-18 1h2m12 0h2m-16 1h2m12 0h2m-14 1h2m8 0h2m-12 1h2m8 0h2M8 32h6m2 0h2m4 0h2M8 33h6m2 0h2m4 0h2M6 34h2m4 0h2m4 0h2m4 0h2M6 35h2m4 0h2m4 0h2m4 0h2"/><path stroke="#c1d9f2" d="M14 12h2m4 0h2m-8 1h2m4 0h2m-8 1h2m4 0h2m-8 1h2m4 0h2m-8 3h2m-2 1h2m0 1h2m-2 1h2m-2 1h2m2 0h2m4 0h4m-14 1h2m2 0h2m4 0h4M8 24h4m4 0h2M8 25h4m4 0h2m-8 9h2m-2 1h2"/><path stroke="#fff" d="M16 14h4m-4 1h4m-6 1h8m-8 1h8m-4 1h2m-2 1h2m-2 1h6m-6 1h6M6 22h6m-6 1h6m0 1h4m-4 1h4m-2 1h2m6 0h2m-10 1h2m6 0h2m-10 1h2m6 0h2m-10 1h2m6 0h2M8 34h2m6 0h2m4 0h2M8 35h2m6 0h2m4 0h2"/><path stroke="#c37289" d="M16 18h2m2 0h2m-6 1h2m2 0h2"/><path stroke="#3e83d1" d="M14 22h2m8 0h2m-12 1h2m8 0h2m-8 1h6m-6 1h6m-12 1h2m-2 1h2m-2 1h2m-2 1h2m4 3h2m-2 1h2"/><path stroke="#8cdaff" d="M18 22h2m2 0h2m-6 1h2m2 0h2m0 1h4m-4 1h4m-18 1h2m4 0h2m2 0h2m-12 1h2m4 0h2m2 0h2m-6 1h2m2 0h2m-6 1h2m2 0h2m-8 1h2m-2 1h2m-2 1h2m-2 1h2m-2 1h2m-2 1h2"/><path stroke="#f29faa" d="M18 26h2m-2 1h2m-2 3h2m-2 1h2"/><path stroke="#50b9eb" d="M24 26h2m-2 1h2m-10 3h2m2 0h2m-6 1h2m2 0h2m-2 1h2m-2 1h2m-2 1h2m-2 1h2"/><path stroke="#ffccd0" d="M18 28h2m-2 1h2"/></svg>