<svg xmlns="http://www.w3.org/2000/svg" width="32" height="32" shape-rendering="crispEdges" viewBox="0 -0.5 36 37"><path stroke="#120a1a" d="M18 2h2m-2 1h2m-4 1h2m2 0h2m-6 1h2m2 0h2m-8 1h4m2 0h2m-8 1h4m2 0h2M12 8h2m2 0h4m2 0h2M12 9h2m2 0h4m2 0h2m-14 1h4m2 0h2m2 0h2m2 0h2m-16 1h4m2 0h2m2 0h2m2 0h2M6 12h4m2 0h4m4 0h2m2 0h4M6 13h4m2 0h4m4 0h2m2 0h4M4 14h2m2 0h2m2 0h2m8 0h4m2 0h2M4 15h2m2 0h2m2 0h2m8 0h4m2 0h2M4 16h2m2 0h2m14 0h2m2 0h2M4 17h2m2 0h2m14 0h2m2 0h2M6 18h4m14 0h4M6 19h4m14 0h4M6 20h2m18 0h2M6 21h2m18 0h2M6 22h2m18 0h2M6 23h2m18 0h2M6 24h2m18 0h2M6 25h2m18 0h2M8 26h2m14 0h2M8 27h2m14 0h2m-16 1h2m10 0h2m-14 1h2m10 0h2m-12 1h2m6 0h2m-10 1h2m6 0h2m-8 1h6m-6 1h6"/><path stroke="#8bf5c6" d="M18 4h2m-2 1h2m-6 3h2m-2 1h2m2 1h2m2 0h2m-6 1h2m2 0h2m-14 1h2m4 0h4m-10 1h2m4 0h4M6 14h2m2 0h2m2 0h2m2 0h4m4 0h2M6 15h2m2 0h2m2 0h2m2 0h4m4 0h2m-18 1h4m6 0h4m-14 1h4m6 0h4m-14 1h2m10 0h2m-14 1h2m10 0h2M8 20h2m6 0h4m4 0h2M8 21h2m6 0h4m4 0h2M8 22h2m4 0h2m4 0h2m2 0h2M8 23h2m4 0h2m4 0h2m2 0h2M8 24h2m4 0h2m4 0h2m2 0h2M8 25h2m4 0h2m4 0h2m2 0h2m-16 1h2m4 0h4m2 0h2m-14 1h2m4 0h4m2 0h2m-12 1h2m6 0h2m-10 1h2m6 0h2m-8 1h6m-6 1h6"/><path stroke="#4cc5e4" d="M18 6h2m-2 1h2m-6 3h2m-2 1h2m6 1h2m-2 1h2m-8 1h2m-2 1h2M6 16h2m6 0h2m2 0h2m6 0h2M6 17h2m6 0h2m2 0h2m6 0h2m-16 1h2m6 0h2m-10 1h2m6 0h2m-12 1h2m10 0h2m-14 1h2m10 0h2m-14 1h2m-2 1h2m-2 1h2m-2 1h2m0 1h2m-2 1h2m0 1h2m-2 1h2"/><path stroke="#47f" d="M16 16h2m-2 1h2m-4 1h6m-6 1h6m-8 1h4m4 0h2m-10 1h4m4 0h2m-10 1h2m8 0h2m-12 1h2m8 0h2m-12 1h2m8 0h2m-12 1h2m8 0h2m-10 1h2m4 0h2m-8 1h2m4 0h2m-6 1h4m-4 1h4"/><path stroke="#feffe5" d="M16 22h4m-4 1h4m-4 1h4m-4 1h4"/></svg>