<svg xmlns="http://www.w3.org/2000/svg" width="32" height="32" shape-rendering="crispEdges" viewBox="0 -0.5 36 37"><path stroke="#120a1a" d="M8 5h8m10 0h2M8 6h8m10 0h2M6 7h2m6 0h8m2 0h2m2 0h2M6 8h2m6 0h8m2 0h2m2 0h2M4 9h2m4 0h4m8 0h2m2 0h2m2 0h2M4 10h2m4 0h4m8 0h2m2 0h2m2 0h2M4 11h2m2 0h2m12 0h2m2 0h2m2 0h2M4 12h2m2 0h2m12 0h2m2 0h2m2 0h2M2 13h2m2 0h2m12 0h2m4 0h2m4 0h2M2 14h2m2 0h2m12 0h2m4 0h2m4 0h2M2 15h2m2 0h2m12 0h2m6 0h2m2 0h2M2 16h2m2 0h2m12 0h2m6 0h2m2 0h2M4 17h2m2 0h2m10 0h2m2 0h4m2 0h2M4 18h2m2 0h2m10 0h2m2 0h4m2 0h2M6 19h2m14 0h2m2 0h2m2 0h2M6 20h2m14 0h2m2 0h2m2 0h2M6 21h2m16 0h4m2 0h2M6 22h2m16 0h4m2 0h2M6 23h2m14 0h2m2 0h2m2 0h2M6 24h2m14 0h2m2 0h2m2 0h2M6 25h2m12 0h2m4 0h2m2 0h2M6 26h2m12 0h2m4 0h2m2 0h2M6 27h2m12 0h2m6 0h2m2 0h2M6 28h2m12 0h2m6 0h2m2 0h2M4 29h2m14 0h2m6 0h2m2 0h2M4 30h2m14 0h2m6 0h2m2 0h2M4 31h2m14 0h2m4 0h2m4 0h2M4 32h2m14 0h2m4 0h2m4 0h2M4 33h2m12 0h4m4 0h2m2 0h2M4 34h2m12 0h4m4 0h2m2 0h2"/><path stroke="#422490" d="M8 7h6M8 8h6M6 9h4m10 0h2M6 10h4m10 0h2M6 11h2m2 0h2m-6 1h2m2 0h2m-8 1h2m2 0h2m-6 1h2m2 0h2m-6 1h2m2 0h2m-6 1h2m2 0h2"/><path stroke="#926d3c" d="M26 7h2m-2 1h2"/><path stroke="#59607a" d="M14 9h4m-4 1h4m-6 1h2m-2 1h2"/><path stroke="#404863" d="M18 9h2m-2 1h2m-2 1h2m-2 1h2m-10 1h2m-2 1h2m-2 1h2m-2 1h2m-2 1h2m-2 1h2m-2 1h2m-2 1h2m-2 1h2m-2 1h2"/><path stroke="#8b5b37" d="M28 9h2m-2 1h2m-2 1h2m-2 1h2m-2 1h4m-4 1h4m-2 1h2m-2 1h2"/><path stroke="#2a2a41" d="M14 11h2m4 0h2m-8 1h2m4 0h2m-10 1h2m-2 1h2m-2 1h2m-2 1h2m-2 1h2m-2 1h2m-2 1h4m2 0h2m-8 1h4m2 0h2m-8 1h2m2 0h2m-6 1h2m2 0h2m-6 1h2m-2 1h2"/><path stroke="#85c448" d="M16 11h2m-2 1h2m-2 1h2m-2 1h2m-2 1h2m-2 1h2"/><path stroke="#ff82a0" d="M14 13h2m2 0h2m-6 1h2m2 0h2"/><path stroke="#439d40" d="M14 15h2m2 0h2m-6 1h2m2 0h2m-6 1h4m-4 1h4m6 1h2m-2 1h2m-6 1h4m-4 1h4m-14 1h2m-2 1h2m0 1h4m-4 1h4"/><path stroke="#29694e" d="M18 17h2m-2 1h2m-4 1h2m-2 1h2"/><path stroke="#894835" d="M28 17h2m-2 1h2m-2 1h2m-2 1h2m-2 1h2m-2 1h2m-2 1h2m-2 1h2m-2 1h2m-2 1h2"/><path stroke="#81173f" d="M8 19h2m10 0h2M8 20h2m10 0h2M8 21h2m4 0h2m2 0h2M8 22h2m4 0h2m2 0h2M8 23h2m6 0h2M8 24h2m6 0h2M8 25h2m6 0h2M8 26h2m6 0h2M8 27h2m2 0h2m2 0h2M8 28h2m2 0h2m2 0h2M6 29h2m4 0h2m2 0h2M6 30h2m4 0h2m2 0h2M6 31h2m2 0h2m4 0h2M6 32h2m2 0h2m4 0h2M6 33h2m2 0h2m2 0h2M6 34h2m2 0h2m2 0h2"/><path stroke="#4b0c30" d="M14 23h2m2 0h4m-8 1h2m2 0h4m-12 1h2m6 0h2m-10 1h2m6 0h2m-10 1h2m2 0h2m2 0h2m-10 1h2m2 0h2m2 0h2M8 29h4m2 0h2m2 0h2M8 30h4m2 0h2m2 0h2M8 31h2m2 0h4m2 0h2M8 32h2m2 0h4m2 0h2M8 33h2m2 0h2m2 0h2M8 34h2m2 0h2m2 0h2"/><path stroke="#602631" d="M30 27h2m-2 1h2m-2 1h2m-2 1h2m-4 1h4m-4 1h4m-4 1h2m-2 1h2"/></svg>