<svg xmlns="http://www.w3.org/2000/svg" width="32" height="32" shape-rendering="crispEdges" viewBox="0 -0.5 36 37"><path stroke="#372840" d="M12 2h8m-8 1h8M10 4h2m8 0h2M10 5h2m8 0h2M10 6h2m8 0h2M10 7h2m8 0h2M10 8h2m8 0h2M10 9h2m8 0h2m-12 1h2m8 0h2m-12 1h2m8 0h2m-10 1h2m4 0h2m-8 1h2m4 0h2m-10 1h4m4 0h2m-10 1h4m4 0h2M8 16h2m10 0h2M8 17h2m10 0h2M8 18h2m12 0h4M8 19h2m12 0h4M8 20h2m2 0h2m4 0h2m6 0h2M8 21h2m2 0h2m4 0h2m6 0h2M8 22h2m4 0h2m10 0h2M8 23h2m4 0h2m10 0h2M8 24h2m6 0h2m4 0h4M8 25h2m6 0h2m4 0h4M8 26h2m2 0h2m2 0h6M8 27h2m2 0h2m2 0h6M8 28h2m2 0h2m2 0h2M8 29h2m2 0h2m2 0h2M8 30h2m2 0h2m2 0h2M8 31h2m2 0h2m2 0h2M8 32h2m4 0h2m2 0h2M8 33h2m4 0h2m2 0h2"/><path stroke="#bf2651" d="M12 4h4m-4 1h4m2 11h2m-2 1h2m-6 1h2m-2 1h2m0 1h2m-2 1h2"/><path stroke="#b5e0ba" d="M16 4h4m-4 1h4"/><path stroke="#911d55" d="M12 6h2m-2 1h2m0 13h2m-2 1h2"/><path stroke="#78b392" d="M14 6h6m-6 1h6m-4 1h2m-2 1h2m6 11h2m-2 1h2m-6 1h2m-2 1h2"/><path stroke="#357985" d="M12 8h2m-2 1h2m-2 1h2m-2 1h2m10 11h2m-2 1h2m-6 1h2m-2 1h2"/><path stroke="#3d3957" d="M14 8h2m2 0h2m-6 1h2m2 0h2m-6 3h4m-4 1h4m-6 11h2m-2 1h2m-4 5h2m2 0h2m-6 1h2m2 0h2m-6 1h2m-2 1h2"/><path stroke="#4c8f82" d="M14 10h6m-6 1h6"/><path stroke="#405578" d="M14 14h4m-4 1h4m4 7h2m-2 1h2m-6 1h2m-2 1h2"/><path stroke="#66333d" d="M10 16h2m-2 1h2m-2 1h4m4 0h2m-10 1h4m4 0h2m-10 1h2m8 0h2m-12 1h2m8 0h2m-12 1h2m4 0h2m-8 1h2m4 0h2m-8 1h2m-2 1h2"/><path stroke="#997d76" d="M12 16h2m-2 1h2m6 1h2m-2 1h2m0 1h2m-2 1h2m-6 1h2m-2 1h2"/><path stroke="#5d8bb3" d="M14 16h4m-4 1h4"/><path stroke="#4d6a94" d="M16 18h2m-2 1h2"/><path stroke="#57404e" d="M12 22h2m-2 1h2m0 1h2m-2 1h2"/><path stroke="#524a63" d="M10 26h2m2 0h2m-6 1h2m2 0h2m-6 1h2m2 0h2m-6 1h2m2 0h2m-4 3h2m2 0h2m-6 1h2m2 0h2"/></svg>