<svg xmlns="http://www.w3.org/2000/svg" width="32" height="32" shape-rendering="crispEdges" viewBox="0 -0.5 16 16"><path stroke="#4d1722" d="M5 2h6M4 3h1m6 0h1M3 4h1m8 0h1M3 5h1m8 0h1M3 6h1m8 0h1M3 7h1m8 0h1M3 8h1m8 0h1M3 9h1m8 0h1M3 10h2m6 0h2M3 11h1m1 0h6m1 0h1M3 12h1m1 0h1m4 0h1m1 0h1m-9 1h2m4 0h2"/><path stroke="#e5a732" d="M5 3h1m1 0h2m1 0h1M4 4h1M4 5h1M4 7h1"/><path stroke="#c6801d" d="M6 3h1m2 0h1"/><path stroke="#8e4f24" d="M5 4h1m1 0h2m1 0h1M5 5h1m1 0h5M4 6h2m1 0h2m1 0h2M5 7h1m1 0h2m1 0h2M4 8h2m2 0h1m1 0h1M5 9h1m1 0h2m1 0h1"/><path stroke="#74381c" d="M6 4h1m2 0h1m1 0h1M6 5h1M6 6h1m2 0h1M6 7h1m2 0h1M7 8h1m1 0h1m1 0h1M4 9h1m1 0h1m2 0h1m1 0h1m-7 1h1m1 0h2m1 0h1m-7 1h1m6 0h1m-8 1h1m6 0h1"/><path stroke="#662c2a" d="M6 8h1m-1 2h1m2 0h1"/></svg>