<svg xmlns="http://www.w3.org/2000/svg" width="32" height="32" shape-rendering="crispEdges" viewBox="0 -0.5 16 16"><path stroke="#242c40" d="M2 2h12M1 3h1m12 0h1M1 4h1m12 0h1M1 5h1m12 0h1M1 6h1m12 0h1M1 7h1m12 0h1M1 8h1m12 0h1M1 9h1m12 0h1M1 10h1m12 0h1M1 11h1m12 0h1M1 12h1m12 0h1M1 13h1m12 0h1M1 14h1m12 0h1M2 15h12"/><path stroke="#829fa1" d="M2 3h1m10 0h1M2 4h1m10 0h1M2 5h1m10 0h1M2 6h1m10 0h1M2 7h1m10 0h1M7 8h2"/><path stroke="#e5a732" d="M3 3h3m1 0h2m1 0h1M3 4h1M3 5h1M3 7h1"/><path stroke="#8e4f24" d="M6 3h1m2 0h1m1 0h2M4 4h9M4 5h9M3 6h10M4 7h9"/><path stroke="#687f88" d="M2 8h1m3 0h1m2 0h1m3 0h1M2 9h1m4 0h2m4 0h1m-8 1h1m2 0h1m-3 1h2"/><path stroke="#74381c" d="M3 8h3m4 0h3M3 9h3m4 0h3m-9 3h2m4 0h2m-8 1h8"/><path stroke="#52636d" d="M6 9h1m2 0h1m-8 1h4m4 0h4M2 11h1m3 0h1m2 0h1m3 0h1M2 12h1m10 0h1M2 13h1m10 0h1M2 14h12"/><path stroke="#394451" d="M7 10h2"/><path stroke="#662c2a" d="M3 11h3m4 0h3M3 12h1m2 0h4m2 0h1M3 13h1m8 0h1"/></svg>