<svg xmlns="http://www.w3.org/2000/svg" width="32" height="32" shape-rendering="crispEdges" viewBox="0 -0.5 16 16"><path stroke="#4d1722" d="M6 3h4M5 4h1m4 0h1M4 5h1m6 0h1M4 6h1m6 0h1M4 7h1m6 0h1M4 8h1m6 0h1M4 9h1m6 0h1m-8 1h1m6 0h1m-7 1h1m4 0h1m-5 1h4"/><path stroke="#fbd269" d="M6 4h1M5 5h1M5 6h1M5 7h1M5 8h1"/><path stroke="#fbb954" d="M7 4h1M6 5h3M8 6h1M8 7h1M8 8h1M5 9h1m2 0h1m-4 1h4m-3 1h2"/><path stroke="#e6904e" d="M8 4h1m0 1h1M9 6h1M7 7h1m1 0h1M7 8h1m1 0h1M7 9h1m1 0h1m-1 1h1m-2 1h1"/><path stroke="#7a3045" d="M9 4h1m0 1h1M6 6h2m2 0h1M6 7h1m3 0h1M6 8h1m3 0h1M6 9h1m3 0h1m-1 1h1m-2 1h1"/></svg>