<svg xmlns="http://www.w3.org/2000/svg" width="32" height="32" shape-rendering="crispEdges" viewBox="0 -0.5 16 16"><path stroke="#4d1722" d="M2 0h12M1 1h1m12 0h1M1 2h1m12 0h1M1 3h1m12 0h1M1 4h1m12 0h1M1 5h1m12 0h1M1 6h1m12 0h1M1 7h1m12 0h1M1 8h1m12 0h1M1 9h1m12 0h1M1 10h1m12 0h1M1 11h1m12 0h1M1 12h1m12 0h1M1 13h1m12 0h1M1 14h1m12 0h1M2 15h12"/><path stroke="#e5a732" d="M2 1h1m10 0h1M2 7h1m10 0h1"/><path stroke="#c6801d" d="M3 1h10M2 2h1m10 0h1M2 3h1m10 0h1M2 4h1m10 0h1M2 5h1m10 0h1M2 6h1m10 0h1M3 7h10M2 8h1m10 0h1"/><path stroke="#662c2a" d="M3 2h10m-1 1h1m-1 1h1m-1 1h1m-1 1h1M3 9h10m-1 1h1m-1 1h1m-1 1h1m-1 1h1"/><path stroke="#74381c" d="M3 3h1m2 0h1m2 0h1M3 4h1m2 0h1m2 0h1M3 5h1m2 0h1m2 0h1M3 6h9m-9 4h1m2 0h1m2 0h1m-7 1h1m2 0h1m2 0h1m-7 1h1m2 0h1m2 0h1m-7 1h9"/><path stroke="#8e4f24" d="M4 3h2m1 0h2m1 0h2M4 4h2m1 0h2m1 0h2M4 5h2m1 0h2m1 0h2M3 8h10M2 9h1m10 0h1M2 10h1m1 0h2m1 0h2m1 0h2m1 0h1M2 11h1m1 0h2m1 0h2m1 0h2m1 0h1M2 12h1m1 0h2m1 0h2m1 0h2m1 0h1M2 13h1m10 0h1M2 14h12"/></svg>