<svg xmlns="http://www.w3.org/2000/svg" width="32" height="32" shape-rendering="crispEdges" viewBox="0 -0.5 16 16"><path stroke="#4d1722" d="M2 2h12M1 3h1m12 0h1M0 4h1m14 0h1M0 5h1m14 0h1m-1 1h1m-1 1h1m-1 1h1m-1 1h1m-1 1h1m-1 1h1m-1 1h1m-1 1h1M0 14h16"/><path stroke="#e5a732" d="M2 3h2m1 0h3m2 0h1m1 0h1M1 4h1"/><path stroke="#c6801d" d="M4 3h1m6 0h1"/><path stroke="#8e4f24" d="M8 3h2m3 0h1M2 4h2m1 0h6m1 0h3M1 5h3m1 0h6m1 0h3M1 6h1m12 0h1"/><path stroke="#74381c" d="M4 4h1m6 0h1M4 5h1m6 0h1M2 6h2m1 0h6m1 0h2M1 7h3m1 0h5m3 0h2M3 8h1m1 0h4m5 0h1M5 9h4m5 0h1M1 10h3m1 0h4m5 0h1M3 11h1m1 0h5m3 0h2M5 12h6m1 0h3M1 13h3m1 0h6m1 0h3"/><path stroke="#4b161c" d="M0 6h1M0 7h1M0 8h1M0 9h1m-1 1h1m-1 1h1m-1 1h1m-1 1h1"/><path stroke="#662c2a" d="M4 6h1m6 0h1M4 7h1M4 8h1M4 9h1m5 0h3m-9 1h1m-1 1h1m-1 1h1m6 0h1m-8 1h1m6 0h1"/><path stroke="#394451" d="M10 7h3M9 8h1m3 0h1M1 9h3m6 1h3M1 12h3"/><path stroke="#52636d" d="M1 8h1m11 2h1M1 11h1m9 0h2"/><path stroke="#687f88" d="M2 8h1m9 0h1m0 1h1m-5 1h1m-8 1h1m7 0h1"/><path stroke="#829fa1" d="M10 8h2M9 9h1"/></svg>