<svg xmlns="http://www.w3.org/2000/svg" width="32" height="32" shape-rendering="crispEdges" viewBox="0 -0.5 16 16"><path stroke="#4d1722" d="M6 2h4M5 3h1m4 0h1M5 4h1m4 0h1M5 5h1m4 0h1M5 6h1m4 0h1M6 7h1m2 0h1M6 8h1m2 0h1M6 9h1m3 0h1m-5 1h1m2 0h1m-4 1h1m3 0h1m-4 1h3"/><path stroke="#fbb954" d="M6 3h3M6 4h1m1 0h1M6 5h1m1 0h1M6 6h3M7 8h1M7 9h1m-1 1h1m-1 1h1"/><path stroke="#7a3045" d="M9 3h1M9 4h1M9 5h1M9 6h1M8 7h1M8 8h1m0 1h1m-2 1h1m0 1h1"/><path stroke="#e6904e" d="M7 4h1M7 5h1M7 7h1m0 2h1m-1 2h1"/></svg>