<svg xmlns="http://www.w3.org/2000/svg" width="32" height="32" viewBox="0 -0.5 16 16" shape-rendering="crispEdges">
<path stroke="#332018" d="M3 0h10M2 1h1M13 1h1M1 2h1M14 2h1M1 3h1M14 3h1M1 4h1M14 4h1M2 5h1M13 5h1M2 6h1M13 6h1M2 7h1M13 7h1M2 8h1M13 8h1M2 9h1M13 9h1M2 10h12M6 11h1M9 11h1M6 12h1M9 12h1M6 13h1M9 13h1M6 14h1M9 14h1M6 15h4" />
<path stroke="#cc8154" d="M3 1h10M2 2h1M13 2h1M3 4h1M12 4h1M3 5h1M12 5h1M3 6h1M12 6h1M3 7h1M12 7h1M3 8h1M12 8h1M3 9h10M7 12h2M7 13h2" />
<path stroke="#ffa169" d="M3 2h10M2 3h1M13 3h1M5 5h1M7 5h2M10 5h1M5 7h1M7 7h1M9 7h2" />
<path stroke="#664030" d="M3 3h10M2 4h1M13 4h1" />
<path stroke="#99603f" d="M4 4h8M4 5h1M6 5h1M9 5h1M11 5h1M4 6h8M4 7h1M6 7h1M8 7h1M11 7h1M4 8h8M7 11h2M7 14h2" />
</svg>