<svg xmlns="http://www.w3.org/2000/svg" width="32" height="32" shape-rendering="crispEdges" viewBox="0 -0.5 16 16"><path stroke="#495766" d="M0 0h16M0 1h1M0 2h1M0 3h1M0 4h1M0 5h1M0 6h1M0 7h1M0 8h1M0 9h1m-1 1h1m-1 1h1m-1 1h1m-1 1h1m-1 1h1m-1 1h1"/><path stroke="#2e222f" d="M1 1h15M1 2h15M1 3h9m5 0h1M1 4h9m5 0h1M1 5h5m9 0h1M1 6h5m9 0h1M1 7h1m13 0h1M1 8h1m13 0h1M1 9h1m13 0h1M1 10h1m13 0h1M1 11h1m13 0h1M1 12h1m13 0h1M1 13h1m13 0h1M1 14h1m13 0h1M1 15h15"/><path stroke="#625565" d="M10 3h5m-2 1h2m-2 1h2M6 6h3m4 0h2M6 7h3m4 0h2M6 8h3m4 0h2M6 9h3m4 0h2m-9 1h3m4 0h2m-9 1h3m4 0h2m-9 1h3m4 0h2m-9 1h3m4 0h2m-9 1h3m4 0h2"/><path stroke="#7f6c80" d="M10 4h3m-3 1h3m-3 1h3m-3 1h3m-3 1h3m-3 1h3m-3 1h3m-3 1h3m-3 1h3m-3 1h3m-3 1h3"/><path stroke="#3e3546" d="M6 5h4M9 6h1M2 7h4m3 0h1M2 8h4m3 0h1M2 9h4m3 0h1m-8 1h4m3 0h1m-8 1h4m3 0h1m-8 1h4m3 0h1m-8 1h4m3 0h1m-8 1h4m3 0h1"/></svg>