<svg xmlns="http://www.w3.org/2000/svg" width="32" height="32" shape-rendering="crispEdges" viewBox="0 -0.5 32 32"><path stroke="#4d1722" d="M4 1h4m4 0h7m5 0h4M3 2h1m4 0h4m7 0h5m4 0h1M2 3h1m26 0h1M2 4h1m26 0h1M2 5h1m26 0h1M2 6h1m26 0h1M2 7h1m26 0h1M2 8h1m26 0h1M2 9h1m26 0h1M2 10h1m26 0h1M2 11h1m26 0h1M2 12h1m26 0h1M2 13h1m26 0h1M2 14h1m26 0h1M2 15h1m26 0h1M2 16h2m25 0h1M2 17h1m26 0h1M2 18h1m26 0h1M2 19h1m26 0h1M2 20h1m26 0h1M2 21h1m26 0h1M2 22h1m26 0h1M2 23h1m26 0h1M2 24h1m26 0h1M3 25h1m24 0h1M4 26h24M4 27h1m1 0h1m2 0h1m12 0h1m2 0h1m1 0h1M4 28h2m1 0h1m1 0h1m12 0h1m1 0h1m1 0h2M5 29h5m12 0h5"/><path stroke="#e5a732" d="M4 2h3m6 0h3m1 0h1M3 3h1m5 0h2m9 0h1m1 0h1M3 4h1M3 5h1M3 6h1M3 7h1M3 8h1M3 9h1m-1 2h1m-1 2h1"/><path stroke="#c6801d" d="M7 2h1m4 0h1m5 0h1"/><path stroke="#8e4f24" d="M16 2h1m8 0h2M4 3h3m1 0h1m2 0h1m1 0h5m1 0h1m1 0h1m1 0h1m1 0h3M4 4h3m1 0h4m1 0h5m1 0h5m1 0h1m1 0h1M4 5h3m1 0h4m1 0h5m1 0h5m1 0h1m1 0h2M4 6h3m1 0h4m1 0h5m1 0h5m1 0h4M4 7h3m1 0h4m1 0h5m1 0h7m1 0h2M4 8h3m1 0h1m1 0h2m1 0h4m2 0h5m1 0h4M4 9h3m1 0h9m2 0h5m1 0h4M3 10h4m1 0h4m1 0h4m2 0h5m1 0h4M4 11h3m1 0h1m1 0h2m1 0h5m2 0h3m2 0h1m2 0h1M3 12h6m1 0h2m1 0h4m9 0h3M4 13h3m1 0h1m1 0h2m1 0h2m6 0h2m2 0h4M3 14h4m1 0h4m1 0h4m3 0h4m1 0h4M3 15h3m2 0h4m1 0h5m1 0h5m1 0h4M8 16h4m1 0h3m1 0h1m1 0h5m1 0h2m1 0h1M4 17h2m2 0h3m2 0h3m1 0h1m1 0h5m1 0h2m1 0h1M3 18h4m1 0h3m2 0h3m1 0h1m1 0h5m1 0h2m1 0h1M3 19h4m1 0h3m3 0h10m1 0h4M3 20h4m1 0h3m3 0h2m1 0h1m1 0h5m1 0h2m1 0h1M3 21h4m1 0h3m3 0h4m1 0h5m1 0h4M3 22h4m1 0h4m1 0h5m1 0h5m1 0h4M3 23h3m2 0h4m1 0h5m1 0h5m1 0h3M3 24h3m2 0h4m1 0h5m1 0h2m1 0h2m1 0h2M4 25h3m1 0h3m2 0h1m3 0h1m2 0h1m1 0h2m2 0h1"/><path stroke="#74381c" d="M24 2h1m2 0h1M7 3h1m4 0h1m5 0h1m5 0h1m3 0h1M7 4h1m4 0h1m5 0h1m5 0h1m1 0h1m1 0h1M7 5h1m4 0h1m5 0h1m5 0h1m1 0h1M7 6h1m4 0h1m5 0h1m5 0h1M7 7h1m4 0h1m5 0h1m7 0h1M7 8h1m1 0h1m2 0h1m4 0h2m5 0h1M7 9h1m9 0h2m5 0h1M7 10h1m4 0h1m4 0h2m5 0h1M7 11h1m1 0h1m2 0h1m5 0h2m3 0h2m1 0h2M9 12h1m2 0h1m4 0h2m2 0h5M7 13h1m1 0h1m2 0h1m2 0h2m2 0h2m2 0h2M7 14h1m4 0h1m4 0h3m4 0h1M6 15h2m4 0h1m5 0h1m5 0h1M4 16h2m6 0h1m3 0h1m1 0h1m5 0h1m2 0h1M3 17h1m2 0h2m3 0h2m3 0h1m1 0h1m5 0h1m2 0h1M7 18h1m3 0h2m3 0h1m1 0h1m5 0h1m2 0h1M7 19h1m3 0h1m1 0h1m10 0h1M7 20h1m3 0h1m1 0h1m2 0h1m1 0h1m5 0h1m2 0h1M7 21h1m3 0h1m1 0h1m4 0h1m5 0h1M7 22h1m4 0h1m5 0h1m5 0h1M6 23h1m5 0h1m5 0h1m5 0h1m3 0h1M6 24h1m5 0h1m8 0h1m2 0h1m2 0h2M7 25h1m3 0h2m1 0h3m2 0h1m1 0h1m2 0h2m1 0h1M5 27h1m1 0h2m14 0h2m1 0h1M6 28h1m1 0h1m14 0h1m1 0h1"/><path stroke="#662c2a" d="M19 12h2m-4 1h2M6 16h2m4 3h1m-1 1h1m-1 1h1m-6 2h1m-1 1h1m10 0h1m-1 1h1"/></svg>