<svg xmlns="http://www.w3.org/2000/svg" width="32" height="32" shape-rendering="crispEdges" viewBox="0 -0.5 16 16"><path stroke="#394a50" d="M5 0h1M4 1h1m1 0h1M3 2h1m2 0h1m5 0h1M3 3h1m2 0h1m4 0h1m1 0h1M3 4h1m2 0h1m3 0h1m2 0h1m-4 1h1m2 0h1m-4 1h1m2 0h1M7 7h1M6 8h1m1 0h1M5 9h1m2 0h1m-4 1h1m2 0h1m-4 1h1m2 0h1"/><path stroke="#a8b5b2" d="M5 1h1M4 2h1m7 1h1m-2 1h1M7 8h1M6 9h1"/><path stroke="#819796" d="M5 2h1M4 3h2M4 4h2m6 0h1M4 5h2m5 0h2m-2 1h2m-2 1h2M7 9h1m-2 1h2m-2 1h2m-2 1h2"/><path stroke="#577277" d="M3 5h1m2 0h1M4 6h2m4 1h1m2 0h1m-3 1h2m-8 4h1m2 0h1m-3 1h2"/></svg>