<svg xmlns="http://www.w3.org/2000/svg" width="32" height="32" shape-rendering="crispEdges" viewBox="0 -0.5 16 16"><path stroke="#5f253e" d="M6 0h4M5 1h1m4 0h1M4 2h1m6 0h1M4 3h1m6 0h1M4 4h1m6 0h1M4 5h1m6 0h1M4 6h1m6 0h1M5 7h1m4 0h1M4 8h1m1 0h1m2 0h1m1 0h1M3 9h1m8 0h1M3 10h1m8 0h1M3 11h1m8 0h1M3 12h1m8 0h1M3 13h1m8 0h1m-9 1h1m6 0h1m-7 1h6"/><path stroke="#c38e65" d="M6 1h1m2 0h1M5 6h1m4 0h1M6 7h4M5 9h1m4 0h1m-7 1h1m1 0h4m1 0h1m-8 1h1m6 0h1m-8 1h1m6 0h1m-7 1h1m4 0h1m-5 1h1m2 0h1"/><path stroke="#d4a864" d="M7 1h2M5 2h1m4 0h1M5 3h1m4 0h1M5 4h1m4 0h1M5 5h1m4 0h1M6 6h4m-5 4h1m4 0h1m-6 1h6m-6 1h6m-5 1h4m-3 1h2"/><path stroke="#b16c59" d="M6 2h1m2 0h1M6 5h1m2 0h1M5 8h1m4 0h1M4 9h1m1 0h1m2 0h1m1 0h1m-8 4h1m6 0h1m-7 1h1m4 0h1"/><path stroke="#944c4c" d="M7 2h2M6 3h1m2 0h1M7 8h2M7 9h2"/><path stroke="#7f3748" d="M7 3h2M6 4h4M7 5h2"/></svg>